<?xml version="1.0" encoding="utf-8" standalone="no"?>
<!DOCTYPE svg PUBLIC "-//W3C//DTD SVG 1.1//EN"
  "http://www.w3.org/Graphics/SVG/1.1/DTD/svg11.dtd">
<svg xmlns:xlink="http://www.w3.org/1999/xlink" width="847.44pt" height="532.437891pt" viewBox="0 0 847.44 532.437891" xmlns="http://www.w3.org/2000/svg" version="1.1">
 <metadata>
  <rdf:RDF xmlns:dc="http://purl.org/dc/elements/1.1/" xmlns:cc="http://creativecommons.org/ns#" xmlns:rdf="http://www.w3.org/1999/02/22-rdf-syntax-ns#">
   <cc:Work>
    <dc:type rdf:resource="http://purl.org/dc/dcmitype/StillImage"/>
    <dc:date>2026-05-17T15:06:08.886918</dc:date>
    <dc:format>image/svg+xml</dc:format>
    <dc:creator>
     <cc:Agent>
      <dc:title>Matplotlib v3.9.4, https://matplotlib.org/</dc:title>
     </cc:Agent>
    </dc:creator>
   </cc:Work>
  </rdf:RDF>
 </metadata>
 <defs>
  <style type="text/css">*{stroke-linejoin: round; stroke-linecap: butt}</style>
 </defs>
 <g id="figure_1">
  <g id="patch_1">
   <path d="M 0 532.437891 
L 847.44 532.437891 
L 847.44 0 
L 0 0 
z
" style="fill: #1c1c1e"/>
  </g>
  <g id="axes_1">
   <g id="patch_2">
    <path d="M 114.84 471.838125 
L 840.24 471.838125 
L 840.24 28.318125 
L 114.84 28.318125 
z
" style="fill: #2c2c2e"/>
   </g>
   <g id="matplotlib.axis_1">
    <g id="xtick_1">
     <g id="line2d_1">
      <defs>
       <path id="m7034f6671a" d="M 0 0 
L 0 3.5 
" style="stroke: #aeaeb2; stroke-width: 0.8"/>
      </defs>
      <g>
       <use xlink:href="#m7034f6671a" x="146.783937" y="471.838125" style="fill: #aeaeb2; stroke: #aeaeb2; stroke-width: 0.8"/>
      </g>
     </g>
     <g id="text_1">
      <!-- 0 -->
      <g style="fill: #aeaeb2" transform="translate(143.602687 486.436562) scale(0.1 -0.1)">
       <defs>
        <path id="DejaVuSans-30" d="M 2034 4250 
Q 1547 4250 1301 3770 
Q 1056 3291 1056 2328 
Q 1056 1369 1301 889 
Q 1547 409 2034 409 
Q 2525 409 2770 889 
Q 3016 1369 3016 2328 
Q 3016 3291 2770 3770 
Q 2525 4250 2034 4250 
z
M 2034 4750 
Q 2819 4750 3233 4129 
Q 3647 3509 3647 2328 
Q 3647 1150 3233 529 
Q 2819 -91 2034 -91 
Q 1250 -91 836 529 
Q 422 1150 422 2328 
Q 422 3509 836 4129 
Q 1250 4750 2034 4750 
z
" transform="scale(0.015625)"/>
       </defs>
       <use xlink:href="#DejaVuSans-30"/>
      </g>
     </g>
    </g>
    <g id="xtick_2">
     <g id="line2d_2">
      <g>
       <use xlink:href="#m7034f6671a" x="249.662961" y="471.838125" style="fill: #aeaeb2; stroke: #aeaeb2; stroke-width: 0.8"/>
      </g>
     </g>
     <g id="text_2">
      <!-- 10 -->
      <g style="fill: #aeaeb2" transform="translate(243.300461 486.436562) scale(0.1 -0.1)">
       <defs>
        <path id="DejaVuSans-31" d="M 794 531 
L 1825 531 
L 1825 4091 
L 703 3866 
L 703 4441 
L 1819 4666 
L 2450 4666 
L 2450 531 
L 3481 531 
L 3481 0 
L 794 0 
L 794 531 
z
" transform="scale(0.015625)"/>
       </defs>
       <use xlink:href="#DejaVuSans-31"/>
       <use xlink:href="#DejaVuSans-30" x="63.623047"/>
      </g>
     </g>
    </g>
    <g id="xtick_3">
     <g id="line2d_3">
      <g>
       <use xlink:href="#m7034f6671a" x="352.541986" y="471.838125" style="fill: #aeaeb2; stroke: #aeaeb2; stroke-width: 0.8"/>
      </g>
     </g>
     <g id="text_3">
      <!-- 20 -->
      <g style="fill: #aeaeb2" transform="translate(346.179486 486.436562) scale(0.1 -0.1)">
       <defs>
        <path id="DejaVuSans-32" d="M 1228 531 
L 3431 531 
L 3431 0 
L 469 0 
L 469 531 
Q 828 903 1448 1529 
Q 2069 2156 2228 2338 
Q 2531 2678 2651 2914 
Q 2772 3150 2772 3378 
Q 2772 3750 2511 3984 
Q 2250 4219 1831 4219 
Q 1534 4219 1204 4116 
Q 875 4013 500 3803 
L 500 4441 
Q 881 4594 1212 4672 
Q 1544 4750 1819 4750 
Q 2544 4750 2975 4387 
Q 3406 4025 3406 3419 
Q 3406 3131 3298 2873 
Q 3191 2616 2906 2266 
Q 2828 2175 2409 1742 
Q 1991 1309 1228 531 
z
" transform="scale(0.015625)"/>
       </defs>
       <use xlink:href="#DejaVuSans-32"/>
       <use xlink:href="#DejaVuSans-30" x="63.623047"/>
      </g>
     </g>
    </g>
    <g id="xtick_4">
     <g id="line2d_4">
      <g>
       <use xlink:href="#m7034f6671a" x="455.42101" y="471.838125" style="fill: #aeaeb2; stroke: #aeaeb2; stroke-width: 0.8"/>
      </g>
     </g>
     <g id="text_4">
      <!-- 30 -->
      <g style="fill: #aeaeb2" transform="translate(449.05851 486.436562) scale(0.1 -0.1)">
       <defs>
        <path id="DejaVuSans-33" d="M 2597 2516 
Q 3050 2419 3304 2112 
Q 3559 1806 3559 1356 
Q 3559 666 3084 287 
Q 2609 -91 1734 -91 
Q 1441 -91 1130 -33 
Q 819 25 488 141 
L 488 750 
Q 750 597 1062 519 
Q 1375 441 1716 441 
Q 2309 441 2620 675 
Q 2931 909 2931 1356 
Q 2931 1769 2642 2001 
Q 2353 2234 1838 2234 
L 1294 2234 
L 1294 2753 
L 1863 2753 
Q 2328 2753 2575 2939 
Q 2822 3125 2822 3475 
Q 2822 3834 2567 4026 
Q 2313 4219 1838 4219 
Q 1578 4219 1281 4162 
Q 984 4106 628 3988 
L 628 4550 
Q 988 4650 1302 4700 
Q 1616 4750 1894 4750 
Q 2613 4750 3031 4423 
Q 3450 4097 3450 3541 
Q 3450 3153 3228 2886 
Q 3006 2619 2597 2516 
z
" transform="scale(0.015625)"/>
       </defs>
       <use xlink:href="#DejaVuSans-33"/>
       <use xlink:href="#DejaVuSans-30" x="63.623047"/>
      </g>
     </g>
    </g>
    <g id="xtick_5">
     <g id="line2d_5">
      <g>
       <use xlink:href="#m7034f6671a" x="558.300034" y="471.838125" style="fill: #aeaeb2; stroke: #aeaeb2; stroke-width: 0.8"/>
      </g>
     </g>
     <g id="text_5">
      <!-- 40 -->
      <g style="fill: #aeaeb2" transform="translate(551.937534 486.436562) scale(0.1 -0.1)">
       <defs>
        <path id="DejaVuSans-34" d="M 2419 4116 
L 825 1625 
L 2419 1625 
L 2419 4116 
z
M 2253 4666 
L 3047 4666 
L 3047 1625 
L 3713 1625 
L 3713 1100 
L 3047 1100 
L 3047 0 
L 2419 0 
L 2419 1100 
L 313 1100 
L 313 1709 
L 2253 4666 
z
" transform="scale(0.015625)"/>
       </defs>
       <use xlink:href="#DejaVuSans-34"/>
       <use xlink:href="#DejaVuSans-30" x="63.623047"/>
      </g>
     </g>
    </g>
    <g id="xtick_6">
     <g id="line2d_6">
      <g>
       <use xlink:href="#m7034f6671a" x="661.179058" y="471.838125" style="fill: #aeaeb2; stroke: #aeaeb2; stroke-width: 0.8"/>
      </g>
     </g>
     <g id="text_6">
      <!-- 50 -->
      <g style="fill: #aeaeb2" transform="translate(654.816558 486.436562) scale(0.1 -0.1)">
       <defs>
        <path id="DejaVuSans-35" d="M 691 4666 
L 3169 4666 
L 3169 4134 
L 1269 4134 
L 1269 2991 
Q 1406 3038 1543 3061 
Q 1681 3084 1819 3084 
Q 2600 3084 3056 2656 
Q 3513 2228 3513 1497 
Q 3513 744 3044 326 
Q 2575 -91 1722 -91 
Q 1428 -91 1123 -41 
Q 819 9 494 109 
L 494 744 
Q 775 591 1075 516 
Q 1375 441 1709 441 
Q 2250 441 2565 725 
Q 2881 1009 2881 1497 
Q 2881 1984 2565 2268 
Q 2250 2553 1709 2553 
Q 1456 2553 1204 2497 
Q 953 2441 691 2322 
L 691 4666 
z
" transform="scale(0.015625)"/>
       </defs>
       <use xlink:href="#DejaVuSans-35"/>
       <use xlink:href="#DejaVuSans-30" x="63.623047"/>
      </g>
     </g>
    </g>
    <g id="xtick_7">
     <g id="line2d_7">
      <g>
       <use xlink:href="#m7034f6671a" x="764.058083" y="471.838125" style="fill: #aeaeb2; stroke: #aeaeb2; stroke-width: 0.8"/>
      </g>
     </g>
     <g id="text_7">
      <!-- 60 -->
      <g style="fill: #aeaeb2" transform="translate(757.695583 486.436562) scale(0.1 -0.1)">
       <defs>
        <path id="DejaVuSans-36" d="M 2113 2584 
Q 1688 2584 1439 2293 
Q 1191 2003 1191 1497 
Q 1191 994 1439 701 
Q 1688 409 2113 409 
Q 2538 409 2786 701 
Q 3034 994 3034 1497 
Q 3034 2003 2786 2293 
Q 2538 2584 2113 2584 
z
M 3366 4563 
L 3366 3988 
Q 3128 4100 2886 4159 
Q 2644 4219 2406 4219 
Q 1781 4219 1451 3797 
Q 1122 3375 1075 2522 
Q 1259 2794 1537 2939 
Q 1816 3084 2150 3084 
Q 2853 3084 3261 2657 
Q 3669 2231 3669 1497 
Q 3669 778 3244 343 
Q 2819 -91 2113 -91 
Q 1303 -91 875 529 
Q 447 1150 447 2328 
Q 447 3434 972 4092 
Q 1497 4750 2381 4750 
Q 2619 4750 2861 4703 
Q 3103 4656 3366 4563 
z
" transform="scale(0.015625)"/>
       </defs>
       <use xlink:href="#DejaVuSans-36"/>
       <use xlink:href="#DejaVuSans-30" x="63.623047"/>
      </g>
     </g>
    </g>
    <g id="text_8">
     <!-- Fires per week (trading frequency) -->
     <g style="fill: #aeaeb2" transform="translate(391.249375 500.114687) scale(0.1 -0.1)">
      <defs>
       <path id="DejaVuSans-46" d="M 628 4666 
L 3309 4666 
L 3309 4134 
L 1259 4134 
L 1259 2759 
L 3109 2759 
L 3109 2228 
L 1259 2228 
L 1259 0 
L 628 0 
L 628 4666 
z
" transform="scale(0.015625)"/>
       <path id="DejaVuSans-69" d="M 603 3500 
L 1178 3500 
L 1178 0 
L 603 0 
L 603 3500 
z
M 603 4863 
L 1178 4863 
L 1178 4134 
L 603 4134 
L 603 4863 
z
" transform="scale(0.015625)"/>
       <path id="DejaVuSans-72" d="M 2631 2963 
Q 2534 3019 2420 3045 
Q 2306 3072 2169 3072 
Q 1681 3072 1420 2755 
Q 1159 2438 1159 1844 
L 1159 0 
L 581 0 
L 581 3500 
L 1159 3500 
L 1159 2956 
Q 1341 3275 1631 3429 
Q 1922 3584 2338 3584 
Q 2397 3584 2469 3576 
Q 2541 3569 2628 3553 
L 2631 2963 
z
" transform="scale(0.015625)"/>
       <path id="DejaVuSans-65" d="M 3597 1894 
L 3597 1613 
L 953 1613 
Q 991 1019 1311 708 
Q 1631 397 2203 397 
Q 2534 397 2845 478 
Q 3156 559 3463 722 
L 3463 178 
Q 3153 47 2828 -22 
Q 2503 -91 2169 -91 
Q 1331 -91 842 396 
Q 353 884 353 1716 
Q 353 2575 817 3079 
Q 1281 3584 2069 3584 
Q 2775 3584 3186 3129 
Q 3597 2675 3597 1894 
z
M 3022 2063 
Q 3016 2534 2758 2815 
Q 2500 3097 2075 3097 
Q 1594 3097 1305 2825 
Q 1016 2553 972 2059 
L 3022 2063 
z
" transform="scale(0.015625)"/>
       <path id="DejaVuSans-73" d="M 2834 3397 
L 2834 2853 
Q 2591 2978 2328 3040 
Q 2066 3103 1784 3103 
Q 1356 3103 1142 2972 
Q 928 2841 928 2578 
Q 928 2378 1081 2264 
Q 1234 2150 1697 2047 
L 1894 2003 
Q 2506 1872 2764 1633 
Q 3022 1394 3022 966 
Q 3022 478 2636 193 
Q 2250 -91 1575 -91 
Q 1294 -91 989 -36 
Q 684 19 347 128 
L 347 722 
Q 666 556 975 473 
Q 1284 391 1588 391 
Q 1994 391 2212 530 
Q 2431 669 2431 922 
Q 2431 1156 2273 1281 
Q 2116 1406 1581 1522 
L 1381 1569 
Q 847 1681 609 1914 
Q 372 2147 372 2553 
Q 372 3047 722 3315 
Q 1072 3584 1716 3584 
Q 2034 3584 2315 3537 
Q 2597 3491 2834 3397 
z
" transform="scale(0.015625)"/>
       <path id="DejaVuSans-20" transform="scale(0.015625)"/>
       <path id="DejaVuSans-70" d="M 1159 525 
L 1159 -1331 
L 581 -1331 
L 581 3500 
L 1159 3500 
L 1159 2969 
Q 1341 3281 1617 3432 
Q 1894 3584 2278 3584 
Q 2916 3584 3314 3078 
Q 3713 2572 3713 1747 
Q 3713 922 3314 415 
Q 2916 -91 2278 -91 
Q 1894 -91 1617 61 
Q 1341 213 1159 525 
z
M 3116 1747 
Q 3116 2381 2855 2742 
Q 2594 3103 2138 3103 
Q 1681 3103 1420 2742 
Q 1159 2381 1159 1747 
Q 1159 1113 1420 752 
Q 1681 391 2138 391 
Q 2594 391 2855 752 
Q 3116 1113 3116 1747 
z
" transform="scale(0.015625)"/>
       <path id="DejaVuSans-77" d="M 269 3500 
L 844 3500 
L 1563 769 
L 2278 3500 
L 2956 3500 
L 3675 769 
L 4391 3500 
L 4966 3500 
L 4050 0 
L 3372 0 
L 2619 2869 
L 1863 0 
L 1184 0 
L 269 3500 
z
" transform="scale(0.015625)"/>
       <path id="DejaVuSans-6b" d="M 581 4863 
L 1159 4863 
L 1159 1991 
L 2875 3500 
L 3609 3500 
L 1753 1863 
L 3688 0 
L 2938 0 
L 1159 1709 
L 1159 0 
L 581 0 
L 581 4863 
z
" transform="scale(0.015625)"/>
       <path id="DejaVuSans-28" d="M 1984 4856 
Q 1566 4138 1362 3434 
Q 1159 2731 1159 2009 
Q 1159 1288 1364 580 
Q 1569 -128 1984 -844 
L 1484 -844 
Q 1016 -109 783 600 
Q 550 1309 550 2009 
Q 550 2706 781 3412 
Q 1013 4119 1484 4856 
L 1984 4856 
z
" transform="scale(0.015625)"/>
       <path id="DejaVuSans-74" d="M 1172 4494 
L 1172 3500 
L 2356 3500 
L 2356 3053 
L 1172 3053 
L 1172 1153 
Q 1172 725 1289 603 
Q 1406 481 1766 481 
L 2356 481 
L 2356 0 
L 1766 0 
Q 1100 0 847 248 
Q 594 497 594 1153 
L 594 3053 
L 172 3053 
L 172 3500 
L 594 3500 
L 594 4494 
L 1172 4494 
z
" transform="scale(0.015625)"/>
       <path id="DejaVuSans-61" d="M 2194 1759 
Q 1497 1759 1228 1600 
Q 959 1441 959 1056 
Q 959 750 1161 570 
Q 1363 391 1709 391 
Q 2188 391 2477 730 
Q 2766 1069 2766 1631 
L 2766 1759 
L 2194 1759 
z
M 3341 1997 
L 3341 0 
L 2766 0 
L 2766 531 
Q 2569 213 2275 61 
Q 1981 -91 1556 -91 
Q 1019 -91 701 211 
Q 384 513 384 1019 
Q 384 1609 779 1909 
Q 1175 2209 1959 2209 
L 2766 2209 
L 2766 2266 
Q 2766 2663 2505 2880 
Q 2244 3097 1772 3097 
Q 1472 3097 1187 3025 
Q 903 2953 641 2809 
L 641 3341 
Q 956 3463 1253 3523 
Q 1550 3584 1831 3584 
Q 2591 3584 2966 3190 
Q 3341 2797 3341 1997 
z
" transform="scale(0.015625)"/>
       <path id="DejaVuSans-64" d="M 2906 2969 
L 2906 4863 
L 3481 4863 
L 3481 0 
L 2906 0 
L 2906 525 
Q 2725 213 2448 61 
Q 2172 -91 1784 -91 
Q 1150 -91 751 415 
Q 353 922 353 1747 
Q 353 2572 751 3078 
Q 1150 3584 1784 3584 
Q 2172 3584 2448 3432 
Q 2725 3281 2906 2969 
z
M 947 1747 
Q 947 1113 1208 752 
Q 1469 391 1925 391 
Q 2381 391 2643 752 
Q 2906 1113 2906 1747 
Q 2906 2381 2643 2742 
Q 2381 3103 1925 3103 
Q 1469 3103 1208 2742 
Q 947 2381 947 1747 
z
" transform="scale(0.015625)"/>
       <path id="DejaVuSans-6e" d="M 3513 2113 
L 3513 0 
L 2938 0 
L 2938 2094 
Q 2938 2591 2744 2837 
Q 2550 3084 2163 3084 
Q 1697 3084 1428 2787 
Q 1159 2491 1159 1978 
L 1159 0 
L 581 0 
L 581 3500 
L 1159 3500 
L 1159 2956 
Q 1366 3272 1645 3428 
Q 1925 3584 2291 3584 
Q 2894 3584 3203 3211 
Q 3513 2838 3513 2113 
z
" transform="scale(0.015625)"/>
       <path id="DejaVuSans-67" d="M 2906 1791 
Q 2906 2416 2648 2759 
Q 2391 3103 1925 3103 
Q 1463 3103 1205 2759 
Q 947 2416 947 1791 
Q 947 1169 1205 825 
Q 1463 481 1925 481 
Q 2391 481 2648 825 
Q 2906 1169 2906 1791 
z
M 3481 434 
Q 3481 -459 3084 -895 
Q 2688 -1331 1869 -1331 
Q 1566 -1331 1297 -1286 
Q 1028 -1241 775 -1147 
L 775 -588 
Q 1028 -725 1275 -790 
Q 1522 -856 1778 -856 
Q 2344 -856 2625 -561 
Q 2906 -266 2906 331 
L 2906 616 
Q 2728 306 2450 153 
Q 2172 0 1784 0 
Q 1141 0 747 490 
Q 353 981 353 1791 
Q 353 2603 747 3093 
Q 1141 3584 1784 3584 
Q 2172 3584 2450 3431 
Q 2728 3278 2906 2969 
L 2906 3500 
L 3481 3500 
L 3481 434 
z
" transform="scale(0.015625)"/>
       <path id="DejaVuSans-66" d="M 2375 4863 
L 2375 4384 
L 1825 4384 
Q 1516 4384 1395 4259 
Q 1275 4134 1275 3809 
L 1275 3500 
L 2222 3500 
L 2222 3053 
L 1275 3053 
L 1275 0 
L 697 0 
L 697 3053 
L 147 3053 
L 147 3500 
L 697 3500 
L 697 3744 
Q 697 4328 969 4595 
Q 1241 4863 1831 4863 
L 2375 4863 
z
" transform="scale(0.015625)"/>
       <path id="DejaVuSans-71" d="M 947 1747 
Q 947 1113 1208 752 
Q 1469 391 1925 391 
Q 2381 391 2643 752 
Q 2906 1113 2906 1747 
Q 2906 2381 2643 2742 
Q 2381 3103 1925 3103 
Q 1469 3103 1208 2742 
Q 947 2381 947 1747 
z
M 2906 525 
Q 2725 213 2448 61 
Q 2172 -91 1784 -91 
Q 1150 -91 751 415 
Q 353 922 353 1747 
Q 353 2572 751 3078 
Q 1150 3584 1784 3584 
Q 2172 3584 2448 3432 
Q 2725 3281 2906 2969 
L 2906 3500 
L 3481 3500 
L 3481 -1331 
L 2906 -1331 
L 2906 525 
z
" transform="scale(0.015625)"/>
       <path id="DejaVuSans-75" d="M 544 1381 
L 544 3500 
L 1119 3500 
L 1119 1403 
Q 1119 906 1312 657 
Q 1506 409 1894 409 
Q 2359 409 2629 706 
Q 2900 1003 2900 1516 
L 2900 3500 
L 3475 3500 
L 3475 0 
L 2900 0 
L 2900 538 
Q 2691 219 2414 64 
Q 2138 -91 1772 -91 
Q 1169 -91 856 284 
Q 544 659 544 1381 
z
M 1991 3584 
L 1991 3584 
z
" transform="scale(0.015625)"/>
       <path id="DejaVuSans-63" d="M 3122 3366 
L 3122 2828 
Q 2878 2963 2633 3030 
Q 2388 3097 2138 3097 
Q 1578 3097 1268 2742 
Q 959 2388 959 1747 
Q 959 1106 1268 751 
Q 1578 397 2138 397 
Q 2388 397 2633 464 
Q 2878 531 3122 666 
L 3122 134 
Q 2881 22 2623 -34 
Q 2366 -91 2075 -91 
Q 1284 -91 818 406 
Q 353 903 353 1747 
Q 353 2603 823 3093 
Q 1294 3584 2113 3584 
Q 2378 3584 2631 3529 
Q 2884 3475 3122 3366 
z
" transform="scale(0.015625)"/>
       <path id="DejaVuSans-79" d="M 2059 -325 
Q 1816 -950 1584 -1140 
Q 1353 -1331 966 -1331 
L 506 -1331 
L 506 -850 
L 844 -850 
Q 1081 -850 1212 -737 
Q 1344 -625 1503 -206 
L 1606 56 
L 191 3500 
L 800 3500 
L 1894 763 
L 2988 3500 
L 3597 3500 
L 2059 -325 
z
" transform="scale(0.015625)"/>
       <path id="DejaVuSans-29" d="M 513 4856 
L 1013 4856 
Q 1481 4119 1714 3412 
Q 1947 2706 1947 2009 
Q 1947 1309 1714 600 
Q 1481 -109 1013 -844 
L 513 -844 
Q 928 -128 1133 580 
Q 1338 1288 1338 2009 
Q 1338 2731 1133 3434 
Q 928 4138 513 4856 
z
" transform="scale(0.015625)"/>
      </defs>
      <use xlink:href="#DejaVuSans-46"/>
      <use xlink:href="#DejaVuSans-69" x="50.269531"/>
      <use xlink:href="#DejaVuSans-72" x="78.052734"/>
      <use xlink:href="#DejaVuSans-65" x="116.916016"/>
      <use xlink:href="#DejaVuSans-73" x="178.439453"/>
      <use xlink:href="#DejaVuSans-20" x="230.539062"/>
      <use xlink:href="#DejaVuSans-70" x="262.326172"/>
      <use xlink:href="#DejaVuSans-65" x="325.802734"/>
      <use xlink:href="#DejaVuSans-72" x="387.326172"/>
      <use xlink:href="#DejaVuSans-20" x="428.439453"/>
      <use xlink:href="#DejaVuSans-77" x="460.226562"/>
      <use xlink:href="#DejaVuSans-65" x="542.013672"/>
      <use xlink:href="#DejaVuSans-65" x="603.537109"/>
      <use xlink:href="#DejaVuSans-6b" x="665.060547"/>
      <use xlink:href="#DejaVuSans-20" x="722.970703"/>
      <use xlink:href="#DejaVuSans-28" x="754.757812"/>
      <use xlink:href="#DejaVuSans-74" x="793.771484"/>
      <use xlink:href="#DejaVuSans-72" x="832.980469"/>
      <use xlink:href="#DejaVuSans-61" x="874.09375"/>
      <use xlink:href="#DejaVuSans-64" x="935.373047"/>
      <use xlink:href="#DejaVuSans-69" x="998.849609"/>
      <use xlink:href="#DejaVuSans-6e" x="1026.632812"/>
      <use xlink:href="#DejaVuSans-67" x="1090.011719"/>
      <use xlink:href="#DejaVuSans-20" x="1153.488281"/>
      <use xlink:href="#DejaVuSans-66" x="1185.275391"/>
      <use xlink:href="#DejaVuSans-72" x="1220.480469"/>
      <use xlink:href="#DejaVuSans-65" x="1259.34375"/>
      <use xlink:href="#DejaVuSans-71" x="1320.867188"/>
      <use xlink:href="#DejaVuSans-75" x="1384.34375"/>
      <use xlink:href="#DejaVuSans-65" x="1447.722656"/>
      <use xlink:href="#DejaVuSans-6e" x="1509.246094"/>
      <use xlink:href="#DejaVuSans-63" x="1572.625"/>
      <use xlink:href="#DejaVuSans-79" x="1627.605469"/>
      <use xlink:href="#DejaVuSans-29" x="1686.785156"/>
     </g>
    </g>
   </g>
   <g id="matplotlib.axis_2">
    <g id="ytick_1">
     <g id="line2d_8">
      <defs>
       <path id="m5b79643b18" d="M 0 0 
L -3.5 0 
" style="stroke: #aeaeb2; stroke-width: 0.8"/>
      </defs>
      <g>
       <use xlink:href="#m5b79643b18" x="114.84" y="421.301147" style="fill: #aeaeb2; stroke: #aeaeb2; stroke-width: 0.8"/>
      </g>
     </g>
     <g id="text_9">
      <!-- 30% -->
      <g style="fill: #aeaeb2" transform="translate(85.613438 425.100365) scale(0.1 -0.1)">
       <defs>
        <path id="DejaVuSans-25" d="M 4653 2053 
Q 4381 2053 4226 1822 
Q 4072 1591 4072 1178 
Q 4072 772 4226 539 
Q 4381 306 4653 306 
Q 4919 306 5073 539 
Q 5228 772 5228 1178 
Q 5228 1588 5073 1820 
Q 4919 2053 4653 2053 
z
M 4653 2450 
Q 5147 2450 5437 2106 
Q 5728 1763 5728 1178 
Q 5728 594 5436 251 
Q 5144 -91 4653 -91 
Q 4153 -91 3862 251 
Q 3572 594 3572 1178 
Q 3572 1766 3864 2108 
Q 4156 2450 4653 2450 
z
M 1428 4353 
Q 1159 4353 1004 4120 
Q 850 3888 850 3481 
Q 850 3069 1003 2837 
Q 1156 2606 1428 2606 
Q 1700 2606 1854 2837 
Q 2009 3069 2009 3481 
Q 2009 3884 1853 4118 
Q 1697 4353 1428 4353 
z
M 4250 4750 
L 4750 4750 
L 1831 -91 
L 1331 -91 
L 4250 4750 
z
M 1428 4750 
Q 1922 4750 2215 4408 
Q 2509 4066 2509 3481 
Q 2509 2891 2217 2550 
Q 1925 2209 1428 2209 
Q 931 2209 642 2551 
Q 353 2894 353 3481 
Q 353 4063 643 4406 
Q 934 4750 1428 4750 
z
" transform="scale(0.015625)"/>
       </defs>
       <use xlink:href="#DejaVuSans-33"/>
       <use xlink:href="#DejaVuSans-30" x="63.623047"/>
       <use xlink:href="#DejaVuSans-25" x="127.246094"/>
      </g>
     </g>
    </g>
    <g id="ytick_2">
     <g id="line2d_9">
      <g>
       <use xlink:href="#m5b79643b18" x="114.84" y="340.725607" style="fill: #aeaeb2; stroke: #aeaeb2; stroke-width: 0.8"/>
      </g>
     </g>
     <g id="text_10">
      <!-- 40% -->
      <g style="fill: #aeaeb2" transform="translate(85.613438 344.524826) scale(0.1 -0.1)">
       <use xlink:href="#DejaVuSans-34"/>
       <use xlink:href="#DejaVuSans-30" x="63.623047"/>
       <use xlink:href="#DejaVuSans-25" x="127.246094"/>
      </g>
     </g>
    </g>
    <g id="ytick_3">
     <g id="line2d_10">
      <g>
       <use xlink:href="#m5b79643b18" x="114.84" y="260.150067" style="fill: #aeaeb2; stroke: #aeaeb2; stroke-width: 0.8"/>
      </g>
     </g>
     <g id="text_11">
      <!-- 50% -->
      <g style="fill: #aeaeb2" transform="translate(85.613438 263.949286) scale(0.1 -0.1)">
       <use xlink:href="#DejaVuSans-35"/>
       <use xlink:href="#DejaVuSans-30" x="63.623047"/>
       <use xlink:href="#DejaVuSans-25" x="127.246094"/>
      </g>
     </g>
    </g>
    <g id="ytick_4">
     <g id="line2d_11">
      <g>
       <use xlink:href="#m5b79643b18" x="114.84" y="179.574528" style="fill: #aeaeb2; stroke: #aeaeb2; stroke-width: 0.8"/>
      </g>
     </g>
     <g id="text_12">
      <!-- 60% -->
      <g style="fill: #aeaeb2" transform="translate(85.613438 183.373747) scale(0.1 -0.1)">
       <use xlink:href="#DejaVuSans-36"/>
       <use xlink:href="#DejaVuSans-30" x="63.623047"/>
       <use xlink:href="#DejaVuSans-25" x="127.246094"/>
      </g>
     </g>
    </g>
    <g id="ytick_5">
     <g id="line2d_12">
      <g>
       <use xlink:href="#m5b79643b18" x="114.84" y="98.998988" style="fill: #aeaeb2; stroke: #aeaeb2; stroke-width: 0.8"/>
      </g>
     </g>
     <g id="text_13">
      <!-- 70% -->
      <g style="fill: #aeaeb2" transform="translate(85.613438 102.798207) scale(0.1 -0.1)">
       <defs>
        <path id="DejaVuSans-37" d="M 525 4666 
L 3525 4666 
L 3525 4397 
L 1831 0 
L 1172 0 
L 2766 4134 
L 525 4134 
L 525 4666 
z
" transform="scale(0.015625)"/>
       </defs>
       <use xlink:href="#DejaVuSans-37"/>
       <use xlink:href="#DejaVuSans-30" x="63.623047"/>
       <use xlink:href="#DejaVuSans-25" x="127.246094"/>
      </g>
     </g>
    </g>
    <g id="text_14">
     <!-- mag_win rate (≥2.5% in 24h) -->
     <g style="fill: #aeaeb2" transform="translate(79.255625 323.728906) rotate(-90) scale(0.1 -0.1)">
      <defs>
       <path id="DejaVuSans-6d" d="M 3328 2828 
Q 3544 3216 3844 3400 
Q 4144 3584 4550 3584 
Q 5097 3584 5394 3201 
Q 5691 2819 5691 2113 
L 5691 0 
L 5113 0 
L 5113 2094 
Q 5113 2597 4934 2840 
Q 4756 3084 4391 3084 
Q 3944 3084 3684 2787 
Q 3425 2491 3425 1978 
L 3425 0 
L 2847 0 
L 2847 2094 
Q 2847 2600 2669 2842 
Q 2491 3084 2119 3084 
Q 1678 3084 1418 2786 
Q 1159 2488 1159 1978 
L 1159 0 
L 581 0 
L 581 3500 
L 1159 3500 
L 1159 2956 
Q 1356 3278 1631 3431 
Q 1906 3584 2284 3584 
Q 2666 3584 2933 3390 
Q 3200 3197 3328 2828 
z
" transform="scale(0.015625)"/>
       <path id="DejaVuSans-5f" d="M 3263 -1063 
L 3263 -1509 
L -63 -1509 
L -63 -1063 
L 3263 -1063 
z
" transform="scale(0.015625)"/>
       <path id="DejaVuSans-2265" d="M 678 3175 
L 678 3725 
L 4684 2578 
L 4684 2047 
L 678 897 
L 678 1453 
L 3681 2309 
L 678 3175 
z
M 4684 531 
L 4684 0 
L 678 0 
L 678 531 
L 4684 531 
z
" transform="scale(0.015625)"/>
       <path id="DejaVuSans-2e" d="M 684 794 
L 1344 794 
L 1344 0 
L 684 0 
L 684 794 
z
" transform="scale(0.015625)"/>
       <path id="DejaVuSans-68" d="M 3513 2113 
L 3513 0 
L 2938 0 
L 2938 2094 
Q 2938 2591 2744 2837 
Q 2550 3084 2163 3084 
Q 1697 3084 1428 2787 
Q 1159 2491 1159 1978 
L 1159 0 
L 581 0 
L 581 4863 
L 1159 4863 
L 1159 2956 
Q 1366 3272 1645 3428 
Q 1925 3584 2291 3584 
Q 2894 3584 3203 3211 
Q 3513 2838 3513 2113 
z
" transform="scale(0.015625)"/>
      </defs>
      <use xlink:href="#DejaVuSans-6d"/>
      <use xlink:href="#DejaVuSans-61" x="97.412109"/>
      <use xlink:href="#DejaVuSans-67" x="158.691406"/>
      <use xlink:href="#DejaVuSans-5f" x="222.167969"/>
      <use xlink:href="#DejaVuSans-77" x="272.167969"/>
      <use xlink:href="#DejaVuSans-69" x="353.955078"/>
      <use xlink:href="#DejaVuSans-6e" x="381.738281"/>
      <use xlink:href="#DejaVuSans-20" x="445.117188"/>
      <use xlink:href="#DejaVuSans-72" x="476.904297"/>
      <use xlink:href="#DejaVuSans-61" x="518.017578"/>
      <use xlink:href="#DejaVuSans-74" x="579.296875"/>
      <use xlink:href="#DejaVuSans-65" x="618.505859"/>
      <use xlink:href="#DejaVuSans-20" x="680.029297"/>
      <use xlink:href="#DejaVuSans-28" x="711.816406"/>
      <use xlink:href="#DejaVuSans-2265" x="750.830078"/>
      <use xlink:href="#DejaVuSans-32" x="834.619141"/>
      <use xlink:href="#DejaVuSans-2e" x="898.242188"/>
      <use xlink:href="#DejaVuSans-35" x="930.029297"/>
      <use xlink:href="#DejaVuSans-25" x="993.652344"/>
      <use xlink:href="#DejaVuSans-20" x="1088.671875"/>
      <use xlink:href="#DejaVuSans-69" x="1120.458984"/>
      <use xlink:href="#DejaVuSans-6e" x="1148.242188"/>
      <use xlink:href="#DejaVuSans-20" x="1211.621094"/>
      <use xlink:href="#DejaVuSans-32" x="1243.408203"/>
      <use xlink:href="#DejaVuSans-34" x="1307.03125"/>
      <use xlink:href="#DejaVuSans-68" x="1370.654297"/>
      <use xlink:href="#DejaVuSans-29" x="1434.033203"/>
     </g>
    </g>
   </g>
   <g id="line2d_13">
    <path d="M 114.84 308.575967 
L 840.24 308.575967 
" clip-path="url(#pa4a525b552)" style="fill: none; stroke-dasharray: 4.44,1.92; stroke-dashoffset: 0; stroke: #ffffff; stroke-opacity: 0.5; stroke-width: 1.2"/>
   </g>
   <g id="patch_3">
    <path d="M 114.84 471.838125 
L 114.84 28.318125 
" style="fill: none; stroke: #1c1c1e; stroke-width: 0.8; stroke-linejoin: miter; stroke-linecap: square"/>
   </g>
   <g id="patch_4">
    <path d="M 840.24 471.838125 
L 840.24 28.318125 
" style="fill: none; stroke: #1c1c1e; stroke-width: 0.8; stroke-linejoin: miter; stroke-linecap: square"/>
   </g>
   <g id="patch_5">
    <path d="M 114.84 471.838125 
L 840.24 471.838125 
" style="fill: none; stroke: #1c1c1e; stroke-width: 0.8; stroke-linejoin: miter; stroke-linecap: square"/>
   </g>
   <g id="patch_6">
    <path d="M 114.84 28.318125 
L 840.24 28.318125 
" style="fill: none; stroke: #1c1c1e; stroke-width: 0.8; stroke-linejoin: miter; stroke-linecap: square"/>
   </g>
   <g id="PathCollection_1">
    <defs>
     <path id="mc6bb50b9f6" d="M 0 13.87804 
C 3.680499 13.87804 7.21075 12.415762 9.813256 9.813256 
C 12.415762 7.21075 13.87804 3.680499 13.87804 0 
C 13.87804 -3.680499 12.415762 -7.21075 9.813256 -9.813256 
C 7.21075 -12.415762 3.680499 -13.87804 0 -13.87804 
C -3.680499 -13.87804 -7.21075 -12.415762 -9.813256 -9.813256 
C -12.415762 -7.21075 -13.87804 -3.680499 -13.87804 0 
C -13.87804 3.680499 -12.415762 7.21075 -9.813256 9.813256 
C -7.21075 12.415762 -3.680499 13.87804 0 13.87804 
z
" style="stroke: #1c1c1e; stroke-opacity: 0.8; stroke-width: 0.8"/>
    </defs>
    <g clip-path="url(#pa4a525b552)">
     <use xlink:href="#mc6bb50b9f6" x="807.267273" y="232.432082" style="fill: #ff9f0a; fill-opacity: 0.8; stroke: #1c1c1e; stroke-opacity: 0.8; stroke-width: 0.8"/>
    </g>
   </g>
   <g id="PathCollection_2">
    <defs>
     <path id="m8772c75f10" d="M 0 11.29159 
C 2.994565 11.29159 5.866883 10.101837 7.98436 7.98436 
C 10.101837 5.866883 11.29159 2.994565 11.29159 0 
C 11.29159 -2.994565 10.101837 -5.866883 7.98436 -7.98436 
C 5.866883 -10.101837 2.994565 -11.29159 0 -11.29159 
C -2.994565 -11.29159 -5.866883 -10.101837 -7.98436 -7.98436 
C -10.101837 -5.866883 -11.29159 -2.994565 -11.29159 0 
C -11.29159 2.994565 -10.101837 5.866883 -7.98436 7.98436 
C -5.866883 10.101837 -2.994565 11.29159 0 11.29159 
z
" style="stroke: #1c1c1e; stroke-opacity: 0.8; stroke-width: 0.8"/>
    </defs>
    <g clip-path="url(#pa4a525b552)">
     <use xlink:href="#m8772c75f10" x="584.01979" y="208.178844" style="fill: #ff9f0a; fill-opacity: 0.8; stroke: #1c1c1e; stroke-opacity: 0.8; stroke-width: 0.8"/>
    </g>
   </g>
   <g id="PathCollection_3">
    <defs>
     <path id="m9c57d01056" d="M 0 11.937336 
C 3.165819 11.937336 6.2024 10.679543 8.440972 8.440972 
C 10.679543 6.2024 11.937336 3.165819 11.937336 0 
C 11.937336 -3.165819 10.679543 -6.2024 8.440972 -8.440972 
C 6.2024 -10.679543 3.165819 -11.937336 0 -11.937336 
C -3.165819 -11.937336 -6.2024 -10.679543 -8.440972 -8.440972 
C -10.679543 -6.2024 -11.937336 -3.165819 -11.937336 0 
C -11.937336 3.165819 -10.679543 6.2024 -8.440972 8.440972 
C -6.2024 10.679543 -3.165819 11.937336 0 11.937336 
z
" style="stroke: #1c1c1e; stroke-opacity: 0.8; stroke-width: 0.8"/>
    </defs>
    <g clip-path="url(#pa4a525b552)">
     <use xlink:href="#m9c57d01056" x="635.459302" y="245.64647" style="fill: #ff9f0a; fill-opacity: 0.8; stroke: #1c1c1e; stroke-opacity: 0.8; stroke-width: 0.8"/>
    </g>
   </g>
   <g id="PathCollection_4">
    <defs>
     <path id="m3a4cf4d3af" d="M 0 9.994999 
C 2.650705 9.994999 5.1932 8.941863 7.067531 7.067531 
C 8.941863 5.1932 9.994999 2.650705 9.994999 0 
C 9.994999 -2.650705 8.941863 -5.1932 7.067531 -7.067531 
C 5.1932 -8.941863 2.650705 -9.994999 0 -9.994999 
C -2.650705 -9.994999 -5.1932 -8.941863 -7.067531 -7.067531 
C -8.941863 -5.1932 -9.994999 -2.650705 -9.994999 0 
C -9.994999 2.650705 -8.941863 5.1932 -7.067531 7.067531 
C -5.1932 8.941863 -2.650705 9.994999 0 9.994999 
z
" style="stroke: #1c1c1e; stroke-opacity: 0.8; stroke-width: 0.8"/>
    </defs>
    <g clip-path="url(#pa4a525b552)">
     <use xlink:href="#m3a4cf4d3af" x="489.371088" y="219.298269" style="fill: #ff9f0a; fill-opacity: 0.8; stroke: #1c1c1e; stroke-opacity: 0.8; stroke-width: 0.8"/>
    </g>
   </g>
   <g id="PathCollection_5">
    <defs>
     <path id="m9e75fded7c" d="M 0 11.836385 
C 3.139046 11.836385 6.149947 10.589228 8.369588 8.369588 
C 10.589228 6.149947 11.836385 3.139046 11.836385 0 
C 11.836385 -3.139046 10.589228 -6.149947 8.369588 -8.369588 
C 6.149947 -10.589228 3.139046 -11.836385 0 -11.836385 
C -3.139046 -11.836385 -6.149947 -10.589228 -8.369588 -8.369588 
C -10.589228 -6.149947 -11.836385 -3.139046 -11.836385 0 
C -11.836385 3.139046 -10.589228 6.149947 -8.369588 8.369588 
C -6.149947 10.589228 -3.139046 11.836385 0 11.836385 
z
" style="stroke: #1c1c1e; stroke-opacity: 0.8; stroke-width: 0.8"/>
    </defs>
    <g clip-path="url(#pa4a525b552)">
     <use xlink:href="#m9e75fded7c" x="627.22898" y="368.765895" style="fill: #ff9f0a; fill-opacity: 0.8; stroke: #1c1c1e; stroke-opacity: 0.8; stroke-width: 0.8"/>
    </g>
   </g>
   <g id="PathCollection_6">
    <defs>
     <path id="mbe61b8998f" d="M 0 11.224972 
C 2.976897 11.224972 5.83227 10.042238 7.937254 7.937254 
C 10.042238 5.83227 11.224972 2.976897 11.224972 0 
C 11.224972 -2.976897 10.042238 -5.83227 7.937254 -7.937254 
C 5.83227 -10.042238 2.976897 -11.224972 0 -11.224972 
C -2.976897 -11.224972 -5.83227 -10.042238 -7.937254 -7.937254 
C -10.042238 -5.83227 -11.224972 -2.976897 -11.224972 0 
C -11.224972 2.976897 -10.042238 5.83227 -7.937254 7.937254 
C -5.83227 10.042238 -2.976897 11.224972 0 11.224972 
z
" style="stroke: #1c1c1e; stroke-opacity: 0.8; stroke-width: 0.8"/>
    </defs>
    <g clip-path="url(#pa4a525b552)">
     <use xlink:href="#mbe61b8998f" x="578.875839" y="418.642154" style="fill: #ff453a; fill-opacity: 0.8; stroke: #1c1c1e; stroke-opacity: 0.8; stroke-width: 0.8"/>
    </g>
   </g>
   <g id="PathCollection_7">
    <defs>
     <path id="m61ac68f879" d="M 0 7.099296 
C 1.882755 7.099296 3.688651 6.351269 5.01996 5.01996 
C 6.351269 3.688651 7.099296 1.882755 7.099296 0 
C 7.099296 -1.882755 6.351269 -3.688651 5.01996 -5.01996 
C 3.688651 -6.351269 1.882755 -7.099296 0 -7.099296 
C -1.882755 -7.099296 -3.688651 -6.351269 -5.01996 -5.01996 
C -6.351269 -3.688651 -7.099296 -1.882755 -7.099296 0 
C -7.099296 1.882755 -6.351269 3.688651 -5.01996 5.01996 
C -3.688651 6.351269 -1.882755 7.099296 0 7.099296 
z
" style="stroke: #1c1c1e; stroke-opacity: 0.8; stroke-width: 0.8"/>
    </defs>
    <g clip-path="url(#pa4a525b552)">
     <use xlink:href="#m61ac68f879" x="319.620698" y="415.338557" style="fill: #ff453a; fill-opacity: 0.8; stroke: #1c1c1e; stroke-opacity: 0.8; stroke-width: 0.8"/>
    </g>
   </g>
   <g id="PathCollection_8">
    <defs>
     <path id="mc68270336e" d="M 0 3.674235 
C 0.974418 3.674235 1.909058 3.287094 2.598076 2.598076 
C 3.287094 1.909058 3.674235 0.974418 3.674235 0 
C 3.674235 -0.974418 3.287094 -1.909058 2.598076 -2.598076 
C 1.909058 -3.287094 0.974418 -3.674235 0 -3.674235 
C -0.974418 -3.674235 -1.909058 -3.287094 -2.598076 -2.598076 
C -3.287094 -1.909058 -3.674235 -0.974418 -3.674235 0 
C -3.674235 0.974418 -3.287094 1.909058 -2.598076 2.598076 
C -1.909058 3.287094 -0.974418 3.674235 0 3.674235 
z
" style="stroke: #1c1c1e; stroke-opacity: 0.8; stroke-width: 0.8"/>
    </defs>
    <g clip-path="url(#pa4a525b552)">
     <use xlink:href="#mc68270336e" x="193.079498" y="451.678125" style="fill: #ff9f0a; fill-opacity: 0.8; stroke: #1c1c1e; stroke-opacity: 0.8; stroke-width: 0.8"/>
    </g>
   </g>
   <g id="PathCollection_9">
    <defs>
     <path id="meb6fa8aec9" d="M 0 3.098387 
C 0.821702 3.098387 1.609859 2.771921 2.19089 2.19089 
C 2.771921 1.609859 3.098387 0.821702 3.098387 0 
C 3.098387 -0.821702 2.771921 -1.609859 2.19089 -2.19089 
C 1.609859 -2.771921 0.821702 -3.098387 0 -3.098387 
C -0.821702 -3.098387 -1.609859 -2.771921 -2.19089 -2.19089 
C -2.771921 -1.609859 -3.098387 -0.821702 -3.098387 0 
C -3.098387 0.821702 -2.771921 1.609859 -2.19089 2.19089 
C -1.609859 2.771921 -0.821702 3.098387 0 3.098387 
z
" style="stroke: #1c1c1e; stroke-opacity: 0.8; stroke-width: 0.8"/>
    </defs>
    <g clip-path="url(#pa4a525b552)">
     <use xlink:href="#meb6fa8aec9" x="179.705225" y="431.292513" style="fill: #ff9f0a; fill-opacity: 0.8; stroke: #1c1c1e; stroke-opacity: 0.8; stroke-width: 0.8"/>
    </g>
   </g>
   <g id="PathCollection_10">
    <defs>
     <path id="m7bd5ffbd0c" d="M 0 7.30753 
C 1.93798 7.30753 3.796846 6.537563 5.167204 5.167204 
C 6.537563 3.796846 7.30753 1.93798 7.30753 0 
C 7.30753 -1.93798 6.537563 -3.796846 5.167204 -5.167204 
C 3.796846 -6.537563 1.93798 -7.30753 0 -7.30753 
C -1.93798 -7.30753 -3.796846 -6.537563 -5.167204 -5.167204 
C -6.537563 -3.796846 -7.30753 -1.93798 -7.30753 0 
C -7.30753 1.93798 -6.537563 3.796846 -5.167204 5.167204 
C -3.796846 6.537563 -1.93798 7.30753 0 7.30753 
z
" style="stroke: #1c1c1e; stroke-opacity: 0.8; stroke-width: 0.8"/>
    </defs>
    <g clip-path="url(#pa4a525b552)">
     <use xlink:href="#m7bd5ffbd0c" x="329.9086" y="262.08388" style="fill: #bf5af2; fill-opacity: 0.8; stroke: #1c1c1e; stroke-opacity: 0.8; stroke-width: 0.8"/>
    </g>
   </g>
   <g id="PathCollection_11">
    <defs>
     <path id="m8ce38cd8fb" d="M 0 5.87367 
C 1.557716 5.87367 3.051841 5.254783 4.153312 4.153312 
C 5.254783 3.051841 5.87367 1.557716 5.87367 0 
C 5.87367 -1.557716 5.254783 -3.051841 4.153312 -4.153312 
C 3.051841 -5.254783 1.557716 -5.87367 0 -5.87367 
C -1.557716 -5.87367 -3.051841 -5.254783 -4.153312 -4.153312 
C -5.254783 -3.051841 -5.87367 -1.557716 -5.87367 0 
C -5.87367 1.557716 -5.254783 3.051841 -4.153312 4.153312 
C -3.051841 5.254783 -1.557716 5.87367 0 5.87367 
z
" style="stroke: #1c1c1e; stroke-opacity: 0.8; stroke-width: 0.8"/>
    </defs>
    <g clip-path="url(#pa4a525b552)">
     <use xlink:href="#m8ce38cd8fb" x="265.094815" y="267.482442" style="fill: #bf5af2; fill-opacity: 0.8; stroke: #1c1c1e; stroke-opacity: 0.8; stroke-width: 0.8"/>
    </g>
   </g>
   <g id="PathCollection_12">
    <defs>
     <path id="m4372c7dc8d" d="M 0 4.959839 
C 1.315365 4.959839 2.577032 4.437239 3.507136 3.507136 
C 4.437239 2.577032 4.959839 1.315365 4.959839 0 
C 4.959839 -1.315365 4.437239 -2.577032 3.507136 -3.507136 
C 2.577032 -4.437239 1.315365 -4.959839 0 -4.959839 
C -1.315365 -4.959839 -2.577032 -4.437239 -3.507136 -3.507136 
C -4.437239 -2.577032 -4.959839 -1.315365 -4.959839 0 
C -4.959839 1.315365 -4.437239 2.577032 -3.507136 3.507136 
C -2.577032 4.437239 -1.315365 4.959839 0 4.959839 
z
" style="stroke: #1c1c1e; stroke-opacity: 0.8; stroke-width: 0.8"/>
    </defs>
    <g clip-path="url(#pa4a525b552)">
     <use xlink:href="#m4372c7dc8d" x="231.144737" y="212.288197" style="fill: #34c759; fill-opacity: 0.8; stroke: #1c1c1e; stroke-opacity: 0.8; stroke-width: 0.8"/>
    </g>
   </g>
   <g id="PathCollection_13">
    <defs>
     <path id="m5f07eb49e1" d="M 0 4.347413 
C 1.152947 4.347413 2.258828 3.889342 3.074085 3.074085 
C 3.889342 2.258828 4.347413 1.152947 4.347413 0 
C 4.347413 -1.152947 3.889342 -2.258828 3.074085 -3.074085 
C 2.258828 -3.889342 1.152947 -4.347413 0 -4.347413 
C -1.152947 -4.347413 -2.258828 -3.889342 -3.074085 -3.074085 
C -3.889342 -2.258828 -4.347413 -1.152947 -4.347413 0 
C -4.347413 1.152947 -3.889342 2.258828 -3.074085 3.074085 
C -2.258828 3.889342 -1.152947 4.347413 0 4.347413 
z
" style="stroke: #1c1c1e; stroke-opacity: 0.8; stroke-width: 0.8"/>
    </defs>
    <g clip-path="url(#pa4a525b552)">
     <use xlink:href="#m5f07eb49e1" x="211.597722" y="172.000427" style="fill: #34c759; fill-opacity: 0.8; stroke: #1c1c1e; stroke-opacity: 0.8; stroke-width: 0.8"/>
    </g>
   </g>
   <g id="PathCollection_14">
    <defs>
     <path id="ma426412271" d="M 0 8.865664 
C 2.351202 8.865664 4.606421 7.931522 6.268971 6.268971 
C 7.931522 4.606421 8.865664 2.351202 8.865664 0 
C 8.865664 -2.351202 7.931522 -4.606421 6.268971 -6.268971 
C 4.606421 -7.931522 2.351202 -8.865664 0 -8.865664 
C -2.351202 -8.865664 -4.606421 -7.931522 -6.268971 -6.268971 
C -7.931522 -4.606421 -8.865664 -2.351202 -8.865664 0 
C -8.865664 2.351202 -7.931522 4.606421 -6.268971 6.268971 
C -4.606421 7.931522 -2.351202 8.865664 0 8.865664 
z
" style="stroke: #1c1c1e; stroke-opacity: 0.8; stroke-width: 0.8"/>
    </defs>
    <g clip-path="url(#pa4a525b552)">
     <use xlink:href="#ma426412271" x="416.326981" y="244.840715" style="fill: #64d2ff; fill-opacity: 0.8; stroke: #1c1c1e; stroke-opacity: 0.8; stroke-width: 0.8"/>
    </g>
   </g>
   <g id="PathCollection_15">
    <defs>
     <path id="ma4ed89caf0" d="M 0 5.770615 
C 1.530385 5.770615 2.998296 5.162587 4.080441 4.080441 
C 5.162587 2.998296 5.770615 1.530385 5.770615 0 
C 5.770615 -1.530385 5.162587 -2.998296 4.080441 -4.080441 
C 2.998296 -5.162587 1.530385 -5.770615 0 -5.770615 
C -1.530385 -5.770615 -2.998296 -5.162587 -4.080441 -4.080441 
C -5.162587 -2.998296 -5.770615 -1.530385 -5.770615 0 
C -5.770615 1.530385 -5.162587 2.998296 -4.080441 4.080441 
C -2.998296 5.162587 -1.530385 5.770615 0 5.770615 
z
" style="stroke: #1c1c1e; stroke-opacity: 0.8; stroke-width: 0.8"/>
    </defs>
    <g clip-path="url(#pa4a525b552)">
     <use xlink:href="#ma4ed89caf0" x="260.979654" y="243.30978" style="fill: #64d2ff; fill-opacity: 0.8; stroke: #1c1c1e; stroke-opacity: 0.8; stroke-width: 0.8"/>
    </g>
   </g>
   <g id="PathCollection_16">
    <defs>
     <path id="m2f4d0ae94d" d="M 0 6.049793 
C 1.604424 6.049793 3.143351 5.412349 4.27785 4.27785 
C 5.412349 3.143351 6.049793 1.604424 6.049793 0 
C 6.049793 -1.604424 5.412349 -3.143351 4.27785 -4.27785 
C 3.143351 -5.412349 1.604424 -6.049793 0 -6.049793 
C -1.604424 -6.049793 -3.143351 -5.412349 -4.27785 -4.27785 
C -5.412349 -3.143351 -6.049793 -1.604424 -6.049793 0 
C -6.049793 1.604424 -5.412349 3.143351 -4.27785 4.27785 
C -3.143351 5.412349 -1.604424 6.049793 0 6.049793 
z
" style="stroke: #1c1c1e; stroke-opacity: 0.8; stroke-width: 0.8"/>
    </defs>
    <g clip-path="url(#pa4a525b552)">
     <use xlink:href="#m2f4d0ae94d" x="272.296347" y="192.788916" style="fill: #ff9f0a; fill-opacity: 0.8; stroke: #1c1c1e; stroke-opacity: 0.8; stroke-width: 0.8"/>
    </g>
   </g>
   <g id="PathCollection_17">
    <defs>
     <path id="m20aac821df" d="M 0 2.738613 
C 0.726289 2.738613 1.422928 2.450055 1.936492 1.936492 
C 2.450055 1.422928 2.738613 0.726289 2.738613 0 
C 2.738613 -0.726289 2.450055 -1.422928 1.936492 -1.936492 
C 1.422928 -2.450055 0.726289 -2.738613 0 -2.738613 
C -0.726289 -2.738613 -1.422928 -2.450055 -1.936492 -1.936492 
C -2.450055 -1.422928 -2.738613 -0.726289 -2.738613 0 
C -2.738613 0.726289 -2.450055 1.422928 -1.936492 1.936492 
C -1.422928 2.450055 -0.726289 2.738613 0 2.738613 
z
" style="stroke: #1c1c1e; stroke-opacity: 0.8; stroke-width: 0.8"/>
    </defs>
    <g clip-path="url(#pa4a525b552)">
     <use xlink:href="#m20aac821df" x="165.302161" y="134.452226" style="fill: #0a84ff; fill-opacity: 0.8; stroke: #1c1c1e; stroke-opacity: 0.8; stroke-width: 0.8"/>
    </g>
   </g>
   <g id="PathCollection_18">
    <g clip-path="url(#pa4a525b552)">
     <use xlink:href="#m20aac821df" x="167.359742" y="123.977406" style="fill: #0a84ff; fill-opacity: 0.8; stroke: #1c1c1e; stroke-opacity: 0.8; stroke-width: 0.8"/>
    </g>
   </g>
   <g id="PathCollection_19">
    <g clip-path="url(#pa4a525b552)">
     <use xlink:href="#m20aac821df" x="172.503693" y="48.478125" style="fill: #0a84ff; fill-opacity: 0.8; stroke: #1c1c1e; stroke-opacity: 0.8; stroke-width: 0.8"/>
    </g>
   </g>
   <g id="PathCollection_20">
    <g clip-path="url(#pa4a525b552)">
     <use xlink:href="#m20aac821df" x="162.215791" y="112.938557" style="fill: #0a84ff; fill-opacity: 0.8; stroke: #1c1c1e; stroke-opacity: 0.8; stroke-width: 0.8"/>
    </g>
   </g>
   <g id="PathCollection_21">
    <g clip-path="url(#pa4a525b552)">
     <use xlink:href="#m20aac821df" x="166.330952" y="48.558701" style="fill: #0a84ff; fill-opacity: 0.8; stroke: #1c1c1e; stroke-opacity: 0.8; stroke-width: 0.8"/>
    </g>
   </g>
   <g id="PathCollection_22">
    <defs>
     <path id="m2deb165d58" d="M 0 10.246951 
C 2.717523 10.246951 5.324109 9.167267 7.245688 7.245688 
C 9.167267 5.324109 10.246951 2.717523 10.246951 0 
C 10.246951 -2.717523 9.167267 -5.324109 7.245688 -7.245688 
C 5.324109 -9.167267 2.717523 -10.246951 0 -10.246951 
C -2.717523 -10.246951 -5.324109 -9.167267 -7.245688 -7.245688 
C -9.167267 -5.324109 -10.246951 -2.717523 -10.246951 0 
C -10.246951 2.717523 -9.167267 5.324109 -7.245688 7.245688 
C -5.324109 9.167267 -2.717523 10.246951 0 10.246951 
z
" style="stroke: #1c1c1e; stroke-opacity: 0.8; stroke-width: 0.8"/>
    </defs>
    <g clip-path="url(#pa4a525b552)">
     <use xlink:href="#m2deb165d58" x="506.860522" y="310.348629" style="fill: #aeaeb2; fill-opacity: 0.8; stroke: #1c1c1e; stroke-opacity: 0.8; stroke-width: 0.8"/>
    </g>
   </g>
   <g id="PathCollection_23">
    <g clip-path="url(#pa4a525b552)">
     <use xlink:href="#m2deb165d58" x="506.860522" y="301.485319" style="fill: #aeaeb2; fill-opacity: 0.8; stroke: #1c1c1e; stroke-opacity: 0.8; stroke-width: 0.8"/>
    </g>
   </g>
   <g id="PathCollection_24">
    <defs>
     <path id="m80c78f3119" d="M 0 6.244998 
C 1.656193 6.244998 3.244775 5.586986 4.41588 4.41588 
C 5.586986 3.244775 6.244998 1.656193 6.244998 0 
C 6.244998 -1.656193 5.586986 -3.244775 4.41588 -4.41588 
C 3.244775 -5.586986 1.656193 -6.244998 0 -6.244998 
C -1.656193 -6.244998 -3.244775 -5.586986 -4.41588 -4.41588 
C -5.586986 -3.244775 -6.244998 -1.656193 -6.244998 0 
C -6.244998 1.656193 -5.586986 3.244775 -4.41588 4.41588 
C -3.244775 5.586986 -1.656193 6.244998 0 6.244998 
z
" style="stroke: #1c1c1e; stroke-opacity: 0.8; stroke-width: 0.8"/>
    </defs>
    <g clip-path="url(#pa4a525b552)">
     <use xlink:href="#m80c78f3119" x="280.526669" y="221.876686" style="fill: #ff9f0a; fill-opacity: 0.8; stroke: #1c1c1e; stroke-opacity: 0.8; stroke-width: 0.8"/>
    </g>
   </g>
   <g id="PathCollection_25">
    <defs>
     <path id="m6194aef7d4" d="M 0 5.22494 
C 1.38567 5.22494 2.714774 4.674408 3.694591 3.694591 
C 4.674408 2.714774 5.22494 1.38567 5.22494 0 
C 5.22494 -1.38567 4.674408 -2.714774 3.694591 -3.694591 
C 2.714774 -4.674408 1.38567 -5.22494 0 -5.22494 
C -1.38567 -5.22494 -2.714774 -4.674408 -3.694591 -3.694591 
C -4.674408 -2.714774 -5.22494 -1.38567 -5.22494 0 
C -5.22494 1.38567 -4.674408 2.714774 -3.694591 3.694591 
C -2.714774 4.674408 -1.38567 5.22494 0 5.22494 
z
" style="stroke: #1c1c1e; stroke-opacity: 0.8; stroke-width: 0.8"/>
    </defs>
    <g clip-path="url(#pa4a525b552)">
     <use xlink:href="#m6194aef7d4" x="240.403849" y="265.145751" style="fill: #bf5af2; fill-opacity: 0.8; stroke: #1c1c1e; stroke-opacity: 0.8; stroke-width: 0.8"/>
    </g>
   </g>
   <g id="PathCollection_26">
    <defs>
     <path id="mf1036fedb6" d="M 0 2.738613 
C 0.726289 2.738613 1.422928 2.450055 1.936492 1.936492 
C 2.450055 1.422928 2.738613 0.726289 2.738613 0 
C 2.738613 -0.726289 2.450055 -1.422928 1.936492 -1.936492 
C 1.422928 -2.450055 0.726289 -2.738613 0 -2.738613 
C -0.726289 -2.738613 -1.422928 -2.450055 -1.936492 -1.936492 
C -2.450055 -1.422928 -2.738613 -0.726289 -2.738613 0 
C -2.738613 0.726289 -2.450055 1.422928 -1.936492 1.936492 
C -1.422928 2.450055 -0.726289 2.738613 0 2.738613 
z
" style="stroke: #1c1c1e; stroke-opacity: 0.8; stroke-width: 0.8"/>
    </defs>
    <g clip-path="url(#pa4a525b552)">
     <use xlink:href="#mf1036fedb6" x="153.985469" y="310.50978" style="fill: #ff9f0a; fill-opacity: 0.8; stroke: #1c1c1e; stroke-opacity: 0.8; stroke-width: 0.8"/>
    </g>
   </g>
   <g id="PathCollection_27">
    <defs>
     <path id="mb3247ee0ee" d="M 0 3.794733 
C 1.006375 3.794733 1.971667 3.394896 2.683282 2.683282 
C 3.394896 1.971667 3.794733 1.006375 3.794733 0 
C 3.794733 -1.006375 3.394896 -1.971667 2.683282 -2.683282 
C 1.971667 -3.394896 1.006375 -3.794733 0 -3.794733 
C -1.006375 -3.794733 -1.971667 -3.394896 -2.683282 -2.683282 
C -3.394896 -1.971667 -3.794733 -1.006375 -3.794733 0 
C -3.794733 1.006375 -3.394896 1.971667 -2.683282 2.683282 
C -1.971667 3.394896 -1.006375 3.794733 0 3.794733 
z
" style="stroke: #1c1c1e; stroke-opacity: 0.8; stroke-width: 0.8"/>
    </defs>
    <g clip-path="url(#pa4a525b552)">
     <use xlink:href="#mb3247ee0ee" x="196.165869" y="158.866614" style="fill: #34c759; fill-opacity: 0.8; stroke: #1c1c1e; stroke-opacity: 0.8; stroke-width: 0.8"/>
    </g>
   </g>
   <g id="PathCollection_28">
    <g clip-path="url(#pa4a525b552)">
     <use xlink:href="#m20aac821df" x="158.10063" y="66.527046" style="fill: #0a84ff; fill-opacity: 0.8; stroke: #1c1c1e; stroke-opacity: 0.8; stroke-width: 0.8"/>
    </g>
   </g>
   <g id="PathCollection_29">
    <defs>
     <path id="mbc665d30f3" d="M 0 2.738613 
C 0.726289 2.738613 1.422928 2.450055 1.936492 1.936492 
C 2.450055 1.422928 2.738613 0.726289 2.738613 0 
C 2.738613 -0.726289 2.450055 -1.422928 1.936492 -1.936492 
C 1.422928 -2.450055 0.726289 -2.738613 0 -2.738613 
C -0.726289 -2.738613 -1.422928 -2.450055 -1.936492 -1.936492 
C -2.450055 -1.422928 -2.738613 -0.726289 -2.738613 0 
C -2.738613 0.726289 -2.450055 1.422928 -1.936492 1.936492 
C -1.422928 2.450055 -0.726289 2.738613 0 2.738613 
z
" style="stroke: #1c1c1e; stroke-opacity: 0.8; stroke-width: 0.8"/>
    </defs>
    <g clip-path="url(#pa4a525b552)">
     <use xlink:href="#mbc665d30f3" x="147.812727" y="179.574528" style="fill: #34c759; fill-opacity: 0.8; stroke: #1c1c1e; stroke-opacity: 0.8; stroke-width: 0.8"/>
    </g>
   </g>
   <g id="PathCollection_30">
    <defs>
     <path id="me14b4b43e9" d="M 0 3.24037 
C 0.859356 3.24037 1.683631 2.898944 2.291288 2.291288 
C 2.898944 1.683631 3.24037 0.859356 3.24037 0 
C 3.24037 -0.859356 2.898944 -1.683631 2.291288 -2.291288 
C 1.683631 -2.898944 0.859356 -3.24037 0 -3.24037 
C -0.859356 -3.24037 -1.683631 -2.898944 -2.291288 -2.291288 
C -2.898944 -1.683631 -3.24037 -0.859356 -3.24037 0 
C -3.24037 0.859356 -2.898944 1.683631 -2.291288 2.291288 
C -1.683631 2.898944 -0.859356 3.24037 0 3.24037 
z
" style="stroke: #1c1c1e; stroke-opacity: 0.8; stroke-width: 0.8"/>
    </defs>
    <g clip-path="url(#pa4a525b552)">
     <use xlink:href="#me14b4b43e9" x="182.791596" y="178.285319" style="fill: #34c759; fill-opacity: 0.8; stroke: #1c1c1e; stroke-opacity: 0.8; stroke-width: 0.8"/>
    </g>
   </g>
   <g id="PathCollection_31">
    <defs>
     <path id="m78997b6061" d="M 0 4.806246 
C 1.274631 4.806246 2.497229 4.29983 3.398529 3.398529 
C 4.29983 2.497229 4.806246 1.274631 4.806246 0 
C 4.806246 -1.274631 4.29983 -2.497229 3.398529 -3.398529 
C 2.497229 -4.29983 1.274631 -4.806246 0 -4.806246 
C -1.274631 -4.806246 -2.497229 -4.29983 -3.398529 -3.398529 
C -4.29983 -2.497229 -4.806246 -1.274631 -4.806246 0 
C -4.806246 1.274631 -4.29983 2.497229 -3.398529 3.398529 
C -2.497229 4.29983 -1.274631 4.806246 0 4.806246 
z
" style="stroke: #1c1c1e; stroke-opacity: 0.8; stroke-width: 0.8"/>
    </defs>
    <g clip-path="url(#pa4a525b552)">
     <use xlink:href="#m78997b6061" x="226.000786" y="168.455103" style="fill: #ff9f0a; fill-opacity: 0.8; stroke: #1c1c1e; stroke-opacity: 0.8; stroke-width: 0.8"/>
    </g>
   </g>
   <g id="patch_7">
    <path d="M 588.752748 206.431582 
Q 587.32223 206.959686 585.891712 207.487789 
" style="fill: none; stroke: #aeaeb2; stroke-width: 0.6; stroke-linecap: round"/>
   </g>
   <g id="text_15">
    <!-- rv_rank≥0.75 -->
    <g style="fill: #ffffff; opacity: 0.9" transform="translate(592.01979 193.571891) scale(0.075 -0.075)">
     <defs>
      <path id="DejaVuSans-76" d="M 191 3500 
L 800 3500 
L 1894 563 
L 2988 3500 
L 3597 3500 
L 2284 0 
L 1503 0 
L 191 3500 
z
" transform="scale(0.015625)"/>
     </defs>
     <use xlink:href="#DejaVuSans-72"/>
     <use xlink:href="#DejaVuSans-76" x="41.113281"/>
     <use xlink:href="#DejaVuSans-5f" x="100.292969"/>
     <use xlink:href="#DejaVuSans-72" x="150.292969"/>
     <use xlink:href="#DejaVuSans-61" x="191.40625"/>
     <use xlink:href="#DejaVuSans-6e" x="252.685547"/>
     <use xlink:href="#DejaVuSans-6b" x="316.064453"/>
     <use xlink:href="#DejaVuSans-2265" x="373.974609"/>
     <use xlink:href="#DejaVuSans-30" x="457.763672"/>
     <use xlink:href="#DejaVuSans-2e" x="521.386719"/>
     <use xlink:href="#DejaVuSans-37" x="553.173828"/>
     <use xlink:href="#DejaVuSans-35" x="616.796875"/>
    </g>
    <!-- 56.5% -->
    <g style="fill: #ffffff; opacity: 0.9" transform="translate(592.01979 202.178844) scale(0.075 -0.075)">
     <use xlink:href="#DejaVuSans-35"/>
     <use xlink:href="#DejaVuSans-36" x="63.623047"/>
     <use xlink:href="#DejaVuSans-2e" x="127.246094"/>
     <use xlink:href="#DejaVuSans-35" x="159.033203"/>
     <use xlink:href="#DejaVuSans-25" x="222.65625"/>
    </g>
   </g>
   <g id="patch_8">
    <path d="M 583.025294 416.941729 
Q 581.876495 417.412501 580.727695 417.883273 
" style="fill: none; stroke: #aeaeb2; stroke-width: 0.6; stroke-linecap: round"/>
   </g>
   <g id="text_16">
    <!-- BB squeeze -->
    <g style="fill: #ffffff; opacity: 0.9" transform="translate(586.875839 404.243794) scale(0.075 -0.075)">
     <defs>
      <path id="DejaVuSans-42" d="M 1259 2228 
L 1259 519 
L 2272 519 
Q 2781 519 3026 730 
Q 3272 941 3272 1375 
Q 3272 1813 3026 2020 
Q 2781 2228 2272 2228 
L 1259 2228 
z
M 1259 4147 
L 1259 2741 
L 2194 2741 
Q 2656 2741 2882 2914 
Q 3109 3088 3109 3444 
Q 3109 3797 2882 3972 
Q 2656 4147 2194 4147 
L 1259 4147 
z
M 628 4666 
L 2241 4666 
Q 2963 4666 3353 4366 
Q 3744 4066 3744 3513 
Q 3744 3084 3544 2831 
Q 3344 2578 2956 2516 
Q 3422 2416 3680 2098 
Q 3938 1781 3938 1306 
Q 3938 681 3513 340 
Q 3088 0 2303 0 
L 628 0 
L 628 4666 
z
" transform="scale(0.015625)"/>
      <path id="DejaVuSans-7a" d="M 353 3500 
L 3084 3500 
L 3084 2975 
L 922 459 
L 3084 459 
L 3084 0 
L 275 0 
L 275 525 
L 2438 3041 
L 353 3041 
L 353 3500 
z
" transform="scale(0.015625)"/>
     </defs>
     <use xlink:href="#DejaVuSans-42"/>
     <use xlink:href="#DejaVuSans-42" x="68.603516"/>
     <use xlink:href="#DejaVuSans-20" x="137.207031"/>
     <use xlink:href="#DejaVuSans-73" x="168.994141"/>
     <use xlink:href="#DejaVuSans-71" x="221.09375"/>
     <use xlink:href="#DejaVuSans-75" x="284.570312"/>
     <use xlink:href="#DejaVuSans-65" x="347.949219"/>
     <use xlink:href="#DejaVuSans-65" x="409.472656"/>
     <use xlink:href="#DejaVuSans-7a" x="470.996094"/>
     <use xlink:href="#DejaVuSans-65" x="523.486328"/>
    </g>
    <!-- 30.3% -->
    <g style="fill: #ffffff; opacity: 0.9" transform="translate(586.875839 412.642154) scale(0.075 -0.075)">
     <use xlink:href="#DejaVuSans-33"/>
     <use xlink:href="#DejaVuSans-30" x="63.623047"/>
     <use xlink:href="#DejaVuSans-2e" x="127.246094"/>
     <use xlink:href="#DejaVuSans-33" x="159.033203"/>
     <use xlink:href="#DejaVuSans-25" x="222.65625"/>
    </g>
   </g>
   <g id="patch_9">
    <path d="M 216.739913 170.217137 
Q 215.114147 170.780946 213.488381 171.344755 
" style="fill: none; stroke: #aeaeb2; stroke-width: 0.6; stroke-linecap: round"/>
   </g>
   <g id="text_17">
    <!-- rv60+volSpike -->
    <g style="fill: #ffffff; opacity: 0.9" transform="translate(219.597722 157.602068) scale(0.075 -0.075)">
     <defs>
      <path id="DejaVuSans-2b" d="M 2944 4013 
L 2944 2272 
L 4684 2272 
L 4684 1741 
L 2944 1741 
L 2944 0 
L 2419 0 
L 2419 1741 
L 678 1741 
L 678 2272 
L 2419 2272 
L 2419 4013 
L 2944 4013 
z
" transform="scale(0.015625)"/>
      <path id="DejaVuSans-6f" d="M 1959 3097 
Q 1497 3097 1228 2736 
Q 959 2375 959 1747 
Q 959 1119 1226 758 
Q 1494 397 1959 397 
Q 2419 397 2687 759 
Q 2956 1122 2956 1747 
Q 2956 2369 2687 2733 
Q 2419 3097 1959 3097 
z
M 1959 3584 
Q 2709 3584 3137 3096 
Q 3566 2609 3566 1747 
Q 3566 888 3137 398 
Q 2709 -91 1959 -91 
Q 1206 -91 779 398 
Q 353 888 353 1747 
Q 353 2609 779 3096 
Q 1206 3584 1959 3584 
z
" transform="scale(0.015625)"/>
      <path id="DejaVuSans-6c" d="M 603 4863 
L 1178 4863 
L 1178 0 
L 603 0 
L 603 4863 
z
" transform="scale(0.015625)"/>
      <path id="DejaVuSans-53" d="M 3425 4513 
L 3425 3897 
Q 3066 4069 2747 4153 
Q 2428 4238 2131 4238 
Q 1616 4238 1336 4038 
Q 1056 3838 1056 3469 
Q 1056 3159 1242 3001 
Q 1428 2844 1947 2747 
L 2328 2669 
Q 3034 2534 3370 2195 
Q 3706 1856 3706 1288 
Q 3706 609 3251 259 
Q 2797 -91 1919 -91 
Q 1588 -91 1214 -16 
Q 841 59 441 206 
L 441 856 
Q 825 641 1194 531 
Q 1563 422 1919 422 
Q 2459 422 2753 634 
Q 3047 847 3047 1241 
Q 3047 1584 2836 1778 
Q 2625 1972 2144 2069 
L 1759 2144 
Q 1053 2284 737 2584 
Q 422 2884 422 3419 
Q 422 4038 858 4394 
Q 1294 4750 2059 4750 
Q 2388 4750 2728 4690 
Q 3069 4631 3425 4513 
z
" transform="scale(0.015625)"/>
     </defs>
     <use xlink:href="#DejaVuSans-72"/>
     <use xlink:href="#DejaVuSans-76" x="41.113281"/>
     <use xlink:href="#DejaVuSans-36" x="100.292969"/>
     <use xlink:href="#DejaVuSans-30" x="163.916016"/>
     <use xlink:href="#DejaVuSans-2b" x="227.539062"/>
     <use xlink:href="#DejaVuSans-76" x="311.328125"/>
     <use xlink:href="#DejaVuSans-6f" x="370.507812"/>
     <use xlink:href="#DejaVuSans-6c" x="431.689453"/>
     <use xlink:href="#DejaVuSans-53" x="459.472656"/>
     <use xlink:href="#DejaVuSans-70" x="522.949219"/>
     <use xlink:href="#DejaVuSans-69" x="586.425781"/>
     <use xlink:href="#DejaVuSans-6b" x="614.208984"/>
     <use xlink:href="#DejaVuSans-65" x="668.494141"/>
    </g>
    <!-- 60.9% -->
    <g style="fill: #ffffff; opacity: 0.9" transform="translate(219.597722 166.000427) scale(0.075 -0.075)">
     <defs>
      <path id="DejaVuSans-39" d="M 703 97 
L 703 672 
Q 941 559 1184 500 
Q 1428 441 1663 441 
Q 2288 441 2617 861 
Q 2947 1281 2994 2138 
Q 2813 1869 2534 1725 
Q 2256 1581 1919 1581 
Q 1219 1581 811 2004 
Q 403 2428 403 3163 
Q 403 3881 828 4315 
Q 1253 4750 1959 4750 
Q 2769 4750 3195 4129 
Q 3622 3509 3622 2328 
Q 3622 1225 3098 567 
Q 2575 -91 1691 -91 
Q 1453 -91 1209 -44 
Q 966 3 703 97 
z
M 1959 2075 
Q 2384 2075 2632 2365 
Q 2881 2656 2881 3163 
Q 2881 3666 2632 3958 
Q 2384 4250 1959 4250 
Q 1534 4250 1286 3958 
Q 1038 3666 1038 3163 
Q 1038 2656 1286 2365 
Q 1534 2075 1959 2075 
z
" transform="scale(0.015625)"/>
     </defs>
     <use xlink:href="#DejaVuSans-36"/>
     <use xlink:href="#DejaVuSans-30" x="63.623047"/>
     <use xlink:href="#DejaVuSans-2e" x="127.246094"/>
     <use xlink:href="#DejaVuSans-39" x="159.033203"/>
     <use xlink:href="#DejaVuSans-25" x="222.65625"/>
    </g>
   </g>
   <g id="patch_10">
    <path d="M 177.182927 46.735337 
Q 175.782356 47.256982 174.381784 47.778627 
" style="fill: none; stroke: #aeaeb2; stroke-width: 0.6; stroke-linecap: round"/>
   </g>
   <g id="text_18">
    <!-- Puts pullback -->
    <g style="fill: #ffffff; opacity: 0.9" transform="translate(180.503693 34.079766) scale(0.075 -0.075)">
     <defs>
      <path id="DejaVuSans-50" d="M 1259 4147 
L 1259 2394 
L 2053 2394 
Q 2494 2394 2734 2622 
Q 2975 2850 2975 3272 
Q 2975 3691 2734 3919 
Q 2494 4147 2053 4147 
L 1259 4147 
z
M 628 4666 
L 2053 4666 
Q 2838 4666 3239 4311 
Q 3641 3956 3641 3272 
Q 3641 2581 3239 2228 
Q 2838 1875 2053 1875 
L 1259 1875 
L 1259 0 
L 628 0 
L 628 4666 
z
" transform="scale(0.015625)"/>
      <path id="DejaVuSans-62" d="M 3116 1747 
Q 3116 2381 2855 2742 
Q 2594 3103 2138 3103 
Q 1681 3103 1420 2742 
Q 1159 2381 1159 1747 
Q 1159 1113 1420 752 
Q 1681 391 2138 391 
Q 2594 391 2855 752 
Q 3116 1113 3116 1747 
z
M 1159 2969 
Q 1341 3281 1617 3432 
Q 1894 3584 2278 3584 
Q 2916 3584 3314 3078 
Q 3713 2572 3713 1747 
Q 3713 922 3314 415 
Q 2916 -91 2278 -91 
Q 1894 -91 1617 61 
Q 1341 213 1159 525 
L 1159 0 
L 581 0 
L 581 4863 
L 1159 4863 
L 1159 2969 
z
" transform="scale(0.015625)"/>
     </defs>
     <use xlink:href="#DejaVuSans-50"/>
     <use xlink:href="#DejaVuSans-75" x="58.552734"/>
     <use xlink:href="#DejaVuSans-74" x="121.931641"/>
     <use xlink:href="#DejaVuSans-73" x="161.140625"/>
     <use xlink:href="#DejaVuSans-20" x="213.240234"/>
     <use xlink:href="#DejaVuSans-70" x="245.027344"/>
     <use xlink:href="#DejaVuSans-75" x="308.503906"/>
     <use xlink:href="#DejaVuSans-6c" x="371.882812"/>
     <use xlink:href="#DejaVuSans-6c" x="399.666016"/>
     <use xlink:href="#DejaVuSans-62" x="427.449219"/>
     <use xlink:href="#DejaVuSans-61" x="490.925781"/>
     <use xlink:href="#DejaVuSans-63" x="552.205078"/>
     <use xlink:href="#DejaVuSans-6b" x="607.185547"/>
    </g>
    <!-- 76.3% -->
    <g style="fill: #ffffff; opacity: 0.9" transform="translate(180.503693 42.478125) scale(0.075 -0.075)">
     <use xlink:href="#DejaVuSans-37"/>
     <use xlink:href="#DejaVuSans-36" x="63.623047"/>
     <use xlink:href="#DejaVuSans-2e" x="127.246094"/>
     <use xlink:href="#DejaVuSans-33" x="159.033203"/>
     <use xlink:href="#DejaVuSans-25" x="222.65625"/>
    </g>
   </g>
   <g id="patch_11">
    <path d="M 202.878683 156.970766 
Q 200.484293 157.646995 198.089903 158.323224 
" style="fill: none; stroke: #aeaeb2; stroke-width: 0.6; stroke-linecap: round"/>
   </g>
   <g id="text_19">
    <!-- rv60+spike+range -->
    <g style="fill: #ffffff; opacity: 0.9" transform="translate(204.165869 144.468255) scale(0.075 -0.075)">
     <use xlink:href="#DejaVuSans-72"/>
     <use xlink:href="#DejaVuSans-76" x="41.113281"/>
     <use xlink:href="#DejaVuSans-36" x="100.292969"/>
     <use xlink:href="#DejaVuSans-30" x="163.916016"/>
     <use xlink:href="#DejaVuSans-2b" x="227.539062"/>
     <use xlink:href="#DejaVuSans-73" x="311.328125"/>
     <use xlink:href="#DejaVuSans-70" x="363.427734"/>
     <use xlink:href="#DejaVuSans-69" x="426.904297"/>
     <use xlink:href="#DejaVuSans-6b" x="454.6875"/>
     <use xlink:href="#DejaVuSans-65" x="508.972656"/>
     <use xlink:href="#DejaVuSans-2b" x="570.496094"/>
     <use xlink:href="#DejaVuSans-72" x="654.285156"/>
     <use xlink:href="#DejaVuSans-61" x="695.398438"/>
     <use xlink:href="#DejaVuSans-6e" x="756.677734"/>
     <use xlink:href="#DejaVuSans-67" x="820.056641"/>
     <use xlink:href="#DejaVuSans-65" x="883.533203"/>
    </g>
    <!-- 62.6% -->
    <g style="fill: #ffffff; opacity: 0.9" transform="translate(204.165869 152.866614) scale(0.075 -0.075)">
     <use xlink:href="#DejaVuSans-36"/>
     <use xlink:href="#DejaVuSans-32" x="63.623047"/>
     <use xlink:href="#DejaVuSans-2e" x="127.246094"/>
     <use xlink:href="#DejaVuSans-36" x="159.033203"/>
     <use xlink:href="#DejaVuSans-25" x="222.65625"/>
    </g>
   </g>
   <g id="patch_12">
    <path d="M 162.276342 64.654459 
Q 161.099884 65.182038 159.923426 65.709618 
" style="fill: none; stroke: #aeaeb2; stroke-width: 0.6; stroke-linecap: round"/>
   </g>
   <g id="text_20">
    <!-- rv75+MTF -->
    <g style="fill: #ffffff; opacity: 0.9" transform="translate(166.10063 52.128686) scale(0.075 -0.075)">
     <defs>
      <path id="DejaVuSans-4d" d="M 628 4666 
L 1569 4666 
L 2759 1491 
L 3956 4666 
L 4897 4666 
L 4897 0 
L 4281 0 
L 4281 4097 
L 3078 897 
L 2444 897 
L 1241 4097 
L 1241 0 
L 628 0 
L 628 4666 
z
" transform="scale(0.015625)"/>
      <path id="DejaVuSans-54" d="M -19 4666 
L 3928 4666 
L 3928 4134 
L 2272 4134 
L 2272 0 
L 1638 0 
L 1638 4134 
L -19 4134 
L -19 4666 
z
" transform="scale(0.015625)"/>
     </defs>
     <use xlink:href="#DejaVuSans-72"/>
     <use xlink:href="#DejaVuSans-76" x="41.113281"/>
     <use xlink:href="#DejaVuSans-37" x="100.292969"/>
     <use xlink:href="#DejaVuSans-35" x="163.916016"/>
     <use xlink:href="#DejaVuSans-2b" x="227.539062"/>
     <use xlink:href="#DejaVuSans-4d" x="311.328125"/>
     <use xlink:href="#DejaVuSans-54" x="397.607422"/>
     <use xlink:href="#DejaVuSans-46" x="458.691406"/>
    </g>
    <!-- 74.0% -->
    <g style="fill: #ffffff; opacity: 0.9" transform="translate(166.10063 60.527046) scale(0.075 -0.075)">
     <use xlink:href="#DejaVuSans-37"/>
     <use xlink:href="#DejaVuSans-34" x="63.623047"/>
     <use xlink:href="#DejaVuSans-2e" x="127.246094"/>
     <use xlink:href="#DejaVuSans-30" x="159.033203"/>
     <use xlink:href="#DejaVuSans-25" x="222.65625"/>
    </g>
   </g>
   <g id="text_21">
    <!-- Baseline 44.0% -->
    <g style="fill: #aeaeb2" transform="translate(642.146439 304.54719) scale(0.08 -0.08)">
     <use xlink:href="#DejaVuSans-42"/>
     <use xlink:href="#DejaVuSans-61" x="68.603516"/>
     <use xlink:href="#DejaVuSans-73" x="129.882812"/>
     <use xlink:href="#DejaVuSans-65" x="181.982422"/>
     <use xlink:href="#DejaVuSans-6c" x="243.505859"/>
     <use xlink:href="#DejaVuSans-69" x="271.289062"/>
     <use xlink:href="#DejaVuSans-6e" x="299.072266"/>
     <use xlink:href="#DejaVuSans-65" x="362.451172"/>
     <use xlink:href="#DejaVuSans-20" x="423.974609"/>
     <use xlink:href="#DejaVuSans-34" x="455.761719"/>
     <use xlink:href="#DejaVuSans-34" x="519.384766"/>
     <use xlink:href="#DejaVuSans-2e" x="583.007812"/>
     <use xlink:href="#DejaVuSans-30" x="614.794922"/>
     <use xlink:href="#DejaVuSans-25" x="678.417969"/>
    </g>
   </g>
   <g id="text_22">
    <!-- Entry conditions — magnitude win rate vs trading frequency  (2025–2026) -->
    <g style="fill: #ffffff" transform="translate(254.0475 16.318125) scale(0.12 -0.12)">
     <defs>
      <path id="DejaVuSans-45" d="M 628 4666 
L 3578 4666 
L 3578 4134 
L 1259 4134 
L 1259 2753 
L 3481 2753 
L 3481 2222 
L 1259 2222 
L 1259 531 
L 3634 531 
L 3634 0 
L 628 0 
L 628 4666 
z
" transform="scale(0.015625)"/>
      <path id="DejaVuSans-2014" d="M 313 1978 
L 6088 1978 
L 6088 1528 
L 313 1528 
L 313 1978 
z
" transform="scale(0.015625)"/>
      <path id="DejaVuSans-2013" d="M 313 1978 
L 2888 1978 
L 2888 1528 
L 313 1528 
L 313 1978 
z
" transform="scale(0.015625)"/>
     </defs>
     <use xlink:href="#DejaVuSans-45"/>
     <use xlink:href="#DejaVuSans-6e" x="63.183594"/>
     <use xlink:href="#DejaVuSans-74" x="126.5625"/>
     <use xlink:href="#DejaVuSans-72" x="165.771484"/>
     <use xlink:href="#DejaVuSans-79" x="206.884766"/>
     <use xlink:href="#DejaVuSans-20" x="266.064453"/>
     <use xlink:href="#DejaVuSans-63" x="297.851562"/>
     <use xlink:href="#DejaVuSans-6f" x="352.832031"/>
     <use xlink:href="#DejaVuSans-6e" x="414.013672"/>
     <use xlink:href="#DejaVuSans-64" x="477.392578"/>
     <use xlink:href="#DejaVuSans-69" x="540.869141"/>
     <use xlink:href="#DejaVuSans-74" x="568.652344"/>
     <use xlink:href="#DejaVuSans-69" x="607.861328"/>
     <use xlink:href="#DejaVuSans-6f" x="635.644531"/>
     <use xlink:href="#DejaVuSans-6e" x="696.826172"/>
     <use xlink:href="#DejaVuSans-73" x="760.205078"/>
     <use xlink:href="#DejaVuSans-20" x="812.304688"/>
     <use xlink:href="#DejaVuSans-2014" x="844.091797"/>
     <use xlink:href="#DejaVuSans-20" x="944.091797"/>
     <use xlink:href="#DejaVuSans-6d" x="975.878906"/>
     <use xlink:href="#DejaVuSans-61" x="1073.291016"/>
     <use xlink:href="#DejaVuSans-67" x="1134.570312"/>
     <use xlink:href="#DejaVuSans-6e" x="1198.046875"/>
     <use xlink:href="#DejaVuSans-69" x="1261.425781"/>
     <use xlink:href="#DejaVuSans-74" x="1289.208984"/>
     <use xlink:href="#DejaVuSans-75" x="1328.417969"/>
     <use xlink:href="#DejaVuSans-64" x="1391.796875"/>
     <use xlink:href="#DejaVuSans-65" x="1455.273438"/>
     <use xlink:href="#DejaVuSans-20" x="1516.796875"/>
     <use xlink:href="#DejaVuSans-77" x="1548.583984"/>
     <use xlink:href="#DejaVuSans-69" x="1630.371094"/>
     <use xlink:href="#DejaVuSans-6e" x="1658.154297"/>
     <use xlink:href="#DejaVuSans-20" x="1721.533203"/>
     <use xlink:href="#DejaVuSans-72" x="1753.320312"/>
     <use xlink:href="#DejaVuSans-61" x="1794.433594"/>
     <use xlink:href="#DejaVuSans-74" x="1855.712891"/>
     <use xlink:href="#DejaVuSans-65" x="1894.921875"/>
     <use xlink:href="#DejaVuSans-20" x="1956.445312"/>
     <use xlink:href="#DejaVuSans-76" x="1988.232422"/>
     <use xlink:href="#DejaVuSans-73" x="2047.412109"/>
     <use xlink:href="#DejaVuSans-20" x="2099.511719"/>
     <use xlink:href="#DejaVuSans-74" x="2131.298828"/>
     <use xlink:href="#DejaVuSans-72" x="2170.507812"/>
     <use xlink:href="#DejaVuSans-61" x="2211.621094"/>
     <use xlink:href="#DejaVuSans-64" x="2272.900391"/>
     <use xlink:href="#DejaVuSans-69" x="2336.376953"/>
     <use xlink:href="#DejaVuSans-6e" x="2364.160156"/>
     <use xlink:href="#DejaVuSans-67" x="2427.539062"/>
     <use xlink:href="#DejaVuSans-20" x="2491.015625"/>
     <use xlink:href="#DejaVuSans-66" x="2522.802734"/>
     <use xlink:href="#DejaVuSans-72" x="2558.007812"/>
     <use xlink:href="#DejaVuSans-65" x="2596.871094"/>
     <use xlink:href="#DejaVuSans-71" x="2658.394531"/>
     <use xlink:href="#DejaVuSans-75" x="2721.871094"/>
     <use xlink:href="#DejaVuSans-65" x="2785.25"/>
     <use xlink:href="#DejaVuSans-6e" x="2846.773438"/>
     <use xlink:href="#DejaVuSans-63" x="2910.152344"/>
     <use xlink:href="#DejaVuSans-79" x="2965.132812"/>
     <use xlink:href="#DejaVuSans-20" x="3024.3125"/>
     <use xlink:href="#DejaVuSans-20" x="3056.099609"/>
     <use xlink:href="#DejaVuSans-28" x="3087.886719"/>
     <use xlink:href="#DejaVuSans-32" x="3126.900391"/>
     <use xlink:href="#DejaVuSans-30" x="3190.523438"/>
     <use xlink:href="#DejaVuSans-32" x="3254.146484"/>
     <use xlink:href="#DejaVuSans-35" x="3317.769531"/>
     <use xlink:href="#DejaVuSans-2013" x="3381.392578"/>
     <use xlink:href="#DejaVuSans-32" x="3431.392578"/>
     <use xlink:href="#DejaVuSans-30" x="3495.015625"/>
     <use xlink:href="#DejaVuSans-32" x="3558.638672"/>
     <use xlink:href="#DejaVuSans-36" x="3622.261719"/>
     <use xlink:href="#DejaVuSans-29" x="3685.884766"/>
    </g>
   </g>
   <g id="legend_1">
    <g id="patch_13">
     <path d="M 734.945 467.838125 
L 834.64 467.838125 
Q 836.24 467.838125 836.24 466.238125 
L 836.24 373.098125 
Q 836.24 371.498125 834.64 371.498125 
L 734.945 371.498125 
Q 733.345 371.498125 733.345 373.098125 
L 733.345 466.238125 
Q 733.345 467.838125 734.945 467.838125 
z
" style="fill: #1c1c1e; opacity: 0.4; stroke: #cccccc; stroke-linejoin: miter"/>
    </g>
    <g id="text_23">
     <!-- Condition type -->
     <g transform="translate(755.496875 380.776875) scale(0.08 -0.08)">
      <defs>
       <path id="DejaVuSans-43" d="M 4122 4306 
L 4122 3641 
Q 3803 3938 3442 4084 
Q 3081 4231 2675 4231 
Q 1875 4231 1450 3742 
Q 1025 3253 1025 2328 
Q 1025 1406 1450 917 
Q 1875 428 2675 428 
Q 3081 428 3442 575 
Q 3803 722 4122 1019 
L 4122 359 
Q 3791 134 3420 21 
Q 3050 -91 2638 -91 
Q 1578 -91 968 557 
Q 359 1206 359 2328 
Q 359 3453 968 4101 
Q 1578 4750 2638 4750 
Q 3056 4750 3426 4639 
Q 3797 4528 4122 4306 
z
" transform="scale(0.015625)"/>
      </defs>
      <use xlink:href="#DejaVuSans-43"/>
      <use xlink:href="#DejaVuSans-6f" x="69.824219"/>
      <use xlink:href="#DejaVuSans-6e" x="131.005859"/>
      <use xlink:href="#DejaVuSans-64" x="194.384766"/>
      <use xlink:href="#DejaVuSans-69" x="257.861328"/>
      <use xlink:href="#DejaVuSans-74" x="285.644531"/>
      <use xlink:href="#DejaVuSans-69" x="324.853516"/>
      <use xlink:href="#DejaVuSans-6f" x="352.636719"/>
      <use xlink:href="#DejaVuSans-6e" x="413.818359"/>
      <use xlink:href="#DejaVuSans-20" x="477.197266"/>
      <use xlink:href="#DejaVuSans-74" x="508.984375"/>
      <use xlink:href="#DejaVuSans-79" x="548.193359"/>
      <use xlink:href="#DejaVuSans-70" x="607.373047"/>
      <use xlink:href="#DejaVuSans-65" x="670.849609"/>
     </g>
    </g>
    <g id="PathCollection_32">
     <g>
      <use xlink:href="#mc6bb50b9f6" x="744.545" y="390.419375" style="fill: #ff9f0a; fill-opacity: 0.8; stroke: #1c1c1e; stroke-opacity: 0.8; stroke-width: 0.8"/>
     </g>
    </g>
    <g id="text_24">
     <!-- Vol regime -->
     <g style="fill: #ffffff" transform="translate(758.945 392.519375) scale(0.08 -0.08)">
      <defs>
       <path id="DejaVuSans-56" d="M 1831 0 
L 50 4666 
L 709 4666 
L 2188 738 
L 3669 4666 
L 4325 4666 
L 2547 0 
L 1831 0 
z
" transform="scale(0.015625)"/>
      </defs>
      <use xlink:href="#DejaVuSans-56"/>
      <use xlink:href="#DejaVuSans-6f" x="60.658203"/>
      <use xlink:href="#DejaVuSans-6c" x="121.839844"/>
      <use xlink:href="#DejaVuSans-20" x="149.623047"/>
      <use xlink:href="#DejaVuSans-72" x="181.410156"/>
      <use xlink:href="#DejaVuSans-65" x="220.273438"/>
      <use xlink:href="#DejaVuSans-67" x="281.796875"/>
      <use xlink:href="#DejaVuSans-69" x="345.273438"/>
      <use xlink:href="#DejaVuSans-6d" x="373.056641"/>
      <use xlink:href="#DejaVuSans-65" x="470.46875"/>
     </g>
    </g>
    <g id="PathCollection_33">
     <g>
      <use xlink:href="#mbe61b8998f" x="744.545" y="402.161875" style="fill: #ff453a; fill-opacity: 0.8; stroke: #1c1c1e; stroke-opacity: 0.8; stroke-width: 0.8"/>
     </g>
    </g>
    <g id="text_25">
     <!-- BB width -->
     <g style="fill: #ffffff" transform="translate(758.945 404.261875) scale(0.08 -0.08)">
      <use xlink:href="#DejaVuSans-42"/>
      <use xlink:href="#DejaVuSans-42" x="68.603516"/>
      <use xlink:href="#DejaVuSans-20" x="137.207031"/>
      <use xlink:href="#DejaVuSans-77" x="168.994141"/>
      <use xlink:href="#DejaVuSans-69" x="250.78125"/>
      <use xlink:href="#DejaVuSans-64" x="278.564453"/>
      <use xlink:href="#DejaVuSans-74" x="342.041016"/>
      <use xlink:href="#DejaVuSans-68" x="381.25"/>
     </g>
    </g>
    <g id="PathCollection_34">
     <g>
      <use xlink:href="#m7bd5ffbd0c" x="744.545" y="413.904375" style="fill: #bf5af2; fill-opacity: 0.8; stroke: #1c1c1e; stroke-opacity: 0.8; stroke-width: 0.8"/>
     </g>
    </g>
    <g id="text_26">
     <!-- Volume spike -->
     <g style="fill: #ffffff" transform="translate(758.945 416.004375) scale(0.08 -0.08)">
      <use xlink:href="#DejaVuSans-56"/>
      <use xlink:href="#DejaVuSans-6f" x="60.658203"/>
      <use xlink:href="#DejaVuSans-6c" x="121.839844"/>
      <use xlink:href="#DejaVuSans-75" x="149.623047"/>
      <use xlink:href="#DejaVuSans-6d" x="213.001953"/>
      <use xlink:href="#DejaVuSans-65" x="310.414062"/>
      <use xlink:href="#DejaVuSans-20" x="371.9375"/>
      <use xlink:href="#DejaVuSans-73" x="403.724609"/>
      <use xlink:href="#DejaVuSans-70" x="455.824219"/>
      <use xlink:href="#DejaVuSans-69" x="519.300781"/>
      <use xlink:href="#DejaVuSans-6b" x="547.083984"/>
      <use xlink:href="#DejaVuSans-65" x="601.369141"/>
     </g>
    </g>
    <g id="PathCollection_35">
     <g>
      <use xlink:href="#m4372c7dc8d" x="744.545" y="425.646875" style="fill: #34c759; fill-opacity: 0.8; stroke: #1c1c1e; stroke-opacity: 0.8; stroke-width: 0.8"/>
     </g>
    </g>
    <g id="text_27">
     <!-- Vol + spike combo -->
     <g style="fill: #ffffff" transform="translate(758.945 427.746875) scale(0.08 -0.08)">
      <use xlink:href="#DejaVuSans-56"/>
      <use xlink:href="#DejaVuSans-6f" x="60.658203"/>
      <use xlink:href="#DejaVuSans-6c" x="121.839844"/>
      <use xlink:href="#DejaVuSans-20" x="149.623047"/>
      <use xlink:href="#DejaVuSans-2b" x="181.410156"/>
      <use xlink:href="#DejaVuSans-20" x="265.199219"/>
      <use xlink:href="#DejaVuSans-73" x="296.986328"/>
      <use xlink:href="#DejaVuSans-70" x="349.085938"/>
      <use xlink:href="#DejaVuSans-69" x="412.5625"/>
      <use xlink:href="#DejaVuSans-6b" x="440.345703"/>
      <use xlink:href="#DejaVuSans-65" x="494.630859"/>
      <use xlink:href="#DejaVuSans-20" x="556.154297"/>
      <use xlink:href="#DejaVuSans-63" x="587.941406"/>
      <use xlink:href="#DejaVuSans-6f" x="642.921875"/>
      <use xlink:href="#DejaVuSans-6d" x="704.103516"/>
      <use xlink:href="#DejaVuSans-62" x="801.515625"/>
      <use xlink:href="#DejaVuSans-6f" x="864.992188"/>
     </g>
    </g>
    <g id="PathCollection_36">
     <g>
      <use xlink:href="#ma426412271" x="744.545" y="437.389375" style="fill: #64d2ff; fill-opacity: 0.8; stroke: #1c1c1e; stroke-opacity: 0.8; stroke-width: 0.8"/>
     </g>
    </g>
    <g id="text_28">
     <!-- Range expansion -->
     <g style="fill: #ffffff" transform="translate(758.945 439.489375) scale(0.08 -0.08)">
      <defs>
       <path id="DejaVuSans-52" d="M 2841 2188 
Q 3044 2119 3236 1894 
Q 3428 1669 3622 1275 
L 4263 0 
L 3584 0 
L 2988 1197 
Q 2756 1666 2539 1819 
Q 2322 1972 1947 1972 
L 1259 1972 
L 1259 0 
L 628 0 
L 628 4666 
L 2053 4666 
Q 2853 4666 3247 4331 
Q 3641 3997 3641 3322 
Q 3641 2881 3436 2590 
Q 3231 2300 2841 2188 
z
M 1259 4147 
L 1259 2491 
L 2053 2491 
Q 2509 2491 2742 2702 
Q 2975 2913 2975 3322 
Q 2975 3731 2742 3939 
Q 2509 4147 2053 4147 
L 1259 4147 
z
" transform="scale(0.015625)"/>
       <path id="DejaVuSans-78" d="M 3513 3500 
L 2247 1797 
L 3578 0 
L 2900 0 
L 1881 1375 
L 863 0 
L 184 0 
L 1544 1831 
L 300 3500 
L 978 3500 
L 1906 2253 
L 2834 3500 
L 3513 3500 
z
" transform="scale(0.015625)"/>
      </defs>
      <use xlink:href="#DejaVuSans-52"/>
      <use xlink:href="#DejaVuSans-61" x="67.232422"/>
      <use xlink:href="#DejaVuSans-6e" x="128.511719"/>
      <use xlink:href="#DejaVuSans-67" x="191.890625"/>
      <use xlink:href="#DejaVuSans-65" x="255.367188"/>
      <use xlink:href="#DejaVuSans-20" x="316.890625"/>
      <use xlink:href="#DejaVuSans-65" x="348.677734"/>
      <use xlink:href="#DejaVuSans-78" x="408.451172"/>
      <use xlink:href="#DejaVuSans-70" x="467.630859"/>
      <use xlink:href="#DejaVuSans-61" x="531.107422"/>
      <use xlink:href="#DejaVuSans-6e" x="592.386719"/>
      <use xlink:href="#DejaVuSans-73" x="655.765625"/>
      <use xlink:href="#DejaVuSans-69" x="707.865234"/>
      <use xlink:href="#DejaVuSans-6f" x="735.648438"/>
      <use xlink:href="#DejaVuSans-6e" x="796.830078"/>
     </g>
    </g>
    <g id="PathCollection_37">
     <g>
      <use xlink:href="#m20aac821df" x="744.545" y="449.131875" style="fill: #0a84ff; fill-opacity: 0.8; stroke: #1c1c1e; stroke-opacity: 0.8; stroke-width: 0.8"/>
     </g>
    </g>
    <g id="text_29">
     <!-- MTF momentum -->
     <g style="fill: #ffffff" transform="translate(758.945 451.231875) scale(0.08 -0.08)">
      <use xlink:href="#DejaVuSans-4d"/>
      <use xlink:href="#DejaVuSans-54" x="86.279297"/>
      <use xlink:href="#DejaVuSans-46" x="147.363281"/>
      <use xlink:href="#DejaVuSans-20" x="204.882812"/>
      <use xlink:href="#DejaVuSans-6d" x="236.669922"/>
      <use xlink:href="#DejaVuSans-6f" x="334.082031"/>
      <use xlink:href="#DejaVuSans-6d" x="395.263672"/>
      <use xlink:href="#DejaVuSans-65" x="492.675781"/>
      <use xlink:href="#DejaVuSans-6e" x="554.199219"/>
      <use xlink:href="#DejaVuSans-74" x="617.578125"/>
      <use xlink:href="#DejaVuSans-75" x="656.787109"/>
      <use xlink:href="#DejaVuSans-6d" x="720.166016"/>
     </g>
    </g>
    <g id="PathCollection_38">
     <g>
      <use xlink:href="#m2deb165d58" x="744.545" y="460.874375" style="fill: #aeaeb2; fill-opacity: 0.8; stroke: #1c1c1e; stroke-opacity: 0.8; stroke-width: 0.8"/>
     </g>
    </g>
    <g id="text_30">
     <!-- Session -->
     <g style="fill: #ffffff" transform="translate(758.945 462.974375) scale(0.08 -0.08)">
      <use xlink:href="#DejaVuSans-53"/>
      <use xlink:href="#DejaVuSans-65" x="63.476562"/>
      <use xlink:href="#DejaVuSans-73" x="125"/>
      <use xlink:href="#DejaVuSans-73" x="177.099609"/>
      <use xlink:href="#DejaVuSans-69" x="229.199219"/>
      <use xlink:href="#DejaVuSans-6f" x="256.982422"/>
      <use xlink:href="#DejaVuSans-6e" x="318.164062"/>
     </g>
    </g>
   </g>
  </g>
  <g id="text_31">
   <!-- Bubble size ∝ fires/week.  Dashed line = baseline 44.0%.  Seek top-right (high win rate + reasonable frequency). -->
   <g style="fill: #aeaeb2" transform="translate(7.2 523.678125) scale(0.075 -0.075)">
    <defs>
     <path id="DejaVuSans-221d" d="M 1647 1134 
Q 2163 1134 2472 1884 
Q 2075 2703 1647 2703 
Q 1334 2703 1175 2478 
Q 1006 2238 1006 1919 
Q 1006 1569 1175 1353 
Q 1350 1134 1647 1134 
z
M 3884 1128 
L 3884 716 
L 3644 716 
Q 3416 716 3247 809 
Q 3078 894 2916 1091 
Q 2819 1203 2666 1466 
Q 2456 1091 2272 925 
Q 2044 725 1681 725 
Q 1259 725 981 1041 
Q 688 1372 688 1919 
Q 688 2444 981 2800 
Q 1241 3116 1688 3116 
Q 1916 3116 2084 3022 
Q 2281 2919 2416 2741 
Q 2541 2581 2666 2366 
Q 2875 2741 3059 2906 
Q 3288 3106 3650 3106 
L 3884 3106 
L 3884 2697 
L 3684 2697 
Q 3222 2697 2859 1947 
Q 3256 1128 3684 1128 
L 3884 1128 
z
" transform="scale(0.015625)"/>
     <path id="DejaVuSans-2f" d="M 1625 4666 
L 2156 4666 
L 531 -594 
L 0 -594 
L 1625 4666 
z
" transform="scale(0.015625)"/>
     <path id="DejaVuSans-44" d="M 1259 4147 
L 1259 519 
L 2022 519 
Q 2988 519 3436 956 
Q 3884 1394 3884 2338 
Q 3884 3275 3436 3711 
Q 2988 4147 2022 4147 
L 1259 4147 
z
M 628 4666 
L 1925 4666 
Q 3281 4666 3915 4102 
Q 4550 3538 4550 2338 
Q 4550 1131 3912 565 
Q 3275 0 1925 0 
L 628 0 
L 628 4666 
z
" transform="scale(0.015625)"/>
     <path id="DejaVuSans-3d" d="M 678 2906 
L 4684 2906 
L 4684 2381 
L 678 2381 
L 678 2906 
z
M 678 1631 
L 4684 1631 
L 4684 1100 
L 678 1100 
L 678 1631 
z
" transform="scale(0.015625)"/>
     <path id="DejaVuSans-2d" d="M 313 2009 
L 1997 2009 
L 1997 1497 
L 313 1497 
L 313 2009 
z
" transform="scale(0.015625)"/>
    </defs>
    <use xlink:href="#DejaVuSans-42"/>
    <use xlink:href="#DejaVuSans-75" x="68.603516"/>
    <use xlink:href="#DejaVuSans-62" x="131.982422"/>
    <use xlink:href="#DejaVuSans-62" x="195.458984"/>
    <use xlink:href="#DejaVuSans-6c" x="258.935547"/>
    <use xlink:href="#DejaVuSans-65" x="286.71875"/>
    <use xlink:href="#DejaVuSans-20" x="348.242188"/>
    <use xlink:href="#DejaVuSans-73" x="380.029297"/>
    <use xlink:href="#DejaVuSans-69" x="432.128906"/>
    <use xlink:href="#DejaVuSans-7a" x="459.912109"/>
    <use xlink:href="#DejaVuSans-65" x="512.402344"/>
    <use xlink:href="#DejaVuSans-20" x="573.925781"/>
    <use xlink:href="#DejaVuSans-221d" x="605.712891"/>
    <use xlink:href="#DejaVuSans-20" x="677.148438"/>
    <use xlink:href="#DejaVuSans-66" x="708.935547"/>
    <use xlink:href="#DejaVuSans-69" x="744.140625"/>
    <use xlink:href="#DejaVuSans-72" x="771.923828"/>
    <use xlink:href="#DejaVuSans-65" x="810.787109"/>
    <use xlink:href="#DejaVuSans-73" x="872.310547"/>
    <use xlink:href="#DejaVuSans-2f" x="924.410156"/>
    <use xlink:href="#DejaVuSans-77" x="958.101562"/>
    <use xlink:href="#DejaVuSans-65" x="1039.888672"/>
    <use xlink:href="#DejaVuSans-65" x="1101.412109"/>
    <use xlink:href="#DejaVuSans-6b" x="1162.935547"/>
    <use xlink:href="#DejaVuSans-2e" x="1220.845703"/>
    <use xlink:href="#DejaVuSans-20" x="1252.632812"/>
    <use xlink:href="#DejaVuSans-20" x="1284.419922"/>
    <use xlink:href="#DejaVuSans-44" x="1316.207031"/>
    <use xlink:href="#DejaVuSans-61" x="1393.208984"/>
    <use xlink:href="#DejaVuSans-73" x="1454.488281"/>
    <use xlink:href="#DejaVuSans-68" x="1506.587891"/>
    <use xlink:href="#DejaVuSans-65" x="1569.966797"/>
    <use xlink:href="#DejaVuSans-64" x="1631.490234"/>
    <use xlink:href="#DejaVuSans-20" x="1694.966797"/>
    <use xlink:href="#DejaVuSans-6c" x="1726.753906"/>
    <use xlink:href="#DejaVuSans-69" x="1754.537109"/>
    <use xlink:href="#DejaVuSans-6e" x="1782.320312"/>
    <use xlink:href="#DejaVuSans-65" x="1845.699219"/>
    <use xlink:href="#DejaVuSans-20" x="1907.222656"/>
    <use xlink:href="#DejaVuSans-3d" x="1939.009766"/>
    <use xlink:href="#DejaVuSans-20" x="2022.798828"/>
    <use xlink:href="#DejaVuSans-62" x="2054.585938"/>
    <use xlink:href="#DejaVuSans-61" x="2118.0625"/>
    <use xlink:href="#DejaVuSans-73" x="2179.341797"/>
    <use xlink:href="#DejaVuSans-65" x="2231.441406"/>
    <use xlink:href="#DejaVuSans-6c" x="2292.964844"/>
    <use xlink:href="#DejaVuSans-69" x="2320.748047"/>
    <use xlink:href="#DejaVuSans-6e" x="2348.53125"/>
    <use xlink:href="#DejaVuSans-65" x="2411.910156"/>
    <use xlink:href="#DejaVuSans-20" x="2473.433594"/>
    <use xlink:href="#DejaVuSans-34" x="2505.220703"/>
    <use xlink:href="#DejaVuSans-34" x="2568.84375"/>
    <use xlink:href="#DejaVuSans-2e" x="2632.466797"/>
    <use xlink:href="#DejaVuSans-30" x="2664.253906"/>
    <use xlink:href="#DejaVuSans-25" x="2727.876953"/>
    <use xlink:href="#DejaVuSans-2e" x="2822.896484"/>
    <use xlink:href="#DejaVuSans-20" x="2854.683594"/>
    <use xlink:href="#DejaVuSans-20" x="2886.470703"/>
    <use xlink:href="#DejaVuSans-53" x="2918.257812"/>
    <use xlink:href="#DejaVuSans-65" x="2981.734375"/>
    <use xlink:href="#DejaVuSans-65" x="3043.257812"/>
    <use xlink:href="#DejaVuSans-6b" x="3104.78125"/>
    <use xlink:href="#DejaVuSans-20" x="3162.691406"/>
    <use xlink:href="#DejaVuSans-74" x="3194.478516"/>
    <use xlink:href="#DejaVuSans-6f" x="3233.6875"/>
    <use xlink:href="#DejaVuSans-70" x="3294.869141"/>
    <use xlink:href="#DejaVuSans-2d" x="3358.345703"/>
    <use xlink:href="#DejaVuSans-72" x="3394.429688"/>
    <use xlink:href="#DejaVuSans-69" x="3435.542969"/>
    <use xlink:href="#DejaVuSans-67" x="3463.326172"/>
    <use xlink:href="#DejaVuSans-68" x="3526.802734"/>
    <use xlink:href="#DejaVuSans-74" x="3590.181641"/>
    <use xlink:href="#DejaVuSans-20" x="3629.390625"/>
    <use xlink:href="#DejaVuSans-28" x="3661.177734"/>
    <use xlink:href="#DejaVuSans-68" x="3700.191406"/>
    <use xlink:href="#DejaVuSans-69" x="3763.570312"/>
    <use xlink:href="#DejaVuSans-67" x="3791.353516"/>
    <use xlink:href="#DejaVuSans-68" x="3854.830078"/>
    <use xlink:href="#DejaVuSans-20" x="3918.208984"/>
    <use xlink:href="#DejaVuSans-77" x="3949.996094"/>
    <use xlink:href="#DejaVuSans-69" x="4031.783203"/>
    <use xlink:href="#DejaVuSans-6e" x="4059.566406"/>
    <use xlink:href="#DejaVuSans-20" x="4122.945312"/>
    <use xlink:href="#DejaVuSans-72" x="4154.732422"/>
    <use xlink:href="#DejaVuSans-61" x="4195.845703"/>
    <use xlink:href="#DejaVuSans-74" x="4257.125"/>
    <use xlink:href="#DejaVuSans-65" x="4296.333984"/>
    <use xlink:href="#DejaVuSans-20" x="4357.857422"/>
    <use xlink:href="#DejaVuSans-2b" x="4389.644531"/>
    <use xlink:href="#DejaVuSans-20" x="4473.433594"/>
    <use xlink:href="#DejaVuSans-72" x="4505.220703"/>
    <use xlink:href="#DejaVuSans-65" x="4544.083984"/>
    <use xlink:href="#DejaVuSans-61" x="4605.607422"/>
    <use xlink:href="#DejaVuSans-73" x="4666.886719"/>
    <use xlink:href="#DejaVuSans-6f" x="4718.986328"/>
    <use xlink:href="#DejaVuSans-6e" x="4780.167969"/>
    <use xlink:href="#DejaVuSans-61" x="4843.546875"/>
    <use xlink:href="#DejaVuSans-62" x="4904.826172"/>
    <use xlink:href="#DejaVuSans-6c" x="4968.302734"/>
    <use xlink:href="#DejaVuSans-65" x="4996.085938"/>
    <use xlink:href="#DejaVuSans-20" x="5057.609375"/>
    <use xlink:href="#DejaVuSans-66" x="5089.396484"/>
    <use xlink:href="#DejaVuSans-72" x="5124.601562"/>
    <use xlink:href="#DejaVuSans-65" x="5163.464844"/>
    <use xlink:href="#DejaVuSans-71" x="5224.988281"/>
    <use xlink:href="#DejaVuSans-75" x="5288.464844"/>
    <use xlink:href="#DejaVuSans-65" x="5351.84375"/>
    <use xlink:href="#DejaVuSans-6e" x="5413.367188"/>
    <use xlink:href="#DejaVuSans-63" x="5476.746094"/>
    <use xlink:href="#DejaVuSans-79" x="5531.726562"/>
    <use xlink:href="#DejaVuSans-29" x="5590.90625"/>
    <use xlink:href="#DejaVuSans-2e" x="5629.919922"/>
   </g>
  </g>
 </g>
 <defs>
  <clipPath id="pa4a525b552">
   <rect x="114.84" y="28.318125" width="725.4" height="443.52"/>
  </clipPath>
 </defs>
</svg>
