<?xml version="1.0" encoding="utf-8" standalone="no"?>
<!DOCTYPE svg PUBLIC "-//W3C//DTD SVG 1.1//EN"
  "http://www.w3.org/Graphics/SVG/1.1/DTD/svg11.dtd">
<svg xmlns:xlink="http://www.w3.org/1999/xlink" width="785.190703pt" height="566.872875pt" viewBox="0 0 785.190703 566.872875" xmlns="http://www.w3.org/2000/svg" version="1.1">
 <metadata>
  <rdf:RDF xmlns:dc="http://purl.org/dc/elements/1.1/" xmlns:cc="http://creativecommons.org/ns#" xmlns:rdf="http://www.w3.org/1999/02/22-rdf-syntax-ns#">
   <cc:Work>
    <dc:type rdf:resource="http://purl.org/dc/dcmitype/StillImage"/>
    <dc:date>2026-05-17T15:46:13.251848</dc:date>
    <dc:format>image/svg+xml</dc:format>
    <dc:creator>
     <cc:Agent>
      <dc:title>Matplotlib v3.9.4, https://matplotlib.org/</dc:title>
     </cc:Agent>
    </dc:creator>
   </cc:Work>
  </rdf:RDF>
 </metadata>
 <defs>
  <style type="text/css">*{stroke-linejoin: round; stroke-linecap: butt}</style>
 </defs>
 <g id="figure_1">
  <g id="patch_1">
   <path d="M 0 566.872875 
L 785.190703 566.872875 
L 785.190703 0 
L 0 0 
z
" style="fill: #1c1c1e"/>
  </g>
  <g id="axes_1">
   <g id="patch_2">
    <path d="M 164.980703 530.006312 
L 777.990703 530.006312 
L 777.990703 42.181813 
L 164.980703 42.181813 
z
" style="fill: #2c2c2e"/>
   </g>
   <g id="matplotlib.axis_1">
    <g id="xtick_1">
     <g id="line2d_1">
      <path d="M 164.980703 530.006312 
L 164.980703 42.181813 
" clip-path="url(#pa7591ec04b)" style="fill: none; stroke: #8e8e93; stroke-opacity: 0.25; stroke-width: 0.8; stroke-linecap: square"/>
     </g>
     <g id="line2d_2">
      <defs>
       <path id="m57a2dd24de" d="M 0 0 
L 0 3.5 
" style="stroke: #f2f2f7; stroke-width: 0.8"/>
      </defs>
      <g>
       <use xlink:href="#m57a2dd24de" x="164.980703" y="530.006312" style="fill: #f2f2f7; stroke: #f2f2f7; stroke-width: 0.8"/>
      </g>
     </g>
     <g id="text_1">
      <!-- 0% -->
      <g style="fill: #f2f2f7" transform="translate(157.841875 543.844906) scale(0.09 -0.09)">
       <defs>
        <path id="DejaVuSans-30" d="M 2034 4250 
Q 1547 4250 1301 3770 
Q 1056 3291 1056 2328 
Q 1056 1369 1301 889 
Q 1547 409 2034 409 
Q 2525 409 2770 889 
Q 3016 1369 3016 2328 
Q 3016 3291 2770 3770 
Q 2525 4250 2034 4250 
z
M 2034 4750 
Q 2819 4750 3233 4129 
Q 3647 3509 3647 2328 
Q 3647 1150 3233 529 
Q 2819 -91 2034 -91 
Q 1250 -91 836 529 
Q 422 1150 422 2328 
Q 422 3509 836 4129 
Q 1250 4750 2034 4750 
z
" transform="scale(0.015625)"/>
        <path id="DejaVuSans-25" d="M 4653 2053 
Q 4381 2053 4226 1822 
Q 4072 1591 4072 1178 
Q 4072 772 4226 539 
Q 4381 306 4653 306 
Q 4919 306 5073 539 
Q 5228 772 5228 1178 
Q 5228 1588 5073 1820 
Q 4919 2053 4653 2053 
z
M 4653 2450 
Q 5147 2450 5437 2106 
Q 5728 1763 5728 1178 
Q 5728 594 5436 251 
Q 5144 -91 4653 -91 
Q 4153 -91 3862 251 
Q 3572 594 3572 1178 
Q 3572 1766 3864 2108 
Q 4156 2450 4653 2450 
z
M 1428 4353 
Q 1159 4353 1004 4120 
Q 850 3888 850 3481 
Q 850 3069 1003 2837 
Q 1156 2606 1428 2606 
Q 1700 2606 1854 2837 
Q 2009 3069 2009 3481 
Q 2009 3884 1853 4118 
Q 1697 4353 1428 4353 
z
M 4250 4750 
L 4750 4750 
L 1831 -91 
L 1331 -91 
L 4250 4750 
z
M 1428 4750 
Q 1922 4750 2215 4408 
Q 2509 4066 2509 3481 
Q 2509 2891 2217 2550 
Q 1925 2209 1428 2209 
Q 931 2209 642 2551 
Q 353 2894 353 3481 
Q 353 4063 643 4406 
Q 934 4750 1428 4750 
z
" transform="scale(0.015625)"/>
       </defs>
       <use xlink:href="#DejaVuSans-30"/>
       <use xlink:href="#DejaVuSans-25" x="63.623047"/>
      </g>
     </g>
    </g>
    <g id="xtick_2">
     <g id="line2d_3">
      <path d="M 268.880703 530.006312 
L 268.880703 42.181813 
" clip-path="url(#pa7591ec04b)" style="fill: none; stroke: #8e8e93; stroke-opacity: 0.25; stroke-width: 0.8; stroke-linecap: square"/>
     </g>
     <g id="line2d_4">
      <g>
       <use xlink:href="#m57a2dd24de" x="268.880703" y="530.006312" style="fill: #f2f2f7; stroke: #f2f2f7; stroke-width: 0.8"/>
      </g>
     </g>
     <g id="text_2">
      <!-- 20% -->
      <g style="fill: #f2f2f7" transform="translate(258.87875 543.844906) scale(0.09 -0.09)">
       <defs>
        <path id="DejaVuSans-32" d="M 1228 531 
L 3431 531 
L 3431 0 
L 469 0 
L 469 531 
Q 828 903 1448 1529 
Q 2069 2156 2228 2338 
Q 2531 2678 2651 2914 
Q 2772 3150 2772 3378 
Q 2772 3750 2511 3984 
Q 2250 4219 1831 4219 
Q 1534 4219 1204 4116 
Q 875 4013 500 3803 
L 500 4441 
Q 881 4594 1212 4672 
Q 1544 4750 1819 4750 
Q 2544 4750 2975 4387 
Q 3406 4025 3406 3419 
Q 3406 3131 3298 2873 
Q 3191 2616 2906 2266 
Q 2828 2175 2409 1742 
Q 1991 1309 1228 531 
z
" transform="scale(0.015625)"/>
       </defs>
       <use xlink:href="#DejaVuSans-32"/>
       <use xlink:href="#DejaVuSans-30" x="63.623047"/>
       <use xlink:href="#DejaVuSans-25" x="127.246094"/>
      </g>
     </g>
    </g>
    <g id="xtick_3">
     <g id="line2d_5">
      <path d="M 372.780703 530.006312 
L 372.780703 42.181813 
" clip-path="url(#pa7591ec04b)" style="fill: none; stroke: #8e8e93; stroke-opacity: 0.25; stroke-width: 0.8; stroke-linecap: square"/>
     </g>
     <g id="line2d_6">
      <g>
       <use xlink:href="#m57a2dd24de" x="372.780703" y="530.006312" style="fill: #f2f2f7; stroke: #f2f2f7; stroke-width: 0.8"/>
      </g>
     </g>
     <g id="text_3">
      <!-- 40% -->
      <g style="fill: #f2f2f7" transform="translate(362.77875 543.844906) scale(0.09 -0.09)">
       <defs>
        <path id="DejaVuSans-34" d="M 2419 4116 
L 825 1625 
L 2419 1625 
L 2419 4116 
z
M 2253 4666 
L 3047 4666 
L 3047 1625 
L 3713 1625 
L 3713 1100 
L 3047 1100 
L 3047 0 
L 2419 0 
L 2419 1100 
L 313 1100 
L 313 1709 
L 2253 4666 
z
" transform="scale(0.015625)"/>
       </defs>
       <use xlink:href="#DejaVuSans-34"/>
       <use xlink:href="#DejaVuSans-30" x="63.623047"/>
       <use xlink:href="#DejaVuSans-25" x="127.246094"/>
      </g>
     </g>
    </g>
    <g id="xtick_4">
     <g id="line2d_7">
      <path d="M 476.680703 530.006312 
L 476.680703 42.181813 
" clip-path="url(#pa7591ec04b)" style="fill: none; stroke: #8e8e93; stroke-opacity: 0.25; stroke-width: 0.8; stroke-linecap: square"/>
     </g>
     <g id="line2d_8">
      <g>
       <use xlink:href="#m57a2dd24de" x="476.680703" y="530.006312" style="fill: #f2f2f7; stroke: #f2f2f7; stroke-width: 0.8"/>
      </g>
     </g>
     <g id="text_4">
      <!-- 60% -->
      <g style="fill: #f2f2f7" transform="translate(466.67875 543.844906) scale(0.09 -0.09)">
       <defs>
        <path id="DejaVuSans-36" d="M 2113 2584 
Q 1688 2584 1439 2293 
Q 1191 2003 1191 1497 
Q 1191 994 1439 701 
Q 1688 409 2113 409 
Q 2538 409 2786 701 
Q 3034 994 3034 1497 
Q 3034 2003 2786 2293 
Q 2538 2584 2113 2584 
z
M 3366 4563 
L 3366 3988 
Q 3128 4100 2886 4159 
Q 2644 4219 2406 4219 
Q 1781 4219 1451 3797 
Q 1122 3375 1075 2522 
Q 1259 2794 1537 2939 
Q 1816 3084 2150 3084 
Q 2853 3084 3261 2657 
Q 3669 2231 3669 1497 
Q 3669 778 3244 343 
Q 2819 -91 2113 -91 
Q 1303 -91 875 529 
Q 447 1150 447 2328 
Q 447 3434 972 4092 
Q 1497 4750 2381 4750 
Q 2619 4750 2861 4703 
Q 3103 4656 3366 4563 
z
" transform="scale(0.015625)"/>
       </defs>
       <use xlink:href="#DejaVuSans-36"/>
       <use xlink:href="#DejaVuSans-30" x="63.623047"/>
       <use xlink:href="#DejaVuSans-25" x="127.246094"/>
      </g>
     </g>
    </g>
    <g id="xtick_5">
     <g id="line2d_9">
      <path d="M 580.580703 530.006312 
L 580.580703 42.181813 
" clip-path="url(#pa7591ec04b)" style="fill: none; stroke: #8e8e93; stroke-opacity: 0.25; stroke-width: 0.8; stroke-linecap: square"/>
     </g>
     <g id="line2d_10">
      <g>
       <use xlink:href="#m57a2dd24de" x="580.580703" y="530.006312" style="fill: #f2f2f7; stroke: #f2f2f7; stroke-width: 0.8"/>
      </g>
     </g>
     <g id="text_5">
      <!-- 80% -->
      <g style="fill: #f2f2f7" transform="translate(570.57875 543.844906) scale(0.09 -0.09)">
       <defs>
        <path id="DejaVuSans-38" d="M 2034 2216 
Q 1584 2216 1326 1975 
Q 1069 1734 1069 1313 
Q 1069 891 1326 650 
Q 1584 409 2034 409 
Q 2484 409 2743 651 
Q 3003 894 3003 1313 
Q 3003 1734 2745 1975 
Q 2488 2216 2034 2216 
z
M 1403 2484 
Q 997 2584 770 2862 
Q 544 3141 544 3541 
Q 544 4100 942 4425 
Q 1341 4750 2034 4750 
Q 2731 4750 3128 4425 
Q 3525 4100 3525 3541 
Q 3525 3141 3298 2862 
Q 3072 2584 2669 2484 
Q 3125 2378 3379 2068 
Q 3634 1759 3634 1313 
Q 3634 634 3220 271 
Q 2806 -91 2034 -91 
Q 1263 -91 848 271 
Q 434 634 434 1313 
Q 434 1759 690 2068 
Q 947 2378 1403 2484 
z
M 1172 3481 
Q 1172 3119 1398 2916 
Q 1625 2713 2034 2713 
Q 2441 2713 2670 2916 
Q 2900 3119 2900 3481 
Q 2900 3844 2670 4047 
Q 2441 4250 2034 4250 
Q 1625 4250 1398 4047 
Q 1172 3844 1172 3481 
z
" transform="scale(0.015625)"/>
       </defs>
       <use xlink:href="#DejaVuSans-38"/>
       <use xlink:href="#DejaVuSans-30" x="63.623047"/>
       <use xlink:href="#DejaVuSans-25" x="127.246094"/>
      </g>
     </g>
    </g>
    <g id="xtick_6">
     <g id="line2d_11">
      <path d="M 684.480703 530.006312 
L 684.480703 42.181813 
" clip-path="url(#pa7591ec04b)" style="fill: none; stroke: #8e8e93; stroke-opacity: 0.25; stroke-width: 0.8; stroke-linecap: square"/>
     </g>
     <g id="line2d_12">
      <g>
       <use xlink:href="#m57a2dd24de" x="684.480703" y="530.006312" style="fill: #f2f2f7; stroke: #f2f2f7; stroke-width: 0.8"/>
      </g>
     </g>
     <g id="text_6">
      <!-- 100% -->
      <g style="fill: #f2f2f7" transform="translate(671.615625 543.844906) scale(0.09 -0.09)">
       <defs>
        <path id="DejaVuSans-31" d="M 794 531 
L 1825 531 
L 1825 4091 
L 703 3866 
L 703 4441 
L 1819 4666 
L 2450 4666 
L 2450 531 
L 3481 531 
L 3481 0 
L 794 0 
L 794 531 
z
" transform="scale(0.015625)"/>
       </defs>
       <use xlink:href="#DejaVuSans-31"/>
       <use xlink:href="#DejaVuSans-30" x="63.623047"/>
       <use xlink:href="#DejaVuSans-30" x="127.246094"/>
       <use xlink:href="#DejaVuSans-25" x="190.869141"/>
      </g>
     </g>
    </g>
    <g id="text_7">
     <!-- mag_win @ 2.5% threshold -->
     <g style="fill: #f2f2f7" transform="translate(403.216172 557.315062) scale(0.1 -0.1)">
      <defs>
       <path id="DejaVuSans-6d" d="M 3328 2828 
Q 3544 3216 3844 3400 
Q 4144 3584 4550 3584 
Q 5097 3584 5394 3201 
Q 5691 2819 5691 2113 
L 5691 0 
L 5113 0 
L 5113 2094 
Q 5113 2597 4934 2840 
Q 4756 3084 4391 3084 
Q 3944 3084 3684 2787 
Q 3425 2491 3425 1978 
L 3425 0 
L 2847 0 
L 2847 2094 
Q 2847 2600 2669 2842 
Q 2491 3084 2119 3084 
Q 1678 3084 1418 2786 
Q 1159 2488 1159 1978 
L 1159 0 
L 581 0 
L 581 3500 
L 1159 3500 
L 1159 2956 
Q 1356 3278 1631 3431 
Q 1906 3584 2284 3584 
Q 2666 3584 2933 3390 
Q 3200 3197 3328 2828 
z
" transform="scale(0.015625)"/>
       <path id="DejaVuSans-61" d="M 2194 1759 
Q 1497 1759 1228 1600 
Q 959 1441 959 1056 
Q 959 750 1161 570 
Q 1363 391 1709 391 
Q 2188 391 2477 730 
Q 2766 1069 2766 1631 
L 2766 1759 
L 2194 1759 
z
M 3341 1997 
L 3341 0 
L 2766 0 
L 2766 531 
Q 2569 213 2275 61 
Q 1981 -91 1556 -91 
Q 1019 -91 701 211 
Q 384 513 384 1019 
Q 384 1609 779 1909 
Q 1175 2209 1959 2209 
L 2766 2209 
L 2766 2266 
Q 2766 2663 2505 2880 
Q 2244 3097 1772 3097 
Q 1472 3097 1187 3025 
Q 903 2953 641 2809 
L 641 3341 
Q 956 3463 1253 3523 
Q 1550 3584 1831 3584 
Q 2591 3584 2966 3190 
Q 3341 2797 3341 1997 
z
" transform="scale(0.015625)"/>
       <path id="DejaVuSans-67" d="M 2906 1791 
Q 2906 2416 2648 2759 
Q 2391 3103 1925 3103 
Q 1463 3103 1205 2759 
Q 947 2416 947 1791 
Q 947 1169 1205 825 
Q 1463 481 1925 481 
Q 2391 481 2648 825 
Q 2906 1169 2906 1791 
z
M 3481 434 
Q 3481 -459 3084 -895 
Q 2688 -1331 1869 -1331 
Q 1566 -1331 1297 -1286 
Q 1028 -1241 775 -1147 
L 775 -588 
Q 1028 -725 1275 -790 
Q 1522 -856 1778 -856 
Q 2344 -856 2625 -561 
Q 2906 -266 2906 331 
L 2906 616 
Q 2728 306 2450 153 
Q 2172 0 1784 0 
Q 1141 0 747 490 
Q 353 981 353 1791 
Q 353 2603 747 3093 
Q 1141 3584 1784 3584 
Q 2172 3584 2450 3431 
Q 2728 3278 2906 2969 
L 2906 3500 
L 3481 3500 
L 3481 434 
z
" transform="scale(0.015625)"/>
       <path id="DejaVuSans-5f" d="M 3263 -1063 
L 3263 -1509 
L -63 -1509 
L -63 -1063 
L 3263 -1063 
z
" transform="scale(0.015625)"/>
       <path id="DejaVuSans-77" d="M 269 3500 
L 844 3500 
L 1563 769 
L 2278 3500 
L 2956 3500 
L 3675 769 
L 4391 3500 
L 4966 3500 
L 4050 0 
L 3372 0 
L 2619 2869 
L 1863 0 
L 1184 0 
L 269 3500 
z
" transform="scale(0.015625)"/>
       <path id="DejaVuSans-69" d="M 603 3500 
L 1178 3500 
L 1178 0 
L 603 0 
L 603 3500 
z
M 603 4863 
L 1178 4863 
L 1178 4134 
L 603 4134 
L 603 4863 
z
" transform="scale(0.015625)"/>
       <path id="DejaVuSans-6e" d="M 3513 2113 
L 3513 0 
L 2938 0 
L 2938 2094 
Q 2938 2591 2744 2837 
Q 2550 3084 2163 3084 
Q 1697 3084 1428 2787 
Q 1159 2491 1159 1978 
L 1159 0 
L 581 0 
L 581 3500 
L 1159 3500 
L 1159 2956 
Q 1366 3272 1645 3428 
Q 1925 3584 2291 3584 
Q 2894 3584 3203 3211 
Q 3513 2838 3513 2113 
z
" transform="scale(0.015625)"/>
       <path id="DejaVuSans-20" transform="scale(0.015625)"/>
       <path id="DejaVuSans-40" d="M 2381 1678 
Q 2381 1231 2603 976 
Q 2825 722 3213 722 
Q 3597 722 3817 978 
Q 4038 1234 4038 1678 
Q 4038 2116 3813 2373 
Q 3588 2631 3206 2631 
Q 2828 2631 2604 2375 
Q 2381 2119 2381 1678 
z
M 4084 744 
Q 3897 503 3655 389 
Q 3413 275 3091 275 
Q 2553 275 2217 664 
Q 1881 1053 1881 1678 
Q 1881 2303 2218 2693 
Q 2556 3084 3091 3084 
Q 3413 3084 3656 2967 
Q 3900 2850 4084 2613 
L 4084 3022 
L 4531 3022 
L 4531 722 
Q 4988 791 5245 1139 
Q 5503 1488 5503 2041 
Q 5503 2375 5404 2669 
Q 5306 2963 5106 3213 
Q 4781 3622 4314 3839 
Q 3847 4056 3297 4056 
Q 2913 4056 2559 3954 
Q 2206 3853 1906 3653 
Q 1416 3334 1139 2817 
Q 863 2300 863 1697 
Q 863 1200 1042 765 
Q 1222 331 1563 0 
Q 1891 -325 2322 -495 
Q 2753 -666 3244 -666 
Q 3647 -666 4036 -530 
Q 4425 -394 4750 -141 
L 5031 -488 
Q 4641 -791 4180 -952 
Q 3719 -1113 3244 -1113 
Q 2666 -1113 2153 -908 
Q 1641 -703 1241 -313 
Q 841 78 631 592 
Q 422 1106 422 1697 
Q 422 2266 634 2781 
Q 847 3297 1241 3688 
Q 1644 4084 2172 4295 
Q 2700 4506 3291 4506 
Q 3953 4506 4520 4234 
Q 5088 3963 5472 3463 
Q 5706 3156 5829 2797 
Q 5953 2438 5953 2053 
Q 5953 1231 5456 756 
Q 4959 281 4084 263 
L 4084 744 
z
" transform="scale(0.015625)"/>
       <path id="DejaVuSans-2e" d="M 684 794 
L 1344 794 
L 1344 0 
L 684 0 
L 684 794 
z
" transform="scale(0.015625)"/>
       <path id="DejaVuSans-35" d="M 691 4666 
L 3169 4666 
L 3169 4134 
L 1269 4134 
L 1269 2991 
Q 1406 3038 1543 3061 
Q 1681 3084 1819 3084 
Q 2600 3084 3056 2656 
Q 3513 2228 3513 1497 
Q 3513 744 3044 326 
Q 2575 -91 1722 -91 
Q 1428 -91 1123 -41 
Q 819 9 494 109 
L 494 744 
Q 775 591 1075 516 
Q 1375 441 1709 441 
Q 2250 441 2565 725 
Q 2881 1009 2881 1497 
Q 2881 1984 2565 2268 
Q 2250 2553 1709 2553 
Q 1456 2553 1204 2497 
Q 953 2441 691 2322 
L 691 4666 
z
" transform="scale(0.015625)"/>
       <path id="DejaVuSans-74" d="M 1172 4494 
L 1172 3500 
L 2356 3500 
L 2356 3053 
L 1172 3053 
L 1172 1153 
Q 1172 725 1289 603 
Q 1406 481 1766 481 
L 2356 481 
L 2356 0 
L 1766 0 
Q 1100 0 847 248 
Q 594 497 594 1153 
L 594 3053 
L 172 3053 
L 172 3500 
L 594 3500 
L 594 4494 
L 1172 4494 
z
" transform="scale(0.015625)"/>
       <path id="DejaVuSans-68" d="M 3513 2113 
L 3513 0 
L 2938 0 
L 2938 2094 
Q 2938 2591 2744 2837 
Q 2550 3084 2163 3084 
Q 1697 3084 1428 2787 
Q 1159 2491 1159 1978 
L 1159 0 
L 581 0 
L 581 4863 
L 1159 4863 
L 1159 2956 
Q 1366 3272 1645 3428 
Q 1925 3584 2291 3584 
Q 2894 3584 3203 3211 
Q 3513 2838 3513 2113 
z
" transform="scale(0.015625)"/>
       <path id="DejaVuSans-72" d="M 2631 2963 
Q 2534 3019 2420 3045 
Q 2306 3072 2169 3072 
Q 1681 3072 1420 2755 
Q 1159 2438 1159 1844 
L 1159 0 
L 581 0 
L 581 3500 
L 1159 3500 
L 1159 2956 
Q 1341 3275 1631 3429 
Q 1922 3584 2338 3584 
Q 2397 3584 2469 3576 
Q 2541 3569 2628 3553 
L 2631 2963 
z
" transform="scale(0.015625)"/>
       <path id="DejaVuSans-65" d="M 3597 1894 
L 3597 1613 
L 953 1613 
Q 991 1019 1311 708 
Q 1631 397 2203 397 
Q 2534 397 2845 478 
Q 3156 559 3463 722 
L 3463 178 
Q 3153 47 2828 -22 
Q 2503 -91 2169 -91 
Q 1331 -91 842 396 
Q 353 884 353 1716 
Q 353 2575 817 3079 
Q 1281 3584 2069 3584 
Q 2775 3584 3186 3129 
Q 3597 2675 3597 1894 
z
M 3022 2063 
Q 3016 2534 2758 2815 
Q 2500 3097 2075 3097 
Q 1594 3097 1305 2825 
Q 1016 2553 972 2059 
L 3022 2063 
z
" transform="scale(0.015625)"/>
       <path id="DejaVuSans-73" d="M 2834 3397 
L 2834 2853 
Q 2591 2978 2328 3040 
Q 2066 3103 1784 3103 
Q 1356 3103 1142 2972 
Q 928 2841 928 2578 
Q 928 2378 1081 2264 
Q 1234 2150 1697 2047 
L 1894 2003 
Q 2506 1872 2764 1633 
Q 3022 1394 3022 966 
Q 3022 478 2636 193 
Q 2250 -91 1575 -91 
Q 1294 -91 989 -36 
Q 684 19 347 128 
L 347 722 
Q 666 556 975 473 
Q 1284 391 1588 391 
Q 1994 391 2212 530 
Q 2431 669 2431 922 
Q 2431 1156 2273 1281 
Q 2116 1406 1581 1522 
L 1381 1569 
Q 847 1681 609 1914 
Q 372 2147 372 2553 
Q 372 3047 722 3315 
Q 1072 3584 1716 3584 
Q 2034 3584 2315 3537 
Q 2597 3491 2834 3397 
z
" transform="scale(0.015625)"/>
       <path id="DejaVuSans-6f" d="M 1959 3097 
Q 1497 3097 1228 2736 
Q 959 2375 959 1747 
Q 959 1119 1226 758 
Q 1494 397 1959 397 
Q 2419 397 2687 759 
Q 2956 1122 2956 1747 
Q 2956 2369 2687 2733 
Q 2419 3097 1959 3097 
z
M 1959 3584 
Q 2709 3584 3137 3096 
Q 3566 2609 3566 1747 
Q 3566 888 3137 398 
Q 2709 -91 1959 -91 
Q 1206 -91 779 398 
Q 353 888 353 1747 
Q 353 2609 779 3096 
Q 1206 3584 1959 3584 
z
" transform="scale(0.015625)"/>
       <path id="DejaVuSans-6c" d="M 603 4863 
L 1178 4863 
L 1178 0 
L 603 0 
L 603 4863 
z
" transform="scale(0.015625)"/>
       <path id="DejaVuSans-64" d="M 2906 2969 
L 2906 4863 
L 3481 4863 
L 3481 0 
L 2906 0 
L 2906 525 
Q 2725 213 2448 61 
Q 2172 -91 1784 -91 
Q 1150 -91 751 415 
Q 353 922 353 1747 
Q 353 2572 751 3078 
Q 1150 3584 1784 3584 
Q 2172 3584 2448 3432 
Q 2725 3281 2906 2969 
z
M 947 1747 
Q 947 1113 1208 752 
Q 1469 391 1925 391 
Q 2381 391 2643 752 
Q 2906 1113 2906 1747 
Q 2906 2381 2643 2742 
Q 2381 3103 1925 3103 
Q 1469 3103 1208 2742 
Q 947 2381 947 1747 
z
" transform="scale(0.015625)"/>
      </defs>
      <use xlink:href="#DejaVuSans-6d"/>
      <use xlink:href="#DejaVuSans-61" x="97.412109"/>
      <use xlink:href="#DejaVuSans-67" x="158.691406"/>
      <use xlink:href="#DejaVuSans-5f" x="222.167969"/>
      <use xlink:href="#DejaVuSans-77" x="272.167969"/>
      <use xlink:href="#DejaVuSans-69" x="353.955078"/>
      <use xlink:href="#DejaVuSans-6e" x="381.738281"/>
      <use xlink:href="#DejaVuSans-20" x="445.117188"/>
      <use xlink:href="#DejaVuSans-40" x="476.904297"/>
      <use xlink:href="#DejaVuSans-20" x="576.904297"/>
      <use xlink:href="#DejaVuSans-32" x="608.691406"/>
      <use xlink:href="#DejaVuSans-2e" x="672.314453"/>
      <use xlink:href="#DejaVuSans-35" x="704.101562"/>
      <use xlink:href="#DejaVuSans-25" x="767.724609"/>
      <use xlink:href="#DejaVuSans-20" x="862.744141"/>
      <use xlink:href="#DejaVuSans-74" x="894.53125"/>
      <use xlink:href="#DejaVuSans-68" x="933.740234"/>
      <use xlink:href="#DejaVuSans-72" x="997.119141"/>
      <use xlink:href="#DejaVuSans-65" x="1035.982422"/>
      <use xlink:href="#DejaVuSans-73" x="1097.505859"/>
      <use xlink:href="#DejaVuSans-68" x="1149.605469"/>
      <use xlink:href="#DejaVuSans-6f" x="1212.984375"/>
      <use xlink:href="#DejaVuSans-6c" x="1274.166016"/>
      <use xlink:href="#DejaVuSans-64" x="1301.949219"/>
     </g>
    </g>
   </g>
   <g id="matplotlib.axis_2">
    <g id="ytick_1">
     <g id="line2d_13">
      <defs>
       <path id="mcf670f81d1" d="M 0 0 
L -3.5 0 
" style="stroke: #f2f2f7; stroke-width: 0.8"/>
      </defs>
      <g>
       <use xlink:href="#mcf670f81d1" x="164.980703" y="493.973821" style="fill: #f2f2f7; stroke: #f2f2f7; stroke-width: 0.8"/>
      </g>
     </g>
     <g id="text_8">
      <!-- Baseline (no Sat) -->
      <g style="fill: #f2f2f7" transform="translate(85.381406 497.203157) scale(0.085 -0.085)">
       <defs>
        <path id="DejaVuSans-42" d="M 1259 2228 
L 1259 519 
L 2272 519 
Q 2781 519 3026 730 
Q 3272 941 3272 1375 
Q 3272 1813 3026 2020 
Q 2781 2228 2272 2228 
L 1259 2228 
z
M 1259 4147 
L 1259 2741 
L 2194 2741 
Q 2656 2741 2882 2914 
Q 3109 3088 3109 3444 
Q 3109 3797 2882 3972 
Q 2656 4147 2194 4147 
L 1259 4147 
z
M 628 4666 
L 2241 4666 
Q 2963 4666 3353 4366 
Q 3744 4066 3744 3513 
Q 3744 3084 3544 2831 
Q 3344 2578 2956 2516 
Q 3422 2416 3680 2098 
Q 3938 1781 3938 1306 
Q 3938 681 3513 340 
Q 3088 0 2303 0 
L 628 0 
L 628 4666 
z
" transform="scale(0.015625)"/>
        <path id="DejaVuSans-28" d="M 1984 4856 
Q 1566 4138 1362 3434 
Q 1159 2731 1159 2009 
Q 1159 1288 1364 580 
Q 1569 -128 1984 -844 
L 1484 -844 
Q 1016 -109 783 600 
Q 550 1309 550 2009 
Q 550 2706 781 3412 
Q 1013 4119 1484 4856 
L 1984 4856 
z
" transform="scale(0.015625)"/>
        <path id="DejaVuSans-53" d="M 3425 4513 
L 3425 3897 
Q 3066 4069 2747 4153 
Q 2428 4238 2131 4238 
Q 1616 4238 1336 4038 
Q 1056 3838 1056 3469 
Q 1056 3159 1242 3001 
Q 1428 2844 1947 2747 
L 2328 2669 
Q 3034 2534 3370 2195 
Q 3706 1856 3706 1288 
Q 3706 609 3251 259 
Q 2797 -91 1919 -91 
Q 1588 -91 1214 -16 
Q 841 59 441 206 
L 441 856 
Q 825 641 1194 531 
Q 1563 422 1919 422 
Q 2459 422 2753 634 
Q 3047 847 3047 1241 
Q 3047 1584 2836 1778 
Q 2625 1972 2144 2069 
L 1759 2144 
Q 1053 2284 737 2584 
Q 422 2884 422 3419 
Q 422 4038 858 4394 
Q 1294 4750 2059 4750 
Q 2388 4750 2728 4690 
Q 3069 4631 3425 4513 
z
" transform="scale(0.015625)"/>
        <path id="DejaVuSans-29" d="M 513 4856 
L 1013 4856 
Q 1481 4119 1714 3412 
Q 1947 2706 1947 2009 
Q 1947 1309 1714 600 
Q 1481 -109 1013 -844 
L 513 -844 
Q 928 -128 1133 580 
Q 1338 1288 1338 2009 
Q 1338 2731 1133 3434 
Q 928 4138 513 4856 
z
" transform="scale(0.015625)"/>
       </defs>
       <use xlink:href="#DejaVuSans-42"/>
       <use xlink:href="#DejaVuSans-61" x="68.603516"/>
       <use xlink:href="#DejaVuSans-73" x="129.882812"/>
       <use xlink:href="#DejaVuSans-65" x="181.982422"/>
       <use xlink:href="#DejaVuSans-6c" x="243.505859"/>
       <use xlink:href="#DejaVuSans-69" x="271.289062"/>
       <use xlink:href="#DejaVuSans-6e" x="299.072266"/>
       <use xlink:href="#DejaVuSans-65" x="362.451172"/>
       <use xlink:href="#DejaVuSans-20" x="423.974609"/>
       <use xlink:href="#DejaVuSans-28" x="455.761719"/>
       <use xlink:href="#DejaVuSans-6e" x="494.775391"/>
       <use xlink:href="#DejaVuSans-6f" x="558.154297"/>
       <use xlink:href="#DejaVuSans-20" x="619.335938"/>
       <use xlink:href="#DejaVuSans-53" x="651.123047"/>
       <use xlink:href="#DejaVuSans-61" x="714.599609"/>
       <use xlink:href="#DejaVuSans-74" x="775.878906"/>
       <use xlink:href="#DejaVuSans-29" x="815.087891"/>
      </g>
     </g>
    </g>
    <g id="ytick_2">
     <g id="line2d_14">
      <g>
       <use xlink:href="#mcf670f81d1" x="164.980703" y="447.778319" style="fill: #f2f2f7; stroke: #f2f2f7; stroke-width: 0.8"/>
      </g>
     </g>
     <g id="text_9">
      <!-- vol_regime -->
      <g style="fill: #f2f2f7" transform="translate(111.336953 446.776249) scale(0.085 -0.085)">
       <defs>
        <path id="DejaVuSans-76" d="M 191 3500 
L 800 3500 
L 1894 563 
L 2988 3500 
L 3597 3500 
L 2284 0 
L 1503 0 
L 191 3500 
z
" transform="scale(0.015625)"/>
       </defs>
       <use xlink:href="#DejaVuSans-76"/>
       <use xlink:href="#DejaVuSans-6f" x="59.179688"/>
       <use xlink:href="#DejaVuSans-6c" x="120.361328"/>
       <use xlink:href="#DejaVuSans-5f" x="148.144531"/>
       <use xlink:href="#DejaVuSans-72" x="198.144531"/>
       <use xlink:href="#DejaVuSans-65" x="237.007812"/>
       <use xlink:href="#DejaVuSans-67" x="298.53125"/>
       <use xlink:href="#DejaVuSans-69" x="362.007812"/>
       <use xlink:href="#DejaVuSans-6d" x="389.791016"/>
       <use xlink:href="#DejaVuSans-65" x="487.203125"/>
      </g>
      <!-- (rv_rank≥0.60, no Sat) -->
      <g style="fill: #f2f2f7" transform="translate(60.882812 456.530796) scale(0.085 -0.085)">
       <defs>
        <path id="DejaVuSans-6b" d="M 581 4863 
L 1159 4863 
L 1159 1991 
L 2875 3500 
L 3609 3500 
L 1753 1863 
L 3688 0 
L 2938 0 
L 1159 1709 
L 1159 0 
L 581 0 
L 581 4863 
z
" transform="scale(0.015625)"/>
        <path id="DejaVuSans-2265" d="M 678 3175 
L 678 3725 
L 4684 2578 
L 4684 2047 
L 678 897 
L 678 1453 
L 3681 2309 
L 678 3175 
z
M 4684 531 
L 4684 0 
L 678 0 
L 678 531 
L 4684 531 
z
" transform="scale(0.015625)"/>
        <path id="DejaVuSans-2c" d="M 750 794 
L 1409 794 
L 1409 256 
L 897 -744 
L 494 -744 
L 750 256 
L 750 794 
z
" transform="scale(0.015625)"/>
       </defs>
       <use xlink:href="#DejaVuSans-28"/>
       <use xlink:href="#DejaVuSans-72" x="39.013672"/>
       <use xlink:href="#DejaVuSans-76" x="80.126953"/>
       <use xlink:href="#DejaVuSans-5f" x="139.306641"/>
       <use xlink:href="#DejaVuSans-72" x="189.306641"/>
       <use xlink:href="#DejaVuSans-61" x="230.419922"/>
       <use xlink:href="#DejaVuSans-6e" x="291.699219"/>
       <use xlink:href="#DejaVuSans-6b" x="355.078125"/>
       <use xlink:href="#DejaVuSans-2265" x="412.988281"/>
       <use xlink:href="#DejaVuSans-30" x="496.777344"/>
       <use xlink:href="#DejaVuSans-2e" x="560.400391"/>
       <use xlink:href="#DejaVuSans-36" x="592.1875"/>
       <use xlink:href="#DejaVuSans-30" x="655.810547"/>
       <use xlink:href="#DejaVuSans-2c" x="719.433594"/>
       <use xlink:href="#DejaVuSans-20" x="751.220703"/>
       <use xlink:href="#DejaVuSans-6e" x="783.007812"/>
       <use xlink:href="#DejaVuSans-6f" x="846.386719"/>
       <use xlink:href="#DejaVuSans-20" x="907.568359"/>
       <use xlink:href="#DejaVuSans-53" x="939.355469"/>
       <use xlink:href="#DejaVuSans-61" x="1002.832031"/>
       <use xlink:href="#DejaVuSans-74" x="1064.111328"/>
       <use xlink:href="#DejaVuSans-29" x="1103.320312"/>
      </g>
     </g>
    </g>
    <g id="ytick_3">
     <g id="line2d_15">
      <g>
       <use xlink:href="#mcf670f81d1" x="164.980703" y="401.582817" style="fill: #f2f2f7; stroke: #f2f2f7; stroke-width: 0.8"/>
      </g>
     </g>
     <g id="text_10">
      <!-- vol_burst -->
      <g style="fill: #f2f2f7" transform="translate(119.099844 400.580747) scale(0.085 -0.085)">
       <defs>
        <path id="DejaVuSans-62" d="M 3116 1747 
Q 3116 2381 2855 2742 
Q 2594 3103 2138 3103 
Q 1681 3103 1420 2742 
Q 1159 2381 1159 1747 
Q 1159 1113 1420 752 
Q 1681 391 2138 391 
Q 2594 391 2855 752 
Q 3116 1113 3116 1747 
z
M 1159 2969 
Q 1341 3281 1617 3432 
Q 1894 3584 2278 3584 
Q 2916 3584 3314 3078 
Q 3713 2572 3713 1747 
Q 3713 922 3314 415 
Q 2916 -91 2278 -91 
Q 1894 -91 1617 61 
Q 1341 213 1159 525 
L 1159 0 
L 581 0 
L 581 4863 
L 1159 4863 
L 1159 2969 
z
" transform="scale(0.015625)"/>
        <path id="DejaVuSans-75" d="M 544 1381 
L 544 3500 
L 1119 3500 
L 1119 1403 
Q 1119 906 1312 657 
Q 1506 409 1894 409 
Q 2359 409 2629 706 
Q 2900 1003 2900 1516 
L 2900 3500 
L 3475 3500 
L 3475 0 
L 2900 0 
L 2900 538 
Q 2691 219 2414 64 
Q 2138 -91 1772 -91 
Q 1169 -91 856 284 
Q 544 659 544 1381 
z
M 1991 3584 
L 1991 3584 
z
" transform="scale(0.015625)"/>
       </defs>
       <use xlink:href="#DejaVuSans-76"/>
       <use xlink:href="#DejaVuSans-6f" x="59.179688"/>
       <use xlink:href="#DejaVuSans-6c" x="120.361328"/>
       <use xlink:href="#DejaVuSans-5f" x="148.144531"/>
       <use xlink:href="#DejaVuSans-62" x="198.144531"/>
       <use xlink:href="#DejaVuSans-75" x="261.621094"/>
       <use xlink:href="#DejaVuSans-72" x="325"/>
       <use xlink:href="#DejaVuSans-73" x="366.113281"/>
       <use xlink:href="#DejaVuSans-74" x="418.212891"/>
      </g>
      <!-- (vol_z≥1.5 + rv≥0.60) -->
      <g style="fill: #f2f2f7" transform="translate(62.303906 410.335294) scale(0.085 -0.085)">
       <defs>
        <path id="DejaVuSans-7a" d="M 353 3500 
L 3084 3500 
L 3084 2975 
L 922 459 
L 3084 459 
L 3084 0 
L 275 0 
L 275 525 
L 2438 3041 
L 353 3041 
L 353 3500 
z
" transform="scale(0.015625)"/>
        <path id="DejaVuSans-2b" d="M 2944 4013 
L 2944 2272 
L 4684 2272 
L 4684 1741 
L 2944 1741 
L 2944 0 
L 2419 0 
L 2419 1741 
L 678 1741 
L 678 2272 
L 2419 2272 
L 2419 4013 
L 2944 4013 
z
" transform="scale(0.015625)"/>
       </defs>
       <use xlink:href="#DejaVuSans-28"/>
       <use xlink:href="#DejaVuSans-76" x="39.013672"/>
       <use xlink:href="#DejaVuSans-6f" x="98.193359"/>
       <use xlink:href="#DejaVuSans-6c" x="159.375"/>
       <use xlink:href="#DejaVuSans-5f" x="187.158203"/>
       <use xlink:href="#DejaVuSans-7a" x="237.158203"/>
       <use xlink:href="#DejaVuSans-2265" x="289.648438"/>
       <use xlink:href="#DejaVuSans-31" x="373.4375"/>
       <use xlink:href="#DejaVuSans-2e" x="437.060547"/>
       <use xlink:href="#DejaVuSans-35" x="468.847656"/>
       <use xlink:href="#DejaVuSans-20" x="532.470703"/>
       <use xlink:href="#DejaVuSans-2b" x="564.257812"/>
       <use xlink:href="#DejaVuSans-20" x="648.046875"/>
       <use xlink:href="#DejaVuSans-72" x="679.833984"/>
       <use xlink:href="#DejaVuSans-76" x="720.947266"/>
       <use xlink:href="#DejaVuSans-2265" x="780.126953"/>
       <use xlink:href="#DejaVuSans-30" x="863.916016"/>
       <use xlink:href="#DejaVuSans-2e" x="927.539062"/>
       <use xlink:href="#DejaVuSans-36" x="959.326172"/>
       <use xlink:href="#DejaVuSans-30" x="1022.949219"/>
       <use xlink:href="#DejaVuSans-29" x="1086.572266"/>
      </g>
     </g>
    </g>
    <g id="ytick_4">
     <g id="line2d_16">
      <g>
       <use xlink:href="#mcf670f81d1" x="164.980703" y="355.387315" style="fill: #f2f2f7; stroke: #f2f2f7; stroke-width: 0.8"/>
      </g>
     </g>
     <g id="text_11">
      <!-- vol_surge -->
      <g style="fill: #f2f2f7" transform="translate(117.350703 354.385245) scale(0.085 -0.085)">
       <use xlink:href="#DejaVuSans-76"/>
       <use xlink:href="#DejaVuSans-6f" x="59.179688"/>
       <use xlink:href="#DejaVuSans-6c" x="120.361328"/>
       <use xlink:href="#DejaVuSans-5f" x="148.144531"/>
       <use xlink:href="#DejaVuSans-73" x="198.144531"/>
       <use xlink:href="#DejaVuSans-75" x="250.244141"/>
       <use xlink:href="#DejaVuSans-72" x="313.623047"/>
       <use xlink:href="#DejaVuSans-67" x="352.986328"/>
       <use xlink:href="#DejaVuSans-65" x="416.462891"/>
      </g>
      <!-- (vol_z≥2.0 + rv≥0.60) -->
      <g style="fill: #f2f2f7" transform="translate(62.303906 364.139792) scale(0.085 -0.085)">
       <use xlink:href="#DejaVuSans-28"/>
       <use xlink:href="#DejaVuSans-76" x="39.013672"/>
       <use xlink:href="#DejaVuSans-6f" x="98.193359"/>
       <use xlink:href="#DejaVuSans-6c" x="159.375"/>
       <use xlink:href="#DejaVuSans-5f" x="187.158203"/>
       <use xlink:href="#DejaVuSans-7a" x="237.158203"/>
       <use xlink:href="#DejaVuSans-2265" x="289.648438"/>
       <use xlink:href="#DejaVuSans-32" x="373.4375"/>
       <use xlink:href="#DejaVuSans-2e" x="437.060547"/>
       <use xlink:href="#DejaVuSans-30" x="468.847656"/>
       <use xlink:href="#DejaVuSans-20" x="532.470703"/>
       <use xlink:href="#DejaVuSans-2b" x="564.257812"/>
       <use xlink:href="#DejaVuSans-20" x="648.046875"/>
       <use xlink:href="#DejaVuSans-72" x="679.833984"/>
       <use xlink:href="#DejaVuSans-76" x="720.947266"/>
       <use xlink:href="#DejaVuSans-2265" x="780.126953"/>
       <use xlink:href="#DejaVuSans-30" x="863.916016"/>
       <use xlink:href="#DejaVuSans-2e" x="927.539062"/>
       <use xlink:href="#DejaVuSans-36" x="959.326172"/>
       <use xlink:href="#DejaVuSans-30" x="1022.949219"/>
       <use xlink:href="#DejaVuSans-29" x="1086.572266"/>
      </g>
     </g>
    </g>
    <g id="ytick_5">
     <g id="line2d_17">
      <g>
       <use xlink:href="#mcf670f81d1" x="164.980703" y="309.191813" style="fill: #f2f2f7; stroke: #f2f2f7; stroke-width: 0.8"/>
      </g>
     </g>
     <g id="text_12">
      <!-- bb_extreme -->
      <g style="fill: #f2f2f7" transform="translate(107.450859 308.189743) scale(0.085 -0.085)">
       <defs>
        <path id="DejaVuSans-78" d="M 3513 3500 
L 2247 1797 
L 3578 0 
L 2900 0 
L 1881 1375 
L 863 0 
L 184 0 
L 1544 1831 
L 300 3500 
L 978 3500 
L 1906 2253 
L 2834 3500 
L 3513 3500 
z
" transform="scale(0.015625)"/>
       </defs>
       <use xlink:href="#DejaVuSans-62"/>
       <use xlink:href="#DejaVuSans-62" x="63.476562"/>
       <use xlink:href="#DejaVuSans-5f" x="126.953125"/>
       <use xlink:href="#DejaVuSans-65" x="176.953125"/>
       <use xlink:href="#DejaVuSans-78" x="236.726562"/>
       <use xlink:href="#DejaVuSans-74" x="295.90625"/>
       <use xlink:href="#DejaVuSans-72" x="335.115234"/>
       <use xlink:href="#DejaVuSans-65" x="373.978516"/>
       <use xlink:href="#DejaVuSans-6d" x="435.501953"/>
       <use xlink:href="#DejaVuSans-65" x="532.914062"/>
      </g>
      <!-- (BB-width ≥ 90th pct) -->
      <g style="fill: #f2f2f7" transform="translate(65.025234 317.94429) scale(0.085 -0.085)">
       <defs>
        <path id="DejaVuSans-2d" d="M 313 2009 
L 1997 2009 
L 1997 1497 
L 313 1497 
L 313 2009 
z
" transform="scale(0.015625)"/>
        <path id="DejaVuSans-39" d="M 703 97 
L 703 672 
Q 941 559 1184 500 
Q 1428 441 1663 441 
Q 2288 441 2617 861 
Q 2947 1281 2994 2138 
Q 2813 1869 2534 1725 
Q 2256 1581 1919 1581 
Q 1219 1581 811 2004 
Q 403 2428 403 3163 
Q 403 3881 828 4315 
Q 1253 4750 1959 4750 
Q 2769 4750 3195 4129 
Q 3622 3509 3622 2328 
Q 3622 1225 3098 567 
Q 2575 -91 1691 -91 
Q 1453 -91 1209 -44 
Q 966 3 703 97 
z
M 1959 2075 
Q 2384 2075 2632 2365 
Q 2881 2656 2881 3163 
Q 2881 3666 2632 3958 
Q 2384 4250 1959 4250 
Q 1534 4250 1286 3958 
Q 1038 3666 1038 3163 
Q 1038 2656 1286 2365 
Q 1534 2075 1959 2075 
z
" transform="scale(0.015625)"/>
        <path id="DejaVuSans-70" d="M 1159 525 
L 1159 -1331 
L 581 -1331 
L 581 3500 
L 1159 3500 
L 1159 2969 
Q 1341 3281 1617 3432 
Q 1894 3584 2278 3584 
Q 2916 3584 3314 3078 
Q 3713 2572 3713 1747 
Q 3713 922 3314 415 
Q 2916 -91 2278 -91 
Q 1894 -91 1617 61 
Q 1341 213 1159 525 
z
M 3116 1747 
Q 3116 2381 2855 2742 
Q 2594 3103 2138 3103 
Q 1681 3103 1420 2742 
Q 1159 2381 1159 1747 
Q 1159 1113 1420 752 
Q 1681 391 2138 391 
Q 2594 391 2855 752 
Q 3116 1113 3116 1747 
z
" transform="scale(0.015625)"/>
        <path id="DejaVuSans-63" d="M 3122 3366 
L 3122 2828 
Q 2878 2963 2633 3030 
Q 2388 3097 2138 3097 
Q 1578 3097 1268 2742 
Q 959 2388 959 1747 
Q 959 1106 1268 751 
Q 1578 397 2138 397 
Q 2388 397 2633 464 
Q 2878 531 3122 666 
L 3122 134 
Q 2881 22 2623 -34 
Q 2366 -91 2075 -91 
Q 1284 -91 818 406 
Q 353 903 353 1747 
Q 353 2603 823 3093 
Q 1294 3584 2113 3584 
Q 2378 3584 2631 3529 
Q 2884 3475 3122 3366 
z
" transform="scale(0.015625)"/>
       </defs>
       <use xlink:href="#DejaVuSans-28"/>
       <use xlink:href="#DejaVuSans-42" x="39.013672"/>
       <use xlink:href="#DejaVuSans-42" x="107.617188"/>
       <use xlink:href="#DejaVuSans-2d" x="176.220703"/>
       <use xlink:href="#DejaVuSans-77" x="212.304688"/>
       <use xlink:href="#DejaVuSans-69" x="294.091797"/>
       <use xlink:href="#DejaVuSans-64" x="321.875"/>
       <use xlink:href="#DejaVuSans-74" x="385.351562"/>
       <use xlink:href="#DejaVuSans-68" x="424.560547"/>
       <use xlink:href="#DejaVuSans-20" x="487.939453"/>
       <use xlink:href="#DejaVuSans-2265" x="519.726562"/>
       <use xlink:href="#DejaVuSans-20" x="603.515625"/>
       <use xlink:href="#DejaVuSans-39" x="635.302734"/>
       <use xlink:href="#DejaVuSans-30" x="698.925781"/>
       <use xlink:href="#DejaVuSans-74" x="762.548828"/>
       <use xlink:href="#DejaVuSans-68" x="801.757812"/>
       <use xlink:href="#DejaVuSans-20" x="865.136719"/>
       <use xlink:href="#DejaVuSans-70" x="896.923828"/>
       <use xlink:href="#DejaVuSans-63" x="960.400391"/>
       <use xlink:href="#DejaVuSans-74" x="1015.380859"/>
       <use xlink:href="#DejaVuSans-29" x="1054.589844"/>
      </g>
     </g>
    </g>
    <g id="ytick_6">
     <g id="line2d_18">
      <g>
       <use xlink:href="#mcf670f81d1" x="164.980703" y="262.996312" style="fill: #f2f2f7; stroke: #f2f2f7; stroke-width: 0.8"/>
      </g>
     </g>
     <g id="text_13">
      <!-- bear_burst -->
      <g style="fill: #f2f2f7" transform="translate(112.363594 261.994241) scale(0.085 -0.085)">
       <use xlink:href="#DejaVuSans-62"/>
       <use xlink:href="#DejaVuSans-65" x="63.476562"/>
       <use xlink:href="#DejaVuSans-61" x="125"/>
       <use xlink:href="#DejaVuSans-72" x="186.279297"/>
       <use xlink:href="#DejaVuSans-5f" x="227.392578"/>
       <use xlink:href="#DejaVuSans-62" x="277.392578"/>
       <use xlink:href="#DejaVuSans-75" x="340.869141"/>
       <use xlink:href="#DejaVuSans-72" x="404.248047"/>
       <use xlink:href="#DejaVuSans-73" x="445.361328"/>
       <use xlink:href="#DejaVuSans-74" x="497.460938"/>
      </g>
      <!-- (4h&lt;-0.5% + vol_z≥1.5 + rv≥0.60) -->
      <g style="fill: #f2f2f7" transform="translate(7.2 271.748788) scale(0.085 -0.085)">
       <defs>
        <path id="DejaVuSans-3c" d="M 4684 3150 
L 1459 2003 
L 4684 863 
L 4684 294 
L 678 1747 
L 678 2266 
L 4684 3719 
L 4684 3150 
z
" transform="scale(0.015625)"/>
       </defs>
       <use xlink:href="#DejaVuSans-28"/>
       <use xlink:href="#DejaVuSans-34" x="39.013672"/>
       <use xlink:href="#DejaVuSans-68" x="102.636719"/>
       <use xlink:href="#DejaVuSans-3c" x="166.015625"/>
       <use xlink:href="#DejaVuSans-2d" x="249.804688"/>
       <use xlink:href="#DejaVuSans-30" x="285.888672"/>
       <use xlink:href="#DejaVuSans-2e" x="349.511719"/>
       <use xlink:href="#DejaVuSans-35" x="381.298828"/>
       <use xlink:href="#DejaVuSans-25" x="444.921875"/>
       <use xlink:href="#DejaVuSans-20" x="539.941406"/>
       <use xlink:href="#DejaVuSans-2b" x="571.728516"/>
       <use xlink:href="#DejaVuSans-20" x="655.517578"/>
       <use xlink:href="#DejaVuSans-76" x="687.304688"/>
       <use xlink:href="#DejaVuSans-6f" x="746.484375"/>
       <use xlink:href="#DejaVuSans-6c" x="807.666016"/>
       <use xlink:href="#DejaVuSans-5f" x="835.449219"/>
       <use xlink:href="#DejaVuSans-7a" x="885.449219"/>
       <use xlink:href="#DejaVuSans-2265" x="937.939453"/>
       <use xlink:href="#DejaVuSans-31" x="1021.728516"/>
       <use xlink:href="#DejaVuSans-2e" x="1085.351562"/>
       <use xlink:href="#DejaVuSans-35" x="1117.138672"/>
       <use xlink:href="#DejaVuSans-20" x="1180.761719"/>
       <use xlink:href="#DejaVuSans-2b" x="1212.548828"/>
       <use xlink:href="#DejaVuSans-20" x="1296.337891"/>
       <use xlink:href="#DejaVuSans-72" x="1328.125"/>
       <use xlink:href="#DejaVuSans-76" x="1369.238281"/>
       <use xlink:href="#DejaVuSans-2265" x="1428.417969"/>
       <use xlink:href="#DejaVuSans-30" x="1512.207031"/>
       <use xlink:href="#DejaVuSans-2e" x="1575.830078"/>
       <use xlink:href="#DejaVuSans-36" x="1607.617188"/>
       <use xlink:href="#DejaVuSans-30" x="1671.240234"/>
       <use xlink:href="#DejaVuSans-29" x="1734.863281"/>
      </g>
     </g>
    </g>
    <g id="ytick_7">
     <g id="line2d_19">
      <g>
       <use xlink:href="#mcf670f81d1" x="164.980703" y="216.80081" style="fill: #f2f2f7; stroke: #f2f2f7; stroke-width: 0.8"/>
      </g>
     </g>
     <g id="text_14">
      <!-- pullback -->
      <g style="fill: #f2f2f7" transform="translate(122.274062 215.916942) scale(0.085 -0.085)">
       <use xlink:href="#DejaVuSans-70"/>
       <use xlink:href="#DejaVuSans-75" x="63.476562"/>
       <use xlink:href="#DejaVuSans-6c" x="126.855469"/>
       <use xlink:href="#DejaVuSans-6c" x="154.638672"/>
       <use xlink:href="#DejaVuSans-62" x="182.421875"/>
       <use xlink:href="#DejaVuSans-61" x="245.898438"/>
       <use xlink:href="#DejaVuSans-63" x="307.177734"/>
       <use xlink:href="#DejaVuSans-6b" x="362.158203"/>
      </g>
      <!-- (EITHER MTF + rv≥0.60) -->
      <g style="fill: #f2f2f7" transform="translate(53.393516 225.435083) scale(0.085 -0.085)">
       <defs>
        <path id="DejaVuSans-45" d="M 628 4666 
L 3578 4666 
L 3578 4134 
L 1259 4134 
L 1259 2753 
L 3481 2753 
L 3481 2222 
L 1259 2222 
L 1259 531 
L 3634 531 
L 3634 0 
L 628 0 
L 628 4666 
z
" transform="scale(0.015625)"/>
        <path id="DejaVuSans-49" d="M 628 4666 
L 1259 4666 
L 1259 0 
L 628 0 
L 628 4666 
z
" transform="scale(0.015625)"/>
        <path id="DejaVuSans-54" d="M -19 4666 
L 3928 4666 
L 3928 4134 
L 2272 4134 
L 2272 0 
L 1638 0 
L 1638 4134 
L -19 4134 
L -19 4666 
z
" transform="scale(0.015625)"/>
        <path id="DejaVuSans-48" d="M 628 4666 
L 1259 4666 
L 1259 2753 
L 3553 2753 
L 3553 4666 
L 4184 4666 
L 4184 0 
L 3553 0 
L 3553 2222 
L 1259 2222 
L 1259 0 
L 628 0 
L 628 4666 
z
" transform="scale(0.015625)"/>
        <path id="DejaVuSans-52" d="M 2841 2188 
Q 3044 2119 3236 1894 
Q 3428 1669 3622 1275 
L 4263 0 
L 3584 0 
L 2988 1197 
Q 2756 1666 2539 1819 
Q 2322 1972 1947 1972 
L 1259 1972 
L 1259 0 
L 628 0 
L 628 4666 
L 2053 4666 
Q 2853 4666 3247 4331 
Q 3641 3997 3641 3322 
Q 3641 2881 3436 2590 
Q 3231 2300 2841 2188 
z
M 1259 4147 
L 1259 2491 
L 2053 2491 
Q 2509 2491 2742 2702 
Q 2975 2913 2975 3322 
Q 2975 3731 2742 3939 
Q 2509 4147 2053 4147 
L 1259 4147 
z
" transform="scale(0.015625)"/>
        <path id="DejaVuSans-4d" d="M 628 4666 
L 1569 4666 
L 2759 1491 
L 3956 4666 
L 4897 4666 
L 4897 0 
L 4281 0 
L 4281 4097 
L 3078 897 
L 2444 897 
L 1241 4097 
L 1241 0 
L 628 0 
L 628 4666 
z
" transform="scale(0.015625)"/>
        <path id="DejaVuSans-46" d="M 628 4666 
L 3309 4666 
L 3309 4134 
L 1259 4134 
L 1259 2759 
L 3109 2759 
L 3109 2228 
L 1259 2228 
L 1259 0 
L 628 0 
L 628 4666 
z
" transform="scale(0.015625)"/>
       </defs>
       <use xlink:href="#DejaVuSans-28"/>
       <use xlink:href="#DejaVuSans-45" x="39.013672"/>
       <use xlink:href="#DejaVuSans-49" x="102.197266"/>
       <use xlink:href="#DejaVuSans-54" x="131.689453"/>
       <use xlink:href="#DejaVuSans-48" x="192.773438"/>
       <use xlink:href="#DejaVuSans-45" x="267.96875"/>
       <use xlink:href="#DejaVuSans-52" x="331.152344"/>
       <use xlink:href="#DejaVuSans-20" x="400.634766"/>
       <use xlink:href="#DejaVuSans-4d" x="432.421875"/>
       <use xlink:href="#DejaVuSans-54" x="518.701172"/>
       <use xlink:href="#DejaVuSans-46" x="579.785156"/>
       <use xlink:href="#DejaVuSans-20" x="637.304688"/>
       <use xlink:href="#DejaVuSans-2b" x="669.091797"/>
       <use xlink:href="#DejaVuSans-20" x="752.880859"/>
       <use xlink:href="#DejaVuSans-72" x="784.667969"/>
       <use xlink:href="#DejaVuSans-76" x="825.78125"/>
       <use xlink:href="#DejaVuSans-2265" x="884.960938"/>
       <use xlink:href="#DejaVuSans-30" x="968.75"/>
       <use xlink:href="#DejaVuSans-2e" x="1032.373047"/>
       <use xlink:href="#DejaVuSans-36" x="1064.160156"/>
       <use xlink:href="#DejaVuSans-30" x="1127.783203"/>
       <use xlink:href="#DejaVuSans-29" x="1191.40625"/>
      </g>
     </g>
    </g>
    <g id="ytick_8">
     <g id="line2d_20">
      <g>
       <use xlink:href="#mcf670f81d1" x="164.980703" y="170.605308" style="fill: #f2f2f7; stroke: #f2f2f7; stroke-width: 0.8"/>
      </g>
     </g>
     <g id="text_15">
      <!-- bull_pullback -->
      <g style="fill: #f2f2f7" transform="translate(102.518203 169.603237) scale(0.085 -0.085)">
       <use xlink:href="#DejaVuSans-62"/>
       <use xlink:href="#DejaVuSans-75" x="63.476562"/>
       <use xlink:href="#DejaVuSans-6c" x="126.855469"/>
       <use xlink:href="#DejaVuSans-6c" x="154.638672"/>
       <use xlink:href="#DejaVuSans-5f" x="182.421875"/>
       <use xlink:href="#DejaVuSans-70" x="232.421875"/>
       <use xlink:href="#DejaVuSans-75" x="295.898438"/>
       <use xlink:href="#DejaVuSans-6c" x="359.277344"/>
       <use xlink:href="#DejaVuSans-6c" x="387.060547"/>
       <use xlink:href="#DejaVuSans-62" x="414.84375"/>
       <use xlink:href="#DejaVuSans-61" x="478.320312"/>
       <use xlink:href="#DejaVuSans-63" x="539.599609"/>
       <use xlink:href="#DejaVuSans-6b" x="594.580078"/>
      </g>
      <!-- (4h≥+1% + 1h≤-0.5% + rv≥0.60) -->
      <g style="fill: #f2f2f7" transform="translate(10.619922 179.357784) scale(0.085 -0.085)">
       <defs>
        <path id="DejaVuSans-2264" d="M 4684 3175 
L 1684 2309 
L 4684 1453 
L 4684 897 
L 678 2047 
L 678 2578 
L 4684 3725 
L 4684 3175 
z
M 678 531 
L 4684 531 
L 4684 0 
L 678 0 
L 678 531 
z
" transform="scale(0.015625)"/>
       </defs>
       <use xlink:href="#DejaVuSans-28"/>
       <use xlink:href="#DejaVuSans-34" x="39.013672"/>
       <use xlink:href="#DejaVuSans-68" x="102.636719"/>
       <use xlink:href="#DejaVuSans-2265" x="166.015625"/>
       <use xlink:href="#DejaVuSans-2b" x="249.804688"/>
       <use xlink:href="#DejaVuSans-31" x="333.59375"/>
       <use xlink:href="#DejaVuSans-25" x="397.216797"/>
       <use xlink:href="#DejaVuSans-20" x="492.236328"/>
       <use xlink:href="#DejaVuSans-2b" x="524.023438"/>
       <use xlink:href="#DejaVuSans-20" x="607.8125"/>
       <use xlink:href="#DejaVuSans-31" x="639.599609"/>
       <use xlink:href="#DejaVuSans-68" x="703.222656"/>
       <use xlink:href="#DejaVuSans-2264" x="766.601562"/>
       <use xlink:href="#DejaVuSans-2d" x="850.390625"/>
       <use xlink:href="#DejaVuSans-30" x="886.474609"/>
       <use xlink:href="#DejaVuSans-2e" x="950.097656"/>
       <use xlink:href="#DejaVuSans-35" x="981.884766"/>
       <use xlink:href="#DejaVuSans-25" x="1045.507812"/>
       <use xlink:href="#DejaVuSans-20" x="1140.527344"/>
       <use xlink:href="#DejaVuSans-2b" x="1172.314453"/>
       <use xlink:href="#DejaVuSans-20" x="1256.103516"/>
       <use xlink:href="#DejaVuSans-72" x="1287.890625"/>
       <use xlink:href="#DejaVuSans-76" x="1329.003906"/>
       <use xlink:href="#DejaVuSans-2265" x="1388.183594"/>
       <use xlink:href="#DejaVuSans-30" x="1471.972656"/>
       <use xlink:href="#DejaVuSans-2e" x="1535.595703"/>
       <use xlink:href="#DejaVuSans-36" x="1567.382812"/>
       <use xlink:href="#DejaVuSans-30" x="1631.005859"/>
       <use xlink:href="#DejaVuSans-29" x="1694.628906"/>
      </g>
     </g>
    </g>
    <g id="ytick_9">
     <g id="line2d_21">
      <g>
       <use xlink:href="#mcf670f81d1" x="164.980703" y="124.409806" style="fill: #f2f2f7; stroke: #f2f2f7; stroke-width: 0.8"/>
      </g>
     </g>
     <g id="text_16">
      <!-- bear_pullback -->
      <g style="fill: #f2f2f7" transform="translate(98.694531 123.407736) scale(0.085 -0.085)">
       <use xlink:href="#DejaVuSans-62"/>
       <use xlink:href="#DejaVuSans-65" x="63.476562"/>
       <use xlink:href="#DejaVuSans-61" x="125"/>
       <use xlink:href="#DejaVuSans-72" x="186.279297"/>
       <use xlink:href="#DejaVuSans-5f" x="227.392578"/>
       <use xlink:href="#DejaVuSans-70" x="277.392578"/>
       <use xlink:href="#DejaVuSans-75" x="340.869141"/>
       <use xlink:href="#DejaVuSans-6c" x="404.248047"/>
       <use xlink:href="#DejaVuSans-6c" x="432.03125"/>
       <use xlink:href="#DejaVuSans-62" x="459.814453"/>
       <use xlink:href="#DejaVuSans-61" x="523.291016"/>
       <use xlink:href="#DejaVuSans-63" x="584.570312"/>
       <use xlink:href="#DejaVuSans-6b" x="639.550781"/>
      </g>
      <!-- (4h≤-1% + 1h≥+0.5% + rv≥0.60) -->
      <g style="fill: #f2f2f7" transform="translate(10.619922 133.162282) scale(0.085 -0.085)">
       <use xlink:href="#DejaVuSans-28"/>
       <use xlink:href="#DejaVuSans-34" x="39.013672"/>
       <use xlink:href="#DejaVuSans-68" x="102.636719"/>
       <use xlink:href="#DejaVuSans-2264" x="166.015625"/>
       <use xlink:href="#DejaVuSans-2d" x="249.804688"/>
       <use xlink:href="#DejaVuSans-31" x="285.888672"/>
       <use xlink:href="#DejaVuSans-25" x="349.511719"/>
       <use xlink:href="#DejaVuSans-20" x="444.53125"/>
       <use xlink:href="#DejaVuSans-2b" x="476.318359"/>
       <use xlink:href="#DejaVuSans-20" x="560.107422"/>
       <use xlink:href="#DejaVuSans-31" x="591.894531"/>
       <use xlink:href="#DejaVuSans-68" x="655.517578"/>
       <use xlink:href="#DejaVuSans-2265" x="718.896484"/>
       <use xlink:href="#DejaVuSans-2b" x="802.685547"/>
       <use xlink:href="#DejaVuSans-30" x="886.474609"/>
       <use xlink:href="#DejaVuSans-2e" x="950.097656"/>
       <use xlink:href="#DejaVuSans-35" x="981.884766"/>
       <use xlink:href="#DejaVuSans-25" x="1045.507812"/>
       <use xlink:href="#DejaVuSans-20" x="1140.527344"/>
       <use xlink:href="#DejaVuSans-2b" x="1172.314453"/>
       <use xlink:href="#DejaVuSans-20" x="1256.103516"/>
       <use xlink:href="#DejaVuSans-72" x="1287.890625"/>
       <use xlink:href="#DejaVuSans-76" x="1329.003906"/>
       <use xlink:href="#DejaVuSans-2265" x="1388.183594"/>
       <use xlink:href="#DejaVuSans-30" x="1471.972656"/>
       <use xlink:href="#DejaVuSans-2e" x="1535.595703"/>
       <use xlink:href="#DejaVuSans-36" x="1567.382812"/>
       <use xlink:href="#DejaVuSans-30" x="1631.005859"/>
       <use xlink:href="#DejaVuSans-29" x="1694.628906"/>
      </g>
     </g>
    </g>
    <g id="ytick_10">
     <g id="line2d_22">
      <g>
       <use xlink:href="#mcf670f81d1" x="164.980703" y="78.214304" style="fill: #f2f2f7; stroke: #f2f2f7; stroke-width: 0.8"/>
      </g>
     </g>
     <g id="text_17">
      <!-- bb_squeeze -->
      <g style="fill: #f2f2f7" transform="translate(107.575703 77.212234) scale(0.085 -0.085)">
       <defs>
        <path id="DejaVuSans-71" d="M 947 1747 
Q 947 1113 1208 752 
Q 1469 391 1925 391 
Q 2381 391 2643 752 
Q 2906 1113 2906 1747 
Q 2906 2381 2643 2742 
Q 2381 3103 1925 3103 
Q 1469 3103 1208 2742 
Q 947 2381 947 1747 
z
M 2906 525 
Q 2725 213 2448 61 
Q 2172 -91 1784 -91 
Q 1150 -91 751 415 
Q 353 922 353 1747 
Q 353 2572 751 3078 
Q 1150 3584 1784 3584 
Q 2172 3584 2448 3432 
Q 2725 3281 2906 2969 
L 2906 3500 
L 3481 3500 
L 3481 -1331 
L 2906 -1331 
L 2906 525 
z
" transform="scale(0.015625)"/>
       </defs>
       <use xlink:href="#DejaVuSans-62"/>
       <use xlink:href="#DejaVuSans-62" x="63.476562"/>
       <use xlink:href="#DejaVuSans-5f" x="126.953125"/>
       <use xlink:href="#DejaVuSans-73" x="176.953125"/>
       <use xlink:href="#DejaVuSans-71" x="229.052734"/>
       <use xlink:href="#DejaVuSans-75" x="292.529297"/>
       <use xlink:href="#DejaVuSans-65" x="355.908203"/>
       <use xlink:href="#DejaVuSans-65" x="417.431641"/>
       <use xlink:href="#DejaVuSans-7a" x="478.955078"/>
       <use xlink:href="#DejaVuSans-65" x="531.445312"/>
      </g>
      <!-- (BB-width ≤ 25th pct,  reference) -->
      <g style="fill: #f2f2f7" transform="translate(16.341484 86.966781) scale(0.085 -0.085)">
       <defs>
        <path id="DejaVuSans-66" d="M 2375 4863 
L 2375 4384 
L 1825 4384 
Q 1516 4384 1395 4259 
Q 1275 4134 1275 3809 
L 1275 3500 
L 2222 3500 
L 2222 3053 
L 1275 3053 
L 1275 0 
L 697 0 
L 697 3053 
L 147 3053 
L 147 3500 
L 697 3500 
L 697 3744 
Q 697 4328 969 4595 
Q 1241 4863 1831 4863 
L 2375 4863 
z
" transform="scale(0.015625)"/>
       </defs>
       <use xlink:href="#DejaVuSans-28"/>
       <use xlink:href="#DejaVuSans-42" x="39.013672"/>
       <use xlink:href="#DejaVuSans-42" x="107.617188"/>
       <use xlink:href="#DejaVuSans-2d" x="176.220703"/>
       <use xlink:href="#DejaVuSans-77" x="212.304688"/>
       <use xlink:href="#DejaVuSans-69" x="294.091797"/>
       <use xlink:href="#DejaVuSans-64" x="321.875"/>
       <use xlink:href="#DejaVuSans-74" x="385.351562"/>
       <use xlink:href="#DejaVuSans-68" x="424.560547"/>
       <use xlink:href="#DejaVuSans-20" x="487.939453"/>
       <use xlink:href="#DejaVuSans-2264" x="519.726562"/>
       <use xlink:href="#DejaVuSans-20" x="603.515625"/>
       <use xlink:href="#DejaVuSans-32" x="635.302734"/>
       <use xlink:href="#DejaVuSans-35" x="698.925781"/>
       <use xlink:href="#DejaVuSans-74" x="762.548828"/>
       <use xlink:href="#DejaVuSans-68" x="801.757812"/>
       <use xlink:href="#DejaVuSans-20" x="865.136719"/>
       <use xlink:href="#DejaVuSans-70" x="896.923828"/>
       <use xlink:href="#DejaVuSans-63" x="960.400391"/>
       <use xlink:href="#DejaVuSans-74" x="1015.380859"/>
       <use xlink:href="#DejaVuSans-2c" x="1054.589844"/>
       <use xlink:href="#DejaVuSans-20" x="1086.376953"/>
       <use xlink:href="#DejaVuSans-20" x="1118.164062"/>
       <use xlink:href="#DejaVuSans-72" x="1149.951172"/>
       <use xlink:href="#DejaVuSans-65" x="1188.814453"/>
       <use xlink:href="#DejaVuSans-66" x="1250.337891"/>
       <use xlink:href="#DejaVuSans-65" x="1285.542969"/>
       <use xlink:href="#DejaVuSans-72" x="1347.066406"/>
       <use xlink:href="#DejaVuSans-65" x="1385.929688"/>
       <use xlink:href="#DejaVuSans-6e" x="1447.453125"/>
       <use xlink:href="#DejaVuSans-63" x="1510.832031"/>
       <use xlink:href="#DejaVuSans-65" x="1565.8125"/>
       <use xlink:href="#DejaVuSans-29" x="1627.335938"/>
      </g>
     </g>
    </g>
   </g>
   <g id="line2d_23">
    <path d="M 414.340703 530.006312 
L 414.340703 42.181813 
" clip-path="url(#pa7591ec04b)" style="fill: none; stroke-dasharray: 3.7,1.6; stroke-dashoffset: 0; stroke: #8e8e93"/>
   </g>
   <g id="patch_3">
    <path d="M 164.980703 530.006312 
L 164.980703 42.181813 
" style="fill: none; stroke: #8e8e93; stroke-width: 0.8; stroke-linejoin: miter; stroke-linecap: square"/>
   </g>
   <g id="patch_4">
    <path d="M 777.990703 530.006312 
L 777.990703 42.181813 
" style="fill: none; stroke: #8e8e93; stroke-width: 0.8; stroke-linejoin: miter; stroke-linecap: square"/>
   </g>
   <g id="patch_5">
    <path d="M 164.980703 530.006312 
L 777.990703 530.006312 
" style="fill: none; stroke: #8e8e93; stroke-width: 0.8; stroke-linejoin: miter; stroke-linecap: square"/>
   </g>
   <g id="patch_6">
    <path d="M 164.980703 42.181813 
L 777.990703 42.181813 
" style="fill: none; stroke: #8e8e93; stroke-width: 0.8; stroke-linejoin: miter; stroke-linecap: square"/>
   </g>
   <g id="patch_7">
    <path d="M 164.980703 507.832472 
L 414.340703 507.832472 
L 414.340703 480.11517 
L 164.980703 480.11517 
z
" clip-path="url(#pa7591ec04b)" style="fill: #8e8e93; opacity: 0.85"/>
   </g>
   <g id="patch_8">
    <path d="M 164.980703 461.63697 
L 455.900703 461.63697 
L 455.900703 433.919669 
L 164.980703 433.919669 
z
" clip-path="url(#pa7591ec04b)" style="fill: #ff9f0a; opacity: 0.85"/>
   </g>
   <g id="patch_9">
    <path d="M 164.980703 415.441468 
L 481.875703 415.441468 
L 481.875703 387.724167 
L 164.980703 387.724167 
z
" clip-path="url(#pa7591ec04b)" style="fill: #30d158; opacity: 0.85"/>
   </g>
   <g id="patch_10">
    <path d="M 164.980703 369.245966 
L 492.265703 369.245966 
L 492.265703 341.528665 
L 164.980703 341.528665 
z
" clip-path="url(#pa7591ec04b)" style="fill: #30d158; opacity: 0.85"/>
   </g>
   <g id="patch_11">
    <path d="M 164.980703 323.050464 
L 533.825703 323.050464 
L 533.825703 295.333163 
L 164.980703 295.333163 
z
" clip-path="url(#pa7591ec04b)" style="fill: #ff9f0a; opacity: 0.85"/>
   </g>
   <g id="patch_12">
    <path d="M 164.980703 276.854962 
L 544.215703 276.854962 
L 544.215703 249.137661 
L 164.980703 249.137661 
z
" clip-path="url(#pa7591ec04b)" style="fill: #30d158; opacity: 0.85"/>
   </g>
   <g id="patch_13">
    <path d="M 164.980703 230.65946 
L 544.215703 230.65946 
L 544.215703 202.942159 
L 164.980703 202.942159 
z
" clip-path="url(#pa7591ec04b)" style="fill: #30d158; opacity: 0.85"/>
   </g>
   <g id="patch_14">
    <path d="M 164.980703 184.463958 
L 518.240703 184.463958 
L 518.240703 156.746657 
L 164.980703 156.746657 
z
" clip-path="url(#pa7591ec04b)" style="fill: #5ac8fa; opacity: 0.85"/>
   </g>
   <g id="patch_15">
    <path d="M 164.980703 138.268456 
L 559.800703 138.268456 
L 559.800703 110.551155 
L 164.980703 110.551155 
z
" clip-path="url(#pa7591ec04b)" style="fill: #5ac8fa; opacity: 0.85"/>
   </g>
   <g id="patch_16">
    <path d="M 164.980703 92.072955 
L 320.830703 92.072955 
L 320.830703 64.355653 
L 164.980703 64.355653 
z
" clip-path="url(#pa7591ec04b)" style="fill: #ff453a; opacity: 0.85"/>
   </g>
   <g id="text_18">
    <!-- baseline -->
    <g style="fill: #8e8e93" transform="translate(416.938203 51.576281) scale(0.075 -0.075)">
     <use xlink:href="#DejaVuSans-62"/>
     <use xlink:href="#DejaVuSans-61" x="63.476562"/>
     <use xlink:href="#DejaVuSans-73" x="124.755859"/>
     <use xlink:href="#DejaVuSans-65" x="176.855469"/>
     <use xlink:href="#DejaVuSans-6c" x="238.378906"/>
     <use xlink:href="#DejaVuSans-69" x="266.162109"/>
     <use xlink:href="#DejaVuSans-6e" x="293.945312"/>
     <use xlink:href="#DejaVuSans-65" x="357.324219"/>
    </g>
    <!-- 48% -->
    <g style="fill: #8e8e93" transform="translate(416.938203 59.97464) scale(0.075 -0.075)">
     <use xlink:href="#DejaVuSans-34"/>
     <use xlink:href="#DejaVuSans-38" x="63.623047"/>
     <use xlink:href="#DejaVuSans-25" x="127.246094"/>
    </g>
   </g>
   <g id="text_19">
    <!-- 48%  (144.1/wk) -->
    <g style="fill: #f2f2f7" transform="translate(417.977203 496.31929) scale(0.085 -0.085)">
     <defs>
      <path id="DejaVuSans-2f" d="M 1625 4666 
L 2156 4666 
L 531 -594 
L 0 -594 
L 1625 4666 
z
" transform="scale(0.015625)"/>
     </defs>
     <use xlink:href="#DejaVuSans-34"/>
     <use xlink:href="#DejaVuSans-38" x="63.623047"/>
     <use xlink:href="#DejaVuSans-25" x="127.246094"/>
     <use xlink:href="#DejaVuSans-20" x="222.265625"/>
     <use xlink:href="#DejaVuSans-20" x="254.052734"/>
     <use xlink:href="#DejaVuSans-28" x="285.839844"/>
     <use xlink:href="#DejaVuSans-31" x="324.853516"/>
     <use xlink:href="#DejaVuSans-34" x="388.476562"/>
     <use xlink:href="#DejaVuSans-34" x="452.099609"/>
     <use xlink:href="#DejaVuSans-2e" x="515.722656"/>
     <use xlink:href="#DejaVuSans-31" x="547.509766"/>
     <use xlink:href="#DejaVuSans-2f" x="611.132812"/>
     <use xlink:href="#DejaVuSans-77" x="644.824219"/>
     <use xlink:href="#DejaVuSans-6b" x="726.611328"/>
     <use xlink:href="#DejaVuSans-29" x="784.521484"/>
    </g>
   </g>
   <g id="text_20">
    <!-- 56%  (58.0/wk) -->
    <g style="fill: #f2f2f7" transform="translate(459.537203 450.123788) scale(0.085 -0.085)">
     <use xlink:href="#DejaVuSans-35"/>
     <use xlink:href="#DejaVuSans-36" x="63.623047"/>
     <use xlink:href="#DejaVuSans-25" x="127.246094"/>
     <use xlink:href="#DejaVuSans-20" x="222.265625"/>
     <use xlink:href="#DejaVuSans-20" x="254.052734"/>
     <use xlink:href="#DejaVuSans-28" x="285.839844"/>
     <use xlink:href="#DejaVuSans-35" x="324.853516"/>
     <use xlink:href="#DejaVuSans-38" x="388.476562"/>
     <use xlink:href="#DejaVuSans-2e" x="452.099609"/>
     <use xlink:href="#DejaVuSans-30" x="483.886719"/>
     <use xlink:href="#DejaVuSans-2f" x="547.509766"/>
     <use xlink:href="#DejaVuSans-77" x="581.201172"/>
     <use xlink:href="#DejaVuSans-6b" x="662.988281"/>
     <use xlink:href="#DejaVuSans-29" x="720.898438"/>
    </g>
   </g>
   <g id="text_21">
    <!-- 61%  (6.3/wk) -->
    <g style="fill: #f2f2f7" transform="translate(485.512203 403.928286) scale(0.085 -0.085)">
     <defs>
      <path id="DejaVuSans-33" d="M 2597 2516 
Q 3050 2419 3304 2112 
Q 3559 1806 3559 1356 
Q 3559 666 3084 287 
Q 2609 -91 1734 -91 
Q 1441 -91 1130 -33 
Q 819 25 488 141 
L 488 750 
Q 750 597 1062 519 
Q 1375 441 1716 441 
Q 2309 441 2620 675 
Q 2931 909 2931 1356 
Q 2931 1769 2642 2001 
Q 2353 2234 1838 2234 
L 1294 2234 
L 1294 2753 
L 1863 2753 
Q 2328 2753 2575 2939 
Q 2822 3125 2822 3475 
Q 2822 3834 2567 4026 
Q 2313 4219 1838 4219 
Q 1578 4219 1281 4162 
Q 984 4106 628 3988 
L 628 4550 
Q 988 4650 1302 4700 
Q 1616 4750 1894 4750 
Q 2613 4750 3031 4423 
Q 3450 4097 3450 3541 
Q 3450 3153 3228 2886 
Q 3006 2619 2597 2516 
z
" transform="scale(0.015625)"/>
     </defs>
     <use xlink:href="#DejaVuSans-36"/>
     <use xlink:href="#DejaVuSans-31" x="63.623047"/>
     <use xlink:href="#DejaVuSans-25" x="127.246094"/>
     <use xlink:href="#DejaVuSans-20" x="222.265625"/>
     <use xlink:href="#DejaVuSans-20" x="254.052734"/>
     <use xlink:href="#DejaVuSans-28" x="285.839844"/>
     <use xlink:href="#DejaVuSans-36" x="324.853516"/>
     <use xlink:href="#DejaVuSans-2e" x="388.476562"/>
     <use xlink:href="#DejaVuSans-33" x="420.263672"/>
     <use xlink:href="#DejaVuSans-2f" x="483.886719"/>
     <use xlink:href="#DejaVuSans-77" x="517.578125"/>
     <use xlink:href="#DejaVuSans-6b" x="599.365234"/>
     <use xlink:href="#DejaVuSans-29" x="657.275391"/>
    </g>
   </g>
   <g id="text_22">
    <!-- 63%  (4.2/wk) -->
    <g style="fill: #f2f2f7" transform="translate(495.902203 357.732784) scale(0.085 -0.085)">
     <use xlink:href="#DejaVuSans-36"/>
     <use xlink:href="#DejaVuSans-33" x="63.623047"/>
     <use xlink:href="#DejaVuSans-25" x="127.246094"/>
     <use xlink:href="#DejaVuSans-20" x="222.265625"/>
     <use xlink:href="#DejaVuSans-20" x="254.052734"/>
     <use xlink:href="#DejaVuSans-28" x="285.839844"/>
     <use xlink:href="#DejaVuSans-34" x="324.853516"/>
     <use xlink:href="#DejaVuSans-2e" x="388.476562"/>
     <use xlink:href="#DejaVuSans-32" x="420.263672"/>
     <use xlink:href="#DejaVuSans-2f" x="483.886719"/>
     <use xlink:href="#DejaVuSans-77" x="517.578125"/>
     <use xlink:href="#DejaVuSans-6b" x="599.365234"/>
     <use xlink:href="#DejaVuSans-29" x="657.275391"/>
    </g>
   </g>
   <g id="text_23">
    <!-- 71%  (16.8/wk) -->
    <g style="fill: #f2f2f7" transform="translate(537.462203 311.537282) scale(0.085 -0.085)">
     <defs>
      <path id="DejaVuSans-37" d="M 525 4666 
L 3525 4666 
L 3525 4397 
L 1831 0 
L 1172 0 
L 2766 4134 
L 525 4134 
L 525 4666 
z
" transform="scale(0.015625)"/>
     </defs>
     <use xlink:href="#DejaVuSans-37"/>
     <use xlink:href="#DejaVuSans-31" x="63.623047"/>
     <use xlink:href="#DejaVuSans-25" x="127.246094"/>
     <use xlink:href="#DejaVuSans-20" x="222.265625"/>
     <use xlink:href="#DejaVuSans-20" x="254.052734"/>
     <use xlink:href="#DejaVuSans-28" x="285.839844"/>
     <use xlink:href="#DejaVuSans-31" x="324.853516"/>
     <use xlink:href="#DejaVuSans-36" x="388.476562"/>
     <use xlink:href="#DejaVuSans-2e" x="452.099609"/>
     <use xlink:href="#DejaVuSans-38" x="483.886719"/>
     <use xlink:href="#DejaVuSans-2f" x="547.509766"/>
     <use xlink:href="#DejaVuSans-77" x="581.201172"/>
     <use xlink:href="#DejaVuSans-6b" x="662.988281"/>
     <use xlink:href="#DejaVuSans-29" x="720.898438"/>
    </g>
   </g>
   <g id="text_24">
    <!-- 73%  (2.2/wk) -->
    <g style="fill: #f2f2f7" transform="translate(547.852203 265.34178) scale(0.085 -0.085)">
     <use xlink:href="#DejaVuSans-37"/>
     <use xlink:href="#DejaVuSans-33" x="63.623047"/>
     <use xlink:href="#DejaVuSans-25" x="127.246094"/>
     <use xlink:href="#DejaVuSans-20" x="222.265625"/>
     <use xlink:href="#DejaVuSans-20" x="254.052734"/>
     <use xlink:href="#DejaVuSans-28" x="285.839844"/>
     <use xlink:href="#DejaVuSans-32" x="324.853516"/>
     <use xlink:href="#DejaVuSans-2e" x="388.476562"/>
     <use xlink:href="#DejaVuSans-32" x="420.263672"/>
     <use xlink:href="#DejaVuSans-2f" x="483.886719"/>
     <use xlink:href="#DejaVuSans-77" x="517.578125"/>
     <use xlink:href="#DejaVuSans-6b" x="599.365234"/>
     <use xlink:href="#DejaVuSans-29" x="657.275391"/>
    </g>
   </g>
   <g id="text_25">
    <!-- 73%  (3.4/wk) -->
    <g style="fill: #f2f2f7" transform="translate(547.852203 219.146278) scale(0.085 -0.085)">
     <use xlink:href="#DejaVuSans-37"/>
     <use xlink:href="#DejaVuSans-33" x="63.623047"/>
     <use xlink:href="#DejaVuSans-25" x="127.246094"/>
     <use xlink:href="#DejaVuSans-20" x="222.265625"/>
     <use xlink:href="#DejaVuSans-20" x="254.052734"/>
     <use xlink:href="#DejaVuSans-28" x="285.839844"/>
     <use xlink:href="#DejaVuSans-33" x="324.853516"/>
     <use xlink:href="#DejaVuSans-2e" x="388.476562"/>
     <use xlink:href="#DejaVuSans-34" x="420.263672"/>
     <use xlink:href="#DejaVuSans-2f" x="483.886719"/>
     <use xlink:href="#DejaVuSans-77" x="517.578125"/>
     <use xlink:href="#DejaVuSans-6b" x="599.365234"/>
     <use xlink:href="#DejaVuSans-29" x="657.275391"/>
    </g>
   </g>
   <g id="text_26">
    <!-- 68%  (1.5/wk) -->
    <g style="fill: #f2f2f7" transform="translate(521.877203 172.950777) scale(0.085 -0.085)">
     <use xlink:href="#DejaVuSans-36"/>
     <use xlink:href="#DejaVuSans-38" x="63.623047"/>
     <use xlink:href="#DejaVuSans-25" x="127.246094"/>
     <use xlink:href="#DejaVuSans-20" x="222.265625"/>
     <use xlink:href="#DejaVuSans-20" x="254.052734"/>
     <use xlink:href="#DejaVuSans-28" x="285.839844"/>
     <use xlink:href="#DejaVuSans-31" x="324.853516"/>
     <use xlink:href="#DejaVuSans-2e" x="388.476562"/>
     <use xlink:href="#DejaVuSans-35" x="420.263672"/>
     <use xlink:href="#DejaVuSans-2f" x="483.886719"/>
     <use xlink:href="#DejaVuSans-77" x="517.578125"/>
     <use xlink:href="#DejaVuSans-6b" x="599.365234"/>
     <use xlink:href="#DejaVuSans-29" x="657.275391"/>
    </g>
   </g>
   <g id="text_27">
    <!-- 76%  (1.9/wk) -->
    <g style="fill: #f2f2f7" transform="translate(563.437203 126.755275) scale(0.085 -0.085)">
     <use xlink:href="#DejaVuSans-37"/>
     <use xlink:href="#DejaVuSans-36" x="63.623047"/>
     <use xlink:href="#DejaVuSans-25" x="127.246094"/>
     <use xlink:href="#DejaVuSans-20" x="222.265625"/>
     <use xlink:href="#DejaVuSans-20" x="254.052734"/>
     <use xlink:href="#DejaVuSans-28" x="285.839844"/>
     <use xlink:href="#DejaVuSans-31" x="324.853516"/>
     <use xlink:href="#DejaVuSans-2e" x="388.476562"/>
     <use xlink:href="#DejaVuSans-39" x="420.263672"/>
     <use xlink:href="#DejaVuSans-2f" x="483.886719"/>
     <use xlink:href="#DejaVuSans-77" x="517.578125"/>
     <use xlink:href="#DejaVuSans-6b" x="599.365234"/>
     <use xlink:href="#DejaVuSans-29" x="657.275391"/>
    </g>
   </g>
   <g id="text_28">
    <!-- 30%  (42.0/wk) -->
    <g style="fill: #f2f2f7" transform="translate(324.467203 80.559773) scale(0.085 -0.085)">
     <use xlink:href="#DejaVuSans-33"/>
     <use xlink:href="#DejaVuSans-30" x="63.623047"/>
     <use xlink:href="#DejaVuSans-25" x="127.246094"/>
     <use xlink:href="#DejaVuSans-20" x="222.265625"/>
     <use xlink:href="#DejaVuSans-20" x="254.052734"/>
     <use xlink:href="#DejaVuSans-28" x="285.839844"/>
     <use xlink:href="#DejaVuSans-34" x="324.853516"/>
     <use xlink:href="#DejaVuSans-32" x="388.476562"/>
     <use xlink:href="#DejaVuSans-2e" x="452.099609"/>
     <use xlink:href="#DejaVuSans-30" x="483.886719"/>
     <use xlink:href="#DejaVuSans-2f" x="547.509766"/>
     <use xlink:href="#DejaVuSans-77" x="581.201172"/>
     <use xlink:href="#DejaVuSans-6b" x="662.988281"/>
     <use xlink:href="#DejaVuSans-29" x="720.898438"/>
    </g>
   </g>
   <g id="text_29">
    <!-- Named Conditions — Win Rate (mag_win @ 2.5%) -->
    <g style="fill: #f2f2f7" transform="translate(333.738203 15.558281) scale(0.11 -0.11)">
     <defs>
      <path id="DejaVuSans-4e" d="M 628 4666 
L 1478 4666 
L 3547 763 
L 3547 4666 
L 4159 4666 
L 4159 0 
L 3309 0 
L 1241 3903 
L 1241 0 
L 628 0 
L 628 4666 
z
" transform="scale(0.015625)"/>
      <path id="DejaVuSans-43" d="M 4122 4306 
L 4122 3641 
Q 3803 3938 3442 4084 
Q 3081 4231 2675 4231 
Q 1875 4231 1450 3742 
Q 1025 3253 1025 2328 
Q 1025 1406 1450 917 
Q 1875 428 2675 428 
Q 3081 428 3442 575 
Q 3803 722 4122 1019 
L 4122 359 
Q 3791 134 3420 21 
Q 3050 -91 2638 -91 
Q 1578 -91 968 557 
Q 359 1206 359 2328 
Q 359 3453 968 4101 
Q 1578 4750 2638 4750 
Q 3056 4750 3426 4639 
Q 3797 4528 4122 4306 
z
" transform="scale(0.015625)"/>
      <path id="DejaVuSans-2014" d="M 313 1978 
L 6088 1978 
L 6088 1528 
L 313 1528 
L 313 1978 
z
" transform="scale(0.015625)"/>
      <path id="DejaVuSans-57" d="M 213 4666 
L 850 4666 
L 1831 722 
L 2809 4666 
L 3519 4666 
L 4500 722 
L 5478 4666 
L 6119 4666 
L 4947 0 
L 4153 0 
L 3169 4050 
L 2175 0 
L 1381 0 
L 213 4666 
z
" transform="scale(0.015625)"/>
     </defs>
     <use xlink:href="#DejaVuSans-4e"/>
     <use xlink:href="#DejaVuSans-61" x="74.804688"/>
     <use xlink:href="#DejaVuSans-6d" x="136.083984"/>
     <use xlink:href="#DejaVuSans-65" x="233.496094"/>
     <use xlink:href="#DejaVuSans-64" x="295.019531"/>
     <use xlink:href="#DejaVuSans-20" x="358.496094"/>
     <use xlink:href="#DejaVuSans-43" x="390.283203"/>
     <use xlink:href="#DejaVuSans-6f" x="460.107422"/>
     <use xlink:href="#DejaVuSans-6e" x="521.289062"/>
     <use xlink:href="#DejaVuSans-64" x="584.667969"/>
     <use xlink:href="#DejaVuSans-69" x="648.144531"/>
     <use xlink:href="#DejaVuSans-74" x="675.927734"/>
     <use xlink:href="#DejaVuSans-69" x="715.136719"/>
     <use xlink:href="#DejaVuSans-6f" x="742.919922"/>
     <use xlink:href="#DejaVuSans-6e" x="804.101562"/>
     <use xlink:href="#DejaVuSans-73" x="867.480469"/>
     <use xlink:href="#DejaVuSans-20" x="919.580078"/>
     <use xlink:href="#DejaVuSans-2014" x="951.367188"/>
     <use xlink:href="#DejaVuSans-20" x="1051.367188"/>
     <use xlink:href="#DejaVuSans-57" x="1083.154297"/>
     <use xlink:href="#DejaVuSans-69" x="1179.78125"/>
     <use xlink:href="#DejaVuSans-6e" x="1207.564453"/>
     <use xlink:href="#DejaVuSans-20" x="1270.943359"/>
     <use xlink:href="#DejaVuSans-52" x="1302.730469"/>
     <use xlink:href="#DejaVuSans-61" x="1369.962891"/>
     <use xlink:href="#DejaVuSans-74" x="1431.242188"/>
     <use xlink:href="#DejaVuSans-65" x="1470.451172"/>
     <use xlink:href="#DejaVuSans-20" x="1531.974609"/>
     <use xlink:href="#DejaVuSans-28" x="1563.761719"/>
     <use xlink:href="#DejaVuSans-6d" x="1602.775391"/>
     <use xlink:href="#DejaVuSans-61" x="1700.1875"/>
     <use xlink:href="#DejaVuSans-67" x="1761.466797"/>
     <use xlink:href="#DejaVuSans-5f" x="1824.943359"/>
     <use xlink:href="#DejaVuSans-77" x="1874.943359"/>
     <use xlink:href="#DejaVuSans-69" x="1956.730469"/>
     <use xlink:href="#DejaVuSans-6e" x="1984.513672"/>
     <use xlink:href="#DejaVuSans-20" x="2047.892578"/>
     <use xlink:href="#DejaVuSans-40" x="2079.679688"/>
     <use xlink:href="#DejaVuSans-20" x="2179.679688"/>
     <use xlink:href="#DejaVuSans-32" x="2211.466797"/>
     <use xlink:href="#DejaVuSans-2e" x="2275.089844"/>
     <use xlink:href="#DejaVuSans-35" x="2306.876953"/>
     <use xlink:href="#DejaVuSans-25" x="2370.5"/>
     <use xlink:href="#DejaVuSans-29" x="2465.519531"/>
    </g>
    <!-- full analysis window  2025-01-01 → 2026-05-15 -->
    <g style="fill: #f2f2f7" transform="translate(340.849531 28.181813) scale(0.11 -0.11)">
     <defs>
      <path id="DejaVuSans-79" d="M 2059 -325 
Q 1816 -950 1584 -1140 
Q 1353 -1331 966 -1331 
L 506 -1331 
L 506 -850 
L 844 -850 
Q 1081 -850 1212 -737 
Q 1344 -625 1503 -206 
L 1606 56 
L 191 3500 
L 800 3500 
L 1894 763 
L 2988 3500 
L 3597 3500 
L 2059 -325 
z
" transform="scale(0.015625)"/>
      <path id="DejaVuSans-2192" d="M 5050 2147 
L 5050 1866 
L 3822 638 
L 3447 1013 
L 4175 1741 
L 366 1741 
L 366 2272 
L 4175 2272 
L 3447 3000 
L 3822 3375 
L 5050 2147 
z
" transform="scale(0.015625)"/>
     </defs>
     <use xlink:href="#DejaVuSans-66"/>
     <use xlink:href="#DejaVuSans-75" x="35.205078"/>
     <use xlink:href="#DejaVuSans-6c" x="98.583984"/>
     <use xlink:href="#DejaVuSans-6c" x="126.367188"/>
     <use xlink:href="#DejaVuSans-20" x="154.150391"/>
     <use xlink:href="#DejaVuSans-61" x="185.9375"/>
     <use xlink:href="#DejaVuSans-6e" x="247.216797"/>
     <use xlink:href="#DejaVuSans-61" x="310.595703"/>
     <use xlink:href="#DejaVuSans-6c" x="371.875"/>
     <use xlink:href="#DejaVuSans-79" x="399.658203"/>
     <use xlink:href="#DejaVuSans-73" x="458.837891"/>
     <use xlink:href="#DejaVuSans-69" x="510.9375"/>
     <use xlink:href="#DejaVuSans-73" x="538.720703"/>
     <use xlink:href="#DejaVuSans-20" x="590.820312"/>
     <use xlink:href="#DejaVuSans-77" x="622.607422"/>
     <use xlink:href="#DejaVuSans-69" x="704.394531"/>
     <use xlink:href="#DejaVuSans-6e" x="732.177734"/>
     <use xlink:href="#DejaVuSans-64" x="795.556641"/>
     <use xlink:href="#DejaVuSans-6f" x="859.033203"/>
     <use xlink:href="#DejaVuSans-77" x="920.214844"/>
     <use xlink:href="#DejaVuSans-20" x="1002.001953"/>
     <use xlink:href="#DejaVuSans-20" x="1033.789062"/>
     <use xlink:href="#DejaVuSans-32" x="1065.576172"/>
     <use xlink:href="#DejaVuSans-30" x="1129.199219"/>
     <use xlink:href="#DejaVuSans-32" x="1192.822266"/>
     <use xlink:href="#DejaVuSans-35" x="1256.445312"/>
     <use xlink:href="#DejaVuSans-2d" x="1320.068359"/>
     <use xlink:href="#DejaVuSans-30" x="1356.152344"/>
     <use xlink:href="#DejaVuSans-31" x="1419.775391"/>
     <use xlink:href="#DejaVuSans-2d" x="1483.398438"/>
     <use xlink:href="#DejaVuSans-30" x="1519.482422"/>
     <use xlink:href="#DejaVuSans-31" x="1583.105469"/>
     <use xlink:href="#DejaVuSans-20" x="1646.728516"/>
     <use xlink:href="#DejaVuSans-2192" x="1678.515625"/>
     <use xlink:href="#DejaVuSans-20" x="1762.304688"/>
     <use xlink:href="#DejaVuSans-32" x="1794.091797"/>
     <use xlink:href="#DejaVuSans-30" x="1857.714844"/>
     <use xlink:href="#DejaVuSans-32" x="1921.337891"/>
     <use xlink:href="#DejaVuSans-36" x="1984.960938"/>
     <use xlink:href="#DejaVuSans-2d" x="2048.583984"/>
     <use xlink:href="#DejaVuSans-30" x="2084.667969"/>
     <use xlink:href="#DejaVuSans-35" x="2148.291016"/>
     <use xlink:href="#DejaVuSans-2d" x="2211.914062"/>
     <use xlink:href="#DejaVuSans-31" x="2247.998047"/>
     <use xlink:href="#DejaVuSans-35" x="2311.621094"/>
    </g>
   </g>
   <g id="legend_1">
    <g id="patch_17">
     <path d="M 639.999453 526.006312 
L 772.390703 526.006312 
Q 773.990703 526.006312 773.990703 524.406312 
L 773.990703 478.236312 
Q 773.990703 476.636312 772.390703 476.636312 
L 639.999453 476.636312 
Q 638.399453 476.636312 638.399453 478.236312 
L 638.399453 524.406312 
Q 638.399453 526.006312 639.999453 526.006312 
z
" style="fill: #2c2c2e; opacity: 0.2; stroke: #8e8e93; stroke-linejoin: miter"/>
    </g>
    <g id="patch_18">
     <path d="M 641.599453 485.915062 
L 657.599453 485.915062 
L 657.599453 480.315062 
L 641.599453 480.315062 
z
" style="fill: #30d158; stroke: #30d158; stroke-linejoin: miter"/>
    </g>
    <g id="text_30">
     <!-- sweet-spot freq  (2–10/wk) -->
     <g style="fill: #f2f2f7" transform="translate(663.999453 485.915062) scale(0.08 -0.08)">
      <defs>
       <path id="DejaVuSans-2013" d="M 313 1978 
L 2888 1978 
L 2888 1528 
L 313 1528 
L 313 1978 
z
" transform="scale(0.015625)"/>
      </defs>
      <use xlink:href="#DejaVuSans-73"/>
      <use xlink:href="#DejaVuSans-77" x="52.099609"/>
      <use xlink:href="#DejaVuSans-65" x="133.886719"/>
      <use xlink:href="#DejaVuSans-65" x="195.410156"/>
      <use xlink:href="#DejaVuSans-74" x="256.933594"/>
      <use xlink:href="#DejaVuSans-2d" x="296.142578"/>
      <use xlink:href="#DejaVuSans-73" x="332.226562"/>
      <use xlink:href="#DejaVuSans-70" x="384.326172"/>
      <use xlink:href="#DejaVuSans-6f" x="447.802734"/>
      <use xlink:href="#DejaVuSans-74" x="508.984375"/>
      <use xlink:href="#DejaVuSans-20" x="548.193359"/>
      <use xlink:href="#DejaVuSans-66" x="579.980469"/>
      <use xlink:href="#DejaVuSans-72" x="615.185547"/>
      <use xlink:href="#DejaVuSans-65" x="654.048828"/>
      <use xlink:href="#DejaVuSans-71" x="715.572266"/>
      <use xlink:href="#DejaVuSans-20" x="779.048828"/>
      <use xlink:href="#DejaVuSans-20" x="810.835938"/>
      <use xlink:href="#DejaVuSans-28" x="842.623047"/>
      <use xlink:href="#DejaVuSans-32" x="881.636719"/>
      <use xlink:href="#DejaVuSans-2013" x="945.259766"/>
      <use xlink:href="#DejaVuSans-31" x="995.259766"/>
      <use xlink:href="#DejaVuSans-30" x="1058.882812"/>
      <use xlink:href="#DejaVuSans-2f" x="1122.505859"/>
      <use xlink:href="#DejaVuSans-77" x="1156.197266"/>
      <use xlink:href="#DejaVuSans-6b" x="1237.984375"/>
      <use xlink:href="#DejaVuSans-29" x="1295.894531"/>
     </g>
    </g>
    <g id="patch_19">
     <path d="M 641.599453 497.657562 
L 657.599453 497.657562 
L 657.599453 492.057562 
L 641.599453 492.057562 
z
" style="fill: #5ac8fa; stroke: #5ac8fa; stroke-linejoin: miter"/>
    </g>
    <g id="text_31">
     <!-- low freq  (&lt;2/wk) -->
     <g style="fill: #f2f2f7" transform="translate(663.999453 497.657562) scale(0.08 -0.08)">
      <use xlink:href="#DejaVuSans-6c"/>
      <use xlink:href="#DejaVuSans-6f" x="27.783203"/>
      <use xlink:href="#DejaVuSans-77" x="88.964844"/>
      <use xlink:href="#DejaVuSans-20" x="170.751953"/>
      <use xlink:href="#DejaVuSans-66" x="202.539062"/>
      <use xlink:href="#DejaVuSans-72" x="237.744141"/>
      <use xlink:href="#DejaVuSans-65" x="276.607422"/>
      <use xlink:href="#DejaVuSans-71" x="338.130859"/>
      <use xlink:href="#DejaVuSans-20" x="401.607422"/>
      <use xlink:href="#DejaVuSans-20" x="433.394531"/>
      <use xlink:href="#DejaVuSans-28" x="465.181641"/>
      <use xlink:href="#DejaVuSans-3c" x="504.195312"/>
      <use xlink:href="#DejaVuSans-32" x="587.984375"/>
      <use xlink:href="#DejaVuSans-2f" x="651.607422"/>
      <use xlink:href="#DejaVuSans-77" x="685.298828"/>
      <use xlink:href="#DejaVuSans-6b" x="767.085938"/>
      <use xlink:href="#DejaVuSans-29" x="824.996094"/>
     </g>
    </g>
    <g id="patch_20">
     <path d="M 641.599453 509.400062 
L 657.599453 509.400062 
L 657.599453 503.800062 
L 641.599453 503.800062 
z
" style="fill: #ff9f0a; stroke: #ff9f0a; stroke-linejoin: miter"/>
    </g>
    <g id="text_32">
     <!-- high freq — use as filter -->
     <g style="fill: #f2f2f7" transform="translate(663.999453 509.400062) scale(0.08 -0.08)">
      <use xlink:href="#DejaVuSans-68"/>
      <use xlink:href="#DejaVuSans-69" x="63.378906"/>
      <use xlink:href="#DejaVuSans-67" x="91.162109"/>
      <use xlink:href="#DejaVuSans-68" x="154.638672"/>
      <use xlink:href="#DejaVuSans-20" x="218.017578"/>
      <use xlink:href="#DejaVuSans-66" x="249.804688"/>
      <use xlink:href="#DejaVuSans-72" x="285.009766"/>
      <use xlink:href="#DejaVuSans-65" x="323.873047"/>
      <use xlink:href="#DejaVuSans-71" x="385.396484"/>
      <use xlink:href="#DejaVuSans-20" x="448.873047"/>
      <use xlink:href="#DejaVuSans-2014" x="480.660156"/>
      <use xlink:href="#DejaVuSans-20" x="580.660156"/>
      <use xlink:href="#DejaVuSans-75" x="612.447266"/>
      <use xlink:href="#DejaVuSans-73" x="675.826172"/>
      <use xlink:href="#DejaVuSans-65" x="727.925781"/>
      <use xlink:href="#DejaVuSans-20" x="789.449219"/>
      <use xlink:href="#DejaVuSans-61" x="821.236328"/>
      <use xlink:href="#DejaVuSans-73" x="882.515625"/>
      <use xlink:href="#DejaVuSans-20" x="934.615234"/>
      <use xlink:href="#DejaVuSans-66" x="966.402344"/>
      <use xlink:href="#DejaVuSans-69" x="1001.607422"/>
      <use xlink:href="#DejaVuSans-6c" x="1029.390625"/>
      <use xlink:href="#DejaVuSans-74" x="1057.173828"/>
      <use xlink:href="#DejaVuSans-65" x="1096.382812"/>
      <use xlink:href="#DejaVuSans-72" x="1157.90625"/>
     </g>
    </g>
    <g id="patch_21">
     <path d="M 641.599453 521.142562 
L 657.599453 521.142562 
L 657.599453 515.542562 
L 641.599453 515.542562 
z
" style="fill: #ff453a; stroke: #ff453a; stroke-linejoin: miter"/>
    </g>
    <g id="text_33">
     <!-- reference (squeeze) -->
     <g style="fill: #f2f2f7" transform="translate(663.999453 521.142562) scale(0.08 -0.08)">
      <use xlink:href="#DejaVuSans-72"/>
      <use xlink:href="#DejaVuSans-65" x="38.863281"/>
      <use xlink:href="#DejaVuSans-66" x="100.386719"/>
      <use xlink:href="#DejaVuSans-65" x="135.591797"/>
      <use xlink:href="#DejaVuSans-72" x="197.115234"/>
      <use xlink:href="#DejaVuSans-65" x="235.978516"/>
      <use xlink:href="#DejaVuSans-6e" x="297.501953"/>
      <use xlink:href="#DejaVuSans-63" x="360.880859"/>
      <use xlink:href="#DejaVuSans-65" x="415.861328"/>
      <use xlink:href="#DejaVuSans-20" x="477.384766"/>
      <use xlink:href="#DejaVuSans-28" x="509.171875"/>
      <use xlink:href="#DejaVuSans-73" x="548.185547"/>
      <use xlink:href="#DejaVuSans-71" x="600.285156"/>
      <use xlink:href="#DejaVuSans-75" x="663.761719"/>
      <use xlink:href="#DejaVuSans-65" x="727.140625"/>
      <use xlink:href="#DejaVuSans-65" x="788.664062"/>
      <use xlink:href="#DejaVuSans-7a" x="850.1875"/>
      <use xlink:href="#DejaVuSans-65" x="902.677734"/>
      <use xlink:href="#DejaVuSans-29" x="964.201172"/>
     </g>
    </g>
   </g>
  </g>
 </g>
 <defs>
  <clipPath id="pa7591ec04b">
   <rect x="164.980703" y="42.181813" width="613.01" height="487.8245"/>
  </clipPath>
 </defs>
</svg>
