<?xml version="1.0" encoding="utf-8" standalone="no"?>
<!DOCTYPE svg PUBLIC "-//W3C//DTD SVG 1.1//EN"
  "http://www.w3.org/Graphics/SVG/1.1/DTD/svg11.dtd">
<svg xmlns:xlink="http://www.w3.org/1999/xlink" width="784.475156pt" height="459.250214pt" viewBox="0 0 784.475156 459.250214" xmlns="http://www.w3.org/2000/svg" version="1.1">
 <metadata>
  <rdf:RDF xmlns:dc="http://purl.org/dc/elements/1.1/" xmlns:cc="http://creativecommons.org/ns#" xmlns:rdf="http://www.w3.org/1999/02/22-rdf-syntax-ns#">
   <cc:Work>
    <dc:type rdf:resource="http://purl.org/dc/dcmitype/StillImage"/>
    <dc:date>2026-05-17T15:46:13.535483</dc:date>
    <dc:format>image/svg+xml</dc:format>
    <dc:creator>
     <cc:Agent>
      <dc:title>Matplotlib v3.9.4, https://matplotlib.org/</dc:title>
     </cc:Agent>
    </dc:creator>
   </cc:Work>
  </rdf:RDF>
 </metadata>
 <defs>
  <style type="text/css">*{stroke-linejoin: round; stroke-linecap: butt}</style>
 </defs>
 <g id="figure_1">
  <g id="patch_1">
   <path d="M -0 459.250214 
L 784.475156 459.250214 
L 784.475156 0 
L -0 0 
z
" style="fill: #1c1c1e"/>
  </g>
  <g id="axes_1">
   <g id="patch_2">
    <path d="M 53.886406 414.79202 
L 777.275156 414.79202 
L 777.275156 41.933625 
L 53.886406 41.933625 
z
" style="fill: #2c2c2e"/>
   </g>
   <g id="matplotlib.axis_1">
    <g id="xtick_1">
     <g id="line2d_1">
      <defs>
       <path id="m8530b8f9aa" d="M 0 0 
L 0 3.5 
" style="stroke: #f2f2f7; stroke-width: 0.8"/>
      </defs>
      <g>
       <use xlink:href="#m8530b8f9aa" x="117.434217" y="414.79202" style="fill: #f2f2f7; stroke: #f2f2f7; stroke-width: 0.8"/>
      </g>
     </g>
     <g id="text_1">
      <!-- Baseline (no Sat) -->
      <g style="fill: #f2f2f7" transform="translate(47.841923 450.368999) rotate(-18) scale(0.085 -0.085)">
       <defs>
        <path id="DejaVuSans-42" d="M 1259 2228 
L 1259 519 
L 2272 519 
Q 2781 519 3026 730 
Q 3272 941 3272 1375 
Q 3272 1813 3026 2020 
Q 2781 2228 2272 2228 
L 1259 2228 
z
M 1259 4147 
L 1259 2741 
L 2194 2741 
Q 2656 2741 2882 2914 
Q 3109 3088 3109 3444 
Q 3109 3797 2882 3972 
Q 2656 4147 2194 4147 
L 1259 4147 
z
M 628 4666 
L 2241 4666 
Q 2963 4666 3353 4366 
Q 3744 4066 3744 3513 
Q 3744 3084 3544 2831 
Q 3344 2578 2956 2516 
Q 3422 2416 3680 2098 
Q 3938 1781 3938 1306 
Q 3938 681 3513 340 
Q 3088 0 2303 0 
L 628 0 
L 628 4666 
z
" transform="scale(0.015625)"/>
        <path id="DejaVuSans-61" d="M 2194 1759 
Q 1497 1759 1228 1600 
Q 959 1441 959 1056 
Q 959 750 1161 570 
Q 1363 391 1709 391 
Q 2188 391 2477 730 
Q 2766 1069 2766 1631 
L 2766 1759 
L 2194 1759 
z
M 3341 1997 
L 3341 0 
L 2766 0 
L 2766 531 
Q 2569 213 2275 61 
Q 1981 -91 1556 -91 
Q 1019 -91 701 211 
Q 384 513 384 1019 
Q 384 1609 779 1909 
Q 1175 2209 1959 2209 
L 2766 2209 
L 2766 2266 
Q 2766 2663 2505 2880 
Q 2244 3097 1772 3097 
Q 1472 3097 1187 3025 
Q 903 2953 641 2809 
L 641 3341 
Q 956 3463 1253 3523 
Q 1550 3584 1831 3584 
Q 2591 3584 2966 3190 
Q 3341 2797 3341 1997 
z
" transform="scale(0.015625)"/>
        <path id="DejaVuSans-73" d="M 2834 3397 
L 2834 2853 
Q 2591 2978 2328 3040 
Q 2066 3103 1784 3103 
Q 1356 3103 1142 2972 
Q 928 2841 928 2578 
Q 928 2378 1081 2264 
Q 1234 2150 1697 2047 
L 1894 2003 
Q 2506 1872 2764 1633 
Q 3022 1394 3022 966 
Q 3022 478 2636 193 
Q 2250 -91 1575 -91 
Q 1294 -91 989 -36 
Q 684 19 347 128 
L 347 722 
Q 666 556 975 473 
Q 1284 391 1588 391 
Q 1994 391 2212 530 
Q 2431 669 2431 922 
Q 2431 1156 2273 1281 
Q 2116 1406 1581 1522 
L 1381 1569 
Q 847 1681 609 1914 
Q 372 2147 372 2553 
Q 372 3047 722 3315 
Q 1072 3584 1716 3584 
Q 2034 3584 2315 3537 
Q 2597 3491 2834 3397 
z
" transform="scale(0.015625)"/>
        <path id="DejaVuSans-65" d="M 3597 1894 
L 3597 1613 
L 953 1613 
Q 991 1019 1311 708 
Q 1631 397 2203 397 
Q 2534 397 2845 478 
Q 3156 559 3463 722 
L 3463 178 
Q 3153 47 2828 -22 
Q 2503 -91 2169 -91 
Q 1331 -91 842 396 
Q 353 884 353 1716 
Q 353 2575 817 3079 
Q 1281 3584 2069 3584 
Q 2775 3584 3186 3129 
Q 3597 2675 3597 1894 
z
M 3022 2063 
Q 3016 2534 2758 2815 
Q 2500 3097 2075 3097 
Q 1594 3097 1305 2825 
Q 1016 2553 972 2059 
L 3022 2063 
z
" transform="scale(0.015625)"/>
        <path id="DejaVuSans-6c" d="M 603 4863 
L 1178 4863 
L 1178 0 
L 603 0 
L 603 4863 
z
" transform="scale(0.015625)"/>
        <path id="DejaVuSans-69" d="M 603 3500 
L 1178 3500 
L 1178 0 
L 603 0 
L 603 3500 
z
M 603 4863 
L 1178 4863 
L 1178 4134 
L 603 4134 
L 603 4863 
z
" transform="scale(0.015625)"/>
        <path id="DejaVuSans-6e" d="M 3513 2113 
L 3513 0 
L 2938 0 
L 2938 2094 
Q 2938 2591 2744 2837 
Q 2550 3084 2163 3084 
Q 1697 3084 1428 2787 
Q 1159 2491 1159 1978 
L 1159 0 
L 581 0 
L 581 3500 
L 1159 3500 
L 1159 2956 
Q 1366 3272 1645 3428 
Q 1925 3584 2291 3584 
Q 2894 3584 3203 3211 
Q 3513 2838 3513 2113 
z
" transform="scale(0.015625)"/>
        <path id="DejaVuSans-20" transform="scale(0.015625)"/>
        <path id="DejaVuSans-28" d="M 1984 4856 
Q 1566 4138 1362 3434 
Q 1159 2731 1159 2009 
Q 1159 1288 1364 580 
Q 1569 -128 1984 -844 
L 1484 -844 
Q 1016 -109 783 600 
Q 550 1309 550 2009 
Q 550 2706 781 3412 
Q 1013 4119 1484 4856 
L 1984 4856 
z
" transform="scale(0.015625)"/>
        <path id="DejaVuSans-6f" d="M 1959 3097 
Q 1497 3097 1228 2736 
Q 959 2375 959 1747 
Q 959 1119 1226 758 
Q 1494 397 1959 397 
Q 2419 397 2687 759 
Q 2956 1122 2956 1747 
Q 2956 2369 2687 2733 
Q 2419 3097 1959 3097 
z
M 1959 3584 
Q 2709 3584 3137 3096 
Q 3566 2609 3566 1747 
Q 3566 888 3137 398 
Q 2709 -91 1959 -91 
Q 1206 -91 779 398 
Q 353 888 353 1747 
Q 353 2609 779 3096 
Q 1206 3584 1959 3584 
z
" transform="scale(0.015625)"/>
        <path id="DejaVuSans-53" d="M 3425 4513 
L 3425 3897 
Q 3066 4069 2747 4153 
Q 2428 4238 2131 4238 
Q 1616 4238 1336 4038 
Q 1056 3838 1056 3469 
Q 1056 3159 1242 3001 
Q 1428 2844 1947 2747 
L 2328 2669 
Q 3034 2534 3370 2195 
Q 3706 1856 3706 1288 
Q 3706 609 3251 259 
Q 2797 -91 1919 -91 
Q 1588 -91 1214 -16 
Q 841 59 441 206 
L 441 856 
Q 825 641 1194 531 
Q 1563 422 1919 422 
Q 2459 422 2753 634 
Q 3047 847 3047 1241 
Q 3047 1584 2836 1778 
Q 2625 1972 2144 2069 
L 1759 2144 
Q 1053 2284 737 2584 
Q 422 2884 422 3419 
Q 422 4038 858 4394 
Q 1294 4750 2059 4750 
Q 2388 4750 2728 4690 
Q 3069 4631 3425 4513 
z
" transform="scale(0.015625)"/>
        <path id="DejaVuSans-74" d="M 1172 4494 
L 1172 3500 
L 2356 3500 
L 2356 3053 
L 1172 3053 
L 1172 1153 
Q 1172 725 1289 603 
Q 1406 481 1766 481 
L 2356 481 
L 2356 0 
L 1766 0 
Q 1100 0 847 248 
Q 594 497 594 1153 
L 594 3053 
L 172 3053 
L 172 3500 
L 594 3500 
L 594 4494 
L 1172 4494 
z
" transform="scale(0.015625)"/>
        <path id="DejaVuSans-29" d="M 513 4856 
L 1013 4856 
Q 1481 4119 1714 3412 
Q 1947 2706 1947 2009 
Q 1947 1309 1714 600 
Q 1481 -109 1013 -844 
L 513 -844 
Q 928 -128 1133 580 
Q 1338 1288 1338 2009 
Q 1338 2731 1133 3434 
Q 928 4138 513 4856 
z
" transform="scale(0.015625)"/>
       </defs>
       <use xlink:href="#DejaVuSans-42"/>
       <use xlink:href="#DejaVuSans-61" x="68.603516"/>
       <use xlink:href="#DejaVuSans-73" x="129.882812"/>
       <use xlink:href="#DejaVuSans-65" x="181.982422"/>
       <use xlink:href="#DejaVuSans-6c" x="243.505859"/>
       <use xlink:href="#DejaVuSans-69" x="271.289062"/>
       <use xlink:href="#DejaVuSans-6e" x="299.072266"/>
       <use xlink:href="#DejaVuSans-65" x="362.451172"/>
       <use xlink:href="#DejaVuSans-20" x="423.974609"/>
       <use xlink:href="#DejaVuSans-28" x="455.761719"/>
       <use xlink:href="#DejaVuSans-6e" x="494.775391"/>
       <use xlink:href="#DejaVuSans-6f" x="558.154297"/>
       <use xlink:href="#DejaVuSans-20" x="619.335938"/>
       <use xlink:href="#DejaVuSans-53" x="651.123047"/>
       <use xlink:href="#DejaVuSans-61" x="714.599609"/>
       <use xlink:href="#DejaVuSans-74" x="775.878906"/>
       <use xlink:href="#DejaVuSans-29" x="815.087891"/>
      </g>
     </g>
    </g>
    <g id="xtick_2">
     <g id="line2d_2">
      <g>
       <use xlink:href="#m8530b8f9aa" x="202.61895" y="414.79202" style="fill: #f2f2f7; stroke: #f2f2f7; stroke-width: 0.8"/>
      </g>
     </g>
     <g id="text_2">
      <!-- vol_regime -->
      <g style="fill: #f2f2f7" transform="translate(157.638794 442.348294) rotate(-18) scale(0.085 -0.085)">
       <defs>
        <path id="DejaVuSans-76" d="M 191 3500 
L 800 3500 
L 1894 563 
L 2988 3500 
L 3597 3500 
L 2284 0 
L 1503 0 
L 191 3500 
z
" transform="scale(0.015625)"/>
        <path id="DejaVuSans-5f" d="M 3263 -1063 
L 3263 -1509 
L -63 -1509 
L -63 -1063 
L 3263 -1063 
z
" transform="scale(0.015625)"/>
        <path id="DejaVuSans-72" d="M 2631 2963 
Q 2534 3019 2420 3045 
Q 2306 3072 2169 3072 
Q 1681 3072 1420 2755 
Q 1159 2438 1159 1844 
L 1159 0 
L 581 0 
L 581 3500 
L 1159 3500 
L 1159 2956 
Q 1341 3275 1631 3429 
Q 1922 3584 2338 3584 
Q 2397 3584 2469 3576 
Q 2541 3569 2628 3553 
L 2631 2963 
z
" transform="scale(0.015625)"/>
        <path id="DejaVuSans-67" d="M 2906 1791 
Q 2906 2416 2648 2759 
Q 2391 3103 1925 3103 
Q 1463 3103 1205 2759 
Q 947 2416 947 1791 
Q 947 1169 1205 825 
Q 1463 481 1925 481 
Q 2391 481 2648 825 
Q 2906 1169 2906 1791 
z
M 3481 434 
Q 3481 -459 3084 -895 
Q 2688 -1331 1869 -1331 
Q 1566 -1331 1297 -1286 
Q 1028 -1241 775 -1147 
L 775 -588 
Q 1028 -725 1275 -790 
Q 1522 -856 1778 -856 
Q 2344 -856 2625 -561 
Q 2906 -266 2906 331 
L 2906 616 
Q 2728 306 2450 153 
Q 2172 0 1784 0 
Q 1141 0 747 490 
Q 353 981 353 1791 
Q 353 2603 747 3093 
Q 1141 3584 1784 3584 
Q 2172 3584 2450 3431 
Q 2728 3278 2906 2969 
L 2906 3500 
L 3481 3500 
L 3481 434 
z
" transform="scale(0.015625)"/>
        <path id="DejaVuSans-6d" d="M 3328 2828 
Q 3544 3216 3844 3400 
Q 4144 3584 4550 3584 
Q 5097 3584 5394 3201 
Q 5691 2819 5691 2113 
L 5691 0 
L 5113 0 
L 5113 2094 
Q 5113 2597 4934 2840 
Q 4756 3084 4391 3084 
Q 3944 3084 3684 2787 
Q 3425 2491 3425 1978 
L 3425 0 
L 2847 0 
L 2847 2094 
Q 2847 2600 2669 2842 
Q 2491 3084 2119 3084 
Q 1678 3084 1418 2786 
Q 1159 2488 1159 1978 
L 1159 0 
L 581 0 
L 581 3500 
L 1159 3500 
L 1159 2956 
Q 1356 3278 1631 3431 
Q 1906 3584 2284 3584 
Q 2666 3584 2933 3390 
Q 3200 3197 3328 2828 
z
" transform="scale(0.015625)"/>
       </defs>
       <use xlink:href="#DejaVuSans-76"/>
       <use xlink:href="#DejaVuSans-6f" x="59.179688"/>
       <use xlink:href="#DejaVuSans-6c" x="120.361328"/>
       <use xlink:href="#DejaVuSans-5f" x="148.144531"/>
       <use xlink:href="#DejaVuSans-72" x="198.144531"/>
       <use xlink:href="#DejaVuSans-65" x="237.007812"/>
       <use xlink:href="#DejaVuSans-67" x="298.53125"/>
       <use xlink:href="#DejaVuSans-69" x="362.007812"/>
       <use xlink:href="#DejaVuSans-6d" x="389.791016"/>
       <use xlink:href="#DejaVuSans-65" x="487.203125"/>
      </g>
     </g>
    </g>
    <g id="xtick_3">
     <g id="line2d_3">
      <g>
       <use xlink:href="#m8530b8f9aa" x="287.803682" y="414.79202" style="fill: #f2f2f7; stroke: #f2f2f7; stroke-width: 0.8"/>
      </g>
     </g>
     <g id="text_3">
      <!-- vol_burst -->
      <g style="fill: #f2f2f7" transform="translate(250.206474 439.949428) rotate(-18) scale(0.085 -0.085)">
       <defs>
        <path id="DejaVuSans-62" d="M 3116 1747 
Q 3116 2381 2855 2742 
Q 2594 3103 2138 3103 
Q 1681 3103 1420 2742 
Q 1159 2381 1159 1747 
Q 1159 1113 1420 752 
Q 1681 391 2138 391 
Q 2594 391 2855 752 
Q 3116 1113 3116 1747 
z
M 1159 2969 
Q 1341 3281 1617 3432 
Q 1894 3584 2278 3584 
Q 2916 3584 3314 3078 
Q 3713 2572 3713 1747 
Q 3713 922 3314 415 
Q 2916 -91 2278 -91 
Q 1894 -91 1617 61 
Q 1341 213 1159 525 
L 1159 0 
L 581 0 
L 581 4863 
L 1159 4863 
L 1159 2969 
z
" transform="scale(0.015625)"/>
        <path id="DejaVuSans-75" d="M 544 1381 
L 544 3500 
L 1119 3500 
L 1119 1403 
Q 1119 906 1312 657 
Q 1506 409 1894 409 
Q 2359 409 2629 706 
Q 2900 1003 2900 1516 
L 2900 3500 
L 3475 3500 
L 3475 0 
L 2900 0 
L 2900 538 
Q 2691 219 2414 64 
Q 2138 -91 1772 -91 
Q 1169 -91 856 284 
Q 544 659 544 1381 
z
M 1991 3584 
L 1991 3584 
z
" transform="scale(0.015625)"/>
       </defs>
       <use xlink:href="#DejaVuSans-76"/>
       <use xlink:href="#DejaVuSans-6f" x="59.179688"/>
       <use xlink:href="#DejaVuSans-6c" x="120.361328"/>
       <use xlink:href="#DejaVuSans-5f" x="148.144531"/>
       <use xlink:href="#DejaVuSans-62" x="198.144531"/>
       <use xlink:href="#DejaVuSans-75" x="261.621094"/>
       <use xlink:href="#DejaVuSans-72" x="325"/>
       <use xlink:href="#DejaVuSans-73" x="366.113281"/>
       <use xlink:href="#DejaVuSans-74" x="418.212891"/>
      </g>
     </g>
    </g>
    <g id="xtick_4">
     <g id="line2d_4">
      <g>
       <use xlink:href="#m8530b8f9aa" x="372.988415" y="414.79202" style="fill: #f2f2f7; stroke: #f2f2f7; stroke-width: 0.8"/>
      </g>
     </g>
     <g id="text_4">
      <!-- vol_surge -->
      <g style="fill: #f2f2f7" transform="translate(333.727675 440.489943) rotate(-18) scale(0.085 -0.085)">
       <use xlink:href="#DejaVuSans-76"/>
       <use xlink:href="#DejaVuSans-6f" x="59.179688"/>
       <use xlink:href="#DejaVuSans-6c" x="120.361328"/>
       <use xlink:href="#DejaVuSans-5f" x="148.144531"/>
       <use xlink:href="#DejaVuSans-73" x="198.144531"/>
       <use xlink:href="#DejaVuSans-75" x="250.244141"/>
       <use xlink:href="#DejaVuSans-72" x="313.623047"/>
       <use xlink:href="#DejaVuSans-67" x="352.986328"/>
       <use xlink:href="#DejaVuSans-65" x="416.462891"/>
      </g>
     </g>
    </g>
    <g id="xtick_5">
     <g id="line2d_5">
      <g>
       <use xlink:href="#m8530b8f9aa" x="458.173148" y="414.79202" style="fill: #f2f2f7; stroke: #f2f2f7; stroke-width: 0.8"/>
      </g>
     </g>
     <g id="text_5">
      <!-- bb_extreme -->
      <g style="fill: #f2f2f7" transform="translate(409.497097 443.549163) rotate(-18) scale(0.085 -0.085)">
       <defs>
        <path id="DejaVuSans-78" d="M 3513 3500 
L 2247 1797 
L 3578 0 
L 2900 0 
L 1881 1375 
L 863 0 
L 184 0 
L 1544 1831 
L 300 3500 
L 978 3500 
L 1906 2253 
L 2834 3500 
L 3513 3500 
z
" transform="scale(0.015625)"/>
       </defs>
       <use xlink:href="#DejaVuSans-62"/>
       <use xlink:href="#DejaVuSans-62" x="63.476562"/>
       <use xlink:href="#DejaVuSans-5f" x="126.953125"/>
       <use xlink:href="#DejaVuSans-65" x="176.953125"/>
       <use xlink:href="#DejaVuSans-78" x="236.726562"/>
       <use xlink:href="#DejaVuSans-74" x="295.90625"/>
       <use xlink:href="#DejaVuSans-72" x="335.115234"/>
       <use xlink:href="#DejaVuSans-65" x="373.978516"/>
       <use xlink:href="#DejaVuSans-6d" x="435.501953"/>
       <use xlink:href="#DejaVuSans-65" x="532.914062"/>
      </g>
     </g>
    </g>
    <g id="xtick_6">
     <g id="line2d_6">
      <g>
       <use xlink:href="#m8530b8f9aa" x="543.35788" y="414.79202" style="fill: #f2f2f7; stroke: #f2f2f7; stroke-width: 0.8"/>
      </g>
     </g>
     <g id="text_6">
      <!-- bear_burst -->
      <g style="fill: #f2f2f7" transform="translate(499.354118 442.031044) rotate(-18) scale(0.085 -0.085)">
       <use xlink:href="#DejaVuSans-62"/>
       <use xlink:href="#DejaVuSans-65" x="63.476562"/>
       <use xlink:href="#DejaVuSans-61" x="125"/>
       <use xlink:href="#DejaVuSans-72" x="186.279297"/>
       <use xlink:href="#DejaVuSans-5f" x="227.392578"/>
       <use xlink:href="#DejaVuSans-62" x="277.392578"/>
       <use xlink:href="#DejaVuSans-75" x="340.869141"/>
       <use xlink:href="#DejaVuSans-72" x="404.248047"/>
       <use xlink:href="#DejaVuSans-73" x="445.361328"/>
       <use xlink:href="#DejaVuSans-74" x="497.460938"/>
      </g>
     </g>
    </g>
    <g id="xtick_7">
     <g id="line2d_7">
      <g>
       <use xlink:href="#m8530b8f9aa" x="628.542613" y="414.79202" style="fill: #f2f2f7; stroke: #f2f2f7; stroke-width: 0.8"/>
      </g>
     </g>
     <g id="text_7">
      <!-- pullback -->
      <g style="fill: #f2f2f7" transform="translate(594.03732 438.968541) rotate(-18) scale(0.085 -0.085)">
       <defs>
        <path id="DejaVuSans-70" d="M 1159 525 
L 1159 -1331 
L 581 -1331 
L 581 3500 
L 1159 3500 
L 1159 2969 
Q 1341 3281 1617 3432 
Q 1894 3584 2278 3584 
Q 2916 3584 3314 3078 
Q 3713 2572 3713 1747 
Q 3713 922 3314 415 
Q 2916 -91 2278 -91 
Q 1894 -91 1617 61 
Q 1341 213 1159 525 
z
M 3116 1747 
Q 3116 2381 2855 2742 
Q 2594 3103 2138 3103 
Q 1681 3103 1420 2742 
Q 1159 2381 1159 1747 
Q 1159 1113 1420 752 
Q 1681 391 2138 391 
Q 2594 391 2855 752 
Q 3116 1113 3116 1747 
z
" transform="scale(0.015625)"/>
        <path id="DejaVuSans-63" d="M 3122 3366 
L 3122 2828 
Q 2878 2963 2633 3030 
Q 2388 3097 2138 3097 
Q 1578 3097 1268 2742 
Q 959 2388 959 1747 
Q 959 1106 1268 751 
Q 1578 397 2138 397 
Q 2388 397 2633 464 
Q 2878 531 3122 666 
L 3122 134 
Q 2881 22 2623 -34 
Q 2366 -91 2075 -91 
Q 1284 -91 818 406 
Q 353 903 353 1747 
Q 353 2603 823 3093 
Q 1294 3584 2113 3584 
Q 2378 3584 2631 3529 
Q 2884 3475 3122 3366 
z
" transform="scale(0.015625)"/>
        <path id="DejaVuSans-6b" d="M 581 4863 
L 1159 4863 
L 1159 1991 
L 2875 3500 
L 3609 3500 
L 1753 1863 
L 3688 0 
L 2938 0 
L 1159 1709 
L 1159 0 
L 581 0 
L 581 4863 
z
" transform="scale(0.015625)"/>
       </defs>
       <use xlink:href="#DejaVuSans-70"/>
       <use xlink:href="#DejaVuSans-75" x="63.476562"/>
       <use xlink:href="#DejaVuSans-6c" x="126.855469"/>
       <use xlink:href="#DejaVuSans-6c" x="154.638672"/>
       <use xlink:href="#DejaVuSans-62" x="182.421875"/>
       <use xlink:href="#DejaVuSans-61" x="245.898438"/>
       <use xlink:href="#DejaVuSans-63" x="307.177734"/>
       <use xlink:href="#DejaVuSans-6b" x="362.158203"/>
      </g>
     </g>
    </g>
    <g id="xtick_8">
     <g id="line2d_8">
      <g>
       <use xlink:href="#m8530b8f9aa" x="713.727346" y="414.79202" style="fill: #f2f2f7; stroke: #f2f2f7; stroke-width: 0.8"/>
      </g>
     </g>
     <g id="text_8">
      <!-- bear_pullback -->
      <g style="fill: #f2f2f7" transform="translate(656.723532 446.255017) rotate(-18) scale(0.085 -0.085)">
       <use xlink:href="#DejaVuSans-62"/>
       <use xlink:href="#DejaVuSans-65" x="63.476562"/>
       <use xlink:href="#DejaVuSans-61" x="125"/>
       <use xlink:href="#DejaVuSans-72" x="186.279297"/>
       <use xlink:href="#DejaVuSans-5f" x="227.392578"/>
       <use xlink:href="#DejaVuSans-70" x="277.392578"/>
       <use xlink:href="#DejaVuSans-75" x="340.869141"/>
       <use xlink:href="#DejaVuSans-6c" x="404.248047"/>
       <use xlink:href="#DejaVuSans-6c" x="432.03125"/>
       <use xlink:href="#DejaVuSans-62" x="459.814453"/>
       <use xlink:href="#DejaVuSans-61" x="523.291016"/>
       <use xlink:href="#DejaVuSans-63" x="584.570312"/>
       <use xlink:href="#DejaVuSans-6b" x="639.550781"/>
      </g>
     </g>
    </g>
   </g>
   <g id="matplotlib.axis_2">
    <g id="ytick_1">
     <g id="line2d_9">
      <path d="M 53.886406 414.79202 
L 777.275156 414.79202 
" clip-path="url(#p1a608c6ef4)" style="fill: none; stroke: #8e8e93; stroke-opacity: 0.25; stroke-width: 0.8; stroke-linecap: square"/>
     </g>
     <g id="line2d_10">
      <defs>
       <path id="m46694ac745" d="M 0 0 
L -3.5 0 
" style="stroke: #f2f2f7; stroke-width: 0.8"/>
      </defs>
      <g>
       <use xlink:href="#m46694ac745" x="53.886406" y="414.79202" style="fill: #f2f2f7; stroke: #f2f2f7; stroke-width: 0.8"/>
      </g>
     </g>
     <g id="text_9">
      <!-- 0% -->
      <g style="fill: #f2f2f7" transform="translate(32.60875 418.211317) scale(0.09 -0.09)">
       <defs>
        <path id="DejaVuSans-30" d="M 2034 4250 
Q 1547 4250 1301 3770 
Q 1056 3291 1056 2328 
Q 1056 1369 1301 889 
Q 1547 409 2034 409 
Q 2525 409 2770 889 
Q 3016 1369 3016 2328 
Q 3016 3291 2770 3770 
Q 2525 4250 2034 4250 
z
M 2034 4750 
Q 2819 4750 3233 4129 
Q 3647 3509 3647 2328 
Q 3647 1150 3233 529 
Q 2819 -91 2034 -91 
Q 1250 -91 836 529 
Q 422 1150 422 2328 
Q 422 3509 836 4129 
Q 1250 4750 2034 4750 
z
" transform="scale(0.015625)"/>
        <path id="DejaVuSans-25" d="M 4653 2053 
Q 4381 2053 4226 1822 
Q 4072 1591 4072 1178 
Q 4072 772 4226 539 
Q 4381 306 4653 306 
Q 4919 306 5073 539 
Q 5228 772 5228 1178 
Q 5228 1588 5073 1820 
Q 4919 2053 4653 2053 
z
M 4653 2450 
Q 5147 2450 5437 2106 
Q 5728 1763 5728 1178 
Q 5728 594 5436 251 
Q 5144 -91 4653 -91 
Q 4153 -91 3862 251 
Q 3572 594 3572 1178 
Q 3572 1766 3864 2108 
Q 4156 2450 4653 2450 
z
M 1428 4353 
Q 1159 4353 1004 4120 
Q 850 3888 850 3481 
Q 850 3069 1003 2837 
Q 1156 2606 1428 2606 
Q 1700 2606 1854 2837 
Q 2009 3069 2009 3481 
Q 2009 3884 1853 4118 
Q 1697 4353 1428 4353 
z
M 4250 4750 
L 4750 4750 
L 1831 -91 
L 1331 -91 
L 4250 4750 
z
M 1428 4750 
Q 1922 4750 2215 4408 
Q 2509 4066 2509 3481 
Q 2509 2891 2217 2550 
Q 1925 2209 1428 2209 
Q 931 2209 642 2551 
Q 353 2894 353 3481 
Q 353 4063 643 4406 
Q 934 4750 1428 4750 
z
" transform="scale(0.015625)"/>
       </defs>
       <use xlink:href="#DejaVuSans-30"/>
       <use xlink:href="#DejaVuSans-25" x="63.623047"/>
      </g>
     </g>
    </g>
    <g id="ytick_2">
     <g id="line2d_11">
      <path d="M 53.886406 340.220341 
L 777.275156 340.220341 
" clip-path="url(#p1a608c6ef4)" style="fill: none; stroke: #8e8e93; stroke-opacity: 0.25; stroke-width: 0.8; stroke-linecap: square"/>
     </g>
     <g id="line2d_12">
      <g>
       <use xlink:href="#m46694ac745" x="53.886406" y="340.220341" style="fill: #f2f2f7; stroke: #f2f2f7; stroke-width: 0.8"/>
      </g>
     </g>
     <g id="text_10">
      <!-- 20% -->
      <g style="fill: #f2f2f7" transform="translate(26.8825 343.639638) scale(0.09 -0.09)">
       <defs>
        <path id="DejaVuSans-32" d="M 1228 531 
L 3431 531 
L 3431 0 
L 469 0 
L 469 531 
Q 828 903 1448 1529 
Q 2069 2156 2228 2338 
Q 2531 2678 2651 2914 
Q 2772 3150 2772 3378 
Q 2772 3750 2511 3984 
Q 2250 4219 1831 4219 
Q 1534 4219 1204 4116 
Q 875 4013 500 3803 
L 500 4441 
Q 881 4594 1212 4672 
Q 1544 4750 1819 4750 
Q 2544 4750 2975 4387 
Q 3406 4025 3406 3419 
Q 3406 3131 3298 2873 
Q 3191 2616 2906 2266 
Q 2828 2175 2409 1742 
Q 1991 1309 1228 531 
z
" transform="scale(0.015625)"/>
       </defs>
       <use xlink:href="#DejaVuSans-32"/>
       <use xlink:href="#DejaVuSans-30" x="63.623047"/>
       <use xlink:href="#DejaVuSans-25" x="127.246094"/>
      </g>
     </g>
    </g>
    <g id="ytick_3">
     <g id="line2d_13">
      <path d="M 53.886406 265.648662 
L 777.275156 265.648662 
" clip-path="url(#p1a608c6ef4)" style="fill: none; stroke: #8e8e93; stroke-opacity: 0.25; stroke-width: 0.8; stroke-linecap: square"/>
     </g>
     <g id="line2d_14">
      <g>
       <use xlink:href="#m46694ac745" x="53.886406" y="265.648662" style="fill: #f2f2f7; stroke: #f2f2f7; stroke-width: 0.8"/>
      </g>
     </g>
     <g id="text_11">
      <!-- 40% -->
      <g style="fill: #f2f2f7" transform="translate(26.8825 269.067959) scale(0.09 -0.09)">
       <defs>
        <path id="DejaVuSans-34" d="M 2419 4116 
L 825 1625 
L 2419 1625 
L 2419 4116 
z
M 2253 4666 
L 3047 4666 
L 3047 1625 
L 3713 1625 
L 3713 1100 
L 3047 1100 
L 3047 0 
L 2419 0 
L 2419 1100 
L 313 1100 
L 313 1709 
L 2253 4666 
z
" transform="scale(0.015625)"/>
       </defs>
       <use xlink:href="#DejaVuSans-34"/>
       <use xlink:href="#DejaVuSans-30" x="63.623047"/>
       <use xlink:href="#DejaVuSans-25" x="127.246094"/>
      </g>
     </g>
    </g>
    <g id="ytick_4">
     <g id="line2d_15">
      <path d="M 53.886406 191.076983 
L 777.275156 191.076983 
" clip-path="url(#p1a608c6ef4)" style="fill: none; stroke: #8e8e93; stroke-opacity: 0.25; stroke-width: 0.8; stroke-linecap: square"/>
     </g>
     <g id="line2d_16">
      <g>
       <use xlink:href="#m46694ac745" x="53.886406" y="191.076983" style="fill: #f2f2f7; stroke: #f2f2f7; stroke-width: 0.8"/>
      </g>
     </g>
     <g id="text_12">
      <!-- 60% -->
      <g style="fill: #f2f2f7" transform="translate(26.8825 194.49628) scale(0.09 -0.09)">
       <defs>
        <path id="DejaVuSans-36" d="M 2113 2584 
Q 1688 2584 1439 2293 
Q 1191 2003 1191 1497 
Q 1191 994 1439 701 
Q 1688 409 2113 409 
Q 2538 409 2786 701 
Q 3034 994 3034 1497 
Q 3034 2003 2786 2293 
Q 2538 2584 2113 2584 
z
M 3366 4563 
L 3366 3988 
Q 3128 4100 2886 4159 
Q 2644 4219 2406 4219 
Q 1781 4219 1451 3797 
Q 1122 3375 1075 2522 
Q 1259 2794 1537 2939 
Q 1816 3084 2150 3084 
Q 2853 3084 3261 2657 
Q 3669 2231 3669 1497 
Q 3669 778 3244 343 
Q 2819 -91 2113 -91 
Q 1303 -91 875 529 
Q 447 1150 447 2328 
Q 447 3434 972 4092 
Q 1497 4750 2381 4750 
Q 2619 4750 2861 4703 
Q 3103 4656 3366 4563 
z
" transform="scale(0.015625)"/>
       </defs>
       <use xlink:href="#DejaVuSans-36"/>
       <use xlink:href="#DejaVuSans-30" x="63.623047"/>
       <use xlink:href="#DejaVuSans-25" x="127.246094"/>
      </g>
     </g>
    </g>
    <g id="ytick_5">
     <g id="line2d_17">
      <path d="M 53.886406 116.505304 
L 777.275156 116.505304 
" clip-path="url(#p1a608c6ef4)" style="fill: none; stroke: #8e8e93; stroke-opacity: 0.25; stroke-width: 0.8; stroke-linecap: square"/>
     </g>
     <g id="line2d_18">
      <g>
       <use xlink:href="#m46694ac745" x="53.886406" y="116.505304" style="fill: #f2f2f7; stroke: #f2f2f7; stroke-width: 0.8"/>
      </g>
     </g>
     <g id="text_13">
      <!-- 80% -->
      <g style="fill: #f2f2f7" transform="translate(26.8825 119.924601) scale(0.09 -0.09)">
       <defs>
        <path id="DejaVuSans-38" d="M 2034 2216 
Q 1584 2216 1326 1975 
Q 1069 1734 1069 1313 
Q 1069 891 1326 650 
Q 1584 409 2034 409 
Q 2484 409 2743 651 
Q 3003 894 3003 1313 
Q 3003 1734 2745 1975 
Q 2488 2216 2034 2216 
z
M 1403 2484 
Q 997 2584 770 2862 
Q 544 3141 544 3541 
Q 544 4100 942 4425 
Q 1341 4750 2034 4750 
Q 2731 4750 3128 4425 
Q 3525 4100 3525 3541 
Q 3525 3141 3298 2862 
Q 3072 2584 2669 2484 
Q 3125 2378 3379 2068 
Q 3634 1759 3634 1313 
Q 3634 634 3220 271 
Q 2806 -91 2034 -91 
Q 1263 -91 848 271 
Q 434 634 434 1313 
Q 434 1759 690 2068 
Q 947 2378 1403 2484 
z
M 1172 3481 
Q 1172 3119 1398 2916 
Q 1625 2713 2034 2713 
Q 2441 2713 2670 2916 
Q 2900 3119 2900 3481 
Q 2900 3844 2670 4047 
Q 2441 4250 2034 4250 
Q 1625 4250 1398 4047 
Q 1172 3844 1172 3481 
z
" transform="scale(0.015625)"/>
       </defs>
       <use xlink:href="#DejaVuSans-38"/>
       <use xlink:href="#DejaVuSans-30" x="63.623047"/>
       <use xlink:href="#DejaVuSans-25" x="127.246094"/>
      </g>
     </g>
    </g>
    <g id="ytick_6">
     <g id="line2d_19">
      <path d="M 53.886406 41.933625 
L 777.275156 41.933625 
" clip-path="url(#p1a608c6ef4)" style="fill: none; stroke: #8e8e93; stroke-opacity: 0.25; stroke-width: 0.8; stroke-linecap: square"/>
     </g>
     <g id="line2d_20">
      <g>
       <use xlink:href="#m46694ac745" x="53.886406" y="41.933625" style="fill: #f2f2f7; stroke: #f2f2f7; stroke-width: 0.8"/>
      </g>
     </g>
     <g id="text_14">
      <!-- 100% -->
      <g style="fill: #f2f2f7" transform="translate(21.15625 45.352922) scale(0.09 -0.09)">
       <defs>
        <path id="DejaVuSans-31" d="M 794 531 
L 1825 531 
L 1825 4091 
L 703 3866 
L 703 4441 
L 1819 4666 
L 2450 4666 
L 2450 531 
L 3481 531 
L 3481 0 
L 794 0 
L 794 531 
z
" transform="scale(0.015625)"/>
       </defs>
       <use xlink:href="#DejaVuSans-31"/>
       <use xlink:href="#DejaVuSans-30" x="63.623047"/>
       <use xlink:href="#DejaVuSans-30" x="127.246094"/>
       <use xlink:href="#DejaVuSans-25" x="190.869141"/>
      </g>
     </g>
    </g>
    <g id="text_15">
     <!-- mag_win @ 2.5% -->
     <g style="fill: #f2f2f7" transform="translate(14.798438 271.49876) rotate(-90) scale(0.1 -0.1)">
      <defs>
       <path id="DejaVuSans-77" d="M 269 3500 
L 844 3500 
L 1563 769 
L 2278 3500 
L 2956 3500 
L 3675 769 
L 4391 3500 
L 4966 3500 
L 4050 0 
L 3372 0 
L 2619 2869 
L 1863 0 
L 1184 0 
L 269 3500 
z
" transform="scale(0.015625)"/>
       <path id="DejaVuSans-40" d="M 2381 1678 
Q 2381 1231 2603 976 
Q 2825 722 3213 722 
Q 3597 722 3817 978 
Q 4038 1234 4038 1678 
Q 4038 2116 3813 2373 
Q 3588 2631 3206 2631 
Q 2828 2631 2604 2375 
Q 2381 2119 2381 1678 
z
M 4084 744 
Q 3897 503 3655 389 
Q 3413 275 3091 275 
Q 2553 275 2217 664 
Q 1881 1053 1881 1678 
Q 1881 2303 2218 2693 
Q 2556 3084 3091 3084 
Q 3413 3084 3656 2967 
Q 3900 2850 4084 2613 
L 4084 3022 
L 4531 3022 
L 4531 722 
Q 4988 791 5245 1139 
Q 5503 1488 5503 2041 
Q 5503 2375 5404 2669 
Q 5306 2963 5106 3213 
Q 4781 3622 4314 3839 
Q 3847 4056 3297 4056 
Q 2913 4056 2559 3954 
Q 2206 3853 1906 3653 
Q 1416 3334 1139 2817 
Q 863 2300 863 1697 
Q 863 1200 1042 765 
Q 1222 331 1563 0 
Q 1891 -325 2322 -495 
Q 2753 -666 3244 -666 
Q 3647 -666 4036 -530 
Q 4425 -394 4750 -141 
L 5031 -488 
Q 4641 -791 4180 -952 
Q 3719 -1113 3244 -1113 
Q 2666 -1113 2153 -908 
Q 1641 -703 1241 -313 
Q 841 78 631 592 
Q 422 1106 422 1697 
Q 422 2266 634 2781 
Q 847 3297 1241 3688 
Q 1644 4084 2172 4295 
Q 2700 4506 3291 4506 
Q 3953 4506 4520 4234 
Q 5088 3963 5472 3463 
Q 5706 3156 5829 2797 
Q 5953 2438 5953 2053 
Q 5953 1231 5456 756 
Q 4959 281 4084 263 
L 4084 744 
z
" transform="scale(0.015625)"/>
       <path id="DejaVuSans-2e" d="M 684 794 
L 1344 794 
L 1344 0 
L 684 0 
L 684 794 
z
" transform="scale(0.015625)"/>
       <path id="DejaVuSans-35" d="M 691 4666 
L 3169 4666 
L 3169 4134 
L 1269 4134 
L 1269 2991 
Q 1406 3038 1543 3061 
Q 1681 3084 1819 3084 
Q 2600 3084 3056 2656 
Q 3513 2228 3513 1497 
Q 3513 744 3044 326 
Q 2575 -91 1722 -91 
Q 1428 -91 1123 -41 
Q 819 9 494 109 
L 494 744 
Q 775 591 1075 516 
Q 1375 441 1709 441 
Q 2250 441 2565 725 
Q 2881 1009 2881 1497 
Q 2881 1984 2565 2268 
Q 2250 2553 1709 2553 
Q 1456 2553 1204 2497 
Q 953 2441 691 2322 
L 691 4666 
z
" transform="scale(0.015625)"/>
      </defs>
      <use xlink:href="#DejaVuSans-6d"/>
      <use xlink:href="#DejaVuSans-61" x="97.412109"/>
      <use xlink:href="#DejaVuSans-67" x="158.691406"/>
      <use xlink:href="#DejaVuSans-5f" x="222.167969"/>
      <use xlink:href="#DejaVuSans-77" x="272.167969"/>
      <use xlink:href="#DejaVuSans-69" x="353.955078"/>
      <use xlink:href="#DejaVuSans-6e" x="381.738281"/>
      <use xlink:href="#DejaVuSans-20" x="445.117188"/>
      <use xlink:href="#DejaVuSans-40" x="476.904297"/>
      <use xlink:href="#DejaVuSans-20" x="576.904297"/>
      <use xlink:href="#DejaVuSans-32" x="608.691406"/>
      <use xlink:href="#DejaVuSans-2e" x="672.314453"/>
      <use xlink:href="#DejaVuSans-35" x="704.101562"/>
      <use xlink:href="#DejaVuSans-25" x="767.724609"/>
     </g>
    </g>
   </g>
   <g id="patch_3">
    <path d="M 53.886406 414.79202 
L 53.886406 41.933625 
" style="fill: none; stroke: #8e8e93; stroke-width: 0.8; stroke-linejoin: miter; stroke-linecap: square"/>
   </g>
   <g id="patch_4">
    <path d="M 777.275156 414.79202 
L 777.275156 41.933625 
" style="fill: none; stroke: #8e8e93; stroke-width: 0.8; stroke-linejoin: miter; stroke-linecap: square"/>
   </g>
   <g id="patch_5">
    <path d="M 53.886406 414.79202 
L 777.275156 414.79202 
" style="fill: none; stroke: #8e8e93; stroke-width: 0.8; stroke-linejoin: miter; stroke-linecap: square"/>
   </g>
   <g id="patch_6">
    <path d="M 53.886406 41.933625 
L 777.275156 41.933625 
" style="fill: none; stroke: #8e8e93; stroke-width: 0.8; stroke-linejoin: miter; stroke-linecap: square"/>
   </g>
   <g id="patch_7">
    <path d="M 86.767713 414.79202 
L 117.434217 414.79202 
L 117.434217 235.81999 
L 86.767713 235.81999 
z
" clip-path="url(#p1a608c6ef4)" style="fill: #30d158; opacity: 0.8"/>
   </g>
   <g id="patch_8">
    <path d="M 171.952446 414.79202 
L 202.61895 414.79202 
L 202.61895 205.991319 
L 171.952446 205.991319 
z
" clip-path="url(#p1a608c6ef4)" style="fill: #30d158; opacity: 0.8"/>
   </g>
   <g id="patch_9">
    <path d="M 257.137178 414.79202 
L 287.803682 414.79202 
L 287.803682 187.348399 
L 257.137178 187.348399 
z
" clip-path="url(#p1a608c6ef4)" style="fill: #30d158; opacity: 0.8"/>
   </g>
   <g id="patch_10">
    <path d="M 342.321911 414.79202 
L 372.988415 414.79202 
L 372.988415 179.891231 
L 342.321911 179.891231 
z
" clip-path="url(#p1a608c6ef4)" style="fill: #30d158; opacity: 0.8"/>
   </g>
   <g id="patch_11">
    <path d="M 427.506644 414.79202 
L 458.173148 414.79202 
L 458.173148 150.06256 
L 427.506644 150.06256 
z
" clip-path="url(#p1a608c6ef4)" style="fill: #30d158; opacity: 0.8"/>
   </g>
   <g id="patch_12">
    <path d="M 512.691377 414.79202 
L 543.35788 414.79202 
L 543.35788 142.605392 
L 512.691377 142.605392 
z
" clip-path="url(#p1a608c6ef4)" style="fill: #30d158; opacity: 0.8"/>
   </g>
   <g id="patch_13">
    <path d="M 597.876109 414.79202 
L 628.542613 414.79202 
L 628.542613 142.605392 
L 597.876109 142.605392 
z
" clip-path="url(#p1a608c6ef4)" style="fill: #30d158; opacity: 0.8"/>
   </g>
   <g id="patch_14">
    <path d="M 683.060842 414.79202 
L 713.727346 414.79202 
L 713.727346 131.41964 
L 683.060842 131.41964 
z
" clip-path="url(#p1a608c6ef4)" style="fill: #30d158; opacity: 0.8"/>
   </g>
   <g id="patch_15">
    <path d="M 117.434217 414.79202 
L 148.100721 414.79202 
L 148.100721 340.220341 
L 117.434217 340.220341 
z
" clip-path="url(#p1a608c6ef4)" style="fill: #ff9f0a; opacity: 0.8"/>
   </g>
   <g id="patch_16">
    <path d="M 202.61895 414.79202 
L 233.285453 414.79202 
L 233.285453 336.491757 
L 202.61895 336.491757 
z
" clip-path="url(#p1a608c6ef4)" style="fill: #ff9f0a; opacity: 0.8"/>
   </g>
   <g id="patch_17">
    <path d="M 287.803682 414.79202 
L 318.470186 414.79202 
L 318.470186 336.491757 
L 287.803682 336.491757 
z
" clip-path="url(#p1a608c6ef4)" style="fill: #ff9f0a; opacity: 0.8"/>
   </g>
   <g id="patch_18">
    <path d="M 372.988415 414.79202 
L 403.654919 414.79202 
L 403.654919 291.74875 
L 372.988415 291.74875 
z
" clip-path="url(#p1a608c6ef4)" style="fill: #ff9f0a; opacity: 0.8"/>
   </g>
   <g id="patch_19">
    <path d="M 458.173148 414.79202 
L 488.839651 414.79202 
L 488.839651 317.848837 
L 458.173148 317.848837 
z
" clip-path="url(#p1a608c6ef4)" style="fill: #ff9f0a; opacity: 0.8"/>
   </g>
   <g id="patch_20">
    <path d="M 543.35788 414.79202 
L 574.024384 414.79202 
L 574.024384 254.46291 
L 543.35788 254.46291 
z
" clip-path="url(#p1a608c6ef4)" style="fill: #ff9f0a; opacity: 0.8"/>
   </g>
   <g id="patch_21">
    <path d="M 628.542613 414.79202 
L 659.209117 414.79202 
L 659.209117 228.362823 
L 628.542613 228.362823 
z
" clip-path="url(#p1a608c6ef4)" style="fill: #ff9f0a; opacity: 0.8"/>
   </g>
   <g id="patch_22">
    <path d="M 713.727346 414.79202 
L 744.393849 414.79202 
L 744.393849 228.362823 
L 713.727346 228.362823 
z
" clip-path="url(#p1a608c6ef4)" style="fill: #ff9f0a; opacity: 0.8"/>
   </g>
   <g id="text_16">
    <!-- 48% -->
    <g style="fill: #f2f2f7" transform="translate(93.21034 231.173373) scale(0.08 -0.08)">
     <use xlink:href="#DejaVuSans-34"/>
     <use xlink:href="#DejaVuSans-38" x="63.623047"/>
     <use xlink:href="#DejaVuSans-25" x="127.246094"/>
    </g>
   </g>
   <g id="text_17">
    <!-- 56% -->
    <g style="fill: #f2f2f7" transform="translate(178.395073 201.344702) scale(0.08 -0.08)">
     <use xlink:href="#DejaVuSans-35"/>
     <use xlink:href="#DejaVuSans-36" x="63.623047"/>
     <use xlink:href="#DejaVuSans-25" x="127.246094"/>
    </g>
   </g>
   <g id="text_18">
    <!-- 61% -->
    <g style="fill: #f2f2f7" transform="translate(263.579805 182.701782) scale(0.08 -0.08)">
     <use xlink:href="#DejaVuSans-36"/>
     <use xlink:href="#DejaVuSans-31" x="63.623047"/>
     <use xlink:href="#DejaVuSans-25" x="127.246094"/>
    </g>
   </g>
   <g id="text_19">
    <!-- 63% -->
    <g style="fill: #f2f2f7" transform="translate(348.764538 175.244614) scale(0.08 -0.08)">
     <defs>
      <path id="DejaVuSans-33" d="M 2597 2516 
Q 3050 2419 3304 2112 
Q 3559 1806 3559 1356 
Q 3559 666 3084 287 
Q 2609 -91 1734 -91 
Q 1441 -91 1130 -33 
Q 819 25 488 141 
L 488 750 
Q 750 597 1062 519 
Q 1375 441 1716 441 
Q 2309 441 2620 675 
Q 2931 909 2931 1356 
Q 2931 1769 2642 2001 
Q 2353 2234 1838 2234 
L 1294 2234 
L 1294 2753 
L 1863 2753 
Q 2328 2753 2575 2939 
Q 2822 3125 2822 3475 
Q 2822 3834 2567 4026 
Q 2313 4219 1838 4219 
Q 1578 4219 1281 4162 
Q 984 4106 628 3988 
L 628 4550 
Q 988 4650 1302 4700 
Q 1616 4750 1894 4750 
Q 2613 4750 3031 4423 
Q 3450 4097 3450 3541 
Q 3450 3153 3228 2886 
Q 3006 2619 2597 2516 
z
" transform="scale(0.015625)"/>
     </defs>
     <use xlink:href="#DejaVuSans-36"/>
     <use xlink:href="#DejaVuSans-33" x="63.623047"/>
     <use xlink:href="#DejaVuSans-25" x="127.246094"/>
    </g>
   </g>
   <g id="text_20">
    <!-- 71% -->
    <g style="fill: #f2f2f7" transform="translate(433.949271 145.415942) scale(0.08 -0.08)">
     <defs>
      <path id="DejaVuSans-37" d="M 525 4666 
L 3525 4666 
L 3525 4397 
L 1831 0 
L 1172 0 
L 2766 4134 
L 525 4134 
L 525 4666 
z
" transform="scale(0.015625)"/>
     </defs>
     <use xlink:href="#DejaVuSans-37"/>
     <use xlink:href="#DejaVuSans-31" x="63.623047"/>
     <use xlink:href="#DejaVuSans-25" x="127.246094"/>
    </g>
   </g>
   <g id="text_21">
    <!-- 73% -->
    <g style="fill: #f2f2f7" transform="translate(519.134003 137.958775) scale(0.08 -0.08)">
     <use xlink:href="#DejaVuSans-37"/>
     <use xlink:href="#DejaVuSans-33" x="63.623047"/>
     <use xlink:href="#DejaVuSans-25" x="127.246094"/>
    </g>
   </g>
   <g id="text_22">
    <!-- 73% -->
    <g style="fill: #f2f2f7" transform="translate(604.318736 137.958775) scale(0.08 -0.08)">
     <use xlink:href="#DejaVuSans-37"/>
     <use xlink:href="#DejaVuSans-33" x="63.623047"/>
     <use xlink:href="#DejaVuSans-25" x="127.246094"/>
    </g>
   </g>
   <g id="text_23">
    <!-- 76% -->
    <g style="fill: #f2f2f7" transform="translate(689.503469 126.773023) scale(0.08 -0.08)">
     <use xlink:href="#DejaVuSans-37"/>
     <use xlink:href="#DejaVuSans-36" x="63.623047"/>
     <use xlink:href="#DejaVuSans-25" x="127.246094"/>
    </g>
   </g>
   <g id="text_24">
    <!-- 20% -->
    <g style="fill: #f2f2f7" transform="translate(123.876844 335.573724) scale(0.08 -0.08)">
     <use xlink:href="#DejaVuSans-32"/>
     <use xlink:href="#DejaVuSans-30" x="63.623047"/>
     <use xlink:href="#DejaVuSans-25" x="127.246094"/>
    </g>
   </g>
   <g id="text_25">
    <!-- 21% -->
    <g style="fill: #f2f2f7" transform="translate(209.061576 331.84514) scale(0.08 -0.08)">
     <use xlink:href="#DejaVuSans-32"/>
     <use xlink:href="#DejaVuSans-31" x="63.623047"/>
     <use xlink:href="#DejaVuSans-25" x="127.246094"/>
    </g>
   </g>
   <g id="text_26">
    <!-- 21% -->
    <g style="fill: #f2f2f7" transform="translate(294.246309 331.84514) scale(0.08 -0.08)">
     <use xlink:href="#DejaVuSans-32"/>
     <use xlink:href="#DejaVuSans-31" x="63.623047"/>
     <use xlink:href="#DejaVuSans-25" x="127.246094"/>
    </g>
   </g>
   <g id="text_27">
    <!-- 33% -->
    <g style="fill: #f2f2f7" transform="translate(379.431042 287.102133) scale(0.08 -0.08)">
     <use xlink:href="#DejaVuSans-33"/>
     <use xlink:href="#DejaVuSans-33" x="63.623047"/>
     <use xlink:href="#DejaVuSans-25" x="127.246094"/>
    </g>
   </g>
   <g id="text_28">
    <!-- 26% -->
    <g style="fill: #f2f2f7" transform="translate(464.615774 313.20222) scale(0.08 -0.08)">
     <use xlink:href="#DejaVuSans-32"/>
     <use xlink:href="#DejaVuSans-36" x="63.623047"/>
     <use xlink:href="#DejaVuSans-25" x="127.246094"/>
    </g>
   </g>
   <g id="text_29">
    <!-- 43% -->
    <g style="fill: #f2f2f7" transform="translate(549.800507 249.816293) scale(0.08 -0.08)">
     <use xlink:href="#DejaVuSans-34"/>
     <use xlink:href="#DejaVuSans-33" x="63.623047"/>
     <use xlink:href="#DejaVuSans-25" x="127.246094"/>
    </g>
   </g>
   <g id="text_30">
    <!-- 50% -->
    <g style="fill: #f2f2f7" transform="translate(634.98524 223.716205) scale(0.08 -0.08)">
     <use xlink:href="#DejaVuSans-35"/>
     <use xlink:href="#DejaVuSans-30" x="63.623047"/>
     <use xlink:href="#DejaVuSans-25" x="127.246094"/>
    </g>
   </g>
   <g id="text_31">
    <!-- 50% -->
    <g style="fill: #f2f2f7" transform="translate(720.169973 223.716205) scale(0.08 -0.08)">
     <use xlink:href="#DejaVuSans-35"/>
     <use xlink:href="#DejaVuSans-30" x="63.623047"/>
     <use xlink:href="#DejaVuSans-25" x="127.246094"/>
    </g>
   </g>
   <g id="text_32">
    <g id="patch_23">
     <path d="M 576.312244 80.699795 
L 755.573494 80.699795 
Q 758.773494 80.699795 758.773494 77.499795 
L 758.773494 60.354045 
Q 758.773494 57.154045 755.573494 57.154045 
L 576.312244 57.154045 
Q 573.112244 57.154045 573.112244 60.354045 
L 573.112244 77.499795 
Q 573.112244 80.699795 576.312244 80.699795 
z
" style="fill: #2c2c2e; opacity: 0.8; stroke: #8e8e93; stroke-linejoin: miter"/>
    </g>
    <!-- Recent regime: low vol (rv_rank 0.25–0.60) -->
    <g style="fill: #8e8e93" transform="translate(582.632244 66.655295) scale(0.08 -0.08)">
     <defs>
      <path id="DejaVuSans-Oblique-52" d="M 1613 4147 
L 1294 2491 
L 2106 2491 
Q 2584 2491 2879 2755 
Q 3175 3019 3175 3444 
Q 3175 3784 2976 3965 
Q 2778 4147 2406 4147 
L 1613 4147 
z
M 2772 2241 
Q 2972 2194 3105 2009 
Q 3238 1825 3413 1275 
L 3809 0 
L 3144 0 
L 2778 1197 
Q 2638 1659 2453 1815 
Q 2269 1972 1888 1972 
L 1191 1972 
L 806 0 
L 172 0 
L 1081 4666 
L 2503 4666 
Q 3150 4666 3495 4373 
Q 3841 4081 3841 3531 
Q 3841 3044 3547 2687 
Q 3253 2331 2772 2241 
z
" transform="scale(0.015625)"/>
      <path id="DejaVuSans-Oblique-65" d="M 3078 2063 
Q 3088 2113 3092 2166 
Q 3097 2219 3097 2272 
Q 3097 2653 2873 2875 
Q 2650 3097 2266 3097 
Q 1838 3097 1509 2826 
Q 1181 2556 1013 2059 
L 3078 2063 
z
M 3578 1613 
L 903 1613 
Q 884 1494 878 1425 
Q 872 1356 872 1306 
Q 872 872 1139 634 
Q 1406 397 1894 397 
Q 2269 397 2603 481 
Q 2938 566 3225 728 
L 3116 159 
Q 2806 34 2476 -28 
Q 2147 -91 1806 -91 
Q 1078 -91 686 257 
Q 294 606 294 1247 
Q 294 1794 489 2264 
Q 684 2734 1063 3103 
Q 1306 3334 1642 3459 
Q 1978 3584 2356 3584 
Q 2950 3584 3301 3228 
Q 3653 2872 3653 2272 
Q 3653 2128 3634 1964 
Q 3616 1800 3578 1613 
z
" transform="scale(0.015625)"/>
      <path id="DejaVuSans-Oblique-63" d="M 3431 3366 
L 3316 2797 
Q 3109 2947 2876 3022 
Q 2644 3097 2394 3097 
Q 2119 3097 1870 3000 
Q 1622 2903 1453 2725 
Q 1184 2453 1037 2087 
Q 891 1722 891 1331 
Q 891 859 1127 628 
Q 1363 397 1844 397 
Q 2081 397 2348 469 
Q 2616 541 2906 684 
L 2797 116 
Q 2547 13 2283 -39 
Q 2019 -91 1741 -91 
Q 1044 -91 669 257 
Q 294 606 294 1253 
Q 294 1797 489 2255 
Q 684 2713 1069 3078 
Q 1331 3328 1684 3456 
Q 2038 3584 2456 3584 
Q 2700 3584 2940 3529 
Q 3181 3475 3431 3366 
z
" transform="scale(0.015625)"/>
      <path id="DejaVuSans-Oblique-6e" d="M 3566 2113 
L 3156 0 
L 2578 0 
L 2988 2091 
Q 3016 2238 3031 2350 
Q 3047 2463 3047 2528 
Q 3047 2791 2881 2937 
Q 2716 3084 2419 3084 
Q 1956 3084 1622 2776 
Q 1288 2469 1184 1941 
L 800 0 
L 225 0 
L 903 3500 
L 1478 3500 
L 1363 2950 
Q 1603 3253 1940 3418 
Q 2278 3584 2650 3584 
Q 3113 3584 3367 3334 
Q 3622 3084 3622 2631 
Q 3622 2519 3608 2391 
Q 3594 2263 3566 2113 
z
" transform="scale(0.015625)"/>
      <path id="DejaVuSans-Oblique-74" d="M 2706 3500 
L 2619 3053 
L 1472 3053 
L 1100 1153 
Q 1081 1047 1072 975 
Q 1063 903 1063 863 
Q 1063 663 1183 572 
Q 1303 481 1569 481 
L 2150 481 
L 2053 0 
L 1503 0 
Q 991 0 739 200 
Q 488 400 488 806 
Q 488 878 497 964 
Q 506 1050 525 1153 
L 897 3053 
L 409 3053 
L 500 3500 
L 978 3500 
L 1172 4494 
L 1747 4494 
L 1556 3500 
L 2706 3500 
z
" transform="scale(0.015625)"/>
      <path id="DejaVuSans-Oblique-20" transform="scale(0.015625)"/>
      <path id="DejaVuSans-Oblique-72" d="M 2853 2969 
Q 2766 3016 2653 3041 
Q 2541 3066 2413 3066 
Q 1953 3066 1609 2717 
Q 1266 2369 1153 1784 
L 800 0 
L 225 0 
L 909 3500 
L 1484 3500 
L 1375 2956 
Q 1603 3259 1920 3421 
Q 2238 3584 2597 3584 
Q 2691 3584 2781 3573 
Q 2872 3563 2963 3538 
L 2853 2969 
z
" transform="scale(0.015625)"/>
      <path id="DejaVuSans-Oblique-67" d="M 3816 3500 
L 3219 434 
Q 3047 -456 2561 -893 
Q 2075 -1331 1253 -1331 
Q 950 -1331 690 -1286 
Q 431 -1241 206 -1147 
L 313 -588 
Q 525 -725 762 -790 
Q 1000 -856 1269 -856 
Q 1816 -856 2167 -557 
Q 2519 -259 2631 300 
L 2681 563 
Q 2441 288 2122 144 
Q 1803 0 1434 0 
Q 903 0 598 351 
Q 294 703 294 1319 
Q 294 1803 478 2267 
Q 663 2731 997 3091 
Q 1219 3328 1514 3456 
Q 1809 3584 2131 3584 
Q 2484 3584 2746 3420 
Q 3009 3256 3138 2956 
L 3238 3500 
L 3816 3500 
z
M 2950 2216 
Q 2950 2641 2750 2872 
Q 2550 3103 2181 3103 
Q 1953 3103 1747 3012 
Q 1541 2922 1394 2759 
Q 1156 2491 1023 2127 
Q 891 1763 891 1375 
Q 891 944 1092 712 
Q 1294 481 1672 481 
Q 2219 481 2584 976 
Q 2950 1472 2950 2216 
z
" transform="scale(0.015625)"/>
      <path id="DejaVuSans-Oblique-69" d="M 1172 4863 
L 1747 4863 
L 1606 4134 
L 1031 4134 
L 1172 4863 
z
M 909 3500 
L 1484 3500 
L 800 0 
L 225 0 
L 909 3500 
z
" transform="scale(0.015625)"/>
      <path id="DejaVuSans-Oblique-6d" d="M 5747 2113 
L 5338 0 
L 4763 0 
L 5166 2094 
Q 5191 2228 5203 2325 
Q 5216 2422 5216 2491 
Q 5216 2772 5059 2928 
Q 4903 3084 4622 3084 
Q 4203 3084 3875 2770 
Q 3547 2456 3450 1953 
L 3066 0 
L 2491 0 
L 2900 2094 
Q 2925 2209 2937 2307 
Q 2950 2406 2950 2484 
Q 2950 2769 2794 2926 
Q 2638 3084 2363 3084 
Q 1938 3084 1609 2770 
Q 1281 2456 1184 1953 
L 800 0 
L 225 0 
L 909 3500 
L 1484 3500 
L 1375 2956 
Q 1609 3263 1923 3423 
Q 2238 3584 2597 3584 
Q 2978 3584 3223 3384 
Q 3469 3184 3519 2828 
Q 3781 3197 4126 3390 
Q 4472 3584 4856 3584 
Q 5306 3584 5551 3325 
Q 5797 3066 5797 2591 
Q 5797 2488 5784 2364 
Q 5772 2241 5747 2113 
z
" transform="scale(0.015625)"/>
      <path id="DejaVuSans-Oblique-3a" d="M 978 3309 
L 1638 3309 
L 1484 2516 
L 825 2516 
L 978 3309 
z
M 488 794 
L 1147 794 
L 991 0 
L 331 0 
L 488 794 
z
" transform="scale(0.015625)"/>
      <path id="DejaVuSans-Oblique-6c" d="M 1172 4863 
L 1747 4863 
L 800 0 
L 225 0 
L 1172 4863 
z
" transform="scale(0.015625)"/>
      <path id="DejaVuSans-Oblique-6f" d="M 1625 -91 
Q 1009 -91 651 289 
Q 294 669 294 1325 
Q 294 1706 417 2101 
Q 541 2497 738 2766 
Q 1047 3184 1428 3384 
Q 1809 3584 2291 3584 
Q 2888 3584 3255 3212 
Q 3622 2841 3622 2241 
Q 3622 1825 3500 1412 
Q 3378 1000 3181 728 
Q 2875 309 2494 109 
Q 2113 -91 1625 -91 
z
M 891 1344 
Q 891 869 1089 633 
Q 1288 397 1691 397 
Q 2269 397 2648 901 
Q 3028 1406 3028 2181 
Q 3028 2634 2825 2865 
Q 2622 3097 2228 3097 
Q 1903 3097 1650 2945 
Q 1397 2794 1197 2484 
Q 1050 2253 970 1956 
Q 891 1659 891 1344 
z
" transform="scale(0.015625)"/>
      <path id="DejaVuSans-Oblique-77" d="M 544 3500 
L 1113 3500 
L 1259 684 
L 2566 3500 
L 3231 3500 
L 3425 684 
L 4666 3500 
L 5241 3500 
L 3641 0 
L 2969 0 
L 2797 2900 
L 1459 0 
L 781 0 
L 544 3500 
z
" transform="scale(0.015625)"/>
      <path id="DejaVuSans-Oblique-76" d="M 459 3500 
L 1069 3500 
L 1581 525 
L 3256 3500 
L 3866 3500 
L 1875 0 
L 1100 0 
L 459 3500 
z
" transform="scale(0.015625)"/>
      <path id="DejaVuSans-Oblique-28" d="M 2731 4856 
Q 1903 3822 1495 2892 
Q 1088 1963 1088 1100 
Q 1088 606 1206 120 
Q 1325 -366 1563 -844 
L 1063 -844 
Q 775 -306 634 201 
Q 494 709 494 1197 
Q 494 2125 923 3036 
Q 1353 3947 2222 4856 
L 2731 4856 
z
" transform="scale(0.015625)"/>
      <path id="DejaVuSans-Oblique-5f" d="M 3263 -1063 
L 3263 -1509 
L -63 -1509 
L -63 -1063 
L 3263 -1063 
z
" transform="scale(0.015625)"/>
      <path id="DejaVuSans-Oblique-61" d="M 3438 1997 
L 3047 0 
L 2472 0 
L 2578 531 
Q 2325 219 2001 64 
Q 1678 -91 1281 -91 
Q 834 -91 548 182 
Q 263 456 263 884 
Q 263 1497 752 1853 
Q 1241 2209 2100 2209 
L 2900 2209 
L 2931 2363 
Q 2938 2388 2941 2417 
Q 2944 2447 2944 2509 
Q 2944 2788 2717 2942 
Q 2491 3097 2081 3097 
Q 1800 3097 1504 3025 
Q 1209 2953 897 2809 
L 997 3341 
Q 1322 3463 1633 3523 
Q 1944 3584 2234 3584 
Q 2853 3584 3176 3315 
Q 3500 3047 3500 2534 
Q 3500 2431 3484 2292 
Q 3469 2153 3438 1997 
z
M 2816 1759 
L 2241 1759 
Q 1534 1759 1195 1570 
Q 856 1381 856 984 
Q 856 709 1029 553 
Q 1203 397 1509 397 
Q 1978 397 2328 733 
Q 2678 1069 2791 1631 
L 2816 1759 
z
" transform="scale(0.015625)"/>
      <path id="DejaVuSans-Oblique-6b" d="M 1172 4863 
L 1747 4863 
L 1197 2028 
L 3169 3500 
L 3916 3500 
L 1716 1825 
L 3322 0 
L 2625 0 
L 1131 1709 
L 800 0 
L 225 0 
L 1172 4863 
z
" transform="scale(0.015625)"/>
      <path id="DejaVuSans-Oblique-30" d="M 2444 4750 
Q 3078 4750 3414 4328 
Q 3750 3906 3750 3116 
Q 3750 2516 3592 1923 
Q 3434 1331 3150 863 
Q 2859 394 2467 151 
Q 2075 -91 1600 -91 
Q 988 -91 653 334 
Q 319 759 319 1544 
Q 319 2138 480 2733 
Q 641 3328 928 3794 
Q 1216 4263 1602 4506 
Q 1988 4750 2444 4750 
z
M 2406 4250 
Q 2169 4250 1955 4123 
Q 1741 3997 1569 3750 
Q 1281 3338 1111 2720 
Q 941 2103 941 1453 
Q 941 938 1123 673 
Q 1306 409 1663 409 
Q 1913 409 2125 536 
Q 2338 663 2509 909 
Q 2794 1319 2961 1936 
Q 3128 2553 3128 3206 
Q 3128 3722 2945 3986 
Q 2763 4250 2406 4250 
z
" transform="scale(0.015625)"/>
      <path id="DejaVuSans-Oblique-2e" d="M 525 794 
L 1184 794 
L 1031 0 
L 372 0 
L 525 794 
z
" transform="scale(0.015625)"/>
      <path id="DejaVuSans-Oblique-32" d="M 2950 2253 
L 934 525 
L 3163 525 
L 3053 0 
L 25 0 
L 128 531 
L 2234 2338 
Q 2656 2703 2832 2979 
Q 3009 3256 3009 3547 
Q 3009 3850 2796 4040 
Q 2584 4231 2241 4231 
Q 1944 4231 1581 4125 
Q 1219 4019 806 3816 
L 922 4441 
Q 1309 4594 1662 4672 
Q 2016 4750 2316 4750 
Q 2928 4750 3301 4425 
Q 3675 4100 3675 3572 
Q 3675 3216 3497 2892 
Q 3319 2569 2950 2253 
z
" transform="scale(0.015625)"/>
      <path id="DejaVuSans-Oblique-35" d="M 3719 4666 
L 3622 4141 
L 1691 4141 
L 1466 2988 
Q 1609 3034 1757 3056 
Q 1906 3078 2059 3078 
Q 2706 3078 3081 2731 
Q 3456 2384 3456 1791 
Q 3456 1375 3264 994 
Q 3072 613 2719 325 
Q 2469 125 2108 17 
Q 1747 -91 1319 -91 
Q 1038 -91 744 -41 
Q 450 9 128 109 
L 244 697 
Q 531 556 820 486 
Q 1109 416 1403 416 
Q 2013 416 2411 781 
Q 2809 1147 2809 1697 
Q 2809 2103 2548 2328 
Q 2288 2553 1819 2553 
Q 1572 2553 1305 2495 
Q 1038 2438 756 2322 
L 1209 4666 
L 3719 4666 
z
" transform="scale(0.015625)"/>
      <path id="DejaVuSans-Oblique-2013" d="M 356 1978 
L 2931 1978 
L 2844 1528 
L 269 1528 
L 356 1978 
z
" transform="scale(0.015625)"/>
      <path id="DejaVuSans-Oblique-36" d="M 2938 1728 
Q 2938 2125 2734 2354 
Q 2531 2584 2181 2584 
Q 1697 2584 1367 2211 
Q 1038 1838 1038 1288 
Q 1038 875 1239 642 
Q 1441 409 1797 409 
Q 2284 409 2611 792 
Q 2938 1175 2938 1728 
z
M 3788 4556 
L 3681 3981 
Q 3500 4100 3265 4162 
Q 3031 4225 2766 4225 
Q 2119 4225 1726 3819 
Q 1334 3413 1141 2547 
Q 1369 2813 1670 2948 
Q 1972 3084 2322 3084 
Q 2894 3084 3233 2754 
Q 3572 2425 3572 1869 
Q 3572 1413 3405 1020 
Q 3238 628 2919 331 
Q 2700 128 2409 18 
Q 2119 -91 1791 -91 
Q 1147 -91 775 318 
Q 403 728 403 1441 
Q 403 2103 573 2717 
Q 744 3331 1050 3781 
Q 1372 4256 1830 4503 
Q 2288 4750 2841 4750 
Q 3084 4750 3321 4701 
Q 3559 4653 3788 4556 
z
" transform="scale(0.015625)"/>
      <path id="DejaVuSans-Oblique-29" d="M -397 -844 
Q 434 191 840 1120 
Q 1247 2050 1247 2913 
Q 1247 3406 1130 3892 
Q 1013 4378 775 4856 
L 1275 4856 
Q 1563 4316 1703 3812 
Q 1844 3309 1844 2822 
Q 1844 1891 1411 973 
Q 978 56 116 -844 
L -397 -844 
z
" transform="scale(0.015625)"/>
     </defs>
     <use xlink:href="#DejaVuSans-Oblique-52"/>
     <use xlink:href="#DejaVuSans-Oblique-65" x="69.482422"/>
     <use xlink:href="#DejaVuSans-Oblique-63" x="131.005859"/>
     <use xlink:href="#DejaVuSans-Oblique-65" x="185.986328"/>
     <use xlink:href="#DejaVuSans-Oblique-6e" x="247.509766"/>
     <use xlink:href="#DejaVuSans-Oblique-74" x="310.888672"/>
     <use xlink:href="#DejaVuSans-Oblique-20" x="350.097656"/>
     <use xlink:href="#DejaVuSans-Oblique-72" x="381.884766"/>
     <use xlink:href="#DejaVuSans-Oblique-65" x="422.998047"/>
     <use xlink:href="#DejaVuSans-Oblique-67" x="484.521484"/>
     <use xlink:href="#DejaVuSans-Oblique-69" x="547.998047"/>
     <use xlink:href="#DejaVuSans-Oblique-6d" x="575.78125"/>
     <use xlink:href="#DejaVuSans-Oblique-65" x="673.193359"/>
     <use xlink:href="#DejaVuSans-Oblique-3a" x="734.716797"/>
     <use xlink:href="#DejaVuSans-Oblique-20" x="768.408203"/>
     <use xlink:href="#DejaVuSans-Oblique-6c" x="800.195312"/>
     <use xlink:href="#DejaVuSans-Oblique-6f" x="827.978516"/>
     <use xlink:href="#DejaVuSans-Oblique-77" x="889.160156"/>
     <use xlink:href="#DejaVuSans-Oblique-20" x="970.947266"/>
     <use xlink:href="#DejaVuSans-Oblique-76" x="1002.734375"/>
     <use xlink:href="#DejaVuSans-Oblique-6f" x="1061.914062"/>
     <use xlink:href="#DejaVuSans-Oblique-6c" x="1123.095703"/>
     <use xlink:href="#DejaVuSans-Oblique-20" x="1150.878906"/>
     <use xlink:href="#DejaVuSans-Oblique-28" x="1182.666016"/>
     <use xlink:href="#DejaVuSans-Oblique-72" x="1221.679688"/>
     <use xlink:href="#DejaVuSans-Oblique-76" x="1262.792969"/>
     <use xlink:href="#DejaVuSans-Oblique-5f" x="1321.972656"/>
     <use xlink:href="#DejaVuSans-Oblique-72" x="1371.972656"/>
     <use xlink:href="#DejaVuSans-Oblique-61" x="1413.085938"/>
     <use xlink:href="#DejaVuSans-Oblique-6e" x="1474.365234"/>
     <use xlink:href="#DejaVuSans-Oblique-6b" x="1537.744141"/>
     <use xlink:href="#DejaVuSans-Oblique-20" x="1595.654297"/>
     <use xlink:href="#DejaVuSans-Oblique-30" x="1627.441406"/>
     <use xlink:href="#DejaVuSans-Oblique-2e" x="1691.064453"/>
     <use xlink:href="#DejaVuSans-Oblique-32" x="1722.851562"/>
     <use xlink:href="#DejaVuSans-Oblique-35" x="1786.474609"/>
     <use xlink:href="#DejaVuSans-Oblique-2013" x="1850.097656"/>
     <use xlink:href="#DejaVuSans-Oblique-30" x="1900.097656"/>
     <use xlink:href="#DejaVuSans-Oblique-2e" x="1963.720703"/>
     <use xlink:href="#DejaVuSans-Oblique-36" x="1995.507812"/>
     <use xlink:href="#DejaVuSans-Oblique-30" x="2059.130859"/>
     <use xlink:href="#DejaVuSans-Oblique-29" x="2122.753906"/>
    </g>
    <!-- BTC calm uptrend — strategy correctly quiet -->
    <g style="fill: #8e8e93" transform="translate(576.312244 75.836045) scale(0.08 -0.08)">
     <defs>
      <path id="DejaVuSans-Oblique-42" d="M 1081 4666 
L 2694 4666 
Q 3350 4666 3675 4422 
Q 4000 4178 4000 3688 
Q 4000 3238 3720 2911 
Q 3441 2584 2988 2516 
Q 3375 2428 3569 2181 
Q 3763 1934 3763 1522 
Q 3763 819 3242 409 
Q 2722 0 1819 0 
L 172 0 
L 1081 4666 
z
M 1234 2228 
L 903 519 
L 1919 519 
Q 2491 519 2800 781 
Q 3109 1044 3109 1522 
Q 3109 1891 2904 2059 
Q 2700 2228 2247 2228 
L 1234 2228 
z
M 1606 4147 
L 1331 2741 
L 2272 2741 
Q 2775 2741 3058 2959 
Q 3341 3178 3341 3566 
Q 3341 3869 3150 4008 
Q 2959 4147 2541 4147 
L 1606 4147 
z
" transform="scale(0.015625)"/>
      <path id="DejaVuSans-Oblique-54" d="M 378 4666 
L 4325 4666 
L 4225 4134 
L 2559 4134 
L 1759 0 
L 1125 0 
L 1925 4134 
L 275 4134 
L 378 4666 
z
" transform="scale(0.015625)"/>
      <path id="DejaVuSans-Oblique-43" d="M 4447 4306 
L 4319 3641 
Q 4019 3944 3683 4091 
Q 3347 4238 2956 4238 
Q 2422 4238 2017 3981 
Q 1613 3725 1319 3200 
Q 1131 2863 1032 2486 
Q 934 2109 934 1728 
Q 934 1091 1264 756 
Q 1594 422 2222 422 
Q 2656 422 3056 561 
Q 3456 700 3834 978 
L 3688 231 
Q 3316 72 2936 -9 
Q 2556 -91 2175 -91 
Q 1278 -91 773 396 
Q 269 884 269 1753 
Q 269 2309 461 2846 
Q 653 3384 1013 3828 
Q 1394 4300 1883 4525 
Q 2372 4750 3022 4750 
Q 3422 4750 3780 4639 
Q 4138 4528 4447 4306 
z
" transform="scale(0.015625)"/>
      <path id="DejaVuSans-Oblique-75" d="M 428 1388 
L 838 3500 
L 1416 3500 
L 1006 1409 
Q 975 1256 961 1147 
Q 947 1038 947 966 
Q 947 700 1109 554 
Q 1272 409 1569 409 
Q 2031 409 2368 721 
Q 2706 1034 2809 1563 
L 3194 3500 
L 3769 3500 
L 3091 0 
L 2516 0 
L 2631 550 
Q 2388 244 2052 76 
Q 1716 -91 1338 -91 
Q 878 -91 622 161 
Q 366 413 366 863 
Q 366 956 381 1097 
Q 397 1238 428 1388 
z
" transform="scale(0.015625)"/>
      <path id="DejaVuSans-Oblique-70" d="M 3175 2156 
Q 3175 2616 2975 2859 
Q 2775 3103 2400 3103 
Q 2144 3103 1911 2972 
Q 1678 2841 1497 2591 
Q 1319 2344 1212 1994 
Q 1106 1644 1106 1300 
Q 1106 863 1306 627 
Q 1506 391 1875 391 
Q 2147 391 2380 519 
Q 2613 647 2778 891 
Q 2956 1147 3065 1494 
Q 3175 1841 3175 2156 
z
M 1394 2969 
Q 1625 3272 1939 3428 
Q 2253 3584 2638 3584 
Q 3175 3584 3472 3232 
Q 3769 2881 3769 2247 
Q 3769 1728 3584 1258 
Q 3400 788 3053 416 
Q 2822 169 2531 39 
Q 2241 -91 1919 -91 
Q 1547 -91 1294 64 
Q 1041 219 916 525 
L 556 -1331 
L -19 -1331 
L 922 3500 
L 1497 3500 
L 1394 2969 
z
" transform="scale(0.015625)"/>
      <path id="DejaVuSans-Oblique-64" d="M 2675 525 
Q 2444 222 2128 65 
Q 1813 -91 1428 -91 
Q 903 -91 598 267 
Q 294 625 294 1247 
Q 294 1766 478 2236 
Q 663 2706 1013 3078 
Q 1244 3325 1534 3454 
Q 1825 3584 2144 3584 
Q 2481 3584 2739 3421 
Q 2997 3259 3138 2956 
L 3513 4863 
L 4091 4863 
L 3144 0 
L 2566 0 
L 2675 525 
z
M 891 1350 
Q 891 897 1095 644 
Q 1300 391 1663 391 
Q 1931 391 2161 520 
Q 2391 650 2566 903 
Q 2750 1166 2856 1509 
Q 2963 1853 2963 2188 
Q 2963 2622 2758 2865 
Q 2553 3109 2194 3109 
Q 1922 3109 1687 2981 
Q 1453 2853 1288 2613 
Q 1106 2353 998 2009 
Q 891 1666 891 1350 
z
" transform="scale(0.015625)"/>
      <path id="DejaVuSans-Oblique-2014" d="M 356 1978 
L 6131 1978 
L 6044 1528 
L 269 1528 
L 356 1978 
z
" transform="scale(0.015625)"/>
      <path id="DejaVuSans-Oblique-73" d="M 3200 3397 
L 3091 2853 
Q 2863 2978 2609 3040 
Q 2356 3103 2088 3103 
Q 1634 3103 1373 2948 
Q 1113 2794 1113 2528 
Q 1113 2219 1719 2053 
Q 1766 2041 1788 2034 
L 1972 1978 
Q 2547 1819 2739 1644 
Q 2931 1469 2931 1166 
Q 2931 609 2489 259 
Q 2047 -91 1331 -91 
Q 1053 -91 747 -37 
Q 441 16 72 128 
L 184 722 
Q 500 559 806 475 
Q 1113 391 1394 391 
Q 1816 391 2080 572 
Q 2344 753 2344 1031 
Q 2344 1331 1650 1516 
L 1591 1531 
L 1394 1581 
Q 956 1697 753 1886 
Q 550 2075 550 2369 
Q 550 2928 970 3256 
Q 1391 3584 2113 3584 
Q 2397 3584 2667 3537 
Q 2938 3491 3200 3397 
z
" transform="scale(0.015625)"/>
      <path id="DejaVuSans-Oblique-79" d="M 1588 -325 
Q 1188 -997 936 -1164 
Q 684 -1331 294 -1331 
L -159 -1331 
L -63 -850 
L 269 -850 
Q 509 -850 678 -719 
Q 847 -588 1056 -206 
L 1234 128 
L 459 3500 
L 1069 3500 
L 1650 819 
L 3256 3500 
L 3859 3500 
L 1588 -325 
z
" transform="scale(0.015625)"/>
      <path id="DejaVuSans-Oblique-71" d="M 2669 525 
Q 2438 222 2123 65 
Q 1809 -91 1428 -91 
Q 897 -91 595 267 
Q 294 625 294 1253 
Q 294 1759 480 2231 
Q 666 2703 1013 3078 
Q 1238 3322 1530 3453 
Q 1822 3584 2144 3584 
Q 2531 3584 2781 3431 
Q 3031 3278 3144 2969 
L 3244 3494 
L 3822 3494 
L 2888 -1319 
L 2309 -1319 
L 2669 525 
z
M 891 1338 
Q 891 875 1084 633 
Q 1278 391 1644 391 
Q 2188 391 2572 911 
Q 2956 1431 2956 2175 
Q 2956 2625 2757 2864 
Q 2559 3103 2188 3103 
Q 1916 3103 1684 2976 
Q 1453 2850 1281 2606 
Q 1100 2350 995 2006 
Q 891 1663 891 1338 
z
" transform="scale(0.015625)"/>
     </defs>
     <use xlink:href="#DejaVuSans-Oblique-42"/>
     <use xlink:href="#DejaVuSans-Oblique-54" x="68.603516"/>
     <use xlink:href="#DejaVuSans-Oblique-43" x="129.6875"/>
     <use xlink:href="#DejaVuSans-Oblique-20" x="199.511719"/>
     <use xlink:href="#DejaVuSans-Oblique-63" x="231.298828"/>
     <use xlink:href="#DejaVuSans-Oblique-61" x="286.279297"/>
     <use xlink:href="#DejaVuSans-Oblique-6c" x="347.558594"/>
     <use xlink:href="#DejaVuSans-Oblique-6d" x="375.341797"/>
     <use xlink:href="#DejaVuSans-Oblique-20" x="472.753906"/>
     <use xlink:href="#DejaVuSans-Oblique-75" x="504.541016"/>
     <use xlink:href="#DejaVuSans-Oblique-70" x="567.919922"/>
     <use xlink:href="#DejaVuSans-Oblique-74" x="631.396484"/>
     <use xlink:href="#DejaVuSans-Oblique-72" x="670.605469"/>
     <use xlink:href="#DejaVuSans-Oblique-65" x="711.71875"/>
     <use xlink:href="#DejaVuSans-Oblique-6e" x="773.242188"/>
     <use xlink:href="#DejaVuSans-Oblique-64" x="836.621094"/>
     <use xlink:href="#DejaVuSans-Oblique-20" x="900.097656"/>
     <use xlink:href="#DejaVuSans-Oblique-2014" x="931.884766"/>
     <use xlink:href="#DejaVuSans-Oblique-20" x="1031.884766"/>
     <use xlink:href="#DejaVuSans-Oblique-73" x="1063.671875"/>
     <use xlink:href="#DejaVuSans-Oblique-74" x="1115.771484"/>
     <use xlink:href="#DejaVuSans-Oblique-72" x="1154.980469"/>
     <use xlink:href="#DejaVuSans-Oblique-61" x="1196.09375"/>
     <use xlink:href="#DejaVuSans-Oblique-74" x="1257.373047"/>
     <use xlink:href="#DejaVuSans-Oblique-65" x="1296.582031"/>
     <use xlink:href="#DejaVuSans-Oblique-67" x="1358.105469"/>
     <use xlink:href="#DejaVuSans-Oblique-79" x="1421.582031"/>
     <use xlink:href="#DejaVuSans-Oblique-20" x="1480.761719"/>
     <use xlink:href="#DejaVuSans-Oblique-63" x="1512.548828"/>
     <use xlink:href="#DejaVuSans-Oblique-6f" x="1567.529297"/>
     <use xlink:href="#DejaVuSans-Oblique-72" x="1628.710938"/>
     <use xlink:href="#DejaVuSans-Oblique-72" x="1669.824219"/>
     <use xlink:href="#DejaVuSans-Oblique-65" x="1710.9375"/>
     <use xlink:href="#DejaVuSans-Oblique-63" x="1772.460938"/>
     <use xlink:href="#DejaVuSans-Oblique-74" x="1827.441406"/>
     <use xlink:href="#DejaVuSans-Oblique-6c" x="1866.650391"/>
     <use xlink:href="#DejaVuSans-Oblique-79" x="1894.433594"/>
     <use xlink:href="#DejaVuSans-Oblique-20" x="1953.613281"/>
     <use xlink:href="#DejaVuSans-Oblique-71" x="1985.400391"/>
     <use xlink:href="#DejaVuSans-Oblique-75" x="2048.876953"/>
     <use xlink:href="#DejaVuSans-Oblique-69" x="2112.255859"/>
     <use xlink:href="#DejaVuSans-Oblique-65" x="2140.039062"/>
     <use xlink:href="#DejaVuSans-Oblique-74" x="2201.5625"/>
    </g>
   </g>
   <g id="text_33">
    <!-- Regime Context — Historical vs Recent 3 Weeks -->
    <g style="fill: #f2f2f7" transform="translate(283.254219 15.558281) scale(0.11 -0.11)">
     <defs>
      <path id="DejaVuSans-52" d="M 2841 2188 
Q 3044 2119 3236 1894 
Q 3428 1669 3622 1275 
L 4263 0 
L 3584 0 
L 2988 1197 
Q 2756 1666 2539 1819 
Q 2322 1972 1947 1972 
L 1259 1972 
L 1259 0 
L 628 0 
L 628 4666 
L 2053 4666 
Q 2853 4666 3247 4331 
Q 3641 3997 3641 3322 
Q 3641 2881 3436 2590 
Q 3231 2300 2841 2188 
z
M 1259 4147 
L 1259 2491 
L 2053 2491 
Q 2509 2491 2742 2702 
Q 2975 2913 2975 3322 
Q 2975 3731 2742 3939 
Q 2509 4147 2053 4147 
L 1259 4147 
z
" transform="scale(0.015625)"/>
      <path id="DejaVuSans-43" d="M 4122 4306 
L 4122 3641 
Q 3803 3938 3442 4084 
Q 3081 4231 2675 4231 
Q 1875 4231 1450 3742 
Q 1025 3253 1025 2328 
Q 1025 1406 1450 917 
Q 1875 428 2675 428 
Q 3081 428 3442 575 
Q 3803 722 4122 1019 
L 4122 359 
Q 3791 134 3420 21 
Q 3050 -91 2638 -91 
Q 1578 -91 968 557 
Q 359 1206 359 2328 
Q 359 3453 968 4101 
Q 1578 4750 2638 4750 
Q 3056 4750 3426 4639 
Q 3797 4528 4122 4306 
z
" transform="scale(0.015625)"/>
      <path id="DejaVuSans-2014" d="M 313 1978 
L 6088 1978 
L 6088 1528 
L 313 1528 
L 313 1978 
z
" transform="scale(0.015625)"/>
      <path id="DejaVuSans-48" d="M 628 4666 
L 1259 4666 
L 1259 2753 
L 3553 2753 
L 3553 4666 
L 4184 4666 
L 4184 0 
L 3553 0 
L 3553 2222 
L 1259 2222 
L 1259 0 
L 628 0 
L 628 4666 
z
" transform="scale(0.015625)"/>
      <path id="DejaVuSans-57" d="M 213 4666 
L 850 4666 
L 1831 722 
L 2809 4666 
L 3519 4666 
L 4500 722 
L 5478 4666 
L 6119 4666 
L 4947 0 
L 4153 0 
L 3169 4050 
L 2175 0 
L 1381 0 
L 213 4666 
z
" transform="scale(0.015625)"/>
     </defs>
     <use xlink:href="#DejaVuSans-52"/>
     <use xlink:href="#DejaVuSans-65" x="64.982422"/>
     <use xlink:href="#DejaVuSans-67" x="126.505859"/>
     <use xlink:href="#DejaVuSans-69" x="189.982422"/>
     <use xlink:href="#DejaVuSans-6d" x="217.765625"/>
     <use xlink:href="#DejaVuSans-65" x="315.177734"/>
     <use xlink:href="#DejaVuSans-20" x="376.701172"/>
     <use xlink:href="#DejaVuSans-43" x="408.488281"/>
     <use xlink:href="#DejaVuSans-6f" x="478.3125"/>
     <use xlink:href="#DejaVuSans-6e" x="539.494141"/>
     <use xlink:href="#DejaVuSans-74" x="602.873047"/>
     <use xlink:href="#DejaVuSans-65" x="642.082031"/>
     <use xlink:href="#DejaVuSans-78" x="701.855469"/>
     <use xlink:href="#DejaVuSans-74" x="761.035156"/>
     <use xlink:href="#DejaVuSans-20" x="800.244141"/>
     <use xlink:href="#DejaVuSans-2014" x="832.03125"/>
     <use xlink:href="#DejaVuSans-20" x="932.03125"/>
     <use xlink:href="#DejaVuSans-48" x="963.818359"/>
     <use xlink:href="#DejaVuSans-69" x="1039.013672"/>
     <use xlink:href="#DejaVuSans-73" x="1066.796875"/>
     <use xlink:href="#DejaVuSans-74" x="1118.896484"/>
     <use xlink:href="#DejaVuSans-6f" x="1158.105469"/>
     <use xlink:href="#DejaVuSans-72" x="1219.287109"/>
     <use xlink:href="#DejaVuSans-69" x="1260.400391"/>
     <use xlink:href="#DejaVuSans-63" x="1288.183594"/>
     <use xlink:href="#DejaVuSans-61" x="1343.164062"/>
     <use xlink:href="#DejaVuSans-6c" x="1404.443359"/>
     <use xlink:href="#DejaVuSans-20" x="1432.226562"/>
     <use xlink:href="#DejaVuSans-76" x="1464.013672"/>
     <use xlink:href="#DejaVuSans-73" x="1523.193359"/>
     <use xlink:href="#DejaVuSans-20" x="1575.292969"/>
     <use xlink:href="#DejaVuSans-52" x="1607.080078"/>
     <use xlink:href="#DejaVuSans-65" x="1672.0625"/>
     <use xlink:href="#DejaVuSans-63" x="1733.585938"/>
     <use xlink:href="#DejaVuSans-65" x="1788.566406"/>
     <use xlink:href="#DejaVuSans-6e" x="1850.089844"/>
     <use xlink:href="#DejaVuSans-74" x="1913.46875"/>
     <use xlink:href="#DejaVuSans-20" x="1952.677734"/>
     <use xlink:href="#DejaVuSans-33" x="1984.464844"/>
     <use xlink:href="#DejaVuSans-20" x="2048.087891"/>
     <use xlink:href="#DejaVuSans-57" x="2079.875"/>
     <use xlink:href="#DejaVuSans-65" x="2172.876953"/>
     <use xlink:href="#DejaVuSans-65" x="2234.400391"/>
     <use xlink:href="#DejaVuSans-6b" x="2295.923828"/>
     <use xlink:href="#DejaVuSans-73" x="2353.833984"/>
    </g>
    <!-- mag_win @ 2.5%  |  recent = 2026-04-26 → 2026-05-15 -->
    <g style="fill: #f2f2f7" transform="translate(261.578203 27.933625) scale(0.11 -0.11)">
     <defs>
      <path id="DejaVuSans-7c" d="M 1344 4891 
L 1344 -1509 
L 813 -1509 
L 813 4891 
L 1344 4891 
z
" transform="scale(0.015625)"/>
      <path id="DejaVuSans-3d" d="M 678 2906 
L 4684 2906 
L 4684 2381 
L 678 2381 
L 678 2906 
z
M 678 1631 
L 4684 1631 
L 4684 1100 
L 678 1100 
L 678 1631 
z
" transform="scale(0.015625)"/>
      <path id="DejaVuSans-2d" d="M 313 2009 
L 1997 2009 
L 1997 1497 
L 313 1497 
L 313 2009 
z
" transform="scale(0.015625)"/>
      <path id="DejaVuSans-2192" d="M 5050 2147 
L 5050 1866 
L 3822 638 
L 3447 1013 
L 4175 1741 
L 366 1741 
L 366 2272 
L 4175 2272 
L 3447 3000 
L 3822 3375 
L 5050 2147 
z
" transform="scale(0.015625)"/>
     </defs>
     <use xlink:href="#DejaVuSans-6d"/>
     <use xlink:href="#DejaVuSans-61" x="97.412109"/>
     <use xlink:href="#DejaVuSans-67" x="158.691406"/>
     <use xlink:href="#DejaVuSans-5f" x="222.167969"/>
     <use xlink:href="#DejaVuSans-77" x="272.167969"/>
     <use xlink:href="#DejaVuSans-69" x="353.955078"/>
     <use xlink:href="#DejaVuSans-6e" x="381.738281"/>
     <use xlink:href="#DejaVuSans-20" x="445.117188"/>
     <use xlink:href="#DejaVuSans-40" x="476.904297"/>
     <use xlink:href="#DejaVuSans-20" x="576.904297"/>
     <use xlink:href="#DejaVuSans-32" x="608.691406"/>
     <use xlink:href="#DejaVuSans-2e" x="672.314453"/>
     <use xlink:href="#DejaVuSans-35" x="704.101562"/>
     <use xlink:href="#DejaVuSans-25" x="767.724609"/>
     <use xlink:href="#DejaVuSans-20" x="862.744141"/>
     <use xlink:href="#DejaVuSans-20" x="894.53125"/>
     <use xlink:href="#DejaVuSans-7c" x="926.318359"/>
     <use xlink:href="#DejaVuSans-20" x="960.009766"/>
     <use xlink:href="#DejaVuSans-20" x="991.796875"/>
     <use xlink:href="#DejaVuSans-72" x="1023.583984"/>
     <use xlink:href="#DejaVuSans-65" x="1062.447266"/>
     <use xlink:href="#DejaVuSans-63" x="1123.970703"/>
     <use xlink:href="#DejaVuSans-65" x="1178.951172"/>
     <use xlink:href="#DejaVuSans-6e" x="1240.474609"/>
     <use xlink:href="#DejaVuSans-74" x="1303.853516"/>
     <use xlink:href="#DejaVuSans-20" x="1343.0625"/>
     <use xlink:href="#DejaVuSans-3d" x="1374.849609"/>
     <use xlink:href="#DejaVuSans-20" x="1458.638672"/>
     <use xlink:href="#DejaVuSans-32" x="1490.425781"/>
     <use xlink:href="#DejaVuSans-30" x="1554.048828"/>
     <use xlink:href="#DejaVuSans-32" x="1617.671875"/>
     <use xlink:href="#DejaVuSans-36" x="1681.294922"/>
     <use xlink:href="#DejaVuSans-2d" x="1744.917969"/>
     <use xlink:href="#DejaVuSans-30" x="1781.001953"/>
     <use xlink:href="#DejaVuSans-34" x="1844.625"/>
     <use xlink:href="#DejaVuSans-2d" x="1908.248047"/>
     <use xlink:href="#DejaVuSans-32" x="1944.332031"/>
     <use xlink:href="#DejaVuSans-36" x="2007.955078"/>
     <use xlink:href="#DejaVuSans-20" x="2071.578125"/>
     <use xlink:href="#DejaVuSans-2192" x="2103.365234"/>
     <use xlink:href="#DejaVuSans-20" x="2187.154297"/>
     <use xlink:href="#DejaVuSans-32" x="2218.941406"/>
     <use xlink:href="#DejaVuSans-30" x="2282.564453"/>
     <use xlink:href="#DejaVuSans-32" x="2346.1875"/>
     <use xlink:href="#DejaVuSans-36" x="2409.810547"/>
     <use xlink:href="#DejaVuSans-2d" x="2473.433594"/>
     <use xlink:href="#DejaVuSans-30" x="2509.517578"/>
     <use xlink:href="#DejaVuSans-35" x="2573.140625"/>
     <use xlink:href="#DejaVuSans-2d" x="2636.763672"/>
     <use xlink:href="#DejaVuSans-31" x="2672.847656"/>
     <use xlink:href="#DejaVuSans-35" x="2736.470703"/>
    </g>
   </g>
   <g id="legend_1">
    <g id="patch_24">
     <path d="M 60.186406 75.55425 
L 192.096875 75.55425 
Q 193.896875 75.55425 193.896875 73.75425 
L 193.896875 48.233625 
Q 193.896875 46.433625 192.096875 46.433625 
L 60.186406 46.433625 
Q 58.386406 46.433625 58.386406 48.233625 
L 58.386406 73.75425 
Q 58.386406 75.55425 60.186406 75.55425 
z
" style="fill: #2c2c2e; opacity: 0.2; stroke: #8e8e93; stroke-linejoin: miter"/>
    </g>
    <g id="patch_25">
     <path d="M 61.986406 56.872219 
L 79.986406 56.872219 
L 79.986406 50.572219 
L 61.986406 50.572219 
z
" style="fill: #30d158; opacity: 0.8"/>
    </g>
    <g id="text_34">
     <!-- Historical  (16 months) -->
     <g style="fill: #f2f2f7" transform="translate(87.186406 56.872219) scale(0.09 -0.09)">
      <defs>
       <path id="DejaVuSans-68" d="M 3513 2113 
L 3513 0 
L 2938 0 
L 2938 2094 
Q 2938 2591 2744 2837 
Q 2550 3084 2163 3084 
Q 1697 3084 1428 2787 
Q 1159 2491 1159 1978 
L 1159 0 
L 581 0 
L 581 4863 
L 1159 4863 
L 1159 2956 
Q 1366 3272 1645 3428 
Q 1925 3584 2291 3584 
Q 2894 3584 3203 3211 
Q 3513 2838 3513 2113 
z
" transform="scale(0.015625)"/>
      </defs>
      <use xlink:href="#DejaVuSans-48"/>
      <use xlink:href="#DejaVuSans-69" x="75.195312"/>
      <use xlink:href="#DejaVuSans-73" x="102.978516"/>
      <use xlink:href="#DejaVuSans-74" x="155.078125"/>
      <use xlink:href="#DejaVuSans-6f" x="194.287109"/>
      <use xlink:href="#DejaVuSans-72" x="255.46875"/>
      <use xlink:href="#DejaVuSans-69" x="296.582031"/>
      <use xlink:href="#DejaVuSans-63" x="324.365234"/>
      <use xlink:href="#DejaVuSans-61" x="379.345703"/>
      <use xlink:href="#DejaVuSans-6c" x="440.625"/>
      <use xlink:href="#DejaVuSans-20" x="468.408203"/>
      <use xlink:href="#DejaVuSans-20" x="500.195312"/>
      <use xlink:href="#DejaVuSans-28" x="531.982422"/>
      <use xlink:href="#DejaVuSans-31" x="570.996094"/>
      <use xlink:href="#DejaVuSans-36" x="634.619141"/>
      <use xlink:href="#DejaVuSans-20" x="698.242188"/>
      <use xlink:href="#DejaVuSans-6d" x="730.029297"/>
      <use xlink:href="#DejaVuSans-6f" x="827.441406"/>
      <use xlink:href="#DejaVuSans-6e" x="888.623047"/>
      <use xlink:href="#DejaVuSans-74" x="952.001953"/>
      <use xlink:href="#DejaVuSans-68" x="991.210938"/>
      <use xlink:href="#DejaVuSans-73" x="1054.589844"/>
      <use xlink:href="#DejaVuSans-29" x="1106.689453"/>
     </g>
    </g>
    <g id="patch_26">
     <path d="M 61.986406 70.082531 
L 79.986406 70.082531 
L 79.986406 63.782531 
L 61.986406 63.782531 
z
" style="fill: #ff9f0a; opacity: 0.8"/>
    </g>
    <g id="text_35">
     <!-- Recent  (last 3 weeks) -->
     <g style="fill: #f2f2f7" transform="translate(87.186406 70.082531) scale(0.09 -0.09)">
      <use xlink:href="#DejaVuSans-52"/>
      <use xlink:href="#DejaVuSans-65" x="64.982422"/>
      <use xlink:href="#DejaVuSans-63" x="126.505859"/>
      <use xlink:href="#DejaVuSans-65" x="181.486328"/>
      <use xlink:href="#DejaVuSans-6e" x="243.009766"/>
      <use xlink:href="#DejaVuSans-74" x="306.388672"/>
      <use xlink:href="#DejaVuSans-20" x="345.597656"/>
      <use xlink:href="#DejaVuSans-20" x="377.384766"/>
      <use xlink:href="#DejaVuSans-28" x="409.171875"/>
      <use xlink:href="#DejaVuSans-6c" x="448.185547"/>
      <use xlink:href="#DejaVuSans-61" x="475.96875"/>
      <use xlink:href="#DejaVuSans-73" x="537.248047"/>
      <use xlink:href="#DejaVuSans-74" x="589.347656"/>
      <use xlink:href="#DejaVuSans-20" x="628.556641"/>
      <use xlink:href="#DejaVuSans-33" x="660.34375"/>
      <use xlink:href="#DejaVuSans-20" x="723.966797"/>
      <use xlink:href="#DejaVuSans-77" x="755.753906"/>
      <use xlink:href="#DejaVuSans-65" x="837.541016"/>
      <use xlink:href="#DejaVuSans-65" x="899.064453"/>
      <use xlink:href="#DejaVuSans-6b" x="960.587891"/>
      <use xlink:href="#DejaVuSans-73" x="1018.498047"/>
      <use xlink:href="#DejaVuSans-29" x="1070.597656"/>
     </g>
    </g>
   </g>
  </g>
 </g>
 <defs>
  <clipPath id="p1a608c6ef4">
   <rect x="53.886406" y="41.933625" width="723.38875" height="372.858395"/>
  </clipPath>
 </defs>
</svg>
