<?xml version="1.0" encoding="utf-8" standalone="no"?>
<!DOCTYPE svg PUBLIC "-//W3C//DTD SVG 1.1//EN"
  "http://www.w3.org/Graphics/SVG/1.1/DTD/svg11.dtd">
<svg xmlns:xlink="http://www.w3.org/1999/xlink" width="712.12875pt" height="349.897625pt" viewBox="0 0 712.12875 349.897625" xmlns="http://www.w3.org/2000/svg" version="1.1">
 <metadata>
  <rdf:RDF xmlns:dc="http://purl.org/dc/elements/1.1/" xmlns:cc="http://creativecommons.org/ns#" xmlns:rdf="http://www.w3.org/1999/02/22-rdf-syntax-ns#">
   <cc:Work>
    <dc:type rdf:resource="http://purl.org/dc/dcmitype/StillImage"/>
    <dc:date>2026-05-15T20:32:24.630192</dc:date>
    <dc:format>image/svg+xml</dc:format>
    <dc:creator>
     <cc:Agent>
      <dc:title>Matplotlib v3.9.4, https://matplotlib.org/</dc:title>
     </cc:Agent>
    </dc:creator>
   </cc:Work>
  </rdf:RDF>
 </metadata>
 <defs>
  <style type="text/css">*{stroke-linejoin: round; stroke-linecap: butt}</style>
 </defs>
 <g id="figure_1">
  <g id="patch_1">
   <path d="M 0 349.897625 
L 712.12875 349.897625 
L 712.12875 0 
L 0 0 
z
" style="fill: #ffffff"/>
  </g>
  <g id="axes_1">
   <g id="patch_2">
    <path d="M 40.603125 326.0195 
L 665.163125 326.0195 
L 665.163125 35.7555 
L 40.603125 35.7555 
z
" style="fill: #ffffff"/>
   </g>
   <g id="patch_3">
    <path d="M 68.992216 310.251659 
L 112.66774 310.251659 
L 112.66774 290.751484 
L 68.992216 290.751484 
z
" clip-path="url(#pa9b5f77c59)" style="fill: #2196f3; opacity: 0.6"/>
   </g>
   <g id="patch_4">
    <path d="M 156.343265 307.950638 
L 200.018789 307.950638 
L 200.018789 271.875315 
L 156.343265 271.875315 
z
" clip-path="url(#pa9b5f77c59)" style="fill: #2196f3; opacity: 0.6"/>
   </g>
   <g id="patch_5">
    <path d="M 243.694314 305.376615 
L 287.369838 305.376615 
L 287.369838 254.988164 
L 243.694314 254.988164 
z
" clip-path="url(#pa9b5f77c59)" style="fill: #2196f3; opacity: 0.6"/>
   </g>
   <g id="patch_6">
    <path d="M 331.045363 305.376615 
L 374.720887 305.376615 
L 374.720887 239.856028 
L 331.045363 239.856028 
z
" clip-path="url(#pa9b5f77c59)" style="fill: #2196f3; opacity: 0.6"/>
   </g>
   <g id="patch_7">
    <path d="M 418.396412 294.963522 
L 462.071936 294.963522 
L 462.071936 233.38197 
L 418.396412 233.38197 
z
" clip-path="url(#pa9b5f77c59)" style="fill: #2196f3; opacity: 0.6"/>
   </g>
   <g id="patch_8">
    <path d="M 505.747461 286.500446 
L 549.422985 286.500446 
L 549.422985 185.099538 
L 505.747461 185.099538 
z
" clip-path="url(#pa9b5f77c59)" style="fill: #2196f3; opacity: 0.6"/>
   </g>
   <g id="patch_9">
    <path d="M 593.09851 296.601536 
L 636.774034 296.601536 
L 636.774034 134.750087 
L 593.09851 134.750087 
z
" clip-path="url(#pa9b5f77c59)" style="fill: #2196f3; opacity: 0.6"/>
   </g>
   <g id="matplotlib.axis_1">
    <g id="xtick_1">
     <g id="line2d_1">
      <defs>
       <path id="m62610084f8" d="M 0 0 
L 0 3.5 
" style="stroke: #000000; stroke-width: 0.8"/>
      </defs>
      <g>
       <use xlink:href="#m62610084f8" x="90.829978" y="326.0195" style="stroke: #000000; stroke-width: 0.8"/>
      </g>
     </g>
     <g id="text_1">
      <!-- DTE 1 -->
      <g transform="translate(75.996384 340.617937) scale(0.1 -0.1)">
       <defs>
        <path id="DejaVuSans-44" d="M 1259 4147 
L 1259 519 
L 2022 519 
Q 2988 519 3436 956 
Q 3884 1394 3884 2338 
Q 3884 3275 3436 3711 
Q 2988 4147 2022 4147 
L 1259 4147 
z
M 628 4666 
L 1925 4666 
Q 3281 4666 3915 4102 
Q 4550 3538 4550 2338 
Q 4550 1131 3912 565 
Q 3275 0 1925 0 
L 628 0 
L 628 4666 
z
" transform="scale(0.015625)"/>
        <path id="DejaVuSans-54" d="M -19 4666 
L 3928 4666 
L 3928 4134 
L 2272 4134 
L 2272 0 
L 1638 0 
L 1638 4134 
L -19 4134 
L -19 4666 
z
" transform="scale(0.015625)"/>
        <path id="DejaVuSans-45" d="M 628 4666 
L 3578 4666 
L 3578 4134 
L 1259 4134 
L 1259 2753 
L 3481 2753 
L 3481 2222 
L 1259 2222 
L 1259 531 
L 3634 531 
L 3634 0 
L 628 0 
L 628 4666 
z
" transform="scale(0.015625)"/>
        <path id="DejaVuSans-20" transform="scale(0.015625)"/>
        <path id="DejaVuSans-31" d="M 794 531 
L 1825 531 
L 1825 4091 
L 703 3866 
L 703 4441 
L 1819 4666 
L 2450 4666 
L 2450 531 
L 3481 531 
L 3481 0 
L 794 0 
L 794 531 
z
" transform="scale(0.015625)"/>
       </defs>
       <use xlink:href="#DejaVuSans-44"/>
       <use xlink:href="#DejaVuSans-54" x="77.001953"/>
       <use xlink:href="#DejaVuSans-45" x="138.085938"/>
       <use xlink:href="#DejaVuSans-20" x="201.269531"/>
       <use xlink:href="#DejaVuSans-31" x="233.056641"/>
      </g>
     </g>
    </g>
    <g id="xtick_2">
     <g id="line2d_2">
      <g>
       <use xlink:href="#m62610084f8" x="178.181027" y="326.0195" style="stroke: #000000; stroke-width: 0.8"/>
      </g>
     </g>
     <g id="text_2">
      <!-- DTE 2 -->
      <g transform="translate(163.347433 340.617937) scale(0.1 -0.1)">
       <defs>
        <path id="DejaVuSans-32" d="M 1228 531 
L 3431 531 
L 3431 0 
L 469 0 
L 469 531 
Q 828 903 1448 1529 
Q 2069 2156 2228 2338 
Q 2531 2678 2651 2914 
Q 2772 3150 2772 3378 
Q 2772 3750 2511 3984 
Q 2250 4219 1831 4219 
Q 1534 4219 1204 4116 
Q 875 4013 500 3803 
L 500 4441 
Q 881 4594 1212 4672 
Q 1544 4750 1819 4750 
Q 2544 4750 2975 4387 
Q 3406 4025 3406 3419 
Q 3406 3131 3298 2873 
Q 3191 2616 2906 2266 
Q 2828 2175 2409 1742 
Q 1991 1309 1228 531 
z
" transform="scale(0.015625)"/>
       </defs>
       <use xlink:href="#DejaVuSans-44"/>
       <use xlink:href="#DejaVuSans-54" x="77.001953"/>
       <use xlink:href="#DejaVuSans-45" x="138.085938"/>
       <use xlink:href="#DejaVuSans-20" x="201.269531"/>
       <use xlink:href="#DejaVuSans-32" x="233.056641"/>
      </g>
     </g>
    </g>
    <g id="xtick_3">
     <g id="line2d_3">
      <g>
       <use xlink:href="#m62610084f8" x="265.532076" y="326.0195" style="stroke: #000000; stroke-width: 0.8"/>
      </g>
     </g>
     <g id="text_3">
      <!-- DTE 3 -->
      <g transform="translate(250.698482 340.617937) scale(0.1 -0.1)">
       <defs>
        <path id="DejaVuSans-33" d="M 2597 2516 
Q 3050 2419 3304 2112 
Q 3559 1806 3559 1356 
Q 3559 666 3084 287 
Q 2609 -91 1734 -91 
Q 1441 -91 1130 -33 
Q 819 25 488 141 
L 488 750 
Q 750 597 1062 519 
Q 1375 441 1716 441 
Q 2309 441 2620 675 
Q 2931 909 2931 1356 
Q 2931 1769 2642 2001 
Q 2353 2234 1838 2234 
L 1294 2234 
L 1294 2753 
L 1863 2753 
Q 2328 2753 2575 2939 
Q 2822 3125 2822 3475 
Q 2822 3834 2567 4026 
Q 2313 4219 1838 4219 
Q 1578 4219 1281 4162 
Q 984 4106 628 3988 
L 628 4550 
Q 988 4650 1302 4700 
Q 1616 4750 1894 4750 
Q 2613 4750 3031 4423 
Q 3450 4097 3450 3541 
Q 3450 3153 3228 2886 
Q 3006 2619 2597 2516 
z
" transform="scale(0.015625)"/>
       </defs>
       <use xlink:href="#DejaVuSans-44"/>
       <use xlink:href="#DejaVuSans-54" x="77.001953"/>
       <use xlink:href="#DejaVuSans-45" x="138.085938"/>
       <use xlink:href="#DejaVuSans-20" x="201.269531"/>
       <use xlink:href="#DejaVuSans-33" x="233.056641"/>
      </g>
     </g>
    </g>
    <g id="xtick_4">
     <g id="line2d_4">
      <g>
       <use xlink:href="#m62610084f8" x="352.883125" y="326.0195" style="stroke: #000000; stroke-width: 0.8"/>
      </g>
     </g>
     <g id="text_4">
      <!-- DTE 4 -->
      <g transform="translate(338.049531 340.617937) scale(0.1 -0.1)">
       <defs>
        <path id="DejaVuSans-34" d="M 2419 4116 
L 825 1625 
L 2419 1625 
L 2419 4116 
z
M 2253 4666 
L 3047 4666 
L 3047 1625 
L 3713 1625 
L 3713 1100 
L 3047 1100 
L 3047 0 
L 2419 0 
L 2419 1100 
L 313 1100 
L 313 1709 
L 2253 4666 
z
" transform="scale(0.015625)"/>
       </defs>
       <use xlink:href="#DejaVuSans-44"/>
       <use xlink:href="#DejaVuSans-54" x="77.001953"/>
       <use xlink:href="#DejaVuSans-45" x="138.085938"/>
       <use xlink:href="#DejaVuSans-20" x="201.269531"/>
       <use xlink:href="#DejaVuSans-34" x="233.056641"/>
      </g>
     </g>
    </g>
    <g id="xtick_5">
     <g id="line2d_5">
      <g>
       <use xlink:href="#m62610084f8" x="440.234174" y="326.0195" style="stroke: #000000; stroke-width: 0.8"/>
      </g>
     </g>
     <g id="text_5">
      <!-- DTE 5 -->
      <g transform="translate(425.40058 340.617937) scale(0.1 -0.1)">
       <defs>
        <path id="DejaVuSans-35" d="M 691 4666 
L 3169 4666 
L 3169 4134 
L 1269 4134 
L 1269 2991 
Q 1406 3038 1543 3061 
Q 1681 3084 1819 3084 
Q 2600 3084 3056 2656 
Q 3513 2228 3513 1497 
Q 3513 744 3044 326 
Q 2575 -91 1722 -91 
Q 1428 -91 1123 -41 
Q 819 9 494 109 
L 494 744 
Q 775 591 1075 516 
Q 1375 441 1709 441 
Q 2250 441 2565 725 
Q 2881 1009 2881 1497 
Q 2881 1984 2565 2268 
Q 2250 2553 1709 2553 
Q 1456 2553 1204 2497 
Q 953 2441 691 2322 
L 691 4666 
z
" transform="scale(0.015625)"/>
       </defs>
       <use xlink:href="#DejaVuSans-44"/>
       <use xlink:href="#DejaVuSans-54" x="77.001953"/>
       <use xlink:href="#DejaVuSans-45" x="138.085938"/>
       <use xlink:href="#DejaVuSans-20" x="201.269531"/>
       <use xlink:href="#DejaVuSans-35" x="233.056641"/>
      </g>
     </g>
    </g>
    <g id="xtick_6">
     <g id="line2d_6">
      <g>
       <use xlink:href="#m62610084f8" x="527.585223" y="326.0195" style="stroke: #000000; stroke-width: 0.8"/>
      </g>
     </g>
     <g id="text_6">
      <!-- DTE 6 -->
      <g transform="translate(512.751629 340.617937) scale(0.1 -0.1)">
       <defs>
        <path id="DejaVuSans-36" d="M 2113 2584 
Q 1688 2584 1439 2293 
Q 1191 2003 1191 1497 
Q 1191 994 1439 701 
Q 1688 409 2113 409 
Q 2538 409 2786 701 
Q 3034 994 3034 1497 
Q 3034 2003 2786 2293 
Q 2538 2584 2113 2584 
z
M 3366 4563 
L 3366 3988 
Q 3128 4100 2886 4159 
Q 2644 4219 2406 4219 
Q 1781 4219 1451 3797 
Q 1122 3375 1075 2522 
Q 1259 2794 1537 2939 
Q 1816 3084 2150 3084 
Q 2853 3084 3261 2657 
Q 3669 2231 3669 1497 
Q 3669 778 3244 343 
Q 2819 -91 2113 -91 
Q 1303 -91 875 529 
Q 447 1150 447 2328 
Q 447 3434 972 4092 
Q 1497 4750 2381 4750 
Q 2619 4750 2861 4703 
Q 3103 4656 3366 4563 
z
" transform="scale(0.015625)"/>
       </defs>
       <use xlink:href="#DejaVuSans-44"/>
       <use xlink:href="#DejaVuSans-54" x="77.001953"/>
       <use xlink:href="#DejaVuSans-45" x="138.085938"/>
       <use xlink:href="#DejaVuSans-20" x="201.269531"/>
       <use xlink:href="#DejaVuSans-36" x="233.056641"/>
      </g>
     </g>
    </g>
    <g id="xtick_7">
     <g id="line2d_7">
      <g>
       <use xlink:href="#m62610084f8" x="614.936272" y="326.0195" style="stroke: #000000; stroke-width: 0.8"/>
      </g>
     </g>
     <g id="text_7">
      <!-- DTE 7 -->
      <g transform="translate(600.102678 340.617937) scale(0.1 -0.1)">
       <defs>
        <path id="DejaVuSans-37" d="M 525 4666 
L 3525 4666 
L 3525 4397 
L 1831 0 
L 1172 0 
L 2766 4134 
L 525 4134 
L 525 4666 
z
" transform="scale(0.015625)"/>
       </defs>
       <use xlink:href="#DejaVuSans-44"/>
       <use xlink:href="#DejaVuSans-54" x="77.001953"/>
       <use xlink:href="#DejaVuSans-45" x="138.085938"/>
       <use xlink:href="#DejaVuSans-20" x="201.269531"/>
       <use xlink:href="#DejaVuSans-37" x="233.056641"/>
      </g>
     </g>
    </g>
   </g>
   <g id="matplotlib.axis_2">
    <g id="ytick_1">
     <g id="line2d_8">
      <defs>
       <path id="mc79d6e0a12" d="M 0 0 
L -3.5 0 
" style="stroke: #000000; stroke-width: 0.8"/>
      </defs>
      <g>
       <use xlink:href="#mc79d6e0a12" x="40.603125" y="314.463696" style="stroke: #000000; stroke-width: 0.8"/>
      </g>
     </g>
     <g id="text_8">
      <!-- 0 -->
      <g transform="translate(27.240625 318.262915) scale(0.1 -0.1)">
       <defs>
        <path id="DejaVuSans-30" d="M 2034 4250 
Q 1547 4250 1301 3770 
Q 1056 3291 1056 2328 
Q 1056 1369 1301 889 
Q 1547 409 2034 409 
Q 2525 409 2770 889 
Q 3016 1369 3016 2328 
Q 3016 3291 2770 3770 
Q 2525 4250 2034 4250 
z
M 2034 4750 
Q 2819 4750 3233 4129 
Q 3647 3509 3647 2328 
Q 3647 1150 3233 529 
Q 2819 -91 2034 -91 
Q 1250 -91 836 529 
Q 422 1150 422 2328 
Q 422 3509 836 4129 
Q 1250 4750 2034 4750 
z
" transform="scale(0.015625)"/>
       </defs>
       <use xlink:href="#DejaVuSans-30"/>
      </g>
     </g>
    </g>
    <g id="ytick_2">
     <g id="line2d_9">
      <g>
       <use xlink:href="#mc79d6e0a12" x="40.603125" y="275.463347" style="stroke: #000000; stroke-width: 0.8"/>
      </g>
     </g>
     <g id="text_9">
      <!-- 10 -->
      <g transform="translate(20.878125 279.262566) scale(0.1 -0.1)">
       <use xlink:href="#DejaVuSans-31"/>
       <use xlink:href="#DejaVuSans-30" x="63.623047"/>
      </g>
     </g>
    </g>
    <g id="ytick_3">
     <g id="line2d_10">
      <g>
       <use xlink:href="#mc79d6e0a12" x="40.603125" y="236.462998" style="stroke: #000000; stroke-width: 0.8"/>
      </g>
     </g>
     <g id="text_10">
      <!-- 20 -->
      <g transform="translate(20.878125 240.262217) scale(0.1 -0.1)">
       <use xlink:href="#DejaVuSans-32"/>
       <use xlink:href="#DejaVuSans-30" x="63.623047"/>
      </g>
     </g>
    </g>
    <g id="ytick_4">
     <g id="line2d_11">
      <g>
       <use xlink:href="#mc79d6e0a12" x="40.603125" y="197.462648" style="stroke: #000000; stroke-width: 0.8"/>
      </g>
     </g>
     <g id="text_11">
      <!-- 30 -->
      <g transform="translate(20.878125 201.261867) scale(0.1 -0.1)">
       <use xlink:href="#DejaVuSans-33"/>
       <use xlink:href="#DejaVuSans-30" x="63.623047"/>
      </g>
     </g>
    </g>
    <g id="ytick_5">
     <g id="line2d_12">
      <g>
       <use xlink:href="#mc79d6e0a12" x="40.603125" y="158.462299" style="stroke: #000000; stroke-width: 0.8"/>
      </g>
     </g>
     <g id="text_12">
      <!-- 40 -->
      <g transform="translate(20.878125 162.261518) scale(0.1 -0.1)">
       <use xlink:href="#DejaVuSans-34"/>
       <use xlink:href="#DejaVuSans-30" x="63.623047"/>
      </g>
     </g>
    </g>
    <g id="ytick_6">
     <g id="line2d_13">
      <g>
       <use xlink:href="#mc79d6e0a12" x="40.603125" y="119.46195" style="stroke: #000000; stroke-width: 0.8"/>
      </g>
     </g>
     <g id="text_13">
      <!-- 50 -->
      <g transform="translate(20.878125 123.261169) scale(0.1 -0.1)">
       <use xlink:href="#DejaVuSans-35"/>
       <use xlink:href="#DejaVuSans-30" x="63.623047"/>
      </g>
     </g>
    </g>
    <g id="ytick_7">
     <g id="line2d_14">
      <g>
       <use xlink:href="#mc79d6e0a12" x="40.603125" y="80.4616" style="stroke: #000000; stroke-width: 0.8"/>
      </g>
     </g>
     <g id="text_14">
      <!-- 60 -->
      <g transform="translate(20.878125 84.260819) scale(0.1 -0.1)">
       <use xlink:href="#DejaVuSans-36"/>
       <use xlink:href="#DejaVuSans-30" x="63.623047"/>
      </g>
     </g>
    </g>
    <g id="ytick_8">
     <g id="line2d_15">
      <g>
       <use xlink:href="#mc79d6e0a12" x="40.603125" y="41.461251" style="stroke: #000000; stroke-width: 0.8"/>
      </g>
     </g>
     <g id="text_15">
      <!-- 70 -->
      <g transform="translate(20.878125 45.26047) scale(0.1 -0.1)">
       <use xlink:href="#DejaVuSans-37"/>
       <use xlink:href="#DejaVuSans-30" x="63.623047"/>
      </g>
     </g>
    </g>
    <g id="text_16">
     <!-- Hold hours to first 20% exit -->
     <g transform="translate(14.798438 249.472656) rotate(-90) scale(0.1 -0.1)">
      <defs>
       <path id="DejaVuSans-48" d="M 628 4666 
L 1259 4666 
L 1259 2753 
L 3553 2753 
L 3553 4666 
L 4184 4666 
L 4184 0 
L 3553 0 
L 3553 2222 
L 1259 2222 
L 1259 0 
L 628 0 
L 628 4666 
z
" transform="scale(0.015625)"/>
       <path id="DejaVuSans-6f" d="M 1959 3097 
Q 1497 3097 1228 2736 
Q 959 2375 959 1747 
Q 959 1119 1226 758 
Q 1494 397 1959 397 
Q 2419 397 2687 759 
Q 2956 1122 2956 1747 
Q 2956 2369 2687 2733 
Q 2419 3097 1959 3097 
z
M 1959 3584 
Q 2709 3584 3137 3096 
Q 3566 2609 3566 1747 
Q 3566 888 3137 398 
Q 2709 -91 1959 -91 
Q 1206 -91 779 398 
Q 353 888 353 1747 
Q 353 2609 779 3096 
Q 1206 3584 1959 3584 
z
" transform="scale(0.015625)"/>
       <path id="DejaVuSans-6c" d="M 603 4863 
L 1178 4863 
L 1178 0 
L 603 0 
L 603 4863 
z
" transform="scale(0.015625)"/>
       <path id="DejaVuSans-64" d="M 2906 2969 
L 2906 4863 
L 3481 4863 
L 3481 0 
L 2906 0 
L 2906 525 
Q 2725 213 2448 61 
Q 2172 -91 1784 -91 
Q 1150 -91 751 415 
Q 353 922 353 1747 
Q 353 2572 751 3078 
Q 1150 3584 1784 3584 
Q 2172 3584 2448 3432 
Q 2725 3281 2906 2969 
z
M 947 1747 
Q 947 1113 1208 752 
Q 1469 391 1925 391 
Q 2381 391 2643 752 
Q 2906 1113 2906 1747 
Q 2906 2381 2643 2742 
Q 2381 3103 1925 3103 
Q 1469 3103 1208 2742 
Q 947 2381 947 1747 
z
" transform="scale(0.015625)"/>
       <path id="DejaVuSans-68" d="M 3513 2113 
L 3513 0 
L 2938 0 
L 2938 2094 
Q 2938 2591 2744 2837 
Q 2550 3084 2163 3084 
Q 1697 3084 1428 2787 
Q 1159 2491 1159 1978 
L 1159 0 
L 581 0 
L 581 4863 
L 1159 4863 
L 1159 2956 
Q 1366 3272 1645 3428 
Q 1925 3584 2291 3584 
Q 2894 3584 3203 3211 
Q 3513 2838 3513 2113 
z
" transform="scale(0.015625)"/>
       <path id="DejaVuSans-75" d="M 544 1381 
L 544 3500 
L 1119 3500 
L 1119 1403 
Q 1119 906 1312 657 
Q 1506 409 1894 409 
Q 2359 409 2629 706 
Q 2900 1003 2900 1516 
L 2900 3500 
L 3475 3500 
L 3475 0 
L 2900 0 
L 2900 538 
Q 2691 219 2414 64 
Q 2138 -91 1772 -91 
Q 1169 -91 856 284 
Q 544 659 544 1381 
z
M 1991 3584 
L 1991 3584 
z
" transform="scale(0.015625)"/>
       <path id="DejaVuSans-72" d="M 2631 2963 
Q 2534 3019 2420 3045 
Q 2306 3072 2169 3072 
Q 1681 3072 1420 2755 
Q 1159 2438 1159 1844 
L 1159 0 
L 581 0 
L 581 3500 
L 1159 3500 
L 1159 2956 
Q 1341 3275 1631 3429 
Q 1922 3584 2338 3584 
Q 2397 3584 2469 3576 
Q 2541 3569 2628 3553 
L 2631 2963 
z
" transform="scale(0.015625)"/>
       <path id="DejaVuSans-73" d="M 2834 3397 
L 2834 2853 
Q 2591 2978 2328 3040 
Q 2066 3103 1784 3103 
Q 1356 3103 1142 2972 
Q 928 2841 928 2578 
Q 928 2378 1081 2264 
Q 1234 2150 1697 2047 
L 1894 2003 
Q 2506 1872 2764 1633 
Q 3022 1394 3022 966 
Q 3022 478 2636 193 
Q 2250 -91 1575 -91 
Q 1294 -91 989 -36 
Q 684 19 347 128 
L 347 722 
Q 666 556 975 473 
Q 1284 391 1588 391 
Q 1994 391 2212 530 
Q 2431 669 2431 922 
Q 2431 1156 2273 1281 
Q 2116 1406 1581 1522 
L 1381 1569 
Q 847 1681 609 1914 
Q 372 2147 372 2553 
Q 372 3047 722 3315 
Q 1072 3584 1716 3584 
Q 2034 3584 2315 3537 
Q 2597 3491 2834 3397 
z
" transform="scale(0.015625)"/>
       <path id="DejaVuSans-74" d="M 1172 4494 
L 1172 3500 
L 2356 3500 
L 2356 3053 
L 1172 3053 
L 1172 1153 
Q 1172 725 1289 603 
Q 1406 481 1766 481 
L 2356 481 
L 2356 0 
L 1766 0 
Q 1100 0 847 248 
Q 594 497 594 1153 
L 594 3053 
L 172 3053 
L 172 3500 
L 594 3500 
L 594 4494 
L 1172 4494 
z
" transform="scale(0.015625)"/>
       <path id="DejaVuSans-66" d="M 2375 4863 
L 2375 4384 
L 1825 4384 
Q 1516 4384 1395 4259 
Q 1275 4134 1275 3809 
L 1275 3500 
L 2222 3500 
L 2222 3053 
L 1275 3053 
L 1275 0 
L 697 0 
L 697 3053 
L 147 3053 
L 147 3500 
L 697 3500 
L 697 3744 
Q 697 4328 969 4595 
Q 1241 4863 1831 4863 
L 2375 4863 
z
" transform="scale(0.015625)"/>
       <path id="DejaVuSans-69" d="M 603 3500 
L 1178 3500 
L 1178 0 
L 603 0 
L 603 3500 
z
M 603 4863 
L 1178 4863 
L 1178 4134 
L 603 4134 
L 603 4863 
z
" transform="scale(0.015625)"/>
       <path id="DejaVuSans-25" d="M 4653 2053 
Q 4381 2053 4226 1822 
Q 4072 1591 4072 1178 
Q 4072 772 4226 539 
Q 4381 306 4653 306 
Q 4919 306 5073 539 
Q 5228 772 5228 1178 
Q 5228 1588 5073 1820 
Q 4919 2053 4653 2053 
z
M 4653 2450 
Q 5147 2450 5437 2106 
Q 5728 1763 5728 1178 
Q 5728 594 5436 251 
Q 5144 -91 4653 -91 
Q 4153 -91 3862 251 
Q 3572 594 3572 1178 
Q 3572 1766 3864 2108 
Q 4156 2450 4653 2450 
z
M 1428 4353 
Q 1159 4353 1004 4120 
Q 850 3888 850 3481 
Q 850 3069 1003 2837 
Q 1156 2606 1428 2606 
Q 1700 2606 1854 2837 
Q 2009 3069 2009 3481 
Q 2009 3884 1853 4118 
Q 1697 4353 1428 4353 
z
M 4250 4750 
L 4750 4750 
L 1831 -91 
L 1331 -91 
L 4250 4750 
z
M 1428 4750 
Q 1922 4750 2215 4408 
Q 2509 4066 2509 3481 
Q 2509 2891 2217 2550 
Q 1925 2209 1428 2209 
Q 931 2209 642 2551 
Q 353 2894 353 3481 
Q 353 4063 643 4406 
Q 934 4750 1428 4750 
z
" transform="scale(0.015625)"/>
       <path id="DejaVuSans-65" d="M 3597 1894 
L 3597 1613 
L 953 1613 
Q 991 1019 1311 708 
Q 1631 397 2203 397 
Q 2534 397 2845 478 
Q 3156 559 3463 722 
L 3463 178 
Q 3153 47 2828 -22 
Q 2503 -91 2169 -91 
Q 1331 -91 842 396 
Q 353 884 353 1716 
Q 353 2575 817 3079 
Q 1281 3584 2069 3584 
Q 2775 3584 3186 3129 
Q 3597 2675 3597 1894 
z
M 3022 2063 
Q 3016 2534 2758 2815 
Q 2500 3097 2075 3097 
Q 1594 3097 1305 2825 
Q 1016 2553 972 2059 
L 3022 2063 
z
" transform="scale(0.015625)"/>
       <path id="DejaVuSans-78" d="M 3513 3500 
L 2247 1797 
L 3578 0 
L 2900 0 
L 1881 1375 
L 863 0 
L 184 0 
L 1544 1831 
L 300 3500 
L 978 3500 
L 1906 2253 
L 2834 3500 
L 3513 3500 
z
" transform="scale(0.015625)"/>
      </defs>
      <use xlink:href="#DejaVuSans-48"/>
      <use xlink:href="#DejaVuSans-6f" x="75.195312"/>
      <use xlink:href="#DejaVuSans-6c" x="136.376953"/>
      <use xlink:href="#DejaVuSans-64" x="164.160156"/>
      <use xlink:href="#DejaVuSans-20" x="227.636719"/>
      <use xlink:href="#DejaVuSans-68" x="259.423828"/>
      <use xlink:href="#DejaVuSans-6f" x="322.802734"/>
      <use xlink:href="#DejaVuSans-75" x="383.984375"/>
      <use xlink:href="#DejaVuSans-72" x="447.363281"/>
      <use xlink:href="#DejaVuSans-73" x="488.476562"/>
      <use xlink:href="#DejaVuSans-20" x="540.576172"/>
      <use xlink:href="#DejaVuSans-74" x="572.363281"/>
      <use xlink:href="#DejaVuSans-6f" x="611.572266"/>
      <use xlink:href="#DejaVuSans-20" x="672.753906"/>
      <use xlink:href="#DejaVuSans-66" x="704.541016"/>
      <use xlink:href="#DejaVuSans-69" x="739.746094"/>
      <use xlink:href="#DejaVuSans-72" x="767.529297"/>
      <use xlink:href="#DejaVuSans-73" x="808.642578"/>
      <use xlink:href="#DejaVuSans-74" x="860.742188"/>
      <use xlink:href="#DejaVuSans-20" x="899.951172"/>
      <use xlink:href="#DejaVuSans-32" x="931.738281"/>
      <use xlink:href="#DejaVuSans-30" x="995.361328"/>
      <use xlink:href="#DejaVuSans-25" x="1058.984375"/>
      <use xlink:href="#DejaVuSans-20" x="1154.003906"/>
      <use xlink:href="#DejaVuSans-65" x="1185.791016"/>
      <use xlink:href="#DejaVuSans-78" x="1245.564453"/>
      <use xlink:href="#DejaVuSans-69" x="1304.744141"/>
      <use xlink:href="#DejaVuSans-74" x="1332.527344"/>
     </g>
    </g>
   </g>
   <g id="LineCollection_1">
    <path d="M 90.829978 312.825682 
L 90.829978 268.950289 
" clip-path="url(#pa9b5f77c59)" style="fill: none; stroke: #2196f3; stroke-width: 1.5"/>
    <path d="M 178.181027 311.53867 
L 178.181027 227.999922 
" clip-path="url(#pa9b5f77c59)" style="fill: none; stroke: #2196f3; stroke-width: 1.5"/>
    <path d="M 265.532076 310.251659 
L 265.532076 196.48764 
" clip-path="url(#pa9b5f77c59)" style="fill: none; stroke: #2196f3; stroke-width: 1.5"/>
    <path d="M 352.883125 310.563662 
L 352.883125 149.60922 
" clip-path="url(#pa9b5f77c59)" style="fill: none; stroke: #2196f3; stroke-width: 1.5"/>
    <path d="M 440.234174 306.351624 
L 440.234174 188.531568 
" clip-path="url(#pa9b5f77c59)" style="fill: none; stroke: #2196f3; stroke-width: 1.5"/>
    <path d="M 527.585223 303.075594 
L 527.585223 122.698979 
" clip-path="url(#pa9b5f77c59)" style="fill: none; stroke: #2196f3; stroke-width: 1.5"/>
    <path d="M 614.936272 308.925647 
L 614.936272 48.949318 
" clip-path="url(#pa9b5f77c59)" style="fill: none; stroke: #2196f3; stroke-width: 1.5"/>
   </g>
   <g id="patch_10">
    <path d="M 40.603125 326.0195 
L 40.603125 35.7555 
" style="fill: none; stroke: #000000; stroke-width: 0.8; stroke-linejoin: miter; stroke-linecap: square"/>
   </g>
   <g id="patch_11">
    <path d="M 665.163125 326.0195 
L 665.163125 35.7555 
" style="fill: none; stroke: #000000; stroke-width: 0.8; stroke-linejoin: miter; stroke-linecap: square"/>
   </g>
   <g id="patch_12">
    <path d="M 40.603125 326.0195 
L 665.163125 326.0195 
" style="fill: none; stroke: #000000; stroke-width: 0.8; stroke-linejoin: miter; stroke-linecap: square"/>
   </g>
   <g id="patch_13">
    <path d="M 40.603125 35.7555 
L 665.163125 35.7555 
" style="fill: none; stroke: #000000; stroke-width: 0.8; stroke-linejoin: miter; stroke-linecap: square"/>
   </g>
   <g id="text_17">
    <!-- n=2340 -->
    <g transform="translate(74.763103 263.386504) scale(0.08 -0.08)">
     <defs>
      <path id="DejaVuSans-6e" d="M 3513 2113 
L 3513 0 
L 2938 0 
L 2938 2094 
Q 2938 2591 2744 2837 
Q 2550 3084 2163 3084 
Q 1697 3084 1428 2787 
Q 1159 2491 1159 1978 
L 1159 0 
L 581 0 
L 581 3500 
L 1159 3500 
L 1159 2956 
Q 1366 3272 1645 3428 
Q 1925 3584 2291 3584 
Q 2894 3584 3203 3211 
Q 3513 2838 3513 2113 
z
" transform="scale(0.015625)"/>
      <path id="DejaVuSans-3d" d="M 678 2906 
L 4684 2906 
L 4684 2381 
L 678 2381 
L 678 2906 
z
M 678 1631 
L 4684 1631 
L 4684 1100 
L 678 1100 
L 678 1631 
z
" transform="scale(0.015625)"/>
     </defs>
     <use xlink:href="#DejaVuSans-6e"/>
     <use xlink:href="#DejaVuSans-3d" x="63.378906"/>
     <use xlink:href="#DejaVuSans-32" x="147.167969"/>
     <use xlink:href="#DejaVuSans-33" x="210.791016"/>
     <use xlink:href="#DejaVuSans-34" x="274.414062"/>
     <use xlink:href="#DejaVuSans-30" x="338.037109"/>
    </g>
   </g>
   <g id="text_18">
    <!-- n=3720 -->
    <g transform="translate(162.114152 222.436137) scale(0.08 -0.08)">
     <use xlink:href="#DejaVuSans-6e"/>
     <use xlink:href="#DejaVuSans-3d" x="63.378906"/>
     <use xlink:href="#DejaVuSans-33" x="147.167969"/>
     <use xlink:href="#DejaVuSans-37" x="210.791016"/>
     <use xlink:href="#DejaVuSans-32" x="274.414062"/>
     <use xlink:href="#DejaVuSans-30" x="338.037109"/>
    </g>
   </g>
   <g id="text_19">
    <!-- n=4486 -->
    <g transform="translate(249.465201 190.923855) scale(0.08 -0.08)">
     <defs>
      <path id="DejaVuSans-38" d="M 2034 2216 
Q 1584 2216 1326 1975 
Q 1069 1734 1069 1313 
Q 1069 891 1326 650 
Q 1584 409 2034 409 
Q 2484 409 2743 651 
Q 3003 894 3003 1313 
Q 3003 1734 2745 1975 
Q 2488 2216 2034 2216 
z
M 1403 2484 
Q 997 2584 770 2862 
Q 544 3141 544 3541 
Q 544 4100 942 4425 
Q 1341 4750 2034 4750 
Q 2731 4750 3128 4425 
Q 3525 4100 3525 3541 
Q 3525 3141 3298 2862 
Q 3072 2584 2669 2484 
Q 3125 2378 3379 2068 
Q 3634 1759 3634 1313 
Q 3634 634 3220 271 
Q 2806 -91 2034 -91 
Q 1263 -91 848 271 
Q 434 634 434 1313 
Q 434 1759 690 2068 
Q 947 2378 1403 2484 
z
M 1172 3481 
Q 1172 3119 1398 2916 
Q 1625 2713 2034 2713 
Q 2441 2713 2670 2916 
Q 2900 3119 2900 3481 
Q 2900 3844 2670 4047 
Q 2441 4250 2034 4250 
Q 1625 4250 1398 4047 
Q 1172 3844 1172 3481 
z
" transform="scale(0.015625)"/>
     </defs>
     <use xlink:href="#DejaVuSans-6e"/>
     <use xlink:href="#DejaVuSans-3d" x="63.378906"/>
     <use xlink:href="#DejaVuSans-34" x="147.167969"/>
     <use xlink:href="#DejaVuSans-34" x="210.791016"/>
     <use xlink:href="#DejaVuSans-38" x="274.414062"/>
     <use xlink:href="#DejaVuSans-36" x="338.037109"/>
    </g>
   </g>
   <g id="text_20">
    <!-- n=2738 -->
    <g transform="translate(336.81625 144.045435) scale(0.08 -0.08)">
     <use xlink:href="#DejaVuSans-6e"/>
     <use xlink:href="#DejaVuSans-3d" x="63.378906"/>
     <use xlink:href="#DejaVuSans-32" x="147.167969"/>
     <use xlink:href="#DejaVuSans-37" x="210.791016"/>
     <use xlink:href="#DejaVuSans-33" x="274.414062"/>
     <use xlink:href="#DejaVuSans-38" x="338.037109"/>
    </g>
   </g>
   <g id="text_21">
    <!-- n=698 -->
    <g transform="translate(426.712299 182.967784) scale(0.08 -0.08)">
     <defs>
      <path id="DejaVuSans-39" d="M 703 97 
L 703 672 
Q 941 559 1184 500 
Q 1428 441 1663 441 
Q 2288 441 2617 861 
Q 2947 1281 2994 2138 
Q 2813 1869 2534 1725 
Q 2256 1581 1919 1581 
Q 1219 1581 811 2004 
Q 403 2428 403 3163 
Q 403 3881 828 4315 
Q 1253 4750 1959 4750 
Q 2769 4750 3195 4129 
Q 3622 3509 3622 2328 
Q 3622 1225 3098 567 
Q 2575 -91 1691 -91 
Q 1453 -91 1209 -44 
Q 966 3 703 97 
z
M 1959 2075 
Q 2384 2075 2632 2365 
Q 2881 2656 2881 3163 
Q 2881 3666 2632 3958 
Q 2384 4250 1959 4250 
Q 1534 4250 1286 3958 
Q 1038 3666 1038 3163 
Q 1038 2656 1286 2365 
Q 1534 2075 1959 2075 
z
" transform="scale(0.015625)"/>
     </defs>
     <use xlink:href="#DejaVuSans-6e"/>
     <use xlink:href="#DejaVuSans-3d" x="63.378906"/>
     <use xlink:href="#DejaVuSans-36" x="147.167969"/>
     <use xlink:href="#DejaVuSans-39" x="210.791016"/>
     <use xlink:href="#DejaVuSans-38" x="274.414062"/>
    </g>
   </g>
   <g id="text_22">
    <!-- n=653 -->
    <g transform="translate(514.063348 117.135194) scale(0.08 -0.08)">
     <use xlink:href="#DejaVuSans-6e"/>
     <use xlink:href="#DejaVuSans-3d" x="63.378906"/>
     <use xlink:href="#DejaVuSans-36" x="147.167969"/>
     <use xlink:href="#DejaVuSans-35" x="210.791016"/>
     <use xlink:href="#DejaVuSans-33" x="274.414062"/>
    </g>
   </g>
   <g id="text_23">
    <!-- n=712 -->
    <g transform="translate(601.414397 43.385533) scale(0.08 -0.08)">
     <use xlink:href="#DejaVuSans-6e"/>
     <use xlink:href="#DejaVuSans-3d" x="63.378906"/>
     <use xlink:href="#DejaVuSans-37" x="147.167969"/>
     <use xlink:href="#DejaVuSans-31" x="210.791016"/>
     <use xlink:href="#DejaVuSans-32" x="274.414062"/>
    </g>
   </g>
   <g id="text_24">
    <!-- Hold Period Distribution by DTE at Entry -->
    <g transform="translate(232.645 16.318125) scale(0.12 -0.12)">
     <defs>
      <path id="DejaVuSans-50" d="M 1259 4147 
L 1259 2394 
L 2053 2394 
Q 2494 2394 2734 2622 
Q 2975 2850 2975 3272 
Q 2975 3691 2734 3919 
Q 2494 4147 2053 4147 
L 1259 4147 
z
M 628 4666 
L 2053 4666 
Q 2838 4666 3239 4311 
Q 3641 3956 3641 3272 
Q 3641 2581 3239 2228 
Q 2838 1875 2053 1875 
L 1259 1875 
L 1259 0 
L 628 0 
L 628 4666 
z
" transform="scale(0.015625)"/>
      <path id="DejaVuSans-62" d="M 3116 1747 
Q 3116 2381 2855 2742 
Q 2594 3103 2138 3103 
Q 1681 3103 1420 2742 
Q 1159 2381 1159 1747 
Q 1159 1113 1420 752 
Q 1681 391 2138 391 
Q 2594 391 2855 752 
Q 3116 1113 3116 1747 
z
M 1159 2969 
Q 1341 3281 1617 3432 
Q 1894 3584 2278 3584 
Q 2916 3584 3314 3078 
Q 3713 2572 3713 1747 
Q 3713 922 3314 415 
Q 2916 -91 2278 -91 
Q 1894 -91 1617 61 
Q 1341 213 1159 525 
L 1159 0 
L 581 0 
L 581 4863 
L 1159 4863 
L 1159 2969 
z
" transform="scale(0.015625)"/>
      <path id="DejaVuSans-79" d="M 2059 -325 
Q 1816 -950 1584 -1140 
Q 1353 -1331 966 -1331 
L 506 -1331 
L 506 -850 
L 844 -850 
Q 1081 -850 1212 -737 
Q 1344 -625 1503 -206 
L 1606 56 
L 191 3500 
L 800 3500 
L 1894 763 
L 2988 3500 
L 3597 3500 
L 2059 -325 
z
" transform="scale(0.015625)"/>
      <path id="DejaVuSans-61" d="M 2194 1759 
Q 1497 1759 1228 1600 
Q 959 1441 959 1056 
Q 959 750 1161 570 
Q 1363 391 1709 391 
Q 2188 391 2477 730 
Q 2766 1069 2766 1631 
L 2766 1759 
L 2194 1759 
z
M 3341 1997 
L 3341 0 
L 2766 0 
L 2766 531 
Q 2569 213 2275 61 
Q 1981 -91 1556 -91 
Q 1019 -91 701 211 
Q 384 513 384 1019 
Q 384 1609 779 1909 
Q 1175 2209 1959 2209 
L 2766 2209 
L 2766 2266 
Q 2766 2663 2505 2880 
Q 2244 3097 1772 3097 
Q 1472 3097 1187 3025 
Q 903 2953 641 2809 
L 641 3341 
Q 956 3463 1253 3523 
Q 1550 3584 1831 3584 
Q 2591 3584 2966 3190 
Q 3341 2797 3341 1997 
z
" transform="scale(0.015625)"/>
     </defs>
     <use xlink:href="#DejaVuSans-48"/>
     <use xlink:href="#DejaVuSans-6f" x="75.195312"/>
     <use xlink:href="#DejaVuSans-6c" x="136.376953"/>
     <use xlink:href="#DejaVuSans-64" x="164.160156"/>
     <use xlink:href="#DejaVuSans-20" x="227.636719"/>
     <use xlink:href="#DejaVuSans-50" x="259.423828"/>
     <use xlink:href="#DejaVuSans-65" x="316.101562"/>
     <use xlink:href="#DejaVuSans-72" x="377.625"/>
     <use xlink:href="#DejaVuSans-69" x="418.738281"/>
     <use xlink:href="#DejaVuSans-6f" x="446.521484"/>
     <use xlink:href="#DejaVuSans-64" x="507.703125"/>
     <use xlink:href="#DejaVuSans-20" x="571.179688"/>
     <use xlink:href="#DejaVuSans-44" x="602.966797"/>
     <use xlink:href="#DejaVuSans-69" x="679.96875"/>
     <use xlink:href="#DejaVuSans-73" x="707.751953"/>
     <use xlink:href="#DejaVuSans-74" x="759.851562"/>
     <use xlink:href="#DejaVuSans-72" x="799.060547"/>
     <use xlink:href="#DejaVuSans-69" x="840.173828"/>
     <use xlink:href="#DejaVuSans-62" x="867.957031"/>
     <use xlink:href="#DejaVuSans-75" x="931.433594"/>
     <use xlink:href="#DejaVuSans-74" x="994.8125"/>
     <use xlink:href="#DejaVuSans-69" x="1034.021484"/>
     <use xlink:href="#DejaVuSans-6f" x="1061.804688"/>
     <use xlink:href="#DejaVuSans-6e" x="1122.986328"/>
     <use xlink:href="#DejaVuSans-20" x="1186.365234"/>
     <use xlink:href="#DejaVuSans-62" x="1218.152344"/>
     <use xlink:href="#DejaVuSans-79" x="1281.628906"/>
     <use xlink:href="#DejaVuSans-20" x="1340.808594"/>
     <use xlink:href="#DejaVuSans-44" x="1372.595703"/>
     <use xlink:href="#DejaVuSans-54" x="1449.597656"/>
     <use xlink:href="#DejaVuSans-45" x="1510.681641"/>
     <use xlink:href="#DejaVuSans-20" x="1573.865234"/>
     <use xlink:href="#DejaVuSans-61" x="1605.652344"/>
     <use xlink:href="#DejaVuSans-74" x="1666.931641"/>
     <use xlink:href="#DejaVuSans-20" x="1706.140625"/>
     <use xlink:href="#DejaVuSans-45" x="1737.927734"/>
     <use xlink:href="#DejaVuSans-6e" x="1801.111328"/>
     <use xlink:href="#DejaVuSans-74" x="1864.490234"/>
     <use xlink:href="#DejaVuSans-72" x="1903.699219"/>
     <use xlink:href="#DejaVuSans-79" x="1944.8125"/>
    </g>
    <!-- (p10–p90 range, IQR shaded, median circle) -->
    <g transform="translate(220.494063 29.7555) scale(0.12 -0.12)">
     <defs>
      <path id="DejaVuSans-28" d="M 1984 4856 
Q 1566 4138 1362 3434 
Q 1159 2731 1159 2009 
Q 1159 1288 1364 580 
Q 1569 -128 1984 -844 
L 1484 -844 
Q 1016 -109 783 600 
Q 550 1309 550 2009 
Q 550 2706 781 3412 
Q 1013 4119 1484 4856 
L 1984 4856 
z
" transform="scale(0.015625)"/>
      <path id="DejaVuSans-70" d="M 1159 525 
L 1159 -1331 
L 581 -1331 
L 581 3500 
L 1159 3500 
L 1159 2969 
Q 1341 3281 1617 3432 
Q 1894 3584 2278 3584 
Q 2916 3584 3314 3078 
Q 3713 2572 3713 1747 
Q 3713 922 3314 415 
Q 2916 -91 2278 -91 
Q 1894 -91 1617 61 
Q 1341 213 1159 525 
z
M 3116 1747 
Q 3116 2381 2855 2742 
Q 2594 3103 2138 3103 
Q 1681 3103 1420 2742 
Q 1159 2381 1159 1747 
Q 1159 1113 1420 752 
Q 1681 391 2138 391 
Q 2594 391 2855 752 
Q 3116 1113 3116 1747 
z
" transform="scale(0.015625)"/>
      <path id="DejaVuSans-2013" d="M 313 1978 
L 2888 1978 
L 2888 1528 
L 313 1528 
L 313 1978 
z
" transform="scale(0.015625)"/>
      <path id="DejaVuSans-67" d="M 2906 1791 
Q 2906 2416 2648 2759 
Q 2391 3103 1925 3103 
Q 1463 3103 1205 2759 
Q 947 2416 947 1791 
Q 947 1169 1205 825 
Q 1463 481 1925 481 
Q 2391 481 2648 825 
Q 2906 1169 2906 1791 
z
M 3481 434 
Q 3481 -459 3084 -895 
Q 2688 -1331 1869 -1331 
Q 1566 -1331 1297 -1286 
Q 1028 -1241 775 -1147 
L 775 -588 
Q 1028 -725 1275 -790 
Q 1522 -856 1778 -856 
Q 2344 -856 2625 -561 
Q 2906 -266 2906 331 
L 2906 616 
Q 2728 306 2450 153 
Q 2172 0 1784 0 
Q 1141 0 747 490 
Q 353 981 353 1791 
Q 353 2603 747 3093 
Q 1141 3584 1784 3584 
Q 2172 3584 2450 3431 
Q 2728 3278 2906 2969 
L 2906 3500 
L 3481 3500 
L 3481 434 
z
" transform="scale(0.015625)"/>
      <path id="DejaVuSans-2c" d="M 750 794 
L 1409 794 
L 1409 256 
L 897 -744 
L 494 -744 
L 750 256 
L 750 794 
z
" transform="scale(0.015625)"/>
      <path id="DejaVuSans-49" d="M 628 4666 
L 1259 4666 
L 1259 0 
L 628 0 
L 628 4666 
z
" transform="scale(0.015625)"/>
      <path id="DejaVuSans-51" d="M 2522 4238 
Q 1834 4238 1429 3725 
Q 1025 3213 1025 2328 
Q 1025 1447 1429 934 
Q 1834 422 2522 422 
Q 3209 422 3611 934 
Q 4013 1447 4013 2328 
Q 4013 3213 3611 3725 
Q 3209 4238 2522 4238 
z
M 3406 84 
L 4238 -825 
L 3475 -825 
L 2784 -78 
Q 2681 -84 2626 -87 
Q 2572 -91 2522 -91 
Q 1538 -91 948 567 
Q 359 1225 359 2328 
Q 359 3434 948 4092 
Q 1538 4750 2522 4750 
Q 3503 4750 4090 4092 
Q 4678 3434 4678 2328 
Q 4678 1516 4351 937 
Q 4025 359 3406 84 
z
" transform="scale(0.015625)"/>
      <path id="DejaVuSans-52" d="M 2841 2188 
Q 3044 2119 3236 1894 
Q 3428 1669 3622 1275 
L 4263 0 
L 3584 0 
L 2988 1197 
Q 2756 1666 2539 1819 
Q 2322 1972 1947 1972 
L 1259 1972 
L 1259 0 
L 628 0 
L 628 4666 
L 2053 4666 
Q 2853 4666 3247 4331 
Q 3641 3997 3641 3322 
Q 3641 2881 3436 2590 
Q 3231 2300 2841 2188 
z
M 1259 4147 
L 1259 2491 
L 2053 2491 
Q 2509 2491 2742 2702 
Q 2975 2913 2975 3322 
Q 2975 3731 2742 3939 
Q 2509 4147 2053 4147 
L 1259 4147 
z
" transform="scale(0.015625)"/>
      <path id="DejaVuSans-6d" d="M 3328 2828 
Q 3544 3216 3844 3400 
Q 4144 3584 4550 3584 
Q 5097 3584 5394 3201 
Q 5691 2819 5691 2113 
L 5691 0 
L 5113 0 
L 5113 2094 
Q 5113 2597 4934 2840 
Q 4756 3084 4391 3084 
Q 3944 3084 3684 2787 
Q 3425 2491 3425 1978 
L 3425 0 
L 2847 0 
L 2847 2094 
Q 2847 2600 2669 2842 
Q 2491 3084 2119 3084 
Q 1678 3084 1418 2786 
Q 1159 2488 1159 1978 
L 1159 0 
L 581 0 
L 581 3500 
L 1159 3500 
L 1159 2956 
Q 1356 3278 1631 3431 
Q 1906 3584 2284 3584 
Q 2666 3584 2933 3390 
Q 3200 3197 3328 2828 
z
" transform="scale(0.015625)"/>
      <path id="DejaVuSans-63" d="M 3122 3366 
L 3122 2828 
Q 2878 2963 2633 3030 
Q 2388 3097 2138 3097 
Q 1578 3097 1268 2742 
Q 959 2388 959 1747 
Q 959 1106 1268 751 
Q 1578 397 2138 397 
Q 2388 397 2633 464 
Q 2878 531 3122 666 
L 3122 134 
Q 2881 22 2623 -34 
Q 2366 -91 2075 -91 
Q 1284 -91 818 406 
Q 353 903 353 1747 
Q 353 2603 823 3093 
Q 1294 3584 2113 3584 
Q 2378 3584 2631 3529 
Q 2884 3475 3122 3366 
z
" transform="scale(0.015625)"/>
      <path id="DejaVuSans-29" d="M 513 4856 
L 1013 4856 
Q 1481 4119 1714 3412 
Q 1947 2706 1947 2009 
Q 1947 1309 1714 600 
Q 1481 -109 1013 -844 
L 513 -844 
Q 928 -128 1133 580 
Q 1338 1288 1338 2009 
Q 1338 2731 1133 3434 
Q 928 4138 513 4856 
z
" transform="scale(0.015625)"/>
     </defs>
     <use xlink:href="#DejaVuSans-28"/>
     <use xlink:href="#DejaVuSans-70" x="39.013672"/>
     <use xlink:href="#DejaVuSans-31" x="102.490234"/>
     <use xlink:href="#DejaVuSans-30" x="166.113281"/>
     <use xlink:href="#DejaVuSans-2013" x="229.736328"/>
     <use xlink:href="#DejaVuSans-70" x="279.736328"/>
     <use xlink:href="#DejaVuSans-39" x="343.212891"/>
     <use xlink:href="#DejaVuSans-30" x="406.835938"/>
     <use xlink:href="#DejaVuSans-20" x="470.458984"/>
     <use xlink:href="#DejaVuSans-72" x="502.246094"/>
     <use xlink:href="#DejaVuSans-61" x="543.359375"/>
     <use xlink:href="#DejaVuSans-6e" x="604.638672"/>
     <use xlink:href="#DejaVuSans-67" x="668.017578"/>
     <use xlink:href="#DejaVuSans-65" x="731.494141"/>
     <use xlink:href="#DejaVuSans-2c" x="793.017578"/>
     <use xlink:href="#DejaVuSans-20" x="824.804688"/>
     <use xlink:href="#DejaVuSans-49" x="856.591797"/>
     <use xlink:href="#DejaVuSans-51" x="886.083984"/>
     <use xlink:href="#DejaVuSans-52" x="964.794922"/>
     <use xlink:href="#DejaVuSans-20" x="1034.277344"/>
     <use xlink:href="#DejaVuSans-73" x="1066.064453"/>
     <use xlink:href="#DejaVuSans-68" x="1118.164062"/>
     <use xlink:href="#DejaVuSans-61" x="1181.542969"/>
     <use xlink:href="#DejaVuSans-64" x="1242.822266"/>
     <use xlink:href="#DejaVuSans-65" x="1306.298828"/>
     <use xlink:href="#DejaVuSans-64" x="1367.822266"/>
     <use xlink:href="#DejaVuSans-2c" x="1431.298828"/>
     <use xlink:href="#DejaVuSans-20" x="1463.085938"/>
     <use xlink:href="#DejaVuSans-6d" x="1494.873047"/>
     <use xlink:href="#DejaVuSans-65" x="1592.285156"/>
     <use xlink:href="#DejaVuSans-64" x="1653.808594"/>
     <use xlink:href="#DejaVuSans-69" x="1717.285156"/>
     <use xlink:href="#DejaVuSans-61" x="1745.068359"/>
     <use xlink:href="#DejaVuSans-6e" x="1806.347656"/>
     <use xlink:href="#DejaVuSans-20" x="1869.726562"/>
     <use xlink:href="#DejaVuSans-63" x="1901.513672"/>
     <use xlink:href="#DejaVuSans-69" x="1956.494141"/>
     <use xlink:href="#DejaVuSans-72" x="1984.277344"/>
     <use xlink:href="#DejaVuSans-63" x="2023.140625"/>
     <use xlink:href="#DejaVuSans-6c" x="2078.121094"/>
     <use xlink:href="#DejaVuSans-65" x="2105.904297"/>
     <use xlink:href="#DejaVuSans-29" x="2167.427734"/>
    </g>
   </g>
   <g id="PathCollection_1">
    <defs>
     <path id="m3fab26ed09" d="M 0 3.872983 
C 1.027127 3.872983 2.012324 3.464901 2.738613 2.738613 
C 3.464901 2.012324 3.872983 1.027127 3.872983 0 
C 3.872983 -1.027127 3.464901 -2.012324 2.738613 -2.738613 
C 2.012324 -3.464901 1.027127 -3.872983 0 -3.872983 
C -1.027127 -3.872983 -2.012324 -3.464901 -2.738613 -2.738613 
C -3.464901 -2.012324 -3.872983 -1.027127 -3.872983 0 
C -3.872983 1.027127 -3.464901 2.012324 -2.738613 2.738613 
C -2.012324 3.464901 -1.027127 3.872983 0 3.872983 
z
" style="stroke: #2196f3"/>
    </defs>
    <g clip-path="url(#pa9b5f77c59)">
     <use xlink:href="#m3fab26ed09" x="90.829978" y="304.050603" style="fill: #ffffff; stroke: #2196f3"/>
     <use xlink:href="#m3fab26ed09" x="178.181027" y="297.225542" style="fill: #ffffff; stroke: #2196f3"/>
     <use xlink:href="#m3fab26ed09" x="265.532076" y="290.595483" style="fill: #ffffff; stroke: #2196f3"/>
     <use xlink:href="#m3fab26ed09" x="352.883125" y="290.751484" style="fill: #ffffff; stroke: #2196f3"/>
     <use xlink:href="#m3fab26ed09" x="440.234174" y="272.694322" style="fill: #ffffff; stroke: #2196f3"/>
     <use xlink:href="#m3fab26ed09" x="527.585223" y="246.876091" style="fill: #ffffff; stroke: #2196f3"/>
     <use xlink:href="#m3fab26ed09" x="614.936272" y="265.401257" style="fill: #ffffff; stroke: #2196f3"/>
    </g>
   </g>
   <g id="legend_1">
    <g id="patch_14">
     <path d="M 46.903125 82.586437 
L 140.411719 82.586437 
Q 142.211719 82.586437 142.211719 80.786437 
L 142.211719 42.0555 
Q 142.211719 40.2555 140.411719 40.2555 
L 46.903125 40.2555 
Q 45.103125 40.2555 45.103125 42.0555 
L 45.103125 80.786437 
Q 45.103125 82.586437 46.903125 82.586437 
z
" style="fill: #ffffff; opacity: 0.8; stroke: #cccccc; stroke-linejoin: miter"/>
    </g>
    <g id="line2d_16">
     <path d="M 48.703125 47.544094 
L 66.703125 47.544094 
" style="fill: none; stroke: #2196f3; stroke-width: 1.5"/>
    </g>
    <g id="text_25">
     <!-- p10–p90 -->
     <g transform="translate(73.903125 50.694094) scale(0.09 -0.09)">
      <use xlink:href="#DejaVuSans-70"/>
      <use xlink:href="#DejaVuSans-31" x="63.476562"/>
      <use xlink:href="#DejaVuSans-30" x="127.099609"/>
      <use xlink:href="#DejaVuSans-2013" x="190.722656"/>
      <use xlink:href="#DejaVuSans-70" x="240.722656"/>
      <use xlink:href="#DejaVuSans-39" x="304.199219"/>
      <use xlink:href="#DejaVuSans-30" x="367.822266"/>
     </g>
    </g>
    <g id="PathCollection_2">
     <g>
      <use xlink:href="#m3fab26ed09" x="57.703125" y="61.541906" style="fill: #ffffff; stroke: #2196f3"/>
     </g>
    </g>
    <g id="text_26">
     <!-- median -->
     <g transform="translate(73.903125 63.904406) scale(0.09 -0.09)">
      <use xlink:href="#DejaVuSans-6d"/>
      <use xlink:href="#DejaVuSans-65" x="97.412109"/>
      <use xlink:href="#DejaVuSans-64" x="158.935547"/>
      <use xlink:href="#DejaVuSans-69" x="222.412109"/>
      <use xlink:href="#DejaVuSans-61" x="250.195312"/>
      <use xlink:href="#DejaVuSans-6e" x="311.474609"/>
     </g>
    </g>
    <g id="patch_15">
     <path d="M 48.703125 77.114719 
L 66.703125 77.114719 
L 66.703125 70.814719 
L 48.703125 70.814719 
z
" style="fill: #2196f3; opacity: 0.6"/>
    </g>
    <g id="text_27">
     <!-- IQR (p25–p75) -->
     <g transform="translate(73.903125 77.114719) scale(0.09 -0.09)">
      <use xlink:href="#DejaVuSans-49"/>
      <use xlink:href="#DejaVuSans-51" x="29.492188"/>
      <use xlink:href="#DejaVuSans-52" x="108.203125"/>
      <use xlink:href="#DejaVuSans-20" x="177.685547"/>
      <use xlink:href="#DejaVuSans-28" x="209.472656"/>
      <use xlink:href="#DejaVuSans-70" x="248.486328"/>
      <use xlink:href="#DejaVuSans-32" x="311.962891"/>
      <use xlink:href="#DejaVuSans-35" x="375.585938"/>
      <use xlink:href="#DejaVuSans-2013" x="439.208984"/>
      <use xlink:href="#DejaVuSans-70" x="489.208984"/>
      <use xlink:href="#DejaVuSans-37" x="552.685547"/>
      <use xlink:href="#DejaVuSans-35" x="616.308594"/>
      <use xlink:href="#DejaVuSans-29" x="679.931641"/>
     </g>
    </g>
   </g>
  </g>
  <g id="axes_2">
   <g id="matplotlib.axis_3">
    <g id="ytick_9">
     <g id="line2d_17">
      <defs>
       <path id="m22b830cf72" d="M 0 0 
L 3.5 0 
" style="stroke: #000000; stroke-width: 0.8"/>
      </defs>
      <g>
       <use xlink:href="#m22b830cf72" x="665.163125" y="326.0195" style="stroke: #000000; stroke-width: 0.8"/>
      </g>
     </g>
     <g id="text_28">
      <!-- 0 -->
      <g transform="translate(672.163125 329.818719) scale(0.1 -0.1)">
       <use xlink:href="#DejaVuSans-30"/>
      </g>
     </g>
    </g>
    <g id="ytick_10">
     <g id="line2d_18">
      <g>
       <use xlink:href="#m22b830cf72" x="665.163125" y="270.731119" style="stroke: #000000; stroke-width: 0.8"/>
      </g>
     </g>
     <g id="text_29">
      <!-- 20 -->
      <g transform="translate(672.163125 274.530338) scale(0.1 -0.1)">
       <use xlink:href="#DejaVuSans-32"/>
       <use xlink:href="#DejaVuSans-30" x="63.623047"/>
      </g>
     </g>
    </g>
    <g id="ytick_11">
     <g id="line2d_19">
      <g>
       <use xlink:href="#m22b830cf72" x="665.163125" y="215.442738" style="stroke: #000000; stroke-width: 0.8"/>
      </g>
     </g>
     <g id="text_30">
      <!-- 40 -->
      <g transform="translate(672.163125 219.241957) scale(0.1 -0.1)">
       <use xlink:href="#DejaVuSans-34"/>
       <use xlink:href="#DejaVuSans-30" x="63.623047"/>
      </g>
     </g>
    </g>
    <g id="ytick_12">
     <g id="line2d_20">
      <g>
       <use xlink:href="#m22b830cf72" x="665.163125" y="160.154357" style="stroke: #000000; stroke-width: 0.8"/>
      </g>
     </g>
     <g id="text_31">
      <!-- 60 -->
      <g transform="translate(672.163125 163.953576) scale(0.1 -0.1)">
       <use xlink:href="#DejaVuSans-36"/>
       <use xlink:href="#DejaVuSans-30" x="63.623047"/>
      </g>
     </g>
    </g>
    <g id="ytick_13">
     <g id="line2d_21">
      <g>
       <use xlink:href="#m22b830cf72" x="665.163125" y="104.865976" style="stroke: #000000; stroke-width: 0.8"/>
      </g>
     </g>
     <g id="text_32">
      <!-- 80 -->
      <g transform="translate(672.163125 108.665195) scale(0.1 -0.1)">
       <use xlink:href="#DejaVuSans-38"/>
       <use xlink:href="#DejaVuSans-30" x="63.623047"/>
      </g>
     </g>
    </g>
    <g id="ytick_14">
     <g id="line2d_22">
      <g>
       <use xlink:href="#m22b830cf72" x="665.163125" y="49.577595" style="stroke: #000000; stroke-width: 0.8"/>
      </g>
     </g>
     <g id="text_33">
      <!-- 100 -->
      <g transform="translate(672.163125 53.376814) scale(0.1 -0.1)">
       <use xlink:href="#DejaVuSans-31"/>
       <use xlink:href="#DejaVuSans-30" x="63.623047"/>
       <use xlink:href="#DejaVuSans-30" x="127.246094"/>
      </g>
     </g>
    </g>
    <g id="text_34">
     <!-- % of trades exiting within threshold -->
     <g transform="translate(702.849063 270.077344) rotate(-90) scale(0.1 -0.1)">
      <defs>
       <path id="DejaVuSans-77" d="M 269 3500 
L 844 3500 
L 1563 769 
L 2278 3500 
L 2956 3500 
L 3675 769 
L 4391 3500 
L 4966 3500 
L 4050 0 
L 3372 0 
L 2619 2869 
L 1863 0 
L 1184 0 
L 269 3500 
z
" transform="scale(0.015625)"/>
      </defs>
      <use xlink:href="#DejaVuSans-25"/>
      <use xlink:href="#DejaVuSans-20" x="95.019531"/>
      <use xlink:href="#DejaVuSans-6f" x="126.806641"/>
      <use xlink:href="#DejaVuSans-66" x="187.988281"/>
      <use xlink:href="#DejaVuSans-20" x="223.193359"/>
      <use xlink:href="#DejaVuSans-74" x="254.980469"/>
      <use xlink:href="#DejaVuSans-72" x="294.189453"/>
      <use xlink:href="#DejaVuSans-61" x="335.302734"/>
      <use xlink:href="#DejaVuSans-64" x="396.582031"/>
      <use xlink:href="#DejaVuSans-65" x="460.058594"/>
      <use xlink:href="#DejaVuSans-73" x="521.582031"/>
      <use xlink:href="#DejaVuSans-20" x="573.681641"/>
      <use xlink:href="#DejaVuSans-65" x="605.46875"/>
      <use xlink:href="#DejaVuSans-78" x="665.242188"/>
      <use xlink:href="#DejaVuSans-69" x="724.421875"/>
      <use xlink:href="#DejaVuSans-74" x="752.205078"/>
      <use xlink:href="#DejaVuSans-69" x="791.414062"/>
      <use xlink:href="#DejaVuSans-6e" x="819.197266"/>
      <use xlink:href="#DejaVuSans-67" x="882.576172"/>
      <use xlink:href="#DejaVuSans-20" x="946.052734"/>
      <use xlink:href="#DejaVuSans-77" x="977.839844"/>
      <use xlink:href="#DejaVuSans-69" x="1059.626953"/>
      <use xlink:href="#DejaVuSans-74" x="1087.410156"/>
      <use xlink:href="#DejaVuSans-68" x="1126.619141"/>
      <use xlink:href="#DejaVuSans-69" x="1189.998047"/>
      <use xlink:href="#DejaVuSans-6e" x="1217.78125"/>
      <use xlink:href="#DejaVuSans-20" x="1281.160156"/>
      <use xlink:href="#DejaVuSans-74" x="1312.947266"/>
      <use xlink:href="#DejaVuSans-68" x="1352.15625"/>
      <use xlink:href="#DejaVuSans-72" x="1415.535156"/>
      <use xlink:href="#DejaVuSans-65" x="1454.398438"/>
      <use xlink:href="#DejaVuSans-73" x="1515.921875"/>
      <use xlink:href="#DejaVuSans-68" x="1568.021484"/>
      <use xlink:href="#DejaVuSans-6f" x="1631.400391"/>
      <use xlink:href="#DejaVuSans-6c" x="1692.582031"/>
      <use xlink:href="#DejaVuSans-64" x="1720.365234"/>
     </g>
    </g>
   </g>
   <g id="line2d_23">
    <path d="M 90.829978 149.511344 
L 178.181027 195.013681 
L 265.532076 219.893453 
L 352.883125 212.844184 
L 440.234174 270.979917 
L 527.585223 284.967877 
L 614.936272 266.225116 
" clip-path="url(#pa9b5f77c59)" style="fill: none; stroke-dasharray: 5.55,2.4; stroke-dashoffset: 0; stroke: #f44336; stroke-width: 1.5"/>
    <defs>
     <path id="mf6e23572c0" d="M -2.5 2.5 
L 2.5 2.5 
L 2.5 -2.5 
L -2.5 -2.5 
z
" style="stroke: #f44336; stroke-linejoin: miter"/>
    </defs>
    <g clip-path="url(#pa9b5f77c59)">
     <use xlink:href="#mf6e23572c0" x="90.829978" y="149.511344" style="fill: #f44336; stroke: #f44336; stroke-linejoin: miter"/>
     <use xlink:href="#mf6e23572c0" x="178.181027" y="195.013681" style="fill: #f44336; stroke: #f44336; stroke-linejoin: miter"/>
     <use xlink:href="#mf6e23572c0" x="265.532076" y="219.893453" style="fill: #f44336; stroke: #f44336; stroke-linejoin: miter"/>
     <use xlink:href="#mf6e23572c0" x="352.883125" y="212.844184" style="fill: #f44336; stroke: #f44336; stroke-linejoin: miter"/>
     <use xlink:href="#mf6e23572c0" x="440.234174" y="270.979917" style="fill: #f44336; stroke: #f44336; stroke-linejoin: miter"/>
     <use xlink:href="#mf6e23572c0" x="527.585223" y="284.967877" style="fill: #f44336; stroke: #f44336; stroke-linejoin: miter"/>
     <use xlink:href="#mf6e23572c0" x="614.936272" y="266.225116" style="fill: #f44336; stroke: #f44336; stroke-linejoin: miter"/>
    </g>
   </g>
   <g id="line2d_24">
    <path d="M 90.829978 51.595621 
L 178.181027 72.384052 
L 265.532076 89.689316 
L 352.883125 103.290257 
L 440.234174 96.323921 
L 527.585223 149.069037 
L 614.936272 156.339459 
" clip-path="url(#pa9b5f77c59)" style="fill: none; stroke-dasharray: 5.55,2.4; stroke-dashoffset: 0; stroke: #4caf50; stroke-width: 1.5"/>
    <defs>
     <path id="m65b3476d33" d="M -2.5 2.5 
L 2.5 2.5 
L 2.5 -2.5 
L -2.5 -2.5 
z
" style="stroke: #4caf50; stroke-linejoin: miter"/>
    </defs>
    <g clip-path="url(#pa9b5f77c59)">
     <use xlink:href="#m65b3476d33" x="90.829978" y="51.595621" style="fill: #4caf50; stroke: #4caf50; stroke-linejoin: miter"/>
     <use xlink:href="#m65b3476d33" x="178.181027" y="72.384052" style="fill: #4caf50; stroke: #4caf50; stroke-linejoin: miter"/>
     <use xlink:href="#m65b3476d33" x="265.532076" y="89.689316" style="fill: #4caf50; stroke: #4caf50; stroke-linejoin: miter"/>
     <use xlink:href="#m65b3476d33" x="352.883125" y="103.290257" style="fill: #4caf50; stroke: #4caf50; stroke-linejoin: miter"/>
     <use xlink:href="#m65b3476d33" x="440.234174" y="96.323921" style="fill: #4caf50; stroke: #4caf50; stroke-linejoin: miter"/>
     <use xlink:href="#m65b3476d33" x="527.585223" y="149.069037" style="fill: #4caf50; stroke: #4caf50; stroke-linejoin: miter"/>
     <use xlink:href="#m65b3476d33" x="614.936272" y="156.339459" style="fill: #4caf50; stroke: #4caf50; stroke-linejoin: miter"/>
    </g>
   </g>
   <g id="patch_16">
    <path d="M 40.603125 326.0195 
L 40.603125 35.7555 
" style="fill: none; stroke: #000000; stroke-width: 0.8; stroke-linejoin: miter; stroke-linecap: square"/>
   </g>
   <g id="patch_17">
    <path d="M 665.163125 326.0195 
L 665.163125 35.7555 
" style="fill: none; stroke: #000000; stroke-width: 0.8; stroke-linejoin: miter; stroke-linecap: square"/>
   </g>
   <g id="patch_18">
    <path d="M 40.603125 326.0195 
L 665.163125 326.0195 
" style="fill: none; stroke: #000000; stroke-width: 0.8; stroke-linejoin: miter; stroke-linecap: square"/>
   </g>
   <g id="patch_19">
    <path d="M 40.603125 35.7555 
L 665.163125 35.7555 
" style="fill: none; stroke: #000000; stroke-width: 0.8; stroke-linejoin: miter; stroke-linecap: square"/>
   </g>
   <g id="legend_2">
    <g id="patch_20">
     <path d="M 593.953438 69.376125 
L 658.863125 69.376125 
Q 660.663125 69.376125 660.663125 67.576125 
L 660.663125 42.0555 
Q 660.663125 40.2555 658.863125 40.2555 
L 593.953438 40.2555 
Q 592.153438 40.2555 592.153438 42.0555 
L 592.153438 67.576125 
Q 592.153438 69.376125 593.953438 69.376125 
z
" style="fill: #ffffff; opacity: 0.8; stroke: #cccccc; stroke-linejoin: miter"/>
    </g>
    <g id="line2d_25">
     <path d="M 595.753438 47.544094 
L 604.753438 47.544094 
L 613.753438 47.544094 
" style="fill: none; stroke-dasharray: 5.55,2.4; stroke-dashoffset: 0; stroke: #f44336; stroke-width: 1.5"/>
     <g>
      <use xlink:href="#mf6e23572c0" x="604.753438" y="47.544094" style="fill: #f44336; stroke: #f44336; stroke-linejoin: miter"/>
     </g>
    </g>
    <g id="text_35">
     <!-- % ≤4h -->
     <g transform="translate(620.953438 50.694094) scale(0.09 -0.09)">
      <defs>
       <path id="DejaVuSans-2264" d="M 4684 3175 
L 1684 2309 
L 4684 1453 
L 4684 897 
L 678 2047 
L 678 2578 
L 4684 3725 
L 4684 3175 
z
M 678 531 
L 4684 531 
L 4684 0 
L 678 0 
L 678 531 
z
" transform="scale(0.015625)"/>
      </defs>
      <use xlink:href="#DejaVuSans-25"/>
      <use xlink:href="#DejaVuSans-20" x="95.019531"/>
      <use xlink:href="#DejaVuSans-2264" x="126.806641"/>
      <use xlink:href="#DejaVuSans-34" x="210.595703"/>
      <use xlink:href="#DejaVuSans-68" x="274.21875"/>
     </g>
    </g>
    <g id="line2d_26">
     <path d="M 595.753438 60.754406 
L 604.753438 60.754406 
L 613.753438 60.754406 
" style="fill: none; stroke-dasharray: 5.55,2.4; stroke-dashoffset: 0; stroke: #4caf50; stroke-width: 1.5"/>
     <g>
      <use xlink:href="#m65b3476d33" x="604.753438" y="60.754406" style="fill: #4caf50; stroke: #4caf50; stroke-linejoin: miter"/>
     </g>
    </g>
    <g id="text_36">
     <!-- % ≤24h -->
     <g transform="translate(620.953438 63.904406) scale(0.09 -0.09)">
      <use xlink:href="#DejaVuSans-25"/>
      <use xlink:href="#DejaVuSans-20" x="95.019531"/>
      <use xlink:href="#DejaVuSans-2264" x="126.806641"/>
      <use xlink:href="#DejaVuSans-32" x="210.595703"/>
      <use xlink:href="#DejaVuSans-34" x="274.21875"/>
      <use xlink:href="#DejaVuSans-68" x="337.841797"/>
     </g>
    </g>
   </g>
  </g>
 </g>
 <defs>
  <clipPath id="pa9b5f77c59">
   <rect x="40.603125" y="35.7555" width="624.56" height="290.264"/>
  </clipPath>
 </defs>
</svg>
